<svg width="24" height="24" viewBox="0 0 24 24" fill="none" xmlns="http://www.w3.org/2000/svg">
<path d="M15.5004 17C15.5004 18 17.0004 20 17.5004 20C19.0004 20 20.3334 18.333 21.0004 17C21.6674 15.333 21.5004 11.167 19.5004 5.5C18.0434 4.485 16.5004 4.16 15.0004 4L14.0284 5.923C12.6874 5.6915 11.3165 5.6915 9.97544 5.923L9.00044 4C7.50044 4.16 5.95744 4.485 4.50044 5.5C2.50044 11.167 2.33344 15.333 3.00044 17C3.66744 18.333 5.00044 20 6.50044 20C7.00044 20 8.50044 18 8.50044 17M7.00044 16.5C10.5004 17.5 13.5004 17.5 17.0004 16.5M8.00044 12C8.00044 12.2652 8.10579 12.5196 8.29333 12.7071C8.48087 12.8946 8.73522 13 9.00044 13C9.26565 13 9.52001 12.8946 9.70754 12.7071C9.89508 12.5196 10.0004 12.2652 10.0004 12C10.0004 11.7348 9.89508 11.4804 9.70754 11.2929C9.52001 11.1054 9.26565 11 9.00044 11C8.73522 11 8.48087 11.1054 8.29333 11.2929C8.10579 11.4804 8.00044 11.7348 8.00044 12ZM14.0004 12C14.0004 12.2652 14.1058 12.5196 14.2933 12.7071C14.4809 12.8946 14.7352 13 15.0004 13C15.2657 13 15.52 12.8946 15.7075 12.7071C15.8951 12.5196 16.0004 12.2652 16.0004 12C16.0004 11.7348 15.8951 11.4804 15.7075 11.2929C15.52 11.1054 15.2657 11 15.0004 11C14.7352 11 14.4809 11.1054 14.2933 11.2929C14.1058 11.4804 14.0004 11.7348 14.0004 12Z" stroke="#F5F5F6" stroke-width="1.5" stroke-linecap="round" stroke-linejoin="round"/>
</svg>
