<svg width="18" height="18" viewBox="0 0 18 18" fill="none" xmlns="http://www.w3.org/2000/svg">
<path fill-rule="evenodd" clip-rule="evenodd" d="M6.35475 16.3503H1.0958V15.7755C1.0958 15.5109 1.31029 15.2964 1.57486 15.2964H1.67066V14.7216C1.67066 14.457 1.88513 14.2425 2.14969 14.2425V5.71556H1.62276L1 3.60777H3.77845V1.5H14.2216V3.60777H17L16.3772 5.71556H15.8503V14.2425C16.1149 14.2425 16.3293 14.457 16.3293 14.7216V15.2964H16.4251C16.6897 15.2964 16.9042 15.5109 16.9042 15.7755V16.3503H11.6512V15.7755C11.6512 15.5109 11.8656 15.2964 12.1302 15.2964H12.226V14.7216C12.226 14.4625 12.4317 14.2515 12.6886 14.2428V9.54791C12.5192 7.66789 10.9241 6.1946 9 6.1946C7.07587 6.1946 5.48082 7.66789 5.31138 9.54791V14.2426C5.57107 14.2482 5.7799 14.4605 5.7799 14.7216V15.009V15.2964H5.87569C6.14026 15.2964 6.35475 15.5109 6.35475 15.7755V16.3503Z" stroke="#F5F5F6" stroke-width="1.5"/>
</svg>
