<svg width="30" height="30" viewBox="0 0 30 30" fill="none" xmlns="http://www.w3.org/2000/svg">
<path d="M15 0.5C6.99187 0.5 0.5 6.99187 0.5 15C0.5 23.0081 6.99187 29.5 15 29.5C23.0081 29.5 29.5 23.0081 29.5 15C29.5 6.99187 23.0081 0.5 15 0.5Z" fill="#2775CA"/>
<path d="M15 0.5C6.99187 0.5 0.5 6.99187 0.5 15C0.5 23.0081 6.99187 29.5 15 29.5C23.0081 29.5 29.5 23.0081 29.5 15C29.5 6.99187 23.0081 0.5 15 0.5Z" stroke="url(#paint0_radial_2975_9319)"/>
<path d="M18.0578 16.5437C18.0766 15.2594 16.7531 14.3563 15.0453 14.1781C14.0422 14.0766 13.4969 13.7906 13.4969 13.1281C13.4969 12.4953 14.1406 12.025 14.8578 12.0641C16.1609 12.1375 16.35 12.9438 16.35 13.4359C16.35 13.4359 17.7688 13.4516 17.7688 13.4359C17.7688 12.2375 17.0781 11.1828 15.6672 10.8719V9.45312H14.2609V10.8219C12.8031 11.0531 11.9953 12.2281 11.9813 13.2281C11.9609 14.5516 13.0672 15.2875 14.9031 15.5531C16.0438 15.7094 16.5516 16.1453 16.5406 16.7234C16.5313 17.3484 16.1234 17.9469 14.9484 17.9469C13.8328 17.9469 13.375 17.2578 13.375 16.5313H11.8438C11.8438 17.8344 12.5406 18.7906 14.2531 19.0125V20.3781H15.6594V19.0266C17.6469 18.775 18.0453 17.2812 18.0578 16.5437Z" fill="white"/>
<path d="M8.18916 14.9996C8.1892 13.5728 8.6373 12.1821 9.47023 11.0237C10.3032 9.86527 11.4788 8.99768 12.8314 8.54336V7.04492C11.0864 7.5209 9.54632 8.55746 8.44846 9.9949C7.3506 11.4323 6.75586 13.1909 6.75586 14.9996C6.75586 16.8083 7.3506 18.5669 8.44846 20.0043C9.54632 21.4418 11.0864 22.4783 12.8314 22.9543V21.4559C11.4788 21.0015 10.3032 20.134 9.47023 18.9755C8.6373 17.8171 8.1892 16.4264 8.18916 14.9996Z" fill="white"/>
<path d="M17.0889 7.02148V8.51523C18.4602 8.95807 19.6559 9.82429 20.504 10.9894C21.3522 12.1545 21.8091 13.5585 21.8091 14.9996C21.8091 16.4407 21.3522 17.8447 20.504 19.0098C19.6559 20.1749 18.4602 21.0412 17.0889 21.484V22.9777C18.8521 22.5149 20.4123 21.481 21.5257 20.0376C22.6391 18.5941 23.243 16.8226 23.243 14.9996C23.243 13.1767 22.6391 11.4051 21.5257 9.96167C20.4123 8.51826 18.8521 7.48434 17.0889 7.02148Z" fill="white"/>
<defs>
<radialGradient id="paint0_radial_2975_9319" cx="0" cy="0" r="1" gradientUnits="userSpaceOnUse" gradientTransform="translate(15 1) rotate(90) scale(28)">
<stop stop-color="#EFEFEE" stop-opacity="0.04"/>
<stop offset="1" stop-color="#EFEFEE" stop-opacity="0.1"/>
</radialGradient>
</defs>
</svg>
