<svg width="150" height="220" viewBox="0 0 150 220" fill="none" xmlns="http://www.w3.org/2000/svg">
<path fill-rule="evenodd" clip-rule="evenodd" d="M16.4084 36.6418L17.0348 54.9154C17.0348 55.4986 17.402 55.9954 17.942 56.233L73.7565 79.3234C74.5989 79.669 75.4413 79.669 76.2837 79.3234L132.098 56.233C132.638 56.017 132.984 55.5202 133.005 54.9154L133.632 36.6418C133.632 36.145 133.351 35.713 132.876 35.5618L76.0677 16.3594C75.3549 16.1218 74.6637 16.1218 73.9509 16.3594L17.1428 35.5618C16.6676 35.713 16.3652 36.145 16.3868 36.6418H16.4084Z" fill="#8D48EB"/>
<path fill-rule="evenodd" clip-rule="evenodd" d="M17.0346 54.9176C17.0562 55.5008 17.4018 55.9976 17.9418 56.2136L73.7563 79.304C74.1883 79.4768 74.5987 79.5632 75.0307 79.5632V59.0432L16.6458 35.9312C16.4946 36.1256 16.4082 36.3848 16.4082 36.644L17.0346 54.9176Z" fill="url(#paint0_radial_12_245)"/>
<path style="mix-blend-mode:screen" opacity="0.4" fill-rule="evenodd" clip-rule="evenodd" d="M17.0361 54.9155C17.0577 55.4987 17.4033 55.9955 17.9433 56.2115L73.7578 79.3019C74.1898 79.4747 74.6002 79.5611 75.0322 79.5611C70.453 77.6171 52.957 69.7331 39.241 64.1603C27.9442 59.5595 22.1553 57.6371 19.4121 56.4491C17.0145 55.4339 17.0361 54.9155 17.0361 54.9155Z" fill="url(#paint1_radial_12_245)"/>
<path fill-rule="evenodd" clip-rule="evenodd" d="M16.625 35.9133L75.0099 59.0253L133.395 35.9133C133.265 35.7405 133.092 35.6109 132.876 35.5461L76.0683 16.3437C75.3555 16.1061 74.6643 16.1061 73.9515 16.3437L17.1434 35.5461C16.9274 35.6109 16.7546 35.7405 16.625 35.9133Z" fill="url(#paint2_radial_12_245)"/>
<path fill-rule="evenodd" clip-rule="evenodd" d="M16.4084 36.6418L17.0348 54.9154C17.0348 55.4986 17.402 55.9954 17.942 56.233L73.7565 79.3234C74.5989 79.669 75.4413 79.669 76.2837 79.3234L132.098 56.233C132.638 56.017 132.984 55.5202 133.005 54.9154L133.632 36.6418C133.632 36.145 133.351 35.713 132.876 35.5618L76.0677 16.3594C75.3549 16.1218 74.6637 16.1218 73.9509 16.3594L17.1428 35.5618C16.6676 35.713 16.3652 36.145 16.3868 36.6418H16.4084Z" fill="url(#paint3_radial_12_245)"/>
<path fill-rule="evenodd" clip-rule="evenodd" d="M75.0304 59.0432V79.5632C75.4408 79.5632 75.8728 79.4768 76.2832 79.304L132.098 56.2136C132.638 55.976 132.983 55.5008 133.005 54.9176L133.631 36.644C133.631 36.3632 133.545 36.1256 133.394 35.9312L75.0088 59.0432H75.0304Z" fill="url(#paint4_radial_12_245)"/>
<path style="mix-blend-mode:screen" opacity="0.2" fill-rule="evenodd" clip-rule="evenodd" d="M52.8907 50.2749C55.7635 51.5925 72.698 58.8501 73.6484 60.2757C74.534 61.5717 74.8796 73.3869 75.0308 75.7845C75.182 73.3653 75.5276 61.4205 76.3916 60.1245C77.2988 58.7421 89.114 53.6661 91.4252 52.5645C88.9844 53.4285 76.5428 58.1805 75.0092 58.1805C73.3028 58.1805 55.9579 51.4197 52.8691 50.2965L52.8907 50.2749Z" fill="url(#paint5_radial_12_245)"/>
<path style="mix-blend-mode:multiply" opacity="0.3" fill-rule="evenodd" clip-rule="evenodd" d="M17.0348 54.8993C17.9852 51.1193 17.726 39.6497 18.6116 39.0665C19.3676 38.5913 41.2269 46.1297 48.0093 48.3329C42.9549 46.1081 19.886 36.8417 19.886 36.1289C19.886 35.2433 41.3997 27.4457 43.6893 26.5601L17.1428 35.5241C16.6676 35.6753 16.3652 36.1073 16.3868 36.6041L17.0132 54.8777L17.0348 54.8993Z" fill="url(#paint6_radial_12_245)"/>
<path fill-rule="evenodd" clip-rule="evenodd" d="M75.6152 33.3745C68.0552 28.0825 64.1888 26.0953 55.4192 22.9849C54.7712 22.7689 54.1448 22.5313 53.4968 22.3153C52.8488 22.0777 52.1792 22.0129 51.5528 22.3153C47.7296 24.1081 43.7336 25.3825 39.6511 26.4409C39.2839 26.5489 39.0463 26.9161 39.0679 27.3049V28.1473C39.2839 28.0825 39.4783 28.0177 39.6727 27.9529C40.1911 28.1473 40.7311 28.3417 41.2495 28.5577C50.8616 32.2513 61.1 34.4113 71.36 35.9233L75.6368 33.3961L75.6152 33.3745Z" fill="url(#paint7_linear_12_245)"/>
<path fill-rule="evenodd" clip-rule="evenodd" d="M42.5245 27.9962C52.3526 31.841 62.051 33.6986 72.4838 35.2322C72.095 35.4482 71.7278 35.6858 71.339 35.9018C61.1006 34.3898 50.8622 32.2298 41.2285 28.5362C40.7101 28.3418 40.1701 28.1474 39.6517 27.9314C39.4573 27.9962 39.2629 28.061 39.0685 28.1258V27.2834C39.0685 26.8514 39.5437 26.8298 40.2133 27.089L42.5029 27.9962H42.5245Z" fill="url(#paint8_radial_12_245)"/>
<path fill-rule="evenodd" clip-rule="evenodd" d="M74.427 33.3745C81.9871 28.0825 85.8535 26.0953 94.6231 22.9849C95.2711 22.7689 95.8975 22.5313 96.5455 22.3153C97.1935 22.0777 97.8631 22.0129 98.4895 22.3153C102.313 24.1081 106.309 25.3825 110.391 26.4409C110.758 26.5489 110.996 26.9161 110.974 27.3049V28.1473C110.758 28.0825 110.564 28.0177 110.37 27.9529C109.851 28.1473 109.311 28.3417 108.793 28.5577C99.1807 32.2513 88.9423 34.4113 78.6823 35.9233C77.2567 35.0809 75.8311 34.2385 74.4055 33.3961L74.427 33.3745Z" fill="url(#paint9_linear_12_245)"/>
<path fill-rule="evenodd" clip-rule="evenodd" d="M107.541 27.9962C97.7135 31.841 88.015 33.6986 77.5822 35.2322C77.971 35.4482 78.3382 35.6858 78.727 35.9018C88.9654 34.3898 99.2039 32.2298 108.837 28.5362C109.356 28.3418 109.896 28.1474 110.414 27.9314C110.609 27.9962 110.803 28.061 110.997 28.1258V27.2834C110.997 26.8514 110.522 26.8298 109.853 27.089L107.563 27.9962H107.541Z" fill="url(#paint10_radial_12_245)"/>
<path fill-rule="evenodd" clip-rule="evenodd" d="M51.639 70.136L52.4598 70.4816C52.4598 70.8272 52.4598 71.0864 51.855 71.1728L50.667 71.3456C50.4942 71.3888 50.3214 71.3456 50.1702 71.3024L37.2966 65.7512C36.3894 65.3624 36.3894 64.7576 36.3678 63.8504L35.8926 45.1232C35.871 44.3672 36.303 43.7192 37.0158 43.46L40.4502 42.2072C50.2566 38.6 59.2422 36.224 69.7614 34.6472L75.399 36.3968C71.5326 41.2784 62.1582 45.4904 54.4254 48.4712L52.503 49.292C51.8334 49.5728 51.423 50.1776 51.423 50.8904L51.5958 70.1576L51.639 70.136Z" fill="url(#paint11_linear_12_245)"/>
<path fill-rule="evenodd" clip-rule="evenodd" d="M51.6405 70.1454L51.4677 50.8782C51.4677 50.1654 51.8997 49.5606 52.5477 49.2798L54.4701 48.459C62.1813 45.4782 71.5773 41.2878 75.4437 36.3846L74.8389 36.1902C69.7197 41.8062 58.8333 45.7806 51.3381 48.6318C50.5173 48.9342 50.0637 49.9494 50.0637 50.8134C50.0637 55.6302 50.1717 62.5422 50.3661 70.2966C50.3661 70.7286 50.1933 71.3982 51.3597 71.2254L51.8781 71.1606C52.4829 71.0742 52.4829 70.815 52.4829 70.4694L51.6621 70.1238L51.6405 70.1454Z" fill="url(#paint12_radial_12_245)"/>
<path fill-rule="evenodd" clip-rule="evenodd" d="M98.4028 70.1574L97.582 70.503C97.582 70.8486 97.582 71.1078 98.1868 71.1942L99.3748 71.367C99.5476 71.4102 99.7204 71.367 99.8716 71.3238L112.745 65.7942C113.652 65.4054 113.652 64.8006 113.674 63.8934L114.149 45.1662C114.171 44.4102 113.739 43.7622 113.026 43.503L109.592 42.2502C99.7852 38.643 90.7996 36.267 80.2804 34.6902L74.6428 36.4398C78.5092 41.3214 87.8836 45.5334 95.6164 48.5142L97.5388 49.335C98.2084 49.6158 98.6188 50.2206 98.6188 50.9334L98.446 70.2006L98.4028 70.1574Z" fill="url(#paint13_linear_12_245)"/>
<path fill-rule="evenodd" clip-rule="evenodd" d="M98.4021 70.1571L98.5749 50.8899C98.5749 50.1771 98.1429 49.5723 97.4949 49.2915L95.5725 48.4707C87.8613 45.4899 78.4652 41.2995 74.5988 36.3963L75.2036 36.2019C80.3228 41.8179 91.2093 45.7923 98.7045 48.6435C99.5253 48.9459 99.9789 49.9611 99.9789 50.8251C99.9789 55.6419 99.8709 62.5539 99.6765 70.3083C99.6765 70.7403 99.8492 71.4099 98.6828 71.2371L98.1645 71.1723C97.5597 71.0859 97.5597 70.8267 97.5597 70.4811L98.3804 70.1355L98.4021 70.1571Z" fill="url(#paint14_radial_12_245)"/>
<path style="mix-blend-mode:screen" fill-rule="evenodd" clip-rule="evenodd" d="M90.8428 45.5767C92.182 45.9655 96.178 47.3479 98.5324 48.3631C99.7852 48.9031 100.26 49.6591 100.239 51.3871C100.174 54.5191 100.066 60.8263 99.8716 62.4247C99.8068 60.9127 99.7636 54.4543 99.6772 51.3871C99.634 49.9615 99.3748 49.4215 98.338 48.8167C96.286 47.6071 92.2036 46.2031 90.8428 45.5767Z" fill="url(#paint15_radial_12_245)"/>
<path style="mix-blend-mode:screen" fill-rule="evenodd" clip-rule="evenodd" d="M59.1997 45.5613C57.8604 45.9501 53.8644 47.3325 51.51 48.3477C50.2572 48.8877 49.782 49.6437 49.8036 51.3717C49.8684 54.5037 50.1276 62.3877 50.3436 70.2933C50.2788 61.3077 50.2788 54.4173 50.3436 51.3717C50.3868 49.9461 50.646 49.4061 51.6828 48.8013C53.7348 47.5917 57.8172 46.1877 59.178 45.5613H59.1997Z" fill="url(#paint16_radial_12_245)"/>
<g opacity="0.75">
<g style="mix-blend-mode:screen">
<path d="M37.0616 44.6434C37.0616 44.6434 36.9968 44.7946 36.9104 44.7946C36.824 44.7946 36.7592 44.7298 36.7592 44.6434C36.7592 44.557 36.824 44.4922 36.9104 44.4922C36.9968 44.4922 37.0616 44.557 37.0616 44.6434Z" fill="#745CFF"/>
</g>
<g style="mix-blend-mode:screen">
<path d="M36.9086 45.0368C37.1233 45.0368 37.2974 44.8627 37.2974 44.648C37.2974 44.4332 37.1233 44.2592 36.9086 44.2592C36.6939 44.2592 36.5198 44.4332 36.5198 44.648C36.5198 44.8627 36.6939 45.0368 36.9086 45.0368Z" fill="#A197FF"/>
</g>
</g>
<path fill-rule="evenodd" clip-rule="evenodd" d="M92.6127 10.3464C92.8719 19.1592 87.6663 24.9265 81.5103 28.8577C80.1711 30.8017 78.8535 32.7241 77.6223 34.6033C83.9295 33.4153 92.1808 32.0328 98.6608 28.944C102.549 27.108 106.458 23.5872 108.381 19.0728C110.562 13.9968 109.958 7.45205 105.314 6.30725C104.946 6.24245 104.579 6.17765 104.212 6.11285C104.018 6.11285 103.845 6.09125 103.65 6.06965C98.596 5.78885 95.2696 7.86245 92.6344 10.3248L92.6127 10.3464Z" fill="url(#paint17_linear_12_245)"/>
<path fill-rule="evenodd" clip-rule="evenodd" d="M73.5834 32.8904L77.5794 34.4672C81.5322 28.6784 85.5282 22.9544 89.7402 17.36C94.0818 11.6144 98.013 5.67439 104.601 5.56639C99.1579 4.78879 94.9242 3.36319 90.4962 1.54879C86.6946 -0.00641182 83.6706 1.72159 81.5322 7.12159C78.2274 15.4376 75.765 24.2288 73.5618 32.8904H73.5834Z" fill="url(#paint18_linear_12_245)"/>
<path d="M77.1912 34.3156C80.8848 28.7428 84.7513 23.2348 88.8121 17.8996C92.5705 12.9748 98.6185 2.80117 106.33 6.10597C110.347 7.81237 110.585 13.234 109.678 16.8844C108.9 20.038 107.151 22.846 104.883 25.1356C98.5969 31.5076 87.5377 33.3004 79.092 34.8556L76.5432 35.3308L77.2128 34.3156H77.1912ZM77.688 34.3804C86.7169 32.2852 100.541 30.3844 105.919 21.6796C108.965 16.7548 110.282 10.0804 105.682 7.53157C100.217 4.50757 93.3265 14.0764 89.9569 18.5044C86.1553 23.494 81.9217 29.542 77.688 34.402V34.3804Z" fill="url(#paint19_radial_12_245)"/>
<path fill-rule="evenodd" clip-rule="evenodd" d="M76.7786 30.913C77.3186 31.7986 78.2042 31.9714 78.4202 32.5978C78.6578 33.3538 78.3122 35.2546 77.297 35.9026C78.3986 35.7298 81.2714 35.4058 81.941 34.3474C82.481 33.4834 82.6106 31.0858 81.3362 30.2866C80.5586 29.7898 80.213 30.373 79.1978 30.5674C78.3122 30.7402 77.3618 30.8914 76.8002 30.9346L76.7786 30.913Z" fill="url(#paint20_linear_12_245)"/>
<path fill-rule="evenodd" clip-rule="evenodd" d="M54.7465 34.5572C59.4985 47.1932 69.3913 39.1148 77.9665 34.6652L73.6465 32.8724C67.9657 34.4708 60.3409 35.1404 54.7249 34.5572H54.7465Z" fill="url(#paint21_linear_12_245)"/>
<path fill-rule="evenodd" clip-rule="evenodd" d="M48.3763 12.7382C50.9899 12.1766 52.0915 12.479 55.2883 13.8182C58.3771 15.1142 61.0555 16.3238 64.2739 17.231C67.6219 18.1814 68.9611 18.2678 70.6027 20.147C71.6395 21.335 72.4603 22.8254 73.1947 24.3374C74.7931 27.5558 76.3483 30.4502 78.4219 33.4094C78.3355 33.863 78.2707 34.3382 78.1843 34.7918C75.7219 33.9926 73.7995 33.1718 71.7475 31.7894C67.1899 28.7222 63.9067 24.0782 60.3427 19.9958C57.9235 17.231 55.3315 14.8766 51.2706 13.343C50.2338 12.9542 49.2619 12.7598 48.3763 12.7598V12.7382Z" fill="url(#paint22_linear_12_245)"/>
<path fill-rule="evenodd" clip-rule="evenodd" d="M68.2694 18.0553C64.943 18.2497 63.323 19.4809 60.5582 22.4833C58.0742 25.2049 56.0438 28.8553 55.6118 32.5705C55.2446 35.7673 56.1734 38.8345 59.2406 41.1457C54.0134 38.7481 48.9806 36.5017 43.0838 34.7737C42.0254 34.2985 41.0965 33.6505 40.3405 32.8729C32.8669 25.2481 41.7445 11.7913 51.3782 12.0721C51.9398 12.0721 52.4798 12.1369 52.955 12.3529C57.8582 14.5993 62.351 16.5433 68.2694 18.0769V18.0553Z" fill="url(#paint23_linear_12_245)"/>
<path fill-rule="evenodd" clip-rule="evenodd" d="M67.1465 19.0243C69.0689 18.8947 70.4729 20.5147 71.2073 21.7027C72.3953 23.5819 73.2809 25.6339 74.3177 27.5995C75.3545 29.5651 76.8665 31.7251 78.1625 33.5395L77.9681 34.2307C76.0241 35.3755 73.8209 36.6715 71.8553 37.7947C69.6737 39.0259 67.0169 40.1923 64.5761 40.7539C62.0273 41.3371 59.1761 40.8619 57.5129 38.4859C55.2017 35.1595 56.7785 30.1051 58.5281 26.8867C59.5865 24.9643 61.0337 22.7827 62.6969 21.3355C63.8849 20.2771 65.5481 19.1755 67.1897 19.0675L67.1465 19.0243ZM66.9305 17.9443C60.3641 18.3763 51.7889 32.2003 56.4761 38.8747C57.1457 39.8251 58.0313 40.5811 59.0897 41.0779C60.6233 41.8123 62.5457 42.0067 64.7489 41.5315C69.2417 40.5595 74.2313 37.0819 78.1841 34.7923L78.6809 33.2587C76.2617 29.9539 73.9505 24.9211 71.9417 21.3139C70.9697 19.5643 69.7169 18.3979 68.2265 18.0523C67.8161 17.9659 67.3841 17.9227 66.9521 17.9443H66.9305Z" fill="url(#paint24_radial_12_245)"/>
<path style="mix-blend-mode:screen" fill-rule="evenodd" clip-rule="evenodd" d="M65.4625 18.2474C58.9825 21.5306 55.0945 29.177 55.3537 36.2402C54.0793 30.1706 58.4425 20.645 65.4625 18.2474Z" fill="url(#paint25_radial_12_245)"/>
<path style="mix-blend-mode:screen" fill-rule="evenodd" clip-rule="evenodd" d="M81.7903 27.5398C85.9807 21.0166 94.0807 7.55976 100.15 6.13416C93.2383 10.3462 86.8663 20.9518 81.7903 27.5398Z" fill="url(#paint26_radial_12_245)"/>
<mask id="mask0_12_245" style="mask-type:luminance" maskUnits="userSpaceOnUse" x="76" y="5" width="35" height="31">
<path d="M77.1934 34.309C80.887 28.7362 84.7534 23.2282 88.8142 17.893C92.5726 12.9682 98.6206 2.79457 106.332 6.09937C110.349 7.80577 110.587 13.2274 109.68 16.8778C108.902 20.0314 107.153 22.8394 104.885 25.129C98.599 31.501 87.5398 33.2938 79.0942 34.849L76.5454 35.3242L77.215 34.309H77.1934ZM77.6902 34.3738C86.719 32.2786 100.543 30.3778 105.921 21.673C108.967 16.7482 110.285 10.0738 105.684 7.52497C100.219 4.50097 93.3286 14.0698 89.959 18.4978C86.1574 23.4874 81.9238 29.5354 77.6902 34.3954V34.3738Z" fill="white"/>
</mask>
<g mask="url(#mask0_12_245)">
<g style="mix-blend-mode:screen">
<g style="mix-blend-mode:screen">
<path d="M97.9275 7.1674C97.9275 7.3186 97.7979 7.4482 97.6467 7.4482C97.4955 7.4482 97.3659 7.3186 97.3659 7.1674C97.3659 7.0162 97.4955 6.8866 97.6467 6.8866C97.7979 6.8866 97.9275 7.0162 97.9275 7.1674Z" fill="#6083BA"/>
</g>
<g style="mix-blend-mode:screen">
<path d="M98.3615 7.16117C98.3615 7.54997 98.059 7.85237 97.6702 7.85237C97.2814 7.85237 96.9791 7.54997 96.9791 7.16117C96.9791 6.77237 97.2814 6.46997 97.6702 6.46997C98.059 6.46997 98.3615 6.77237 98.3615 7.16117Z" fill="#A0AFC6"/>
</g>
</g>
<g style="mix-blend-mode:screen">
<g style="mix-blend-mode:screen">
<path d="M105.728 28.8699C105.883 28.8699 106.008 28.7441 106.008 28.5891C106.008 28.434 105.883 28.3083 105.728 28.3083C105.573 28.3083 105.447 28.434 105.447 28.5891C105.447 28.7441 105.573 28.8699 105.728 28.8699Z" fill="#A0AFC6"/>
</g>
<g style="mix-blend-mode:screen">
<path d="M105.727 29.2782C106.109 29.2782 106.418 28.9687 106.418 28.587C106.418 28.2052 106.109 27.8958 105.727 27.8958C105.345 27.8958 105.036 28.2052 105.036 28.587C105.036 28.9687 105.345 29.2782 105.727 29.2782Z" fill="#A0AFC6"/>
</g>
</g>
</g>
<mask id="mask1_12_245" style="mask-type:luminance" maskUnits="userSpaceOnUse" x="55" y="17" width="24" height="25">
<path d="M67.1487 19.0256C69.0711 18.896 70.4751 20.516 71.2095 21.704C72.3975 23.5832 73.2831 25.6352 74.3199 27.6008C75.3567 29.5664 76.8687 31.7264 78.1647 33.5408L77.9703 34.232C76.0263 35.3768 73.8231 36.6728 71.8575 37.796C69.6759 39.0272 67.0191 40.1936 64.5782 40.7552C62.0294 41.3384 59.1782 40.8632 57.515 38.4872C55.2038 35.1608 56.7806 30.1064 58.5302 26.888C59.5886 24.9656 61.0358 22.784 62.699 21.3368C63.887 20.2784 65.5502 19.1768 67.1918 19.0688L67.1487 19.0256ZM66.9326 17.9456C60.3662 18.3776 51.791 32.2016 56.4782 38.876C57.1478 39.8264 58.0334 40.5824 59.0918 41.0792C60.6254 41.8136 62.5478 42.008 64.7511 41.5328C69.2439 40.5608 74.2335 37.0832 78.1863 34.7936L78.6831 33.26C76.2639 29.9552 73.9527 24.9224 71.9439 21.3152C70.9719 19.5656 69.7191 18.3992 68.2287 18.0536C67.8183 17.9672 67.3862 17.924 66.9542 17.9456H66.9326Z" fill="white"/>
</mask>
<g mask="url(#mask1_12_245)">
<g style="mix-blend-mode:screen">
<g style="mix-blend-mode:screen">
<path d="M56.1085 22.9558C56.2516 22.9558 56.3677 22.8397 56.3677 22.6966C56.3677 22.5534 56.2516 22.4374 56.1085 22.4374C55.9653 22.4374 55.8493 22.5534 55.8493 22.6966C55.8493 22.8397 55.9653 22.9558 56.1085 22.9558Z" fill="#A0AFC6"/>
</g>
<g style="mix-blend-mode:screen">
<path d="M56.7575 22.6961C56.7575 23.0633 56.4767 23.3441 56.1095 23.3441C55.7423 23.3441 55.4615 23.0633 55.4615 22.6961C55.4615 22.3289 55.7423 22.0481 56.1095 22.0481C56.4767 22.0481 56.7575 22.3289 56.7575 22.6961Z" fill="#A0AFC6"/>
</g>
</g>
</g>
<path style="mix-blend-mode:screen" opacity="0.75" d="M91.0362 31.1634C98.1426 28.809 105.681 24.9426 108.079 16.9074C107.517 19.7586 105.227 27.729 91.0362 31.1634Z" fill="url(#paint27_radial_12_245)"/>
<path fill-rule="evenodd" clip-rule="evenodd" d="M78.7021 32.2727C78.5941 31.8407 78.162 31.6247 77.514 31.5599C77.6652 31.7975 77.8164 32.0351 77.9676 32.2727C78.2484 32.4023 77.8597 34.8863 77.6437 35.0807C77.6005 35.1239 77.5572 35.1455 77.4924 35.1455C77.082 35.3831 76.65 35.6423 76.218 35.9015C76.2828 35.9015 76.3045 35.9015 76.3261 35.9015C76.8445 35.9015 77.6869 35.9447 78.0973 35.5127C78.3781 35.2319 78.5509 34.7135 78.6373 34.1519C78.7237 33.4823 78.7885 32.6183 78.6805 32.2295L78.7021 32.2727Z" fill="url(#paint28_radial_12_245)"/>
<g opacity="0.75">
<g style="mix-blend-mode:screen">
<path d="M98.5309 7.11493C98.5309 7.11493 98.4445 7.30933 98.3365 7.30933C98.2285 7.30933 98.1421 7.22293 98.1421 7.11493C98.1421 7.00693 98.2285 6.92053 98.3365 6.92053C98.4445 6.92053 98.5309 7.00693 98.5309 7.11493Z" fill="#E8C169"/>
</g>
<g style="mix-blend-mode:screen">
<path d="M98.8328 7.11789C98.8328 7.39869 98.6169 7.61469 98.3361 7.61469C98.0553 7.61469 97.8392 7.39869 97.8392 7.11789C97.8392 6.83709 98.0553 6.62109 98.3361 6.62109C98.6169 6.62109 98.8328 6.83709 98.8328 7.11789Z" fill="#A0AFC6"/>
</g>
</g>
<g style="mix-blend-mode:screen">
<path fill-rule="evenodd" clip-rule="evenodd" d="M89.7405 2.17385C91.231 2.36825 92.743 2.64905 94.2118 2.97305C92.9806 2.54105 91.7494 2.06585 90.5182 1.54745C86.7165 -0.00775459 83.6926 1.72025 81.5541 7.12025C80.2797 10.317 79.1349 13.6002 78.0765 16.905C79.4157 13.557 81.2949 8.99945 82.9797 5.97545C84.4701 3.27545 86.6302 1.76345 89.7622 2.15225L89.7405 2.17385Z" fill="url(#paint29_radial_12_245)"/>
<path fill-rule="evenodd" clip-rule="evenodd" d="M60.7531 15.6578C58.0963 14.6426 55.5907 13.541 52.9771 12.3314C52.5019 12.1154 51.9619 12.0722 51.4003 12.0506C42.6091 11.813 34.4443 23.0018 38.7643 30.7346C36.6259 24.5138 39.7795 17.5802 46.1947 14.7074C49.1539 13.3898 52.6099 13.3466 56.6059 14.3834C57.9667 14.729 59.3923 15.2042 60.7747 15.6362L60.7531 15.6578Z" fill="url(#paint30_radial_12_245)"/>
</g>
<path fill-rule="evenodd" clip-rule="evenodd" d="M77.9457 34.6213C78.1617 34.7077 78.3993 34.7941 78.6153 34.8805C89.3505 27.3421 99.2433 24.7717 114.061 30.4525C114.32 29.0917 114.601 26.8237 114.536 24.8149C116.588 24.0589 118.899 23.0869 120.822 21.9637C116.934 20.3005 111.771 18.9397 105.551 19.6093C95.7441 20.6461 83.9937 27.5797 77.9241 34.6213H77.9457Z" fill="url(#paint31_linear_12_245)"/>
<path fill-rule="evenodd" clip-rule="evenodd" d="M79.22 35.2863C88.0976 28.5903 99.1352 25.7391 113.391 31.6791C113.586 31.4199 113.931 30.7503 114.061 30.4479C99.2216 24.7671 89.3504 27.3375 78.6152 34.8759C78.3992 34.7895 78.1616 34.7031 77.9456 34.6167C78.1616 34.7031 79.004 35.1999 79.2416 35.2863H79.22Z" fill="url(#paint32_radial_12_245)"/>
<path fill-rule="evenodd" clip-rule="evenodd" d="M114.537 24.8174C114.537 25.1198 114.537 25.4438 114.537 25.7462C116.568 25.0766 118.944 24.2774 120.823 23.2406V21.9662C118.901 23.0894 116.589 24.0614 114.537 24.8174Z" fill="url(#paint33_radial_12_245)"/>
<path fill-rule="evenodd" clip-rule="evenodd" d="M82.7631 34.7531C77.4495 34.5803 73.3455 34.2131 68.9607 33.6083C68.3343 33.5219 67.7943 33.6083 67.2111 33.8459C63.3663 35.4659 61.2495 42.8099 60.6663 46.3739C60.8391 46.9139 60.9687 47.2163 61.1631 47.6699C65.0079 46.3523 68.6583 45.4019 72.5895 44.8619C76.3047 46.1363 79.7175 48.0371 83.1519 49.9163C83.3247 49.6355 83.4975 49.0739 83.6487 48.6203C84.3399 45.0995 84.8799 39.5915 84.3183 36.4595C84.0807 35.1635 83.8215 34.7963 82.7847 34.7747L82.7631 34.7531Z" fill="url(#paint34_radial_12_245)"/>
<path fill-rule="evenodd" clip-rule="evenodd" d="M83.2168 33.2219C77.7088 33.0491 73.4752 32.6603 68.9176 32.0339C68.2696 31.9475 67.708 32.0339 67.1032 32.2715C62.3728 34.2587 60.9472 43.8923 60.6448 46.3547C64.6192 44.9939 68.6368 43.9355 72.6976 43.3739C76.5424 44.6915 80.0848 46.6571 83.6272 48.6011C84.3832 45.0803 85.4849 38.6867 84.7937 34.9715C84.556 33.6323 84.2752 33.2435 83.2168 33.2219Z" fill="url(#paint35_linear_12_245)"/>
<defs>
<radialGradient id="paint0_radial_12_245" cx="0" cy="0" r="1" gradientUnits="userSpaceOnUse" gradientTransform="translate(66.2114 46.8847) scale(97.0125 88.4649)">
<stop stop-color="#B882FF"/>
<stop offset="1" stop-color="#7A35E0"/>
</radialGradient>
<radialGradient id="paint1_radial_12_245" cx="0" cy="0" r="1" gradientUnits="userSpaceOnUse" gradientTransform="translate(29.6506 69.4091) scale(40.0033 40.0032)">
<stop stop-color="#C74AD9"/>
<stop offset="1"/>
</radialGradient>
<radialGradient id="paint2_radial_12_245" cx="0" cy="0" r="1" gradientUnits="userSpaceOnUse" gradientTransform="translate(48.0531 54.6189) scale(101.585 101.585)">
<stop stop-color="#D570FF"/>
<stop offset="1" stop-color="#8300B3"/>
</radialGradient>
<radialGradient id="paint3_radial_12_245" cx="0" cy="0" r="1" gradientUnits="userSpaceOnUse" gradientTransform="translate(27.0282 19.776) scale(431.616 116.373)">
<stop stop-color="#9651F2"/>
<stop offset="1" stop-color="#6925CE"/>
</radialGradient>
<radialGradient id="paint4_radial_12_245" cx="0" cy="0" r="1" gradientUnits="userSpaceOnUse" gradientTransform="translate(157.197 32.324) scale(139.01 66.819)">
<stop stop-color="#8E35EA"/>
<stop offset="1" stop-color="#6B0DCE"/>
</radialGradient>
<radialGradient id="paint5_radial_12_245" cx="0" cy="0" r="1" gradientUnits="userSpaceOnUse" gradientTransform="translate(19.202 59.3294) scale(92.5187 22.7076)">
<stop/>
<stop offset="1" stop-color="#F4C2FF"/>
</radialGradient>
<radialGradient id="paint6_radial_12_245" cx="0" cy="0" r="1" gradientUnits="userSpaceOnUse" gradientTransform="translate(24.0805 37.3521) scale(59.7594 34.5074)">
<stop stop-color="#D26FE2"/>
<stop offset="1" stop-color="#670C7A"/>
</radialGradient>
<linearGradient id="paint7_linear_12_245" x1="39.0679" y1="29.0113" x2="75.6152" y2="29.0113" gradientUnits="userSpaceOnUse">
<stop stop-color="#FFBD00"/>
<stop offset="1" stop-color="#D67200"/>
</linearGradient>
<radialGradient id="paint8_radial_12_245" cx="0" cy="0" r="1" gradientUnits="userSpaceOnUse" gradientTransform="translate(44.8574 27.8234) scale(22.0752 22.0752)">
<stop stop-color="#FFC382"/>
<stop offset="1" stop-color="#9E2410"/>
</radialGradient>
<linearGradient id="paint9_linear_12_245" x1="74.4271" y1="29.0113" x2="110.996" y2="29.0113" gradientUnits="userSpaceOnUse">
<stop stop-color="#A63A00"/>
<stop offset="1" stop-color="#FFBD00"/>
</linearGradient>
<radialGradient id="paint10_radial_12_245" cx="0" cy="0" r="1" gradientUnits="userSpaceOnUse" gradientTransform="translate(101.321 20.4146) scale(25.4233 25.4232)">
<stop stop-color="#E8814D"/>
<stop offset="1" stop-color="#9E3726"/>
</radialGradient>
<linearGradient id="paint11_linear_12_245" x1="43.7766" y1="68.5592" x2="60.1925" y2="29.8952" gradientUnits="userSpaceOnUse">
<stop stop-color="#D97130"/>
<stop offset="0.01" stop-color="#DE7927"/>
<stop offset="0.02" stop-color="#EA8E11"/>
<stop offset="0.04" stop-color="#F29B04"/>
<stop offset="0.05" stop-color="#F5A000"/>
<stop offset="0.36" stop-color="#F5AF00"/>
<stop offset="0.46" stop-color="#FFDD57"/>
<stop offset="0.58" stop-color="#FFB54D"/>
<stop offset="1" stop-color="#E08A00"/>
</linearGradient>
<radialGradient id="paint12_radial_12_245" cx="0" cy="0" r="1" gradientUnits="userSpaceOnUse" gradientTransform="translate(51.1869 50.3814) scale(21.3408 21.3408)">
<stop stop-color="#E8814D"/>
<stop offset="1" stop-color="#9E3726"/>
</radialGradient>
<linearGradient id="paint13_linear_12_245" x1="90.1516" y1="30.111" x2="105.812" y2="68.9046" gradientUnits="userSpaceOnUse">
<stop stop-color="#B05B00"/>
<stop offset="0.42" stop-color="#F5A000"/>
<stop offset="0.54" stop-color="#FFCC14"/>
<stop offset="0.64" stop-color="#F5A000"/>
<stop offset="0.95" stop-color="#BD6500"/>
<stop offset="0.97" stop-color="#B86200"/>
<stop offset="0.98" stop-color="#AB5900"/>
<stop offset="0.99" stop-color="#A15300"/>
</linearGradient>
<radialGradient id="paint14_radial_12_245" cx="0" cy="0" r="1" gradientUnits="userSpaceOnUse" gradientTransform="translate(100.324 49.7883) scale(26.3304 26.3304)">
<stop stop-color="#FFDD57"/>
<stop offset="1" stop-color="#9E3726"/>
</radialGradient>
<radialGradient id="paint15_radial_12_245" cx="0" cy="0" r="1" gradientUnits="userSpaceOnUse" gradientTransform="translate(101.816 49.2487) scale(14.7096 14.7096)">
<stop stop-color="#FFF2BB"/>
<stop offset="1"/>
</radialGradient>
<radialGradient id="paint16_radial_12_245" cx="0" cy="0" r="1" gradientUnits="userSpaceOnUse" gradientTransform="translate(47.3412 49.9029) scale(23.0473 23.0472)">
<stop stop-color="#FFF2BB"/>
<stop offset="1"/>
</radialGradient>
<linearGradient id="paint17_linear_12_245" x1="89.5456" y1="38.2537" x2="99.8271" y2="4.62244" gradientUnits="userSpaceOnUse">
<stop stop-color="#8F3508"/>
<stop offset="0.21" stop-color="#BD500B"/>
<stop offset="0.7" stop-color="#F7A100"/>
<stop offset="1" stop-color="#964324"/>
</linearGradient>
<linearGradient id="paint18_linear_12_245" x1="81.4458" y1="35.9792" x2="94.881" y2="1.74317" gradientUnits="userSpaceOnUse">
<stop offset="0.3" stop-color="#C25D0A"/>
<stop offset="0.86" stop-color="#FFF14F"/>
<stop offset="0.94" stop-color="#F5B90A"/>
<stop offset="1" stop-color="#E68A00"/>
</linearGradient>
<radialGradient id="paint19_radial_12_245" cx="0" cy="0" r="1" gradientUnits="userSpaceOnUse" gradientTransform="translate(89.8705 8.95717) scale(43.3513 43.3512)">
<stop stop-color="#F59F41"/>
<stop offset="1" stop-color="#A64416"/>
</radialGradient>
<linearGradient id="paint20_linear_12_245" x1="80.4506" y1="36.0322" x2="78.7442" y2="30.5242" gradientUnits="userSpaceOnUse">
<stop stop-color="#8F3508"/>
<stop offset="0.21" stop-color="#BD500B"/>
<stop offset="0.7" stop-color="#F7A100"/>
<stop offset="1" stop-color="#964324"/>
</linearGradient>
<linearGradient id="paint21_linear_12_245" x1="62.9761" y1="42.2468" x2="68.2681" y2="30.3452" gradientUnits="userSpaceOnUse">
<stop offset="0.05" stop-color="#B7402C"/>
<stop offset="1" stop-color="#E68A00"/>
</linearGradient>
<linearGradient id="paint22_linear_12_245" x1="61.6171" y1="30.947" x2="65.1379" y2="15.6758" gradientUnits="userSpaceOnUse">
<stop stop-color="#D46C2C"/>
<stop offset="1" stop-color="#964324"/>
</linearGradient>
<linearGradient id="paint23_linear_12_245" x1="46.907" y1="36.3073" x2="55.9789" y2="13.2169" gradientUnits="userSpaceOnUse">
<stop stop-color="#F28B1D"/>
<stop offset="0.41" stop-color="#FFDC2B"/>
<stop offset="0.55" stop-color="#FFF79D"/>
<stop offset="0.78" stop-color="#F5B90A"/>
<stop offset="1" stop-color="#E68A00"/>
</linearGradient>
<radialGradient id="paint24_radial_12_245" cx="0" cy="0" r="1" gradientUnits="userSpaceOnUse" gradientTransform="translate(61.0985 19.2187) scale(37.9729 37.9728)">
<stop stop-color="#F59F41"/>
<stop offset="1" stop-color="#A64416"/>
</radialGradient>
<radialGradient id="paint25_radial_12_245" cx="0" cy="0" r="1" gradientUnits="userSpaceOnUse" gradientTransform="translate(56.4121 22.481) scale(19.9152 19.9152)">
<stop stop-color="#FFF2BB"/>
<stop offset="1"/>
</radialGradient>
<radialGradient id="paint26_radial_12_245" cx="0" cy="0" r="1" gradientUnits="userSpaceOnUse" gradientTransform="translate(92.8063 9.89256) scale(22.032 22.032)">
<stop stop-color="#FFF2BB"/>
<stop offset="1"/>
</radialGradient>
<radialGradient id="paint27_radial_12_245" cx="0" cy="0" r="1" gradientUnits="userSpaceOnUse" gradientTransform="translate(105.616 26.0226) scale(13.3272 13.3272)">
<stop stop-color="#9691FF"/>
<stop offset="0.03" stop-color="#908BF5"/>
<stop offset="0.31" stop-color="#5D5A9F"/>
<stop offset="0.55" stop-color="#35335B"/>
<stop offset="0.76" stop-color="#181729"/>
<stop offset="0.91" stop-color="#06060B"/>
<stop offset="1"/>
</radialGradient>
<radialGradient id="paint28_radial_12_245" cx="0" cy="0" r="1" gradientUnits="userSpaceOnUse" gradientTransform="translate(80.2141 32.2943) scale(4.23361 4.2336)">
<stop stop-color="#FFC382"/>
<stop offset="1" stop-color="#9E3726"/>
</radialGradient>
<radialGradient id="paint29_radial_12_245" cx="0" cy="0" r="1" gradientUnits="userSpaceOnUse" gradientTransform="translate(97.5166 23.9682) scale(25.3585 25.3584)">
<stop offset="0.67" stop-color="#6689BA"/>
<stop offset="0.72" stop-color="#5F90BE"/>
<stop offset="0.79" stop-color="#4EA4C9"/>
<stop offset="0.88" stop-color="#32C4DC"/>
<stop offset="0.97" stop-color="#0BF1F7"/>
<stop offset="1" stop-color="#00FFFF"/>
</radialGradient>
<radialGradient id="paint30_radial_12_245" cx="0" cy="0" r="1" gradientUnits="userSpaceOnUse" gradientTransform="translate(59.5867 35.5946) scale(26.4816 26.4816)">
<stop offset="0.67" stop-color="#6689BA"/>
<stop offset="0.72" stop-color="#5F90BE"/>
<stop offset="0.79" stop-color="#4EA4C9"/>
<stop offset="0.88" stop-color="#32C4DC"/>
<stop offset="0.97" stop-color="#0BF1F7"/>
<stop offset="1" stop-color="#00FFFF"/>
</radialGradient>
<linearGradient id="paint31_linear_12_245" x1="90.6897" y1="20.4517" x2="108.575" y2="36.5653" gradientUnits="userSpaceOnUse">
<stop stop-color="#F28B1D"/>
<stop offset="0.41" stop-color="#FFDC2B"/>
<stop offset="0.55" stop-color="#FFF79D"/>
<stop offset="0.78" stop-color="#F5B90A"/>
<stop offset="1" stop-color="#E68A00"/>
</linearGradient>
<radialGradient id="paint32_radial_12_245" cx="0" cy="0" r="1" gradientUnits="userSpaceOnUse" gradientTransform="translate(111.49 32.5647) scale(31.7305 31.7304)">
<stop stop-color="#F59F41"/>
<stop offset="1" stop-color="#A64416"/>
</radialGradient>
<radialGradient id="paint33_radial_12_245" cx="0" cy="0" r="1" gradientUnits="userSpaceOnUse" gradientTransform="translate(122.875 32.1398) scale(17.064 17.064)">
<stop stop-color="#F59F41"/>
<stop offset="1" stop-color="#A64416"/>
</radialGradient>
<radialGradient id="paint34_radial_12_245" cx="0" cy="0" r="1" gradientUnits="userSpaceOnUse" gradientTransform="translate(83.4111 50.1539) scale(24.3432 24.3432)">
<stop stop-color="#F59F41"/>
<stop offset="1" stop-color="#A64416"/>
</radialGradient>
<linearGradient id="paint35_linear_12_245" x1="74.2312" y1="32.1203" x2="72.244" y2="47.7155" gradientUnits="userSpaceOnUse">
<stop stop-color="#F28B1D"/>
<stop offset="0.26" stop-color="#FFDC2B"/>
<stop offset="0.39" stop-color="#FFF79D"/>
<stop offset="0.8" stop-color="#F5B90A"/>
<stop offset="1" stop-color="#E68A00"/>
</linearGradient>
</defs>
</svg>
