<svg width="150" height="220" viewBox="0 0 150 220" fill="none" xmlns="http://www.w3.org/2000/svg">
<path style="mix-blend-mode:screen" opacity="0.8" fill-rule="evenodd" clip-rule="evenodd" d="M82.7029 124.629C81.3516 125.505 79.5499 125.129 78.6491 123.778C77.7733 122.427 78.1486 120.625 79.4999 119.724C80.8512 118.848 82.6528 119.224 83.5537 120.575C84.4295 121.926 84.0542 123.728 82.7029 124.629Z" fill="url(#paint0_radial_12_245)"/>
<path style="mix-blend-mode:screen" opacity="0.8" fill-rule="evenodd" clip-rule="evenodd" d="M92.5877 98.6758C91.2364 99.5516 89.4347 99.1762 88.5339 97.825C87.6581 96.4737 88.0334 94.672 89.3847 93.7712C90.7359 92.8954 92.5376 93.2707 93.4384 94.622C94.3143 95.9732 93.9389 97.7749 92.5877 98.6758Z" fill="url(#paint1_radial_12_245)"/>
<path style="mix-blend-mode:screen" fill-rule="evenodd" clip-rule="evenodd" d="M77.9732 85.1408C76.672 85.9916 74.8954 85.6413 74.0446 84.315C73.1938 83.0138 73.5441 81.2371 74.8703 80.3864C76.1716 79.5356 77.9482 79.8859 78.799 81.2121C79.6498 82.5133 79.2995 84.29 77.9732 85.1408Z" fill="url(#paint2_radial_12_245)"/>
<path style="mix-blend-mode:screen" opacity="0.5" fill-rule="evenodd" clip-rule="evenodd" d="M76.6228 116.293C73.4699 118.37 69.2159 117.469 67.1389 114.316C65.062 111.163 65.9628 106.909 69.1158 104.832C72.2687 102.755 76.5227 103.656 78.5997 106.809C80.6766 109.962 79.7758 114.216 76.6228 116.293Z" fill="url(#paint3_radial_12_245)"/>
<path style="mix-blend-mode:screen" opacity="0.5" fill-rule="evenodd" clip-rule="evenodd" d="M94.9888 112.461C92.6616 113.988 89.5337 113.337 87.9822 111.01C86.4308 108.683 87.1064 105.555 89.4336 104.003C91.7608 102.477 94.8887 103.128 96.4151 105.455C97.9415 107.782 97.2909 110.91 94.9637 112.461H94.9888Z" fill="url(#paint4_radial_12_245)"/>
<path style="mix-blend-mode:screen" opacity="0.5" d="M106.668 88.715C108.686 88.715 110.321 87.0793 110.321 85.0616C110.321 83.0439 108.686 81.4082 106.668 81.4082C104.65 81.4082 103.015 83.0439 103.015 85.0616C103.015 87.0793 104.65 88.715 106.668 88.715Z" fill="url(#paint5_radial_12_245)"/>
<path style="mix-blend-mode:screen" opacity="0.75" fill-rule="evenodd" clip-rule="evenodd" d="M38.5864 113.416C35.8088 115.242 32.0553 114.467 30.2286 111.689C28.4019 108.911 29.1776 105.158 31.9552 103.331C34.7328 101.504 38.4863 102.28 40.313 105.058C42.1397 107.835 41.364 111.589 38.5864 113.416Z" fill="url(#paint6_radial_12_245)"/>
<path style="mix-blend-mode:screen" opacity="0.75" fill-rule="evenodd" clip-rule="evenodd" d="M123.686 86.61C125.413 85.4839 127.715 85.9594 128.866 87.686C129.992 89.4126 129.516 91.7148 127.79 92.8658C126.063 93.9919 123.761 93.5164 122.61 91.7898C121.484 90.0632 121.959 87.7611 123.686 86.61Z" fill="url(#paint7_radial_12_245)"/>
<path style="mix-blend-mode:screen" fill-rule="evenodd" clip-rule="evenodd" d="M73.5428 107.669C72.3166 108.47 70.6901 108.12 69.8894 106.919C69.0886 105.693 69.439 104.066 70.6401 103.265C71.8662 102.465 73.4928 102.815 74.2935 104.016C75.0943 105.242 74.7439 106.869 73.5428 107.669Z" fill="url(#paint8_radial_12_245)"/>
<path style="mix-blend-mode:screen" fill-rule="evenodd" clip-rule="evenodd" d="M87.9672 93.537C86.1906 94.7131 83.7883 94.2126 82.6372 92.436C81.4611 90.6593 81.9616 88.2571 83.7383 87.106C85.5149 85.9299 87.9172 86.4303 89.0683 88.207C90.2444 89.9837 89.7439 92.3859 87.9672 93.537Z" fill="url(#paint9_radial_12_245)"/>
<path style="mix-blend-mode:screen" fill-rule="evenodd" clip-rule="evenodd" d="M127.085 117.835C125.859 118.636 124.232 118.286 123.431 117.085C122.631 115.859 122.981 114.232 124.182 113.431C125.408 112.631 127.035 112.981 127.836 114.182C128.636 115.408 128.286 117.035 127.085 117.835Z" fill="url(#paint10_radial_12_245)"/>
<path style="mix-blend-mode:screen" fill-rule="evenodd" clip-rule="evenodd" d="M66.2547 90.606C64.0777 92.0323 61.175 91.4317 59.7737 89.2547C58.3473 87.0777 58.9479 84.175 61.1249 82.7737C63.302 81.3473 66.2047 81.9479 67.606 84.1249C69.0323 86.302 68.4318 89.2047 66.2547 90.606Z" fill="url(#paint11_radial_12_245)"/>
<path style="mix-blend-mode:screen" fill-rule="evenodd" clip-rule="evenodd" d="M78.898 123.3C78.3475 123.65 77.6218 123.5 77.2715 122.95C76.9211 122.399 77.0713 121.674 77.6218 121.323C78.1723 120.973 78.898 121.123 79.2483 121.674C79.5986 122.224 79.4485 122.95 78.898 123.3Z" fill="url(#paint12_radial_12_245)"/>
<path style="mix-blend-mode:screen" fill-rule="evenodd" clip-rule="evenodd" d="M97.567 118.546C97.0164 118.896 96.2907 118.746 95.9404 118.196C95.5901 117.645 95.7402 116.92 96.2907 116.569C96.8413 116.219 97.567 116.369 97.9173 116.92C98.2676 117.47 98.1175 118.196 97.567 118.546Z" fill="url(#paint13_radial_12_245)"/>
<path style="mix-blend-mode:screen" fill-rule="evenodd" clip-rule="evenodd" d="M80.3257 96.0813C79.7752 96.4316 79.0495 96.2815 78.6992 95.731C78.3489 95.1805 78.499 94.4548 79.0495 94.1045C79.6 93.7541 80.3257 93.9043 80.6761 94.4548C81.0264 95.0053 80.8762 95.731 80.3257 96.0813Z" fill="url(#paint14_radial_12_245)"/>
<path style="mix-blend-mode:screen" fill-rule="evenodd" clip-rule="evenodd" d="M71.115 72.3779C71.6655 72.0276 72.3911 72.1777 72.7415 72.7282C73.0918 73.2787 72.9417 74.0044 72.3911 74.3547C71.8406 74.7051 71.115 74.5549 70.7646 74.0044C70.4143 73.4539 70.5644 72.7282 71.115 72.3779Z" fill="url(#paint15_radial_12_245)"/>
<path style="mix-blend-mode:screen" fill-rule="evenodd" clip-rule="evenodd" d="M49.1724 101.23C48.6219 101.58 47.8962 101.43 47.5459 100.879C47.1956 100.329 47.3457 99.6032 47.8962 99.2529C48.4467 98.9026 49.1724 99.0527 49.5227 99.6032C49.8731 100.154 49.7229 100.879 49.1724 101.23Z" fill="url(#paint16_radial_12_245)"/>
<path style="mix-blend-mode:screen" opacity="0.5" fill-rule="evenodd" clip-rule="evenodd" d="M80.9517 61.7722C79.9257 62.4478 78.5244 62.1726 77.8488 61.1216C77.1731 60.0706 77.4484 58.6943 78.4994 58.0187C79.5254 57.3431 80.9267 57.6183 81.6023 58.6693C82.2779 59.6953 82.0027 61.0966 80.9517 61.7722Z" fill="url(#paint17_radial_12_245)"/>
<path style="mix-blend-mode:screen" fill-rule="evenodd" clip-rule="evenodd" d="M43.8999 85.0014C42.1482 86.1525 39.771 85.652 38.6199 83.9004C37.4688 82.1487 37.9693 79.7715 39.7209 78.6204C41.4726 77.4694 43.8498 77.9698 45.0009 79.7215C46.152 81.4731 45.6515 83.8503 43.8999 85.0014Z" fill="url(#paint18_radial_12_245)"/>
<path style="mix-blend-mode:screen" opacity="0.75" fill-rule="evenodd" clip-rule="evenodd" d="M47.9737 89.725C46.7976 90.5007 45.1961 90.1754 44.4204 88.9743C43.6447 87.7982 43.97 86.1967 45.1711 85.4209C46.3472 84.6452 47.9487 84.9705 48.7244 86.1716C49.5002 87.3728 49.1749 88.9492 47.9737 89.725Z" fill="url(#paint19_radial_12_245)"/>
<path style="mix-blend-mode:screen" fill-rule="evenodd" clip-rule="evenodd" d="M99.1037 75.6792C98.1778 76.2798 96.9267 76.0296 96.3261 75.1037C95.7255 74.1778 95.9758 72.9267 96.9016 72.3261C97.8275 71.7255 99.0787 71.9758 99.6792 72.9016C100.28 73.8275 100.03 75.0787 99.1037 75.6792Z" fill="url(#paint20_radial_12_245)"/>
<path style="mix-blend-mode:screen" fill-rule="evenodd" clip-rule="evenodd" d="M109.344 96.9701C108.719 97.3705 107.868 97.1953 107.467 96.5697C107.067 95.9442 107.242 95.0934 107.868 94.693C108.493 94.2926 109.344 94.4678 109.745 95.0934C110.145 95.719 109.97 96.5697 109.344 96.9701Z" fill="url(#paint21_radial_12_245)"/>
<path style="mix-blend-mode:screen" fill-rule="evenodd" clip-rule="evenodd" d="M25.716 102.767C24.0144 103.893 21.7373 103.418 20.6112 101.716C19.4852 100.014 19.9606 97.7373 21.6622 96.6112C23.3638 95.4852 25.6409 95.9606 26.767 97.6622C27.893 99.3638 27.4176 101.641 25.716 102.767Z" fill="url(#paint22_radial_12_245)"/>
<path style="mix-blend-mode:screen" fill-rule="evenodd" clip-rule="evenodd" d="M69.4394 95.3733C68.5385 95.9739 67.3124 95.7237 66.7118 94.7978C66.1113 93.8969 66.3615 92.6708 67.2874 92.0702C68.1882 91.4697 69.4144 91.7199 70.0149 92.6458C70.6155 93.5466 70.3653 94.7728 69.4394 95.3733Z" fill="url(#paint23_radial_12_245)"/>
<path style="mix-blend-mode:screen" fill-rule="evenodd" clip-rule="evenodd" d="M89.5331 112.819C88.4571 113.519 87.0058 113.219 86.3051 112.143C85.6044 111.067 85.9047 109.616 86.9807 108.915C88.0567 108.214 89.5081 108.515 90.2087 109.591C90.9094 110.667 90.6091 112.118 89.5331 112.819Z" fill="url(#paint24_radial_12_245)"/>
<path style="mix-blend-mode:screen" fill-rule="evenodd" clip-rule="evenodd" d="M90.0699 84.2965C89.2441 84.8471 88.1431 84.5968 87.5926 83.7711C87.0421 82.9453 87.2923 81.8443 88.1181 81.2937C88.9438 80.7432 90.0449 80.9935 90.5954 81.8192C91.1459 82.645 90.8957 83.746 90.0699 84.2965Z" fill="url(#paint25_radial_12_245)"/>
<path style="mix-blend-mode:screen" opacity="0.5" fill-rule="evenodd" clip-rule="evenodd" d="M120.614 113.304C119.989 113.704 119.163 113.529 118.763 112.929C118.362 112.303 118.537 111.477 119.138 111.077C119.763 110.677 120.589 110.852 120.99 111.452C121.39 112.078 121.215 112.904 120.614 113.304Z" fill="url(#paint26_radial_12_245)"/>
<path style="mix-blend-mode:screen" opacity="0.75" fill-rule="evenodd" clip-rule="evenodd" d="M56.8081 103.947C54.0305 105.774 50.277 104.998 48.4503 102.22C46.6236 99.4426 47.3993 95.6891 50.1769 93.8624C52.9545 92.0357 56.708 92.8114 58.5347 95.589C60.3614 98.3666 59.5857 102.12 56.8081 103.947Z" fill="url(#paint27_radial_12_245)"/>
<path style="mix-blend-mode:screen" fill-rule="evenodd" clip-rule="evenodd" d="M54.9531 99.6761C53.9271 100.352 52.5759 100.051 51.9002 99.0506C51.2246 98.0246 51.5249 96.6733 52.5258 95.9977C53.5518 95.3221 54.903 95.6224 55.5787 96.6233C56.2543 97.6492 55.954 99.0005 54.9531 99.6761Z" fill="url(#paint28_radial_12_245)"/>
<path style="mix-blend-mode:screen" fill-rule="evenodd" clip-rule="evenodd" d="M28.4891 124.521C26.8613 125.598 24.6603 125.14 23.5827 123.489C22.5051 121.838 22.9637 119.66 24.6144 118.583C26.2423 117.505 28.4433 117.964 29.5208 119.614C30.5984 121.242 30.1399 123.443 28.4891 124.521Z" fill="url(#paint29_radial_12_245)"/>
<path style="mix-blend-mode:screen" opacity="0.8" fill-rule="evenodd" clip-rule="evenodd" d="M56.7224 78.4231C55.6214 79.1488 54.12 78.8485 53.3943 77.7224C52.6686 76.6214 52.9689 75.12 54.095 74.3943C55.196 73.6686 56.6974 73.9689 57.4231 75.095C58.1488 76.196 57.8485 77.6974 56.7224 78.4231Z" fill="url(#paint30_radial_12_245)"/>
<path style="mix-blend-mode:screen" fill-rule="evenodd" clip-rule="evenodd" d="M127.743 97.2677C128.494 96.7673 129.52 96.9925 130.02 97.7432C130.521 98.4939 130.296 99.5198 129.545 100.02C128.794 100.521 127.768 100.296 127.268 99.5448C126.767 98.7941 126.992 97.7682 127.743 97.2677Z" fill="url(#paint31_radial_12_245)"/>
<defs>
<radialGradient id="paint0_radial_12_245" cx="0" cy="0" r="1" gradientUnits="userSpaceOnUse" gradientTransform="translate(81.0567 122.21) rotate(-123.23) scale(2.89353 2.89353)">
<stop stop-color="#FFAA33"/>
<stop offset="1" stop-color="#FFAA33" stop-opacity="0"/>
</radialGradient>
<radialGradient id="paint1_radial_12_245" cx="0" cy="0" r="1" gradientUnits="userSpaceOnUse" gradientTransform="translate(90.9414 96.2566) rotate(-123.23) scale(2.89353)">
<stop stop-color="#FFAA33"/>
<stop offset="1" stop-color="#FFAA33" stop-opacity="0"/>
</radialGradient>
<radialGradient id="paint2_radial_12_245" cx="0" cy="0" r="1" gradientUnits="userSpaceOnUse" gradientTransform="translate(76.3784 82.7957) rotate(-123.23) scale(2.80955 2.80955)">
<stop stop-color="#FFAA33"/>
<stop offset="1" stop-color="#FFAA33" stop-opacity="0"/>
</radialGradient>
<radialGradient id="paint3_radial_12_245" cx="0" cy="0" r="1" gradientUnits="userSpaceOnUse" gradientTransform="translate(72.7645 110.64) rotate(-123.23) scale(6.7769 6.77691)">
<stop stop-color="#FFAA33"/>
<stop offset="1" stop-color="#FFAA33" stop-opacity="0"/>
</radialGradient>
<radialGradient id="paint4_radial_12_245" cx="0" cy="0" r="1" gradientUnits="userSpaceOnUse" gradientTransform="translate(92.116 108.29) rotate(-123.194) scale(4.99879 4.99603)">
<stop stop-color="#FFAA33"/>
<stop offset="1" stop-color="#FFAA33" stop-opacity="0"/>
</radialGradient>
<radialGradient id="paint5_radial_12_245" cx="0" cy="0" r="1" gradientUnits="userSpaceOnUse" gradientTransform="translate(106.612 85.103) rotate(-123.23) scale(3.61456 3.61456)">
<stop stop-color="#FFAA33"/>
<stop offset="1" stop-color="#FFAA33" stop-opacity="0"/>
</radialGradient>
<radialGradient id="paint6_radial_12_245" cx="0" cy="0" r="1" gradientUnits="userSpaceOnUse" gradientTransform="translate(35.1786 108.442) rotate(-123.23) scale(5.9674 5.96741)">
<stop stop-color="#FFAA33"/>
<stop offset="1" stop-color="#FFAA33" stop-opacity="0"/>
</radialGradient>
<radialGradient id="paint7_radial_12_245" cx="0" cy="0" r="1" gradientUnits="userSpaceOnUse" gradientTransform="translate(125.681 89.7802) rotate(-123.23) scale(3.69816 3.69816)">
<stop stop-color="#FFAA33"/>
<stop offset="1" stop-color="#FFAA33" stop-opacity="0"/>
</radialGradient>
<radialGradient id="paint8_radial_12_245" cx="0" cy="0" r="1" gradientUnits="userSpaceOnUse" gradientTransform="translate(72.0512 105.497) rotate(-123.23) scale(2.60542 2.60542)">
<stop stop-color="#FFAA33"/>
<stop offset="1" stop-color="#FFAA33" stop-opacity="0"/>
</radialGradient>
<radialGradient id="paint9_radial_12_245" cx="0" cy="0" r="1" gradientUnits="userSpaceOnUse" gradientTransform="translate(85.7938 90.3651) rotate(-123.23) scale(3.81176 3.81177)">
<stop stop-color="#FFAA33"/>
<stop offset="1" stop-color="#FFAA33" stop-opacity="0"/>
</radialGradient>
<radialGradient id="paint10_radial_12_245" cx="0" cy="0" r="1" gradientUnits="userSpaceOnUse" gradientTransform="translate(125.593 115.663) rotate(-123.23) scale(2.60542 2.60542)">
<stop stop-color="#FFAA33"/>
<stop offset="1" stop-color="#FFAA33" stop-opacity="0"/>
</radialGradient>
<radialGradient id="paint11_radial_12_245" cx="0" cy="0" r="1" gradientUnits="userSpaceOnUse" gradientTransform="translate(63.6181 86.7429) rotate(-123.23) scale(4.63994 4.63995)">
<stop stop-color="#FFAA33"/>
<stop offset="1" stop-color="#FFAA33" stop-opacity="0"/>
</radialGradient>
<radialGradient id="paint12_radial_12_245" cx="0" cy="0" r="1" gradientUnits="userSpaceOnUse" gradientTransform="translate(78.2419 122.325) rotate(-123.23) scale(1.16437)">
<stop stop-color="#FFAA33"/>
<stop offset="1" stop-color="#FFAA33" stop-opacity="0"/>
</radialGradient>
<radialGradient id="paint13_radial_12_245" cx="0" cy="0" r="1" gradientUnits="userSpaceOnUse" gradientTransform="translate(96.9108 117.571) rotate(-123.23) scale(1.16436 1.16437)">
<stop stop-color="#FFAA33"/>
<stop offset="1" stop-color="#FFAA33" stop-opacity="0"/>
</radialGradient>
<radialGradient id="paint14_radial_12_245" cx="0" cy="0" r="1" gradientUnits="userSpaceOnUse" gradientTransform="translate(79.6696 95.1062) rotate(-123.23) scale(1.16436 1.16437)">
<stop stop-color="#FFAA33"/>
<stop offset="1" stop-color="#FFAA33" stop-opacity="0"/>
</radialGradient>
<radialGradient id="paint15_radial_12_245" cx="0" cy="0" r="1" gradientUnits="userSpaceOnUse" gradientTransform="translate(71.735 73.3796) rotate(-123.23) scale(1.16436)">
<stop stop-color="#FFAA33"/>
<stop offset="1" stop-color="#FFAA33" stop-opacity="0"/>
</radialGradient>
<radialGradient id="paint16_radial_12_245" cx="0" cy="0" r="1" gradientUnits="userSpaceOnUse" gradientTransform="translate(48.5163 100.255) rotate(-123.23) scale(1.16437)">
<stop stop-color="#FFAA33"/>
<stop offset="1" stop-color="#FFAA33" stop-opacity="0"/>
</radialGradient>
<radialGradient id="paint17_radial_12_245" cx="0" cy="0" r="1" gradientUnits="userSpaceOnUse" gradientTransform="translate(79.6912 59.9209) rotate(-123.23) scale(2.22119 2.22119)">
<stop stop-color="#FFAA33"/>
<stop offset="1" stop-color="#FFAA33" stop-opacity="0"/>
</radialGradient>
<radialGradient id="paint18_radial_12_245" cx="0" cy="0" r="1" gradientUnits="userSpaceOnUse" gradientTransform="translate(41.7521 81.854) rotate(-123.23) scale(3.76978 3.76978)">
<stop stop-color="#FFAA33"/>
<stop offset="1" stop-color="#FFAA33" stop-opacity="0"/>
</radialGradient>
<radialGradient id="paint19_radial_12_245" cx="0" cy="0" r="1" gradientUnits="userSpaceOnUse" gradientTransform="translate(46.5331 87.602) rotate(-123.23) scale(2.54498)">
<stop stop-color="#FFAA33"/>
<stop offset="1" stop-color="#FFAA33" stop-opacity="0"/>
</radialGradient>
<radialGradient id="paint20_radial_12_245" cx="0" cy="0" r="1" gradientUnits="userSpaceOnUse" gradientTransform="translate(97.972 74.0253) rotate(-123.23) scale(1.98137)">
<stop stop-color="#FFAA33"/>
<stop offset="1" stop-color="#FFAA33" stop-opacity="0"/>
</radialGradient>
<radialGradient id="paint21_radial_12_245" cx="0" cy="0" r="1" gradientUnits="userSpaceOnUse" gradientTransform="translate(108.585 95.8469) rotate(-123.23) scale(1.33865 1.33865)">
<stop stop-color="#FFAA33"/>
<stop offset="1" stop-color="#FFAA33" stop-opacity="0"/>
</radialGradient>
<radialGradient id="paint22_radial_12_245" cx="0" cy="0" r="1" gradientUnits="userSpaceOnUse" gradientTransform="translate(23.6327 99.7308) rotate(-123.23) scale(3.64987 3.64987)">
<stop stop-color="#FFAA33"/>
<stop offset="1" stop-color="#FFAA33" stop-opacity="0"/>
</radialGradient>
<radialGradient id="paint23_radial_12_245" cx="0" cy="0" r="1" gradientUnits="userSpaceOnUse" gradientTransform="translate(68.3331 93.7442) rotate(-123.23) scale(1.95661 1.95661)">
<stop stop-color="#FFAA33"/>
<stop offset="1" stop-color="#FFAA33" stop-opacity="0"/>
</radialGradient>
<radialGradient id="paint24_radial_12_245" cx="0" cy="0" r="1" gradientUnits="userSpaceOnUse" gradientTransform="translate(88.2213 110.893) rotate(-123.23) scale(2.30516)">
<stop stop-color="#FFAA33"/>
<stop offset="1" stop-color="#FFAA33" stop-opacity="0"/>
</radialGradient>
<radialGradient id="paint25_radial_12_245" cx="0" cy="0" r="1" gradientUnits="userSpaceOnUse" gradientTransform="translate(89.0665 82.8155) rotate(-123.23) scale(1.77606 1.77606)">
<stop stop-color="#FFAA33"/>
<stop offset="1" stop-color="#FFAA33" stop-opacity="0"/>
</radialGradient>
<radialGradient id="paint26_radial_12_245" cx="0" cy="0" r="1" gradientUnits="userSpaceOnUse" gradientTransform="translate(119.856 112.206) rotate(-123.23) scale(1.31509)">
<stop stop-color="#FFAA33"/>
<stop offset="1" stop-color="#FFAA33" stop-opacity="0"/>
</radialGradient>
<radialGradient id="paint27_radial_12_245" cx="0" cy="0" r="1" gradientUnits="userSpaceOnUse" gradientTransform="translate(53.4002 98.9728) rotate(-123.23) scale(5.9674 5.96741)">
<stop stop-color="#FFAA33"/>
<stop offset="1" stop-color="#FFAA33" stop-opacity="0"/>
</radialGradient>
<radialGradient id="paint28_radial_12_245" cx="0" cy="0" r="1" gradientUnits="userSpaceOnUse" gradientTransform="translate(53.7058 97.8618) rotate(-123.23) scale(2.17895 2.17895)">
<stop stop-color="#FFAA33"/>
<stop offset="1" stop-color="#FFAA33" stop-opacity="0"/>
</radialGradient>
<radialGradient id="paint29_radial_12_245" cx="0" cy="0" r="1" gradientUnits="userSpaceOnUse" gradientTransform="translate(26.4975 121.592) rotate(-123.23) scale(3.51399 3.514)">
<stop stop-color="#FFAA33"/>
<stop offset="1" stop-color="#FFAA33" stop-opacity="0"/>
</radialGradient>
<radialGradient id="paint30_radial_12_245" cx="0" cy="0" r="1" gradientUnits="userSpaceOnUse" gradientTransform="translate(55.3719 76.4359) rotate(-123.23) scale(2.38308 2.38308)">
<stop stop-color="#FFAA33"/>
<stop offset="1" stop-color="#FFAA33" stop-opacity="0"/>
</radialGradient>
<radialGradient id="paint31_radial_12_245" cx="0" cy="0" r="1" gradientUnits="userSpaceOnUse" gradientTransform="translate(128.619 98.6626) rotate(-123.23) scale(1.62652 1.62653)">
<stop stop-color="#FFAA33"/>
<stop offset="1" stop-color="#FFAA33" stop-opacity="0"/>
</radialGradient>
</defs>
</svg>
