<svg width="356" height="182" viewBox="0 0 356 182" fill="none" xmlns="http://www.w3.org/2000/svg">
    <path d="M224.133 126.122C211.113 124.286 212.649 129.05 212.649 129.05C212.649 129.05 223.977 128.93 227.349 138.71C227.349 138.71 218.721 145.37 215.325 151.034C211.185 156.998 210.933 158.99 212.589 160.742C212.589 160.742 212.469 162.194 213.477 162.89C214.473 163.574 217.545 158.834 217.545 158.834C217.545 158.834 218.697 161.75 220.077 161.75C221.457 161.75 222.681 159.494 222.489 156.266C233.961 156.302 253.473 152.558 256.305 147.734C260.445 140.69 237.153 127.97 224.133 126.134V126.122Z"
          fill="#5568B1" />
    <g style="mix-blend-mode:multiply" opacity="0.82">
        <path d="M227.35 138.698C233.098 134.078 241.09 138.986 241.09 138.986C241.09 138.986 235.006 134.702 232.63 134.462C230.254 134.222 227.182 138.242 227.182 138.242L227.35 138.698Z"
              fill="#DB7DAF" />
    </g>
    <g style="mix-blend-mode:multiply" opacity="0.82">
        <path d="M217.544 158.823C216.548 156.603 216.548 154.959 216.548 154.959C216.548 154.959 216.056 156.795 216.32 157.599C216.584 158.403 217.16 159.387 217.16 159.387L217.544 158.823Z"
              fill="#DB7DAF" />
    </g>
    <g style="mix-blend-mode:multiply" opacity="0.82">
        <path d="M212.603 160.742C212.579 158.138 214.715 154.658 214.715 154.658C214.715 154.658 212.939 156.374 212.603 157.178C212.267 157.982 212.603 160.742 212.603 160.742Z"
              fill="#DB7DAF" />
    </g>
    <path style="mix-blend-mode:multiply" opacity="0.75"
          d="M227.181 155.534C220.557 154.238 230.409 139.298 243.129 140.21C255.849 141.134 256.857 146.774 254.517 149.462C252.177 152.15 233.457 156.746 227.193 155.522L227.181 155.534Z"
          fill="url(#paint0_linear_3577_14510)" />
    <g style="mix-blend-mode:multiply" opacity="0.82">
        <path d="M218.53 130.129C218.11 127.081 231.154 127.801 231.154 127.801C231.154 127.801 223.942 125.605 217.558 125.725C211.174 125.845 212.662 129.037 212.662 129.037C212.662 129.037 214.222 129.013 216.058 129.445C217.894 129.865 218.53 130.129 218.53 130.129Z"
              fill="#DB7DAF" />
    </g>
    <path d="M135.707 126.409C135.707 126.409 162.779 145.585 185.627 142.825C201.971 140.845 214.367 131.557 222.263 118.981C230.159 106.417 135.707 126.409 135.707 126.409Z"
          fill="#374293" />
    <g style="mix-blend-mode:multiply" opacity="0.82">
        <path d="M198.214 139.596C189.214 142.836 212.794 125.592 212.794 125.592C212.794 125.592 220.786 121.68 215.386 127.86C209.974 134.04 201.646 138.36 198.226 139.596H198.214Z"
              fill="#DB7DAF" />
    </g>
    <g style="mix-blend-mode:multiply" opacity="0.82">
        <path d="M186.924 138.144C182.568 136.548 168.024 136.812 164.304 138.612C160.584 140.4 141.072 130.836 139.656 127.992C138.24 125.148 152.376 127.2 152.376 127.2L196.188 121.212C196.188 121.212 223.956 119.268 215.376 127.872C206.796 136.464 197.34 141.984 186.924 138.156V138.144Z"
              fill="#DB7DAF" />
    </g>
    <path d="M118.845 117.675C101.889 105.747 98.5171 92.6549 103.113 81.4349C107.709 70.2029 116.913 66.2189 116.913 66.2189C116.913 66.2189 114.849 62.8709 116.913 60.0989C116.913 60.0989 117.885 55.1909 119.577 58.2149C121.269 61.2389 125.481 114.387 125.481 114.387L118.845 117.663V117.675Z"
          fill="url(#paint1_linear_3577_14510)" />
    <g style="mix-blend-mode:multiply" opacity="0.82">
        <path d="M116.912 60.1107C117.872 58.7667 119.204 61.9347 119.204 61.9347L119.516 60.5547C119.516 60.5547 118.7 59.2947 117.932 59.2227C117.164 59.1507 116.924 60.0987 116.924 60.0987L116.912 60.1107Z"
              fill="#DB7DAF" />
    </g>
    <path style="mix-blend-mode:multiply" opacity="0.75"
          d="M109.676 71.5119C116.06 66.6519 115.028 95.8599 113.36 101.26C111.692 106.66 100.448 103.144 101.252 90.4239C102.044 77.7039 109.676 71.5119 109.676 71.5119Z"
          fill="url(#paint2_linear_3577_14510)" />
    <g style="mix-blend-mode:multiply" opacity="0.82">
        <path d="M140.088 129.229C153.168 136.513 156.9 138.577 162.156 138.769C167.412 138.961 154.32 129.769 154.32 129.769L140.088 129.229Z"
              fill="#DB7DAF" />
    </g>
    <path d="M176.003 24.4805C176.003 24.4805 176.423 22.6925 178.055 21.7445C179.687 20.7965 187.859 19.9565 200.795 23.1125C213.731 26.2685 219.731 31.3205 220.595 35.4245C220.595 35.4245 223.439 36.2165 224.939 37.6325C226.439 39.0485 231.011 51.0485 231.647 53.4845C232.283 55.9325 231.647 60.5885 231.647 60.5885C231.647 60.5885 235.043 61.2245 236.219 62.7965C237.407 64.3685 241.823 80.7005 240.083 94.7405C240.083 94.7405 243.635 96.6365 244.343 99.9485C245.051 103.26 237.167 118.249 230.543 123.373C223.919 128.497 203.039 132.756 176.003 133.86C148.967 134.964 125.303 124.393 121.991 121.873C118.679 119.353 111.155 104.568 111.635 101.1C112.103 97.6325 116.003 95.1005 116.003 95.1005C116.003 95.1005 118.211 60.3365 120.419 57.4205C122.627 54.5045 125.627 52.5245 125.627 52.5245C125.627 52.5245 124.763 50.2325 124.835 48.3485C124.919 46.4525 132.095 29.1005 136.115 25.7885C140.135 22.4765 162.935 18.8405 167.747 18.7685C172.559 18.6845 176.003 24.4805 176.003 24.4805Z"
          fill="url(#paint3_linear_3577_14510)" />
    <path style="mix-blend-mode:multiply" opacity="0.75"
          d="M177.648 113.929C204.787 113.929 226.788 104.586 226.788 93.0614C226.788 81.5363 204.787 72.1934 177.648 72.1934C150.509 72.1934 128.508 81.5363 128.508 93.0614C128.508 104.586 150.509 113.929 177.648 113.929Z"
          fill="url(#paint4_radial_3577_14510)" />
    <mask id="mask0_3577_14510" style="mask-type:luminance" maskUnits="userSpaceOnUse" x="187" y="66" width="41" height="47">
        <path d="M187.93 91.2357C187.738 98.9517 198.298 113.748 211.222 112.608C224.158 111.456 232.114 83.7837 223.642 72.0357C215.17 60.2877 188.53 66.6237 187.918 91.2357H187.93Z"
              fill="white" />
    </mask>
    <g mask="url(#mask0_3577_14510)">
        <g style="mix-blend-mode:multiply" opacity="0.68">
            <path d="M205.991 111.287C216.217 111.287 224.507 101.939 224.507 90.4073C224.507 78.8756 216.217 69.5273 205.991 69.5273C195.765 69.5273 187.475 78.8756 187.475 90.4073C187.475 101.939 195.765 111.287 205.991 111.287Z"
                  fill="#A783B6" />
        </g>
        <mask id="mask1_3577_14510" style="mask-type:luminance" maskUnits="userSpaceOnUse" x="187" y="70" width="38" height="41">
            <path d="M205.991 110.039C216.217 110.039 224.507 101.25 224.507 90.4074C224.507 79.5649 216.217 70.7754 205.991 70.7754C195.765 70.7754 187.475 79.5649 187.475 90.4074C187.475 101.25 195.765 110.039 205.991 110.039Z"
                  fill="white" />
        </mask>
        <g mask="url(#mask1_3577_14510)">
            <path d="M205.991 110.039C216.217 110.039 224.507 101.25 224.507 90.4074C224.507 79.5649 216.217 70.7754 205.991 70.7754C195.765 70.7754 187.475 79.5649 187.475 90.4074C187.475 101.25 195.765 110.039 205.991 110.039Z"
                  fill="url(#paint5_radial_3577_14510)" />
            <g style="mix-blend-mode:multiply" opacity="0.37">
                <path d="M205.69 74.6514C215.83 74.6514 224.05 82.8474 224.05 92.9634C224.05 96.0594 223.27 98.9754 221.914 101.531C224.098 98.3634 225.382 94.5354 225.382 90.4074C225.382 79.5594 216.562 70.7754 205.69 70.7754C194.818 70.7754 185.998 79.5714 185.998 90.4074C185.998 94.5354 187.282 98.3754 189.478 101.531C188.11 98.9754 187.342 96.0594 187.342 92.9634C187.342 82.8474 195.562 74.6514 205.702 74.6514H205.69Z"
                      fill="#7274EA" />
            </g>
            <path style="mix-blend-mode:multiply"
                  d="M200.795 111.911C207.959 111.911 213.767 106.103 213.767 98.9388C213.767 91.7746 207.959 85.9668 200.795 85.9668C193.63 85.9668 187.823 91.7746 187.823 98.9388C187.823 106.103 193.63 111.911 200.795 111.911Z"
                  fill="url(#paint6_linear_3577_14510)" />
            <g style="mix-blend-mode:multiply" opacity="0.43">
                <path d="M200.795 87.6828C206.999 87.6828 212.051 92.7348 212.051 98.9388C212.051 105.143 206.999 110.195 200.795 110.195C194.591 110.195 189.539 105.143 189.539 98.9388C189.539 92.7348 194.591 87.6828 200.795 87.6828ZM200.795 85.9668C193.631 85.9668 187.823 91.7748 187.823 98.9388C187.823 106.103 193.631 111.911 200.795 111.911C207.959 111.911 213.767 106.103 213.767 98.9388C213.767 91.7748 207.959 85.9668 200.795 85.9668Z"
                      fill="#AE3E0F" />
            </g>
            <g style="mix-blend-mode:multiply">
                <path d="M199.596 109.042C204.513 109.042 208.5 105.056 208.5 100.138C208.5 95.2208 204.513 91.2344 199.596 91.2344C194.678 91.2344 190.692 95.2208 190.692 100.138C190.692 105.056 194.678 109.042 199.596 109.042Z"
                      fill="#54421F" />
            </g>
            <path style="mix-blend-mode:screen" opacity="0.32"
                  d="M210.743 109.163C210.539 114.599 205.451 118.823 199.379 118.595C193.307 118.367 188.543 113.783 188.747 108.335C188.951 102.899 194.039 98.6753 200.111 98.9033C206.183 99.1313 210.947 103.715 210.743 109.163Z"
                  fill="url(#paint7_linear_3577_14510)" />
            <path d="M213.455 88.727C213.971 89.267 213.239 91.235 212.087 92.579C211.499 93.263 210.011 94.175 209.087 93.395C208.307 92.735 208.355 91.463 209.327 90.443C210.551 89.171 212.843 88.091 213.455 88.727Z"
                  fill="white" />
        </g>
        <path style="mix-blend-mode:screen" opacity="0.43"
              d="M223.944 85.332C224.304 86.964 224.52 88.656 224.52 90.408C224.52 101.94 216.228 111.288 206.004 111.288C197.976 111.288 191.16 105.516 188.592 97.464C190.608 106.548 197.868 113.28 206.532 113.28C216.756 113.28 225.048 103.932 225.048 92.4C225.048 89.916 224.64 87.552 223.944 85.344V85.332Z"
              fill="url(#paint8_linear_3577_14510)" />
        <path d="M189.744 80.9873C197.352 66.2633 218.34 67.8353 223.548 84.1433C223.548 84.1433 225.54 79.9553 223.548 76.2473C221.352 72.1553 212.184 66.1553 201.72 69.9113C191.712 73.4993 189.744 80.9873 189.744 80.9873Z"
              fill="#4C2951" />
    </g>
    <mask id="mask2_3577_14510" style="mask-type:luminance" maskUnits="userSpaceOnUse" x="129" y="66" width="40" height="47">
        <path d="M168.623 91.2357C168.815 98.9517 158.255 113.748 145.331 112.608C132.395 111.456 124.427 83.7837 132.911 72.0357C141.383 60.2877 168.023 66.6237 168.635 91.2357H168.623Z"
              fill="white" />
    </mask>
    <g mask="url(#mask2_3577_14510)">
        <g style="mix-blend-mode:multiply" opacity="0.68">
            <path d="M150.561 111.287C160.787 111.287 169.077 101.939 169.077 90.4073C169.077 78.8756 160.787 69.5273 150.561 69.5273C140.335 69.5273 132.045 78.8756 132.045 90.4073C132.045 101.939 140.335 111.287 150.561 111.287Z"
                  fill="#A783B6" />
        </g>
        <mask id="mask3_3577_14510" style="mask-type:luminance" maskUnits="userSpaceOnUse" x="132" y="70" width="38" height="41">
            <path d="M150.561 110.039C160.788 110.039 169.077 101.25 169.077 90.4074C169.077 79.5649 160.788 70.7754 150.561 70.7754C140.335 70.7754 132.045 79.5649 132.045 90.4074C132.045 101.25 140.335 110.039 150.561 110.039Z"
                  fill="white" />
        </mask>
        <g mask="url(#mask3_3577_14510)">
            <path d="M150.562 110.039C160.788 110.039 169.078 101.25 169.078 90.4074C169.078 79.5649 160.788 70.7754 150.562 70.7754C140.336 70.7754 132.046 79.5649 132.046 90.4074C132.046 101.25 140.336 110.039 150.562 110.039Z"
                  fill="url(#paint9_radial_3577_14510)" />
            <g style="mix-blend-mode:multiply" opacity="0.37">
                <path d="M150.861 74.6514C140.721 74.6514 132.501 82.8474 132.501 92.9634C132.501 96.0594 133.281 98.9754 134.637 101.531C132.453 98.3634 131.157 94.5354 131.157 90.4074C131.157 79.5594 139.977 70.7754 150.849 70.7754C161.721 70.7754 170.541 79.5714 170.541 90.4074C170.541 94.5354 169.257 98.3754 167.061 101.531C168.429 98.9754 169.197 96.0594 169.197 92.9634C169.197 82.8474 160.977 74.6514 150.837 74.6514H150.861Z"
                      fill="#7274EA" />
            </g>
            <path style="mix-blend-mode:multiply"
                  d="M155.756 111.911C162.92 111.911 168.728 106.103 168.728 98.9388C168.728 91.7746 162.92 85.9668 155.756 85.9668C148.592 85.9668 142.784 91.7746 142.784 98.9388C142.784 106.103 148.592 111.911 155.756 111.911Z"
                  fill="url(#paint10_linear_3577_14510)" />
            <g style="mix-blend-mode:multiply" opacity="0.43">
                <path d="M155.756 87.6828C161.96 87.6828 167.012 92.7348 167.012 98.9388C167.012 105.143 161.96 110.195 155.756 110.195C149.552 110.195 144.5 105.143 144.5 98.9388C144.5 92.7348 149.552 87.6828 155.756 87.6828ZM155.756 85.9668C148.592 85.9668 142.784 91.7748 142.784 98.9388C142.784 106.103 148.592 111.911 155.756 111.911C162.92 111.911 168.728 106.103 168.728 98.9388C168.728 91.7748 162.92 85.9668 155.756 85.9668Z"
                      fill="#AE3E0F" />
            </g>
            <g style="mix-blend-mode:multiply">
                <path d="M156.958 109.042C161.875 109.042 165.862 105.056 165.862 100.138C165.862 95.2208 161.875 91.2344 156.958 91.2344C152.04 91.2344 148.054 95.2208 148.054 100.138C148.054 105.056 152.04 109.042 156.958 109.042Z"
                      fill="#54421F" />
            </g>
            <path style="mix-blend-mode:screen" opacity="0.32"
                  d="M145.81 109.163C146.014 114.599 151.102 118.823 157.174 118.595C163.246 118.367 168.01 113.783 167.806 108.335C167.602 102.887 162.514 98.6754 156.442 98.9034C150.37 99.1314 145.606 103.715 145.81 109.163Z"
                  fill="url(#paint11_linear_3577_14510)" />
            <path d="M143.099 88.727C142.583 89.267 143.315 91.235 144.467 92.579C145.055 93.263 146.543 94.175 147.467 93.395C148.247 92.735 148.199 91.463 147.227 90.443C146.003 89.171 143.711 88.091 143.099 88.727Z"
                  fill="white" />
        </g>
        <path style="mix-blend-mode:screen" opacity="0.43"
              d="M132.622 85.332C132.262 86.964 132.046 88.656 132.046 90.408C132.046 101.94 140.338 111.288 150.562 111.288C158.59 111.288 165.406 105.516 167.974 97.464C165.958 106.548 158.698 113.28 150.034 113.28C139.81 113.28 131.518 103.932 131.518 92.4C131.518 89.916 131.926 87.552 132.622 85.344V85.332Z"
              fill="url(#paint12_linear_3577_14510)" />
        <path d="M166.809 80.9873C159.201 66.2633 138.213 67.8353 133.005 84.1433C133.005 84.1433 131.013 79.9553 133.005 76.2473C135.201 72.1553 144.369 66.1553 154.833 69.9113C164.841 73.4993 166.809 80.9873 166.809 80.9873Z"
              fill="#4C2951" />
    </g>
    <g style="mix-blend-mode:multiply" opacity="0.68">
        <path d="M174.744 22.7525C174.744 22.7525 176.64 30.5765 174.744 38.0405C174.744 38.0405 173.268 31.3685 172.428 30.3965C171.588 29.4245 159.276 27.3125 154.236 28.4765C149.184 29.6285 137.304 37.1045 135.516 38.0525C133.728 39.0005 136.152 30.6845 139.728 28.2725C143.304 25.8485 153.504 22.7285 156.66 22.7645C159.816 22.8005 151.896 26.5925 150.876 26.9045C149.856 27.2165 148.668 26.5925 147.084 26.9885C145.5 27.3845 139.584 33.1445 142.356 31.7165C145.116 30.3005 157.656 24.0605 160.656 22.1765C163.656 20.2925 161.916 20.1245 147.324 24.3125C132.732 28.4885 136.548 27.7805 134.916 33.7805C133.284 39.7805 130.992 42.9365 134.148 41.0405C137.304 39.1445 144.264 31.6805 152.928 30.0005C161.58 28.3085 170.208 32.2925 171.54 33.8645C172.884 35.4365 174.912 41.8325 175.596 45.3005C176.28 48.7685 175.596 57.3725 175.596 57.3725C175.596 57.3725 172.8 44.0405 165.384 41.8325C157.968 39.6245 139.356 48.1445 135.48 51.1445C131.616 54.1445 122.46 75.2045 120.888 77.5685C119.316 79.9325 117.528 75.7445 117.528 75.7445L117.168 79.6925C117.168 79.6925 119.784 83.0885 121.116 79.6925C122.448 76.2965 127.428 64.3925 131.448 58.8725C135.468 53.3525 144.912 47.5085 149.436 45.2285C153.96 42.9485 166.788 44.4365 170.268 47.9885C173.748 51.5405 176.34 62.8205 176.82 65.8925C177.288 68.9645 177.216 77.5685 177.216 77.5685C177.216 77.5685 177.216 62.8925 178.476 58.3205C179.736 53.7485 185.1 43.8845 192.516 43.0925C199.932 42.3005 215.388 54.3005 219.648 58.9445C223.908 63.6005 225.168 68.8805 228.168 75.4325C231.168 81.9845 231.564 83.7125 234.792 85.2125C238.032 86.7125 240.156 85.9085 240.36 83.7845L240 79.5365C240 79.5365 240.228 83.0765 236.916 83.0765C233.604 83.0765 228.312 77.1605 226.344 70.0565C224.376 62.9525 222.636 57.7445 221.136 56.4125C219.636 55.0805 206.7 47.8085 200.94 43.9445C195.18 40.0805 188.952 38.7365 185.004 42.9965C181.056 47.2565 177.504 56.7965 177.348 59.2445C177.348 59.2445 175.536 40.4645 176.64 35.8205C177.744 31.1645 178.848 29.9045 184.056 29.6645C189.264 29.4245 206.22 31.0085 209.376 31.4045C212.532 31.8005 215.376 32.1125 207.96 28.0085C200.544 23.9045 192.888 22.1765 186.024 22.4885C179.16 22.8005 181.68 23.1245 188.628 24.4565C195.576 25.8005 198.564 28.0805 200.388 28.4765C202.2 28.8725 203.388 28.8725 204.492 29.1125C205.596 29.3525 200.664 26.8685 199.488 26.3525C198.312 25.8365 198.528 26.3165 194.244 25.5245C189.948 24.7325 187.464 23.3165 188.52 23.1605C189.588 23.0045 200.712 23.8685 205.404 26.9885C210.096 30.1085 210.408 30.8165 206.424 30.5765C202.44 30.3365 193.128 28.8005 186.744 27.8525C180.348 26.9045 180.672 26.9885 179.568 28.2845C178.464 29.5805 176.172 32.8565 176.256 34.2365C176.256 34.2365 175.296 26.7965 175.992 24.4805L174.732 22.7525H174.744Z"
              fill="#DB7DAF" />
    </g>
    <g style="mix-blend-mode:multiply" opacity="0.68">
        <path d="M125.626 52.5359C125.626 52.5359 135.67 45.7199 137.458 44.1479C139.246 42.5759 142.09 39.5759 136.57 41.8919C131.05 44.2079 129.838 43.3679 128.098 45.1559C126.358 46.9439 125.362 49.6319 126.418 48.6838C127.474 47.7358 130.522 46.0559 130.57 45.6359C130.618 45.2159 127.282 45.6479 132.718 43.4759C138.142 41.3039 138.622 43.1039 135.154 45.5279C131.686 47.9519 125.146 50.8799 125.146 50.8799L125.638 52.5479L125.626 52.5359Z"
              fill="#DB7DAF" />
    </g>
    <g style="mix-blend-mode:multiply" opacity="0.68">
        <path d="M231.648 60.5878C228.576 59.7958 222.336 51.8278 219.108 47.0158C215.868 42.2038 214.692 40.5478 216.192 40.5478C217.692 40.5478 220.368 37.7878 220.608 35.4238L223.116 36.4078C223.116 36.4078 221.004 39.2878 218.004 40.3918C215.004 41.4958 223.68 52.2238 225.816 54.2758C227.94 56.3278 228.576 50.3278 228.18 47.9998C227.784 45.6718 225.264 42.8278 224.004 42.3598C222.744 41.8918 224.472 44.9638 225.504 45.4318C226.524 45.8998 227.712 51.8998 226.92 50.7118C226.128 49.5238 222.504 41.8798 222.024 39.5038C221.556 37.1398 224.34 39.0478 227.7 45.3358C231.06 51.6238 229.2 55.1158 229.356 56.7718C229.512 58.4278 231.9 57.4798 231.9 57.4798L231.648 60.5518V60.5878Z"
              fill="#DB7DAF" />
    </g>
    <g opacity="0.7">
        <g style="mix-blend-mode:multiply" opacity="0.68">
            <path d="M205.416 26.9764C210.108 30.0964 210.42 30.8044 206.436 30.5644C205.404 30.5044 204.024 30.3604 202.428 30.1564C201.624 30.2524 200.688 30.3484 199.584 30.4324C199.524 30.4324 199.476 30.4324 199.416 30.4444C203.964 30.8164 208.008 31.2244 209.388 31.3924C212.544 31.7884 215.388 32.1004 207.972 27.9964C205.776 26.7844 203.556 25.8004 201.336 24.9844C201.528 25.1044 201.696 25.2244 201.876 25.3444C203.22 25.8004 204.444 26.3404 205.404 26.9764H205.416Z"
                  fill="#DB7DAF" />
        </g>
        <g style="mix-blend-mode:multiply" opacity="0.68">
            <path d="M236.943 83.0636C233.631 83.0636 228.339 77.1476 226.371 70.0436C224.403 62.9396 222.663 57.7316 221.163 56.3996C219.663 55.0556 206.727 47.7956 200.967 43.9316C195.207 40.0676 188.979 38.7236 185.031 42.9836C181.647 46.6436 178.563 54.1797 177.651 57.7917C178.719 55.4037 182.463 47.9276 189.003 43.3436C196.863 37.8236 200.715 45.3477 210.087 50.2917C219.447 55.2237 221.427 58.7636 226.239 70.8716C231.087 83.0396 238.071 88.8116 240.375 83.7716L240.015 79.5237C240.015 79.5237 240.243 83.0636 236.931 83.0636H236.943Z"
                  fill="#DB7DAF" />
        </g>
        <g style="mix-blend-mode:multiply" opacity="0.68">
            <path d="M224.281 53.9401C226.993 57.2281 229.861 60.1201 231.649 60.5761L231.901 57.5041C228.769 58.7401 228.697 57.5641 228.265 50.4121C228.181 52.0561 227.833 53.8201 227.173 54.4441C226.429 55.4161 225.349 54.9121 224.293 53.9401H224.281Z"
                  fill="#DB7DAF" />
        </g>
        <g style="mix-blend-mode:multiply" opacity="0.68">
            <path d="M217.143 40.2481C217.143 40.2481 217.191 40.2481 217.215 40.2241C219.999 39.3361 223.119 36.3961 223.119 36.3961L220.611 35.4121C220.419 37.3321 218.619 39.4921 217.143 40.2481Z"
                  fill="#DB7DAF" />
        </g>
        <g style="mix-blend-mode:multiply" opacity="0.68">
            <path d="M222.027 39.5156C222.495 41.8796 226.131 49.5356 226.923 50.7236C227.715 51.9116 226.527 45.9116 225.507 45.4436C224.487 44.9756 222.747 41.8916 224.007 42.3716C224.871 42.6956 226.323 44.1476 227.283 45.7676C225.591 41.0516 222.327 37.9796 222.003 38.8676C221.967 39.0236 221.979 39.2516 222.039 39.5276L222.027 39.5156Z"
                  fill="#DB7DAF" />
        </g>
        <g style="mix-blend-mode:multiply" opacity="0.68">
            <path d="M171.83 34.2479C173.162 36.3119 174.962 42.0479 175.586 45.2759C175.85 46.6559 175.91 48.8279 175.874 50.9639C176.306 45.1319 174.398 40.6919 176.258 34.2359C176.258 34.2359 175.79 30.6479 175.742 27.6719C175.742 27.6719 175.574 33.8879 175.43 33.8999C175.298 35.2559 175.082 36.6599 174.734 38.0519C174.734 38.0519 173.258 31.3799 172.418 30.4079C171.806 29.6999 165.194 28.4039 159.662 28.1879C161.954 28.2959 170.57 30.7439 171.818 34.2599L171.83 34.2479Z"
                  fill="#DB7DAF" />
        </g>
        <g style="mix-blend-mode:multiply" opacity="0.68">
            <path d="M187.129 24.1562C187.129 24.1562 183.397 23.3042 188.293 22.4642C187.537 22.4522 186.793 22.4522 186.061 22.4882C179.737 22.7762 181.393 23.0762 187.129 24.1682V24.1562Z"
                  fill="#DB7DAF" />
        </g>
        <g style="mix-blend-mode:multiply" opacity="0.68">
            <path d="M179.582 28.2718C178.478 29.5678 176.186 32.8438 176.27 34.2238C177.77 29.0278 184.61 27.8998 190.262 28.3678C189.038 28.1758 187.85 27.9958 186.758 27.8398C180.374 26.8918 180.686 26.9758 179.582 28.2718Z"
                  fill="#DB7DAF" />
        </g>
        <g style="mix-blend-mode:multiply" opacity="0.68">
            <path d="M124.141 71.0879C122.593 74.2919 121.381 76.8119 120.901 77.5439C119.329 79.9079 117.541 75.7199 117.541 75.7199L117.277 78.5639C120.877 82.5719 121.285 77.9399 124.141 71.0879Z"
                  fill="#DB7DAF" />
        </g>
        <g style="mix-blend-mode:multiply" opacity="0.68">
            <path d="M143.221 34.2249C144.793 32.8449 146.641 31.7529 147.985 31.0449C142.717 33.6849 136.753 37.4049 135.517 38.0529C135.205 38.2209 135.037 38.0889 134.965 37.7769C135.385 40.1529 137.413 38.5689 137.413 38.5689C139.033 37.2609 140.989 35.7009 143.209 34.2369C143.209 34.2369 143.209 34.2369 143.233 34.2129L143.221 34.2249Z"
                  fill="#DB7DAF" />
        </g>
        <g style="mix-blend-mode:multiply" opacity="0.68">
            <path d="M139.213 28.6683C139.381 28.5243 139.549 28.3803 139.717 28.2603C143.293 25.8363 153.493 22.7163 156.649 22.7523C158.053 22.6083 158.701 22.9203 158.977 23.1243C159.661 22.7403 160.237 22.4043 160.645 22.1523C163.645 20.2563 161.905 20.1003 147.313 24.2883C146.245 24.6003 145.285 24.8763 144.397 25.1283C142.321 25.7763 140.509 27.2883 139.201 28.6563L139.213 28.6683Z"
                  fill="#DB7DAF" />
        </g>
        <g style="mix-blend-mode:multiply" opacity="0.68">
            <path d="M165.387 41.8083C157.971 39.6003 139.359 48.1203 135.483 51.1203C133.611 52.5723 130.515 58.2363 127.635 63.9723C131.475 57.2163 137.535 49.4763 146.367 46.0563C158.583 41.3283 168.807 43.3803 170.235 45.3243C168.903 43.6923 167.307 42.3843 165.387 41.8083Z"
                  fill="#DB7DAF" />
        </g>
        <g style="mix-blend-mode:multiply" opacity="0.68">
            <path d="M125.631 52.537C125.631 52.537 128.655 50.485 131.691 48.373C129.807 49.465 127.671 50.113 125.991 50.485C125.463 50.725 125.139 50.881 125.139 50.881L125.631 52.549V52.537Z"
                  fill="#DB7DAF" />
        </g>
        <g style="mix-blend-mode:multiply" opacity="0.68">
            <path d="M133.442 47.1239C135.254 45.8399 136.838 44.6879 137.45 44.1479C139.238 42.5759 142.082 39.5759 136.562 41.8919C136.334 41.9879 136.118 42.0719 135.914 42.1559C139.178 42.4439 137.222 43.8479 133.454 47.1359L133.442 47.1239Z"
                  fill="#DB7DAF" />
        </g>
    </g>
    <g style="mix-blend-mode:multiply" opacity="0.5">
        <path d="M214.224 39.0851C208.704 37.0211 222.144 53.1491 227.28 57.8531C232.404 62.5451 234.6 61.5011 236.088 63.9731C237.576 66.4451 237.96 74.7011 236.088 78.3851C234.216 82.0691 228.24 75.2651 230.628 80.7611C233.016 86.2571 238.428 86.2451 239.46 86.5571C240.492 86.8691 240.108 94.7531 240.108 94.7531C241.848 80.7131 237.42 64.3811 236.244 62.8091C235.056 61.2371 231.672 60.6011 231.672 60.6011C231.672 60.6011 232.308 55.9451 231.672 53.4971C231.036 51.0491 226.464 39.0611 224.964 37.6451C223.464 36.2291 220.62 35.4371 220.62 35.4371C220.368 34.2491 219.672 32.9771 218.52 31.7051C221.16 34.7891 219.72 41.1611 214.236 39.1091L214.224 39.0851Z"
              fill="#DB7DAF" />
    </g>
    <g style="mix-blend-mode:multiply" opacity="0.5">
        <path d="M125.628 52.5367C125.628 52.5367 122.628 54.5047 120.42 57.4327C118.212 60.3607 116.004 95.1127 116.004 95.1127C116.004 95.1127 117 85.1167 118.224 83.3887C119.448 81.6487 118.98 85.2487 122.832 75.5767C126.672 65.9047 124.632 71.9887 123.132 73.2007C121.632 74.4007 118.896 63.7807 120.072 60.1087C121.248 56.4367 121.056 56.2567 125.94 52.5487C130.824 48.8407 139.68 43.4767 142.536 38.7127C145.392 33.9607 140.592 36.3127 143.664 33.9607C146.724 31.6087 144.684 32.7367 142.08 34.2487C139.476 35.7607 134.928 33.2527 138.3 29.6167C141.684 25.9807 136.212 28.3927 135.552 30.0127C134.892 31.6207 132.144 30.1087 135.456 26.4727C131.352 30.9607 124.932 46.5847 124.848 48.3727C124.764 50.2687 125.64 52.5487 125.64 52.5487L125.628 52.5367Z"
              fill="#DB7DAF" />
    </g>
    <g style="mix-blend-mode:multiply" opacity="0.5">
        <path d="M217.259 120.456C210.443 132.504 181.439 132.816 180.119 132.708C178.787 132.6 177.167 127.092 177.167 127.092C177.167 127.092 176.951 132.216 172.775 132.72C168.587 133.224 156.227 132.264 147.239 124.368C138.239 116.472 112.775 90.6484 111.611 101.568C111.743 105.72 118.799 119.448 121.991 121.872C125.303 124.392 148.967 134.964 176.003 133.86C203.039 132.756 223.919 128.496 230.543 123.372C237.167 118.248 245.063 103.26 244.343 99.9484C243.011 93.3844 224.063 108.408 217.247 120.456H217.259Z"
              fill="#DB7DAF" />
    </g>
    <g style="mix-blend-mode:multiply" opacity="0.37">
        <path d="M217.259 120.457C214.739 124.573 228.167 119.761 233.531 113.929C238.895 108.097 244.187 97.6206 239.627 99.0246C235.067 100.429 223.139 110.857 217.259 120.457Z"
              fill="#DB7DAF" />
    </g>
    <g style="mix-blend-mode:multiply" opacity="0.37">
        <path d="M117.277 99.7801C113.053 97.8001 120.397 115.608 127.633 119.436C134.869 123.264 147.337 124.524 143.533 121.02C139.741 117.516 126.337 104.028 117.277 99.7801Z"
              fill="#DB7DAF" />
    </g>
    <path style="mix-blend-mode:screen" opacity="0.43"
          d="M133.415 47.1729C133.787 46.8969 134.171 46.6209 134.543 46.3449C134.747 46.2009 134.939 46.0569 135.131 45.9129C135.251 45.8289 135.371 45.7449 135.479 45.6609C135.587 45.5769 135.695 45.5049 135.803 45.4209C136.007 45.2649 136.211 45.1209 136.391 44.9769C136.439 44.9409 136.463 44.9169 136.511 44.8809C136.667 44.7609 136.811 44.6529 136.943 44.5449C136.991 44.5089 137.027 44.4729 137.075 44.4489C137.219 44.3289 137.351 44.2209 137.459 44.1369C137.747 43.8849 138.059 43.5969 138.359 43.2969C140.135 41.7489 141.635 40.1889 142.535 38.7009C145.391 33.9489 140.591 36.3009 143.663 33.9489C143.687 33.9249 143.711 33.9129 143.735 33.8889C146.459 32.1609 149.567 30.6249 152.927 29.9649C161.579 28.2729 170.207 32.2569 171.539 33.8289C171.635 33.9369 171.731 34.0809 171.839 34.2369C172.247 34.8609 172.691 35.8329 173.135 36.9729C173.147 37.0089 173.159 37.0449 173.183 37.0809C173.255 37.2609 173.327 37.4529 173.399 37.6449C173.423 37.7049 173.447 37.7769 173.471 37.8369C173.531 38.0169 173.603 38.1969 173.663 38.3769C173.687 38.4609 173.723 38.5449 173.747 38.6289C173.807 38.7969 173.867 38.9769 173.927 39.1569C173.963 39.2529 173.987 39.3489 174.023 39.4449C174.083 39.6129 174.131 39.7809 174.191 39.9489C174.227 40.0569 174.263 40.1769 174.299 40.2849C174.347 40.4409 174.395 40.5969 174.443 40.7529C174.479 40.8729 174.515 41.0049 174.551 41.1249C174.599 41.2689 174.635 41.4129 174.683 41.5689C174.719 41.7009 174.755 41.8329 174.791 41.9649C174.827 42.0969 174.863 42.2289 174.899 42.3729C174.935 42.5169 174.971 42.6609 175.007 42.7929C175.043 42.9129 175.067 43.0329 175.103 43.1529C175.139 43.2969 175.175 43.4529 175.211 43.5969C175.235 43.7049 175.259 43.8009 175.283 43.9089C175.319 44.0649 175.355 44.2209 175.391 44.3769C175.415 44.4609 175.427 44.5449 175.451 44.6169C175.499 44.8449 175.547 45.0729 175.583 45.2769C175.619 45.4689 175.655 45.6969 175.679 45.9249C175.679 45.9969 175.703 46.0809 175.703 46.1649C175.727 46.3209 175.739 46.4889 175.751 46.6569C175.751 46.7529 175.763 46.8609 175.775 46.9569C175.787 47.1129 175.799 47.2809 175.811 47.4489C175.811 47.5569 175.823 47.6769 175.835 47.7849C175.835 47.9529 175.847 48.1329 175.859 48.3129C175.859 48.5769 175.871 48.8529 175.883 49.1409C175.883 49.2369 175.883 49.3209 175.883 49.4169C175.883 49.6329 175.883 49.8489 175.883 50.0649C175.883 50.1249 175.883 50.1969 175.883 50.2569C175.883 50.4969 175.883 50.7369 175.883 50.9649C175.835 54.2169 175.595 57.3489 175.595 57.3489C175.595 57.3489 174.059 50.0049 170.231 45.3129C170.063 45.1089 169.895 44.9169 169.727 44.7249C169.547 44.5329 169.379 44.3529 169.199 44.1729C169.007 43.9809 168.827 43.8249 168.659 43.6689C168.635 43.6569 168.623 43.6329 168.599 43.6209C168.431 43.4769 168.263 43.3449 168.095 43.2129C168.059 43.1889 168.035 43.1649 167.999 43.1409C167.843 43.0209 167.675 42.9129 167.507 42.8049C167.459 42.7809 167.423 42.7449 167.375 42.7209C167.219 42.6249 167.063 42.5289 166.895 42.4449C166.835 42.4089 166.787 42.3849 166.727 42.3489C166.559 42.2649 166.391 42.1929 166.223 42.1209C166.163 42.0969 166.115 42.0729 166.055 42.0489C165.827 41.9529 165.599 41.8689 165.359 41.8089C157.943 39.6009 139.331 48.1209 135.455 51.1209C135.335 51.2169 135.215 51.3249 135.083 51.4449C135.035 51.4929 134.987 51.5409 134.939 51.5889C134.855 51.6729 134.771 51.7689 134.675 51.8649C134.615 51.9249 134.555 52.0089 134.495 52.0809C134.411 52.1769 134.339 52.2729 134.255 52.3809C134.183 52.4649 134.123 52.5609 134.051 52.6569C133.991 52.7409 133.931 52.8129 133.871 52.8969C132.515 50.9169 132.287 48.9369 133.391 47.1729H133.415ZM170.267 47.9649C166.799 44.4009 153.959 42.9129 149.435 45.2049C146.063 46.9089 139.943 50.6049 135.383 54.6609C141.359 60.5409 154.703 48.9729 166.511 50.9769C172.523 51.9969 176.819 66.0129 176.807 65.8809C176.339 62.8089 173.735 51.5289 170.255 47.9769L170.267 47.9649ZM135.431 26.4609C135.227 26.6769 135.047 26.8929 134.891 27.0969C132.467 30.2649 134.891 31.4889 135.515 30.0009C135.815 27.9969 136.679 27.3969 144.395 25.1409C144.827 25.0089 145.271 24.8889 145.751 24.7449C146.291 24.5889 146.783 24.4449 147.311 24.2889C161.903 20.1129 163.643 20.2689 160.643 22.1529C160.439 22.2729 160.199 22.4289 159.923 22.5849C155.963 24.8889 144.911 30.3729 142.343 31.6929C139.583 33.1089 145.499 27.3489 147.071 26.9649C148.643 26.5809 149.831 27.2049 150.863 26.8809C151.883 26.5689 159.803 22.7769 156.647 22.7409C153.491 22.7049 143.291 25.8369 139.715 28.2489C139.547 28.3689 139.379 28.5129 139.211 28.6569C138.971 28.8609 138.731 29.0889 138.515 29.3409C138.455 29.4129 138.407 29.4729 138.335 29.5449C138.095 29.8329 137.855 30.1449 137.627 30.4689C135.671 33.6129 139.679 35.6049 142.067 34.2249C143.015 33.6729 143.879 33.1809 144.455 32.8809C144.635 32.7849 144.827 32.6769 145.007 32.5809C145.115 32.5209 145.223 32.4609 145.331 32.4009C145.655 32.2209 145.979 32.0529 146.315 31.8729C146.459 31.8009 146.591 31.7289 146.735 31.6569C147.155 31.4409 147.563 31.2249 147.971 31.0209C150.383 29.8089 152.639 28.8249 154.235 28.4529C157.211 27.7689 162.683 28.2249 166.859 28.9089C166.931 28.9209 167.003 28.9329 167.087 28.9449C167.363 28.9929 167.627 29.0409 167.891 29.0889C167.963 29.1009 168.023 29.1129 168.095 29.1249C168.503 29.1969 168.875 29.2809 169.247 29.3529C169.415 29.3889 169.583 29.4249 169.739 29.4609C169.871 29.4969 170.003 29.5209 170.135 29.5569C170.327 29.6049 170.507 29.6529 170.687 29.7009C170.771 29.7249 170.855 29.7489 170.927 29.7609C171.167 29.8329 171.383 29.8929 171.563 29.9529C171.611 29.9649 171.659 29.9889 171.707 30.0009C171.851 30.0489 171.971 30.0969 172.067 30.1449C172.103 30.1569 172.151 30.1809 172.175 30.1929C172.295 30.2529 172.391 30.3129 172.427 30.3729C173.267 31.3569 174.743 38.0169 174.743 38.0169C174.899 37.3929 175.031 36.7689 175.139 36.1449C175.163 36.0009 175.187 35.8449 175.211 35.7009C175.307 35.0889 175.391 34.4769 175.451 33.8769C176.003 27.9249 174.755 22.7409 174.755 22.7289C173.339 21.0249 170.831 18.6969 167.759 18.7449C162.947 18.8289 140.147 22.4529 136.127 25.7649C135.791 26.0409 135.431 26.4249 135.059 26.8689C135.191 26.7129 135.323 26.5569 135.443 26.4249L135.431 26.4609ZM175.751 27.6849C175.751 27.8049 175.751 27.9369 175.751 28.0689C175.751 28.1769 175.751 28.2729 175.751 28.3809C175.751 28.5129 175.751 28.6569 175.763 28.7889C175.763 28.8729 175.763 28.9569 175.775 29.0409C175.787 29.3049 175.799 29.5689 175.823 29.8329C175.823 29.9049 175.823 29.9649 175.835 30.0369C175.835 30.1929 175.859 30.3369 175.871 30.4929C175.871 30.5649 175.871 30.6249 175.883 30.6969C175.907 30.9729 175.931 31.2369 175.943 31.4889C175.943 31.5369 175.943 31.5849 175.955 31.6329C175.967 31.7649 175.979 31.8969 175.991 32.0289C175.991 32.0889 176.003 32.1609 176.015 32.2209C176.039 32.4729 176.063 32.7129 176.087 32.9169C176.099 33.0729 176.111 33.1689 176.123 33.2529C176.123 33.3129 176.135 33.3729 176.147 33.4209C176.147 33.4929 176.159 33.5769 176.171 33.6369C176.171 33.7329 176.195 33.8409 176.207 33.9129C176.207 33.9369 176.207 33.9609 176.207 33.9849C176.207 34.0449 176.219 34.1049 176.231 34.1409C176.231 34.1649 176.231 34.1889 176.231 34.2009C176.159 32.8689 178.451 29.5929 179.555 28.2969C180.659 27.0009 180.347 26.9169 186.731 27.8649C187.235 27.9369 187.751 28.0209 188.291 28.0929C188.435 28.1169 188.579 28.1409 188.723 28.1649C189.203 28.2369 189.695 28.3089 190.187 28.3929C194.303 29.0289 198.875 29.7369 202.403 30.1809C203.183 30.2769 203.927 30.3609 204.587 30.4329C204.899 30.4689 205.175 30.4929 205.427 30.5169C205.475 30.5169 205.523 30.5169 205.571 30.5289C205.871 30.5529 206.147 30.5769 206.399 30.5889C210.383 30.8289 210.071 30.1209 205.379 27.0009C205.115 26.8209 204.827 26.6529 204.515 26.4969C204.383 26.4249 204.239 26.3529 204.095 26.2929C203.927 26.2089 203.771 26.1369 203.591 26.0529C203.387 25.9689 203.183 25.8729 202.967 25.7889C202.859 25.7409 202.751 25.7049 202.643 25.6689C202.379 25.5729 202.115 25.4649 201.839 25.3809C196.559 23.5809 189.335 23.0529 188.483 23.1849C187.415 23.3409 189.911 24.7569 194.207 25.5489C198.503 26.3409 198.275 25.8609 199.451 26.3769C200.627 26.8929 205.559 29.3769 204.455 29.1369C203.351 28.8969 202.163 28.8969 200.351 28.5009C198.539 28.1049 195.539 25.8129 188.591 24.4809C187.703 24.3129 186.887 24.1569 186.155 24.0129C185.939 23.9649 185.723 23.9289 185.519 23.8929C185.399 23.8689 185.267 23.8449 185.147 23.8209C184.907 23.7729 184.691 23.7369 184.475 23.6889C184.355 23.6649 184.247 23.6409 184.139 23.6169C183.935 23.5689 183.731 23.5329 183.551 23.4969C183.443 23.4729 183.359 23.4489 183.263 23.4249C183.155 23.4009 183.047 23.3769 182.963 23.3529C182.867 23.3289 182.795 23.3049 182.711 23.2929C182.639 23.2689 182.555 23.2569 182.495 23.2329C182.423 23.2089 182.363 23.1969 182.303 23.1729C182.255 23.1609 182.207 23.1369 182.159 23.1249C182.111 23.1009 182.075 23.0889 182.039 23.0649C182.015 23.0529 181.991 23.0409 181.967 23.0169C181.943 23.0049 181.943 22.9809 181.931 22.9689C181.943 22.9089 181.967 22.8969 181.991 22.8849C182.015 22.8729 182.039 22.8609 182.075 22.8489C182.111 22.8369 182.159 22.8249 182.207 22.8129C182.255 22.8129 182.315 22.7889 182.375 22.7769C182.447 22.7649 182.507 22.7529 182.591 22.7409C182.675 22.7409 182.771 22.7169 182.855 22.7049C182.951 22.7049 183.035 22.6809 183.143 22.6689C183.263 22.6689 183.407 22.6449 183.539 22.6329C183.647 22.6329 183.755 22.6089 183.887 22.6089C184.055 22.5969 184.259 22.5849 184.463 22.5729C184.583 22.5729 184.691 22.5609 184.823 22.5489C185.171 22.5249 185.543 22.5129 185.951 22.4889C186.683 22.4529 187.439 22.4529 188.183 22.4649C193.055 22.5489 198.251 23.6649 203.447 25.8609C203.855 26.0289 204.263 26.2089 204.671 26.3889C204.971 26.5329 205.283 26.6769 205.583 26.8209C206.351 27.1929 207.119 27.5769 207.875 27.9969C215.291 32.1009 212.447 31.7889 209.291 31.3929C209.135 31.3689 208.931 31.3449 208.703 31.3209C208.667 31.3209 208.643 31.3209 208.607 31.3209C208.379 31.2969 208.127 31.2729 207.851 31.2369C207.803 31.2369 207.755 31.2369 207.707 31.2249C207.407 31.1889 207.095 31.1649 206.747 31.1289C206.711 31.1289 206.687 31.1289 206.651 31.1289C206.291 31.0929 205.907 31.0569 205.487 31.0209C205.463 31.0209 205.439 31.0209 205.427 31.0209C205.019 30.9849 204.587 30.9369 204.131 30.9009C204.107 30.9009 204.083 30.9009 204.071 30.9009C203.627 30.8649 203.159 30.8169 202.679 30.7689C202.619 30.7689 202.559 30.7689 202.499 30.7569C202.019 30.7089 201.539 30.6729 201.035 30.6249C200.987 30.6249 200.939 30.6249 200.879 30.6129C200.363 30.5649 199.835 30.5289 199.295 30.4809C193.487 30.0009 186.875 29.5569 183.947 29.7009C178.739 29.9409 177.635 31.2009 176.531 35.8569C175.427 40.5129 177.239 59.2809 177.239 59.2809C177.263 58.9329 177.359 58.4289 177.503 57.8409C177.719 56.9769 178.055 55.9089 178.499 54.7089C178.535 54.6249 178.559 54.5289 178.595 54.4449C178.679 54.2289 178.763 54.0009 178.847 53.7729C178.895 53.6409 178.955 53.4969 179.003 53.3649C179.087 53.1609 179.171 52.9569 179.255 52.7409C179.327 52.5729 179.399 52.4049 179.471 52.2369C179.555 52.0449 179.639 51.8529 179.723 51.6609C179.819 51.4569 179.903 51.2529 179.999 51.0489C180.071 50.8809 180.155 50.7129 180.227 50.5449C180.383 50.2089 180.539 49.8849 180.707 49.5489C180.743 49.4649 180.791 49.3809 180.827 49.2969C180.995 48.9609 181.163 48.6369 181.343 48.3009C181.403 48.1809 181.475 48.0609 181.547 47.9409C181.679 47.6889 181.823 47.4489 181.955 47.2089C182.027 47.0769 182.111 46.9449 182.195 46.8129C182.327 46.5849 182.459 46.3689 182.603 46.1529C182.687 46.0209 182.771 45.8889 182.855 45.7569C182.987 45.5409 183.131 45.3369 183.275 45.1329C183.359 45.0129 183.443 44.8929 183.527 44.7729C183.683 44.5569 183.827 44.3529 183.983 44.1609C184.055 44.0649 184.127 43.9689 184.199 43.8729C184.427 43.5849 184.655 43.3209 184.883 43.0689C188.831 38.8089 195.059 40.1529 200.819 44.0169C205.127 46.9089 213.443 51.6969 217.991 54.4809C219.131 52.4049 219.239 50.2329 218.231 48.0729C214.031 42.8409 210.887 37.9569 214.079 39.1569C219.551 41.2089 221.003 34.8369 218.363 31.7529C215.531 28.6209 209.855 25.4169 200.663 23.1849C187.727 20.0289 179.543 20.8689 177.923 21.8169C176.291 22.7649 175.871 24.5529 175.871 24.5529C175.655 25.2609 175.607 26.4489 175.619 27.7449L175.751 27.6849ZM192.515 43.0809C185.099 43.8729 179.735 53.7249 178.475 58.3089C178.007 60.0129 177.707 63.1089 177.527 66.3249C177.779 66.3249 179.219 50.9769 187.931 50.9769C202.523 50.9769 211.859 61.8969 216.851 56.2329C210.683 50.7849 198.755 42.4089 192.527 43.0809H192.515Z"
          fill="url(#paint13_linear_3577_14510)" />
    <g style="mix-blend-mode:multiply" opacity="0.5">
        <path d="M227.267 57.8524C221.987 52.5844 227.363 42.0364 228.455 44.7964C229.547 47.5444 231.467 52.5124 231.779 54.2284C232.091 55.9444 231.635 60.5884 231.635 60.5884C231.635 60.5884 229.787 60.3724 227.255 57.8524H227.267Z"
              fill="#DB7DAF" />
    </g>
    <g style="mix-blend-mode:multiply" opacity="0.5">
        <path d="M125.627 52.5367C125.627 52.5367 132.767 48.3847 134.663 45.1327C136.559 41.8807 131.675 31.9927 129.743 36.0127C127.811 40.0327 124.847 47.1727 124.823 48.6007C124.799 50.0287 125.615 52.5247 125.615 52.5247L125.627 52.5367Z"
              fill="#DB7DAF" />
    </g>
    <path style="mix-blend-mode:multiply" opacity="0.75"
          d="M111.634 101.1C111.166 104.568 118.678 119.352 121.99 121.872C124.366 123.684 137.23 129.636 154.294 132.456C145.738 129.54 144.13 119.568 133.822 112.14C123.514 104.724 111.718 106.86 112.954 100.428C114.178 93.9959 121.558 95.4959 122.914 93.0479C129.394 81.2759 127.978 67.9079 125.122 70.3919C122.278 72.8759 118.822 63.8999 120.406 57.4199C118.198 60.3359 115.99 95.0999 115.99 95.0999C115.99 95.0999 112.102 97.6199 111.622 101.1H111.634Z"
          fill="url(#paint14_linear_3577_14510)" />
    <path style="mix-blend-mode:multiply" opacity="0.75"
          d="M229.152 75.9245C227.496 73.8845 233.736 92.1125 235.26 94.7405C236.784 97.3685 241.032 92.5325 243.324 99.6245C245.616 106.717 224.496 110.017 217.824 119.545C211.308 128.857 211.272 129.373 202.584 131.533C216.288 129.565 226.308 126.649 230.532 123.385C237.156 118.261 245.052 103.273 244.332 99.9605C243.624 96.6485 240.072 94.7525 240.072 94.7525C241.704 81.5165 237.876 66.2525 236.448 63.2285C239.844 71.7485 230.784 77.9885 229.14 75.9365L229.152 75.9245Z"
          fill="url(#paint15_linear_3577_14510)" />
    <g style="mix-blend-mode:screen" opacity="0.43">
        <path d="M146.508 47.8561C147.444 47.6761 162.852 50.2081 167.04 50.4601C171.228 50.7121 172.356 49.596 169.236 47.136C166.116 44.676 154.668 44.2561 151.512 44.7961C148.356 45.3361 145.296 48.0841 146.508 47.8561Z"
              fill="#DB7DAF" />
    </g>
    <g style="mix-blend-mode:screen" opacity="0.43">
        <path d="M166.726 40.0558C163.498 37.1518 159.37 31.4878 155.614 31.6078C151.858 31.7278 146.278 33.0238 147.958 32.1838C149.638 31.3438 154.618 28.7398 162.814 30.3478C171.01 31.9558 171.394 34.4038 172.006 36.1678C172.618 37.9318 172.954 45.6718 166.726 40.0558Z"
              fill="#DB7DAF" />
    </g>
    <g style="mix-blend-mode:screen" opacity="0.43">
        <path d="M182.975 39.3247C188.375 35.8567 187.499 33.1927 192.779 32.3527C198.059 31.5127 208.103 32.0407 205.259 31.6207C202.415 31.2007 187.031 29.1367 181.667 30.2887C176.303 31.4407 177.371 38.9527 177.527 41.0527C177.683 43.1527 181.223 40.4527 182.963 39.3367L182.975 39.3247Z"
              fill="#DB7DAF" />
    </g>
    <g style="mix-blend-mode:screen" opacity="0.43">
        <path d="M186.263 46.788C187.343 48.42 198.059 46.248 203.267 48.372C208.475 50.496 199.115 44.412 194.735 43.464C190.355 42.516 185.939 46.308 186.263 46.8V46.788Z"
              fill="#DB7DAF" />
    </g>
    <g style="mix-blend-mode:screen" opacity="0.43">
        <path d="M205.188 26.0644C203.364 25.2604 211.188 26.4484 214.452 28.6684C217.728 30.8884 218.1 35.9404 216.852 34.6444C215.604 33.3364 214.032 29.9884 205.188 26.0644Z"
              fill="#DB7DAF" />
    </g>
    <g style="mix-blend-mode:screen" opacity="0.43">
        <path d="M176.425 24.9972C176.317 26.3772 189.061 25.3812 185.773 24.4932C182.485 23.6172 179.857 23.2332 181.381 22.1172C182.905 21.0012 176.773 20.3652 176.437 24.9972H176.425Z"
              fill="#DB7DAF" />
    </g>
    <g style="mix-blend-mode:screen" opacity="0.43">
        <path d="M161.879 20.1969C164.171 20.3649 169.787 23.4849 171.623 27.2049C173.459 30.9249 174.575 23.3289 172.463 21.3129C170.351 19.2969 169.511 19.2009 167.219 19.1289C164.927 19.0569 159.203 20.0049 161.879 20.1969Z"
              fill="#DB7DAF" />
    </g>
    <g style="mix-blend-mode:screen" opacity="0.43">
        <path d="M137.975 25.2613C137.111 25.7773 146.939 23.7253 150.383 22.3093C153.827 20.8933 141.071 23.3893 137.975 25.2613Z" fill="#DB7DAF" />
    </g>
    <path d="M181.668 30.2757C181.668 30.2757 188.376 35.1837 193.452 30.2757C193.452 30.2757 186.576 29.4357 181.668 30.2757Z" fill="white" />
    <path d="M158.627 29.9277C158.627 29.9277 169.163 38.4837 171.011 33.9957C171.011 33.9957 167.447 30.1917 158.627 29.9277Z" fill="white" />
    <path d="M166.885 19.4775C166.885 19.4775 167.881 23.1975 169.645 23.6775C171.409 24.1575 172.633 22.4535 172.633 22.4535C172.633 22.4535 172.489 18.8415 166.885 19.4775Z"
          fill="white" />
    <path d="M173.387 121.549C165.263 121.549 160.715 117.913 163.415 114.829C166.115 111.745 173.171 105.997 178.295 107.533C183.419 109.069 186.647 121.549 173.387 121.549Z"
          fill="#32236C" />
    <path d="M178.091 108.264C174.491 107.184 169.931 109.704 166.607 112.368C170.615 113.628 177.587 113.712 182.123 112.788C181.403 110.616 179.867 108.792 178.103 108.264H178.091Z"
          fill="url(#paint16_linear_3577_14510)" />
    <g style="mix-blend-mode:multiply" opacity="0.68">
        <path d="M178.091 108.264C174.491 107.184 169.931 109.704 166.607 112.368C167.363 112.608 168.227 112.8 169.151 112.956C175.667 107.352 178.511 107.184 181.079 112.98C181.439 112.92 181.787 112.86 182.111 112.788C181.391 110.616 179.855 108.792 178.091 108.264Z"
              fill="#D27DD6" />
    </g>
    <path style="mix-blend-mode:screen" opacity="0.43"
          d="M162.838 117.637C162.838 117.637 164.422 121.105 171.73 121.501C179.05 121.897 181.162 119.005 181.51 118.501C181.51 118.501 179.242 123.625 172.174 124.045C165.106 124.465 162.838 117.637 162.838 117.637Z"
          fill="url(#paint17_linear_3577_14510)" />
    <g style="mix-blend-mode:multiply" opacity="0.68">
        <path d="M152.027 65.3278C152.027 65.3278 162.287 56.7838 167.807 62.9878C167.807 62.9878 166.271 50.1478 152.027 65.3278Z" fill="#DB7DAF" />
    </g>
    <g style="mix-blend-mode:multiply" opacity="0.68">
        <path d="M185.783 62.9879C185.783 62.9879 192.959 57.0239 203.975 64.8839C203.975 64.8839 188.339 51.2759 185.783 62.9879Z" fill="#DB7DAF" />
    </g>
    <g style="mix-blend-mode:multiply" opacity="0.68">
        <path d="M167.806 62.9887C167.806 62.9887 167.626 61.4647 166.81 60.0967C164.086 56.7847 160.198 59.4247 154.834 63.3847C158.278 61.3087 164.11 58.8367 167.806 62.9887Z"
              fill="#DB7DAF" />
    </g>
    <g style="mix-blend-mode:multiply" opacity="0.68">
        <path d="M199.811 62.4607C199.811 62.4607 190.331 57.3847 187.139 59.9167C186.539 60.6487 186.071 61.6567 185.771 63.0007C185.771 63.0007 191.183 58.5127 199.799 62.4607H199.811Z"
              fill="#DB7DAF" />
    </g>
    <path d="M231.018 41.7995L122.812 40.3945L122.717 47.6939L230.924 49.0989L231.018 41.7995Z" fill="url(#paint18_linear_3577_14510)" />
    <path style="mix-blend-mode:multiply"
          d="M126.897 47.7461L126.844 51.8689L130.966 51.9224L130.913 56.0452L135.103 56.0996L135.05 60.2224L139.173 60.276L139.119 64.3988L162.707 64.7051L162.76 60.5823L166.951 60.6367L167.004 56.5139L171.127 56.5674L171.181 52.4446L171.234 48.3218L126.897 47.7461Z"
          fill="url(#paint19_linear_3577_14510)" />
    <path style="mix-blend-mode:multiply"
          d="M182.591 48.4707L182.538 52.5935L182.484 56.7163L186.607 56.7698L186.553 60.8926L190.744 60.9471L190.69 65.0699L214.346 65.377L214.399 61.2542L218.522 61.3077L218.575 57.1849L222.563 57.2367L222.617 53.1139L226.942 53.1701L226.996 49.0473L182.591 48.4707Z"
          fill="url(#paint20_linear_3577_14510)" />
    <path d="M147.346 56.2606L143.224 56.207L143.17 60.3298L147.293 60.3834L147.346 56.2606Z" fill="#F2F4F6" />
    <path d="M143.27 52.0848L139.147 52.0312L139.093 56.1541L143.216 56.2076L143.27 52.0848Z" fill="#F2F4F6" />
    <path d="M139.206 47.907L135.083 47.8535L135.03 51.9763L139.153 52.0299L139.206 47.907Z" fill="#F2F4F6" />
    <path d="M155.587 56.366L151.464 56.3125L151.411 60.4353L155.534 60.4888L155.587 56.366Z" fill="#F2F4F6" />
    <path d="M151.519 52.1903L147.396 52.1367L147.343 56.2595L151.466 56.3131L151.519 52.1903Z" fill="#F2F4F6" />
    <path d="M147.453 48.0145L143.331 47.9609L143.277 52.0837L147.4 52.1373L147.453 48.0145Z" fill="#F2F4F6" />
    <path d="M199.584 56.9383L195.461 56.8848L195.407 61.0076L199.53 61.0611L199.584 56.9383Z" fill="#F2F4F6" />
    <path d="M195.518 52.7625L191.395 52.709L191.341 56.8318L195.464 56.8853L195.518 52.7625Z" fill="#F2F4F6" />
    <path d="M191.452 48.5848L187.329 48.5312L187.276 52.6541L191.399 52.7076L191.452 48.5848Z" fill="#F2F4F6" />
    <path d="M207.835 57.0457L203.712 56.9922L203.659 61.115L207.782 61.1685L207.835 57.0457Z" fill="#F2F4F6" />
    <path d="M203.772 52.8699L199.649 52.8164L199.595 56.9392L203.718 56.9927L203.772 52.8699Z" fill="#F2F4F6" />
    <path d="M199.691 48.6922L195.568 48.6387L195.514 52.7615L199.637 52.815L199.691 48.6922Z" fill="#F2F4F6" />
    <g style="mix-blend-mode:soft-light">
        <path d="M162.766 60.5847L162.563 60.582L162.51 64.7048L162.713 64.7075L162.766 60.5847Z" fill="#DBDDDB" />
    </g>
    <g style="mix-blend-mode:soft-light">
        <path d="M214.407 61.2546L214.204 61.252L214.151 65.3748L214.354 65.3774L214.407 61.2546Z" fill="#DBDDDB" />
    </g>
    <g style="mix-blend-mode:soft-light">
        <path d="M218.578 57.1843L218.375 57.1816L218.321 61.3044L218.524 61.3071L218.578 57.1843Z" fill="#DBDDDB" />
    </g>
    <g style="mix-blend-mode:soft-light">
        <path d="M222.622 53.114L222.419 53.1113L222.365 57.2341L222.568 57.2368L222.622 53.114Z" fill="#DBDDDB" />
    </g>
    <g style="mix-blend-mode:soft-light">
        <path d="M167.007 56.5144L166.804 56.5117L166.75 60.6345L166.953 60.6372L167.007 56.5144Z" fill="#DBDDDB" />
    </g>
    <g style="mix-blend-mode:soft-light">
        <path d="M171.247 48.3229L171.044 48.3203L170.937 56.5659L171.14 56.5686L171.247 48.3229Z" fill="#DBDDDB" />
    </g>
    <path d="M229.876 41.0405L123.765 39.6627L122.809 40.3938L230.813 41.7962L229.876 41.0405Z" fill="url(#paint21_linear_3577_14510)" />
    <defs>
        <linearGradient id="paint0_linear_3577_14510" x1="225.069" y1="147.95" x2="255.513" y2="147.95" gradientUnits="userSpaceOnUse">
            <stop offset="0.3" stop-color="white" />
            <stop offset="1" stop-color="#DB7DAF" />
        </linearGradient>
        <linearGradient id="paint1_linear_3577_14510" x1="113.361" y1="117.675" x2="113.361" y2="57.2309" gradientUnits="userSpaceOnUse">
            <stop stop-color="#BDBDFF" />
            <stop offset="0.84" stop-color="#728CCE" />
        </linearGradient>
        <linearGradient id="paint2_linear_3577_14510" x1="107.912" y1="103.708" x2="107.912" y2="70.9719" gradientUnits="userSpaceOnUse">
            <stop offset="0.3" stop-color="white" />
            <stop offset="1" stop-color="#DB7DAF" />
        </linearGradient>
        <linearGradient id="paint3_linear_3577_14510" x1="178.007" y1="133.944" x2="178.007" y2="49.7045" gradientUnits="userSpaceOnUse">
            <stop offset="0.16" stop-color="#728CCE" />
            <stop offset="1" stop-color="#BDBDFF" />
        </linearGradient>
        <radialGradient id="paint4_radial_3577_14510" cx="0" cy="0" r="1" gradientUnits="userSpaceOnUse"
                        gradientTransform="translate(177.961 93.0929) scale(49.2 20.88)">
            <stop stop-color="#DB7DAF" />
            <stop offset="0.32" stop-color="#E5A3C6" />
            <stop offset="1" stop-color="white" />
        </radialGradient>
        <radialGradient id="paint5_radial_3577_14510" cx="0" cy="0" r="1" gradientUnits="userSpaceOnUse"
                        gradientTransform="translate(205.991 90.4074) scale(20.808)">
            <stop offset="0.41" stop-color="white" />
            <stop offset="0.6" stop-color="#FCFCFE" />
            <stop offset="0.7" stop-color="#F4F5FA" />
            <stop offset="0.77" stop-color="#E7E9F5" />
            <stop offset="0.84" stop-color="#D4D7EC" />
            <stop offset="0.89" stop-color="#BCC1E2" />
            <stop offset="0.95" stop-color="#9EA5D5" />
            <stop offset="1" stop-color="#7781C5" />
        </radialGradient>
        <linearGradient id="paint6_linear_3577_14510" x1="200.795" y1="111.899" x2="200.795" y2="85.9668" gradientUnits="userSpaceOnUse">
            <stop stop-color="#84AEFF" />
            <stop offset="0.13" stop-color="#698FD9" />
            <stop offset="0.3" stop-color="#496BAE" />
            <stop offset="0.47" stop-color="#314E8C" />
            <stop offset="0.63" stop-color="#1F3A74" />
            <stop offset="0.78" stop-color="#142E66" />
            <stop offset="0.9" stop-color="#112A61" />
        </linearGradient>
        <linearGradient id="paint7_linear_3577_14510" x1="198.1" y1="118.486" x2="201.406" y2="99.0111" gradientUnits="userSpaceOnUse">
            <stop offset="0.23" />
            <stop offset="0.3" stop-color="#080305" />
            <stop offset="0.4" stop-color="#1F0D15" />
            <stop offset="0.53" stop-color="#451C2E" />
            <stop offset="0.68" stop-color="#793251" />
            <stop offset="0.85" stop-color="#BB4D7D" />
            <stop offset="1" stop-color="#FF6AAB" />
        </linearGradient>
        <linearGradient id="paint8_linear_3577_14510" x1="188.592" y1="99.312" x2="225.048" y2="99.312" gradientUnits="userSpaceOnUse">
            <stop />
            <stop offset="0.1" stop-color="#2E1A25" />
            <stop offset="0.3" stop-color="#8A4F6E" />
            <stop offset="0.44" stop-color="#C4709D" />
            <stop offset="0.51" stop-color="#DB7DAF" />
            <stop offset="1" />
        </linearGradient>
        <radialGradient id="paint9_radial_3577_14510" cx="0" cy="0" r="1" gradientUnits="userSpaceOnUse"
                        gradientTransform="translate(150.562 90.4074) rotate(180) scale(20.808 20.808)">
            <stop offset="0.41" stop-color="white" />
            <stop offset="0.6" stop-color="#FCFCFE" />
            <stop offset="0.7" stop-color="#F4F5FA" />
            <stop offset="0.77" stop-color="#E7E9F5" />
            <stop offset="0.84" stop-color="#D4D7EC" />
            <stop offset="0.89" stop-color="#BCC1E2" />
            <stop offset="0.95" stop-color="#9EA5D5" />
            <stop offset="1" stop-color="#7781C5" />
        </radialGradient>
        <linearGradient id="paint10_linear_3577_14510" x1="155.756" y1="111.899" x2="155.756" y2="85.9668" gradientUnits="userSpaceOnUse">
            <stop stop-color="#84AEFF" />
            <stop offset="0.13" stop-color="#698FD9" />
            <stop offset="0.3" stop-color="#496BAE" />
            <stop offset="0.47" stop-color="#314E8C" />
            <stop offset="0.63" stop-color="#1F3A74" />
            <stop offset="0.78" stop-color="#142E66" />
            <stop offset="0.9" stop-color="#112A61" />
        </linearGradient>
        <linearGradient id="paint11_linear_3577_14510" x1="158.456" y1="118.451" x2="155.15" y2="98.9881" gradientUnits="userSpaceOnUse">
            <stop offset="0.23" />
            <stop offset="0.3" stop-color="#080305" />
            <stop offset="0.4" stop-color="#1F0D15" />
            <stop offset="0.53" stop-color="#451C2E" />
            <stop offset="0.68" stop-color="#793251" />
            <stop offset="0.85" stop-color="#BB4D7D" />
            <stop offset="1" stop-color="#FF6AAB" />
        </linearGradient>
        <linearGradient id="paint12_linear_3577_14510" x1="167.974" y1="99.312" x2="131.506" y2="99.312" gradientUnits="userSpaceOnUse">
            <stop />
            <stop offset="0.1" stop-color="#2E1A25" />
            <stop offset="0.3" stop-color="#8A4F6E" />
            <stop offset="0.44" stop-color="#C4709D" />
            <stop offset="0.51" stop-color="#DB7DAF" />
            <stop offset="1" />
        </linearGradient>
        <linearGradient id="paint13_linear_3577_14510" x1="176.243" y1="-203.531" x2="176.243" y2="-203.531" gradientUnits="userSpaceOnUse">
            <stop stop-color="#DB7DAF" />
            <stop offset="1" />
        </linearGradient>
        <linearGradient id="paint14_linear_3577_14510" x1="108.826" y1="103.14" x2="149.854" y2="91.3439" gradientUnits="userSpaceOnUse">
            <stop stop-color="white" />
            <stop offset="0.69" stop-color="#DB7DAF" />
        </linearGradient>
        <linearGradient id="paint15_linear_3577_14510" x1="204.3" y1="92.2685" x2="243.936" y2="105.553" gradientUnits="userSpaceOnUse">
            <stop offset="0.31" stop-color="#DB7DAF" />
            <stop offset="1" stop-color="white" />
        </linearGradient>
        <linearGradient id="paint16_linear_3577_14510" x1="166.607" y1="110.7" x2="182.123" y2="110.7" gradientUnits="userSpaceOnUse">
            <stop stop-color="#E5E6F3" />
            <stop offset="0.67" stop-color="#D6D8EC" />
            <stop offset="1" stop-color="#CED0E9" />
        </linearGradient>
        <linearGradient id="paint17_linear_3577_14510" x1="162.838" y1="120.841" x2="181.51" y2="120.841" gradientUnits="userSpaceOnUse">
            <stop />
            <stop offset="0.1" stop-color="#2E1A25" />
            <stop offset="0.3" stop-color="#8A4F6E" />
            <stop offset="0.44" stop-color="#C4709D" />
            <stop offset="0.51" stop-color="#DB7DAF" />
            <stop offset="1" />
        </linearGradient>
        <linearGradient id="paint18_linear_3577_14510" x1="176.945" y1="41.3678" x2="176.854" y2="48.3969" gradientUnits="userSpaceOnUse">
            <stop />
            <stop offset="1" stop-color="#161719" />
        </linearGradient>
        <linearGradient id="paint19_linear_3577_14510" x1="148.852" y1="64.4576" x2="149.067" y2="47.9664" gradientUnits="userSpaceOnUse">
            <stop stop-color="#787A87" />
            <stop offset="1" stop-color="#161719" />
        </linearGradient>
        <linearGradient id="paint20_linear_3577_14510" x1="206.003" y1="-41.8071" x2="206.003" y2="-41.8071" gradientUnits="userSpaceOnUse">
            <stop stop-color="#787A87" />
            <stop offset="1" stop-color="#161719" />
        </linearGradient>
        <linearGradient id="paint21_linear_3577_14510" x1="176.82" y1="40.3516" x2="176.811" y2="41.095" gradientUnits="userSpaceOnUse">
            <stop stop-color="#4E4F58" />
            <stop offset="0.04" stop-color="#A4A7B8" />
            <stop offset="0.84" stop-color="#4E4F58" />
            <stop offset="1" stop-color="#1E1E1E" />
        </linearGradient>
    </defs>
</svg>