<svg width="44" height="44" viewBox="0 0 44 44" fill="none" xmlns="http://www.w3.org/2000/svg">
<path d="M37.8544 4.9027L24.113 15.1086L26.6541 9.08726L37.8544 4.9027Z" fill="#DEDEE1" stroke="#E2761B" stroke-linecap="round" stroke-linejoin="round"/>
<path d="M6.13183 4.9027L19.7627 15.2053L17.3459 9.08726L6.13183 4.9027ZM32.9102 28.56L29.2505 34.167L37.081 36.3214L39.3321 28.6842L32.9102 28.56ZM4.68173 28.6842L6.91902 36.3214L14.7495 34.167L11.0898 28.56L4.68173 28.6842Z" fill="#DEDEE1" stroke="#E4761B" stroke-linecap="round" stroke-linejoin="round"/>
<path d="M14.3076 19.086L12.1255 22.3867L19.9008 22.732L19.6246 14.3766L14.3076 19.086ZM29.6786 19.086L24.2925 14.28L24.113 22.732L31.8744 22.3867L29.6786 19.086ZM14.7495 34.167L19.4175 31.8883L15.3848 28.7395L14.7495 34.167ZM24.5687 31.8883L29.2505 34.167L28.6014 28.7395L24.5687 31.8883Z" fill="#E4761B" stroke="#E4761B" stroke-linecap="round" stroke-linejoin="round"/>
<path d="M29.2505 34.167L24.5687 31.8883L24.9416 34.9404L24.9002 36.2247L29.2505 34.167ZM14.7495 34.167L19.0998 36.2247L19.0722 34.9404L19.4175 31.8883L14.7495 34.167Z" fill="#D7C1B3" stroke="#D7C1B3" stroke-linecap="round" stroke-linejoin="round"/>
<path d="M19.1689 26.7232L15.2743 25.5769L18.0226 24.3202L19.1689 26.7232ZM24.8173 26.7232L25.9636 24.3202L28.7257 25.5769L24.8173 26.7232Z" fill="#233447" stroke="#233447" stroke-linecap="round" stroke-linejoin="round"/>
<path d="M14.7495 34.167L15.4124 28.5599L11.0898 28.6842L14.7495 34.167ZM28.5876 28.5599L29.2505 34.167L32.9102 28.6842L28.5876 28.5599ZM31.8745 22.3867L24.113 22.732L24.8312 26.7232L25.9774 24.3202L28.7395 25.5769L31.8745 22.3867ZM15.2743 25.5769L18.0364 24.3202L19.1689 26.7232L19.9008 22.732L12.1256 22.3867L15.2743 25.5769Z" fill="#CD6116" stroke="#CD6116" stroke-linecap="round" stroke-linejoin="round"/>
<path d="M12.1255 22.3867L15.3848 28.7395L15.2743 25.5769L12.1255 22.3867ZM28.7395 25.5769L28.6014 28.7395L31.8744 22.3867L28.7395 25.5769ZM19.9008 22.732L19.1689 26.7232L20.0803 31.4325L20.2875 25.2316L19.9008 22.732ZM24.113 22.732L23.7401 25.2178L23.9058 31.4325L24.8311 26.7232L24.113 22.732Z" fill="#E4751F" stroke="#E4751F" stroke-linecap="round" stroke-linejoin="round"/>
<path d="M24.8311 26.7232L23.9058 31.4325L24.5687 31.8883L28.6014 28.7395L28.7395 25.5769L24.8311 26.7232ZM15.2743 25.5769L15.3848 28.7395L19.4174 31.8883L20.0803 31.4325L19.1689 26.7232L15.2743 25.5769Z" fill="#F6851B" stroke="#F6851B" stroke-linecap="round" stroke-linejoin="round"/>
<path d="M24.9002 36.2247L24.9416 34.9404L24.5964 34.6365H19.3898L19.0722 34.9404L19.0998 36.2247L14.7495 34.167L16.2687 35.4099L19.3484 37.5505H24.6378L27.7313 35.4099L29.2505 34.167L24.9002 36.2247Z" fill="#C0AD9E" stroke="#C0AD9E" stroke-linecap="round" stroke-linejoin="round"/>
<path d="M24.5688 31.8883L23.9059 31.4325H20.0804L19.4175 31.8883L19.0722 34.9404L19.3898 34.6365H24.5964L24.9416 34.9404L24.5688 31.8883Z" fill="#161616" stroke="#161616" stroke-linecap="round" stroke-linejoin="round"/>
<path d="M38.4344 15.7715L39.6083 10.1369L37.8544 4.9027L24.5687 14.7633L29.6786 19.086L36.9015 21.199L38.5035 19.3346L37.8129 18.8374L38.9178 17.8293L38.0615 17.1664L39.1664 16.3239L38.4344 15.7715ZM4.39172 10.1369L5.56561 15.7715L4.81985 16.3239L5.92468 17.1664L5.08224 17.8293L6.18708 18.8374L5.49656 19.3346L7.08476 21.199L14.3076 19.086L19.4175 14.7633L6.13184 4.9027L4.39172 10.1369Z" fill="#763D16" stroke="#763D16" stroke-linecap="round" stroke-linejoin="round"/>
<path d="M36.9014 21.199L29.6786 19.086L31.8744 22.3867L28.6014 28.7395L32.9102 28.6842H39.3321L36.9014 21.199ZM14.3076 19.086L7.08474 21.199L4.68173 28.6842H11.0898L15.3848 28.7395L12.1255 22.3867L14.3076 19.086ZM24.113 22.732L24.5687 14.7633L26.6679 9.08726H17.3459L19.4175 14.7633L19.9008 22.732L20.0665 25.2454L20.0803 31.4325H23.9058L23.9335 25.2454L24.113 22.732Z" fill="#F6851B" stroke="#F6851B" stroke-linecap="round" stroke-linejoin="round"/>
</svg>
