<svg width="396" height="90" viewBox="0 0 396 90" fill="none" xmlns="http://www.w3.org/2000/svg">
<g clip-path="url(#clip0_49_67)">
<g filter="url(#filter0_b_49_67)">
<mask id="path-1-outside-1_49_67" maskUnits="userSpaceOnUse" x="-9" y="-1" width="414" height="96" fill="black">
<rect fill="white" x="-9" y="-1" width="414" height="96"/>
<path fill-rule="evenodd" clip-rule="evenodd" d="M-7 0C-7.55228 0 -8 0.447715 -8 1V93C-8 93.5523 -7.55229 94 -7.00001 94H403C403.552 94 404 93.5523 404 93V1C404 0.447715 403.552 0 403 0H350.8C337.738 0 331.207 0 325.325 1.85823C320.119 3.50278 315.306 6.19545 311.18 9.77043C306.518 13.8099 303.1 19.3752 296.264 30.5057L278.46 59.4943C271.624 70.6248 268.206 76.1901 263.544 80.2296C259.419 83.8046 254.605 86.4972 249.4 88.1418C243.518 90 236.987 90 223.925 90H172.075C159.013 90 152.482 90 146.6 88.1418C141.395 86.4972 136.581 83.8046 132.456 80.2296C127.794 76.1901 124.376 70.6248 117.54 59.4943L99.7358 30.5057C92.8997 19.3752 89.4817 13.8099 84.82 9.77044C80.6944 6.19545 75.8807 3.50278 70.6752 1.85823C64.7934 0 58.2624 0 45.2002 0H-7Z"/>
</mask>
<path fill-rule="evenodd" clip-rule="evenodd" d="M-7 0C-7.55228 0 -8 0.447715 -8 1V93C-8 93.5523 -7.55229 94 -7.00001 94H403C403.552 94 404 93.5523 404 93V1C404 0.447715 403.552 0 403 0H350.8C337.738 0 331.207 0 325.325 1.85823C320.119 3.50278 315.306 6.19545 311.18 9.77043C306.518 13.8099 303.1 19.3752 296.264 30.5057L278.46 59.4943C271.624 70.6248 268.206 76.1901 263.544 80.2296C259.419 83.8046 254.605 86.4972 249.4 88.1418C243.518 90 236.987 90 223.925 90H172.075C159.013 90 152.482 90 146.6 88.1418C141.395 86.4972 136.581 83.8046 132.456 80.2296C127.794 76.1901 124.376 70.6248 117.54 59.4943L99.7358 30.5057C92.8997 19.3752 89.4817 13.8099 84.82 9.77044C80.6944 6.19545 75.8807 3.50278 70.6752 1.85823C64.7934 0 58.2624 0 45.2002 0H-7Z" fill="#111125"/>
<path d="M84.82 9.77044L85.4749 9.0147L84.82 9.77044ZM70.6752 1.85823L70.9765 0.904683L70.6752 1.85823ZM146.6 88.1418L146.299 89.0953L146.6 88.1418ZM117.54 59.4943L118.392 58.971L117.54 59.4943ZM132.456 80.2296L131.801 80.9853L132.456 80.2296ZM263.544 80.2296L264.199 80.9853L263.544 80.2296ZM249.4 88.1418L249.701 89.0953L249.4 88.1418ZM325.325 1.85823L325.626 2.81177L325.325 1.85823ZM296.264 30.5057L297.116 31.029L296.264 30.5057ZM311.18 9.77043L310.525 9.01469L311.18 9.77043ZM-7 1V1V-1C-8.10457 -1 -9 -0.10457 -9 1H-7ZM-7 93V1H-9V93H-7ZM-7.00001 93H-7H-9C-9 94.1046 -8.10459 95 -7.00001 95V93ZM403 93H-7.00001V95H403V93ZM403 93V95C404.105 95 405 94.1046 405 93H403ZM403 1V93H405V1H403ZM403 1V1H405C405 -0.104555 404.105 -1 403 -1V1ZM350.8 1H403V-1H350.8V1ZM295.412 29.9823L277.608 58.971L279.312 60.0177L297.116 31.029L295.412 29.9823ZM223.925 89H172.075V91H223.925V89ZM118.392 58.971L100.588 29.9823L98.8837 31.029L116.688 60.0177L118.392 58.971ZM-7 1H45.2002V-1H-7V1ZM100.588 29.9823C93.786 18.9074 90.2807 13.1791 85.4749 9.0147L84.1652 10.5262C88.6827 14.4407 92.0134 19.8429 98.8837 31.029L100.588 29.9823ZM45.2002 1C58.3276 1 64.6741 1.011 70.374 2.81177L70.9765 0.904683C64.9128 -1.011 58.1971 -1 45.2002 -1V1ZM85.4749 9.0147C81.2461 5.35034 76.3121 2.59035 70.9765 0.904683L70.374 2.81177C75.4493 4.41521 80.1427 7.04056 84.1652 10.5262L85.4749 9.0147ZM172.075 89C158.948 89 152.602 88.989 146.902 87.1882L146.299 89.0953C152.363 91.011 159.078 91 172.075 91V89ZM116.688 60.0177C123.49 71.0926 126.995 76.8209 131.801 80.9853L133.11 79.4738C128.593 75.5593 125.262 70.1571 118.392 58.971L116.688 60.0177ZM146.902 87.1882C141.826 85.5848 137.133 82.9594 133.11 79.4738L131.801 80.9853C136.029 84.6497 140.964 87.4096 146.299 89.0953L146.902 87.1882ZM277.608 58.971C270.738 70.1571 267.407 75.5593 262.89 79.4738L264.199 80.9853C269.005 76.8209 272.51 71.0926 279.312 60.0177L277.608 58.971ZM223.925 91C236.922 91 243.637 91.011 249.701 89.0953L249.098 87.1882C243.398 88.989 237.052 89 223.925 89V91ZM262.89 79.4738C258.867 82.9594 254.174 85.5848 249.098 87.1882L249.701 89.0953C255.036 87.4097 259.971 84.6497 264.199 80.9853L262.89 79.4738ZM350.8 -1C337.803 -1 331.087 -1.011 325.024 0.904682L325.626 2.81177C331.326 1.011 337.672 1 350.8 1V-1ZM297.116 31.029C303.987 19.8429 307.317 14.4407 311.835 10.5262L310.525 9.01469C305.719 13.1791 302.214 18.9074 295.412 29.9823L297.116 31.029ZM325.024 0.904682C319.688 2.59035 314.754 5.35033 310.525 9.01469L311.835 10.5262C315.857 7.04056 320.551 4.41521 325.626 2.81177L325.024 0.904682Z" fill="#313143" mask="url(#path-1-outside-1_49_67)"/>
</g>
<g filter="url(#filter1_b_49_67)">
<path fill-rule="evenodd" clip-rule="evenodd" d="M112.813 72.5869C116.58 78.7194 116.197 88 109 88H12C5.37261 88 3.05231e-05 82.6274 3.05231e-05 76V18C3.05231e-05 11.3726 5.37261 6 12 6H38.8006C50.8827 6 56.9237 6 62.3642 7.71875C67.1791 9.23986 71.6317 11.7304 75.4478 15.0371C79.7598 18.7734 82.9215 23.9209 89.245 34.2161L112.813 72.5869Z" fill="url(#paint0_radial_49_67)"/>
</g>
<g filter="url(#filter2_b_49_67)">
<path fill-rule="evenodd" clip-rule="evenodd" d="M283.186 72.5884C279.42 78.7204 279.803 88 287 88H384C390.627 88 396 82.6274 396 76V18C396 11.3726 390.627 6 384 6H357.2C345.118 6 339.077 6 333.636 7.71875C328.821 9.23986 324.369 11.7304 320.553 15.0371C316.241 18.7734 313.079 23.9209 306.756 34.2161L283.186 72.5884Z" fill="url(#paint1_radial_49_67)"/>
</g>
</g>
<defs>
<filter id="filter0_b_49_67" x="-13" y="-5" width="422" height="104" filterUnits="userSpaceOnUse" color-interpolation-filters="sRGB">
<feFlood flood-opacity="0" result="BackgroundImageFix"/>
<feGaussianBlur in="BackgroundImageFix" stdDeviation="2"/>
<feComposite in2="SourceAlpha" operator="in" result="effect1_backgroundBlur_49_67"/>
<feBlend mode="normal" in="SourceGraphic" in2="effect1_backgroundBlur_49_67" result="shape"/>
</filter>
<filter id="filter1_b_49_67" x="-3.99997" y="2" width="123.171" height="90" filterUnits="userSpaceOnUse" color-interpolation-filters="sRGB">
<feFlood flood-opacity="0" result="BackgroundImageFix"/>
<feGaussianBlur in="BackgroundImageFix" stdDeviation="2"/>
<feComposite in2="SourceAlpha" operator="in" result="effect1_backgroundBlur_49_67"/>
<feBlend mode="normal" in="SourceGraphic" in2="effect1_backgroundBlur_49_67" result="shape"/>
</filter>
<filter id="filter2_b_49_67" x="276.829" y="2" width="123.171" height="90" filterUnits="userSpaceOnUse" color-interpolation-filters="sRGB">
<feFlood flood-opacity="0" result="BackgroundImageFix"/>
<feGaussianBlur in="BackgroundImageFix" stdDeviation="2"/>
<feComposite in2="SourceAlpha" operator="in" result="effect1_backgroundBlur_49_67"/>
<feBlend mode="normal" in="SourceGraphic" in2="effect1_backgroundBlur_49_67" result="shape"/>
</filter>
<radialGradient id="paint0_radial_49_67" cx="0" cy="0" r="1" gradientUnits="userSpaceOnUse" gradientTransform="translate(57.5855 6) rotate(90) scale(82 115.171)">
<stop stop-color="#EFEFEE" stop-opacity="0.04"/>
<stop offset="1" stop-color="#EFEFEE" stop-opacity="0.1"/>
</radialGradient>
<radialGradient id="paint1_radial_49_67" cx="0" cy="0" r="1" gradientUnits="userSpaceOnUse" gradientTransform="translate(338.414 6) rotate(90) scale(82 115.171)">
<stop stop-color="#EFEFEE" stop-opacity="0.04"/>
<stop offset="1" stop-color="#EFEFEE" stop-opacity="0.1"/>
</radialGradient>
<clipPath id="clip0_49_67">
<rect width="396" height="90" fill="white"/>
</clipPath>
</defs>
</svg>
