<svg width="150" height="220" viewBox="0 0 150 220" fill="none" xmlns="http://www.w3.org/2000/svg">
<path fill-rule="evenodd" clip-rule="evenodd" d="M75.0327 152.085L18.2246 129.599L75.0111 109.23L131.798 129.599L75.0111 152.085H75.0327Z" fill="#C2C2C2"/>
<path fill-rule="evenodd" clip-rule="evenodd" d="M75.0106 150.095V111.172L23.4297 129.683L75.0106 150.095Z" fill="url(#paint0_radial_2266_12350)"/>
<path fill-rule="evenodd" clip-rule="evenodd" d="M75.0117 111.172V150.095L126.593 129.683L75.0117 111.172Z" fill="url(#paint1_radial_2266_12350)"/>
<path style="mix-blend-mode:screen" opacity="0.8" fill-rule="evenodd" clip-rule="evenodd" d="M82.7029 176.629C81.3516 177.505 79.5499 177.129 78.6491 175.778C77.7733 174.427 78.1486 172.625 79.4999 171.724C80.8512 170.848 82.6528 171.224 83.5537 172.575C84.4295 173.926 84.0542 175.728 82.7029 176.629Z" fill="url(#paint2_radial_2266_12350)"/>
<path style="mix-blend-mode:screen" opacity="0.8" fill-rule="evenodd" clip-rule="evenodd" d="M58.1297 137.988C57.0286 138.713 55.5272 138.413 54.8015 137.287C54.0759 136.186 54.3761 134.684 55.5022 133.959C56.6032 133.233 58.1046 133.533 58.8303 134.659C59.556 135.76 59.2557 137.262 58.1297 137.988Z" fill="url(#paint3_radial_2266_12350)"/>
<path style="mix-blend-mode:screen" opacity="0.8" fill-rule="evenodd" clip-rule="evenodd" d="M92.5877 150.676C91.2364 151.552 89.4347 151.176 88.5339 149.825C87.6581 148.474 88.0334 146.672 89.3847 145.771C90.7359 144.895 92.5376 145.271 93.4384 146.622C94.3143 147.973 93.9389 149.775 92.5877 150.676Z" fill="url(#paint4_radial_2266_12350)"/>
<path style="mix-blend-mode:screen" fill-rule="evenodd" clip-rule="evenodd" d="M77.9732 137.141C76.672 137.992 74.8954 137.641 74.0446 136.315C73.1938 135.014 73.5441 133.237 74.8703 132.386C76.1716 131.536 77.9482 131.886 78.799 133.212C79.6498 134.513 79.2995 136.29 77.9732 137.141Z" fill="url(#paint5_radial_2266_12350)"/>
<path style="mix-blend-mode:screen" opacity="0.5" fill-rule="evenodd" clip-rule="evenodd" d="M76.6228 168.293C73.4699 170.37 69.2159 169.469 67.1389 166.316C65.062 163.163 65.9628 158.909 69.1158 156.832C72.2687 154.755 76.5227 155.656 78.5997 158.809C80.6766 161.962 79.7758 166.216 76.6228 168.293Z" fill="url(#paint6_radial_2266_12350)"/>
<path style="mix-blend-mode:screen" opacity="0.5" fill-rule="evenodd" clip-rule="evenodd" d="M94.9888 164.461C92.6616 165.988 89.5337 165.337 87.9822 163.01C86.4308 160.683 87.1064 157.555 89.4336 156.003C91.7608 154.477 94.8887 155.128 96.4151 157.455C97.9415 159.782 97.2909 162.91 94.9637 164.461H94.9888Z" fill="url(#paint7_radial_2266_12350)"/>
<path style="mix-blend-mode:screen" opacity="0.5" d="M106.668 140.715C108.686 140.715 110.321 139.079 110.321 137.062C110.321 135.044 108.686 133.408 106.668 133.408C104.65 133.408 103.015 135.044 103.015 137.062C103.015 139.079 104.65 140.715 106.668 140.715Z" fill="url(#paint8_radial_2266_12350)"/>
<path style="mix-blend-mode:screen" opacity="0.75" fill-rule="evenodd" clip-rule="evenodd" d="M38.5864 165.416C35.8088 167.242 32.0553 166.467 30.2286 163.689C28.4019 160.911 29.1776 157.158 31.9552 155.331C34.7328 153.504 38.4863 154.28 40.313 157.058C42.1397 159.835 41.364 163.589 38.5864 165.416Z" fill="url(#paint9_radial_2266_12350)"/>
<path style="mix-blend-mode:screen" opacity="0.75" fill-rule="evenodd" clip-rule="evenodd" d="M104.365 153.452C106.091 152.326 108.393 152.801 109.545 154.528C110.671 156.254 110.195 158.557 108.469 159.708C106.742 160.834 104.44 160.358 103.289 158.632C102.163 156.905 102.638 154.603 104.365 153.452Z" fill="url(#paint10_radial_2266_12350)"/>
<path style="mix-blend-mode:screen" fill-rule="evenodd" clip-rule="evenodd" d="M73.5428 159.669C72.3166 160.47 70.6901 160.12 69.8894 158.919C69.0886 157.693 69.439 156.066 70.6401 155.265C71.8662 154.465 73.4928 154.815 74.2935 156.016C75.0943 157.242 74.7439 158.869 73.5428 159.669Z" fill="url(#paint11_radial_2266_12350)"/>
<path style="mix-blend-mode:screen" fill-rule="evenodd" clip-rule="evenodd" d="M83.226 153.336C81.4493 154.512 79.0471 154.011 77.896 152.235C76.7199 150.458 77.2204 148.056 78.997 146.905C80.7737 145.729 83.176 146.229 84.327 148.006C85.5031 149.782 85.0027 152.185 83.226 153.336Z" fill="url(#paint12_radial_2266_12350)"/>
<path style="mix-blend-mode:screen" fill-rule="evenodd" clip-rule="evenodd" d="M119.463 168.373C118.237 169.173 116.61 168.823 115.809 167.622C115.009 166.396 115.359 164.769 116.56 163.968C117.786 163.168 119.413 163.518 120.213 164.719C121.014 165.945 120.664 167.572 119.463 168.373Z" fill="url(#paint13_radial_2266_12350)"/>
<path style="mix-blend-mode:screen" fill-rule="evenodd" clip-rule="evenodd" d="M67.6141 149.518C65.4371 150.944 62.5343 150.344 61.133 148.167C59.7067 145.99 60.3073 143.087 62.4843 141.686C64.6613 140.259 67.5641 140.86 68.9654 143.037C70.3917 145.214 69.7912 148.117 67.6141 149.518Z" fill="url(#paint14_radial_2266_12350)"/>
<path style="mix-blend-mode:screen" fill-rule="evenodd" clip-rule="evenodd" d="M78.898 175.3C78.3475 175.65 77.6218 175.5 77.2715 174.95C76.9211 174.399 77.0713 173.674 77.6218 173.323C78.1723 172.973 78.898 173.123 79.2483 173.674C79.5986 174.224 79.4485 174.95 78.898 175.3Z" fill="url(#paint15_radial_2266_12350)"/>
<path style="mix-blend-mode:screen" fill-rule="evenodd" clip-rule="evenodd" d="M97.567 170.546C97.0164 170.896 96.2907 170.746 95.9404 170.196C95.5901 169.645 95.7402 168.92 96.2907 168.569C96.8413 168.219 97.567 168.369 97.9173 168.92C98.2676 169.47 98.1175 170.196 97.567 170.546Z" fill="url(#paint16_radial_2266_12350)"/>
<path style="mix-blend-mode:screen" fill-rule="evenodd" clip-rule="evenodd" d="M109.903 157.434C110.654 156.933 111.68 157.158 112.18 157.909C112.681 158.66 112.456 159.686 111.705 160.186C110.954 160.687 109.928 160.462 109.428 159.711C108.927 158.96 109.153 157.934 109.903 157.434Z" fill="url(#paint17_radial_2266_12350)"/>
<path style="mix-blend-mode:screen" fill-rule="evenodd" clip-rule="evenodd" d="M80.3257 148.081C79.7752 148.432 79.0495 148.282 78.6992 147.731C78.3489 147.18 78.499 146.455 79.0495 146.104C79.6 145.754 80.3257 145.904 80.6761 146.455C81.0264 147.005 80.8762 147.731 80.3257 148.081Z" fill="url(#paint18_radial_2266_12350)"/>
<path style="mix-blend-mode:screen" fill-rule="evenodd" clip-rule="evenodd" d="M71.115 124.378C71.6655 124.028 72.3911 124.178 72.7415 124.728C73.0918 125.279 72.9417 126.004 72.3911 126.355C71.8406 126.705 71.115 126.555 70.7646 126.004C70.4143 125.454 70.5644 124.728 71.115 124.378Z" fill="url(#paint19_radial_2266_12350)"/>
<path style="mix-blend-mode:screen" fill-rule="evenodd" clip-rule="evenodd" d="M49.1724 153.23C48.6219 153.58 47.8962 153.43 47.5459 152.879C47.1956 152.329 47.3457 151.603 47.8962 151.253C48.4467 150.903 49.1724 151.053 49.5227 151.603C49.8731 152.154 49.7229 152.879 49.1724 153.23Z" fill="url(#paint20_radial_2266_12350)"/>
<path style="mix-blend-mode:screen" opacity="0.5" fill-rule="evenodd" clip-rule="evenodd" d="M80.9517 113.772C79.9257 114.448 78.5244 114.173 77.8488 113.122C77.1731 112.071 77.4484 110.694 78.4994 110.019C79.5254 109.343 80.9267 109.618 81.6023 110.669C82.2779 111.695 82.0027 113.097 80.9517 113.772Z" fill="url(#paint21_radial_2266_12350)"/>
<path style="mix-blend-mode:screen" fill-rule="evenodd" clip-rule="evenodd" d="M45.642 142.845C43.8903 143.996 41.5131 143.495 40.362 141.744C39.2109 139.992 39.7114 137.615 41.463 136.464C43.2147 135.312 45.5919 135.813 46.743 137.565C47.8941 139.316 47.3936 141.693 45.642 142.845Z" fill="url(#paint22_radial_2266_12350)"/>
<path style="mix-blend-mode:screen" opacity="0.75" fill-rule="evenodd" clip-rule="evenodd" d="M45.9414 145.541C44.7653 146.316 43.1638 145.991 42.3881 144.79C41.6124 143.614 41.9377 142.012 43.1388 141.237C44.3149 140.461 45.9164 140.786 46.6921 141.987C47.4679 143.189 47.1425 144.765 45.9414 145.541Z" fill="url(#paint23_radial_2266_12350)"/>
<path style="mix-blend-mode:screen" fill-rule="evenodd" clip-rule="evenodd" d="M91.1105 131.162C90.1847 131.762 88.9335 131.512 88.3329 130.586C87.7324 129.66 87.9826 128.409 88.9085 127.809C89.8343 127.208 91.0855 127.458 91.6861 128.384C92.2866 129.31 92.0364 130.561 91.1105 131.162Z" fill="url(#paint24_radial_2266_12350)"/>
<path style="mix-blend-mode:screen" fill-rule="evenodd" clip-rule="evenodd" d="M109.344 148.97C108.719 149.37 107.868 149.195 107.467 148.57C107.067 147.944 107.242 147.093 107.868 146.693C108.493 146.293 109.344 146.468 109.745 147.093C110.145 147.719 109.97 148.57 109.344 148.97Z" fill="url(#paint25_radial_2266_12350)"/>
<path style="mix-blend-mode:screen" fill-rule="evenodd" clip-rule="evenodd" d="M41.8859 160.855C40.1843 161.981 37.9072 161.505 36.7812 159.804C35.6551 158.102 36.1305 155.825 37.8321 154.699C39.5337 153.573 41.8109 154.049 42.9369 155.75C44.063 157.452 43.5875 159.729 41.8859 160.855Z" fill="url(#paint26_radial_2266_12350)"/>
<path style="mix-blend-mode:screen" fill-rule="evenodd" clip-rule="evenodd" d="M69.4394 147.373C68.5385 147.974 67.3124 147.724 66.7118 146.798C66.1113 145.897 66.3615 144.671 67.2874 144.07C68.1882 143.47 69.4144 143.72 70.0149 144.646C70.6155 145.547 70.3653 146.773 69.4394 147.373Z" fill="url(#paint27_radial_2266_12350)"/>
<path style="mix-blend-mode:screen" fill-rule="evenodd" clip-rule="evenodd" d="M89.5329 164.819C88.4569 165.52 87.0055 165.219 86.3049 164.143C85.6042 163.067 85.9045 161.616 86.9805 160.915C88.0565 160.215 89.5079 160.515 90.2085 161.591C90.9092 162.667 90.6089 164.118 89.5329 164.819Z" fill="url(#paint28_radial_2266_12350)"/>
<path style="mix-blend-mode:screen" fill-rule="evenodd" clip-rule="evenodd" d="M85.3287 144.095C84.5029 144.646 83.4019 144.396 82.8514 143.57C82.3008 142.744 82.5511 141.643 83.3769 141.093C84.2026 140.542 85.3037 140.792 85.8542 141.618C86.4047 142.444 86.1545 143.545 85.3287 144.095Z" fill="url(#paint29_radial_2266_12350)"/>
<path style="mix-blend-mode:screen" opacity="0.5" fill-rule="evenodd" clip-rule="evenodd" d="M120.614 165.304C119.989 165.704 119.163 165.529 118.763 164.929C118.362 164.303 118.537 163.477 119.138 163.077C119.763 162.677 120.589 162.852 120.99 163.452C121.39 164.078 121.215 164.904 120.614 165.304Z" fill="url(#paint30_radial_2266_12350)"/>
<path style="mix-blend-mode:screen" opacity="0.75" fill-rule="evenodd" clip-rule="evenodd" d="M54.7759 159.763C51.9983 161.59 48.2448 160.814 46.418 158.037C44.5913 155.259 45.3671 151.505 48.1447 149.679C50.9223 147.852 54.6758 148.628 56.5025 151.405C58.3292 154.183 57.5535 157.937 54.7759 159.763Z" fill="url(#paint31_radial_2266_12350)"/>
<path style="mix-blend-mode:screen" fill-rule="evenodd" clip-rule="evenodd" d="M54.9531 151.676C53.9272 152.352 52.5759 152.052 51.9003 151.051C51.2246 150.025 51.5249 148.674 52.5258 147.998C53.5518 147.322 54.9031 147.623 55.5787 148.624C56.2543 149.649 55.9541 151.001 54.9531 151.676Z" fill="url(#paint32_radial_2266_12350)"/>
<path style="mix-blend-mode:screen" fill-rule="evenodd" clip-rule="evenodd" d="M36.8885 178.812C35.2607 179.889 33.0597 179.431 31.9821 177.78C30.9046 176.129 31.3631 173.951 33.0139 172.874C34.6417 171.796 36.8427 172.255 37.9202 173.905C38.9978 175.533 38.5393 177.734 36.8885 178.812Z" fill="url(#paint33_radial_2266_12350)"/>
<path fill-rule="evenodd" clip-rule="evenodd" d="M75.0327 152.085L18.2246 129.599L75.0111 109.23L131.798 129.599L75.0111 152.085H75.0327ZM126.592 129.686L75.0111 111.196L23.4302 129.686L75.0111 150.098L126.592 129.686Z" fill="url(#paint34_radial_2266_12350)"/>
<path fill-rule="evenodd" clip-rule="evenodd" d="M74.645 150.794L17.8369 128.309C19.4569 149.649 20.2993 171.681 20.0617 192.353C20.0617 192.914 20.3857 193.368 20.8825 193.627L72.5282 218.899C73.2194 219.245 73.9322 219.396 74.6234 219.396C75.3146 219.396 76.049 219.223 76.7186 218.899L128.364 193.627C128.861 193.389 129.185 192.914 129.185 192.353C128.948 171.681 129.79 149.649 131.41 128.309L74.6018 150.794H74.645Z" fill="#7C21DC"/>
<path fill-rule="evenodd" clip-rule="evenodd" d="M74.645 150.79L17.8369 128.305C19.4569 149.645 20.2993 171.677 20.0617 192.349C20.0617 192.91 20.3857 193.364 20.8825 193.623L72.5282 218.895C73.2194 219.241 73.9322 219.392 74.6234 219.392V150.79H74.645Z" fill="url(#paint35_radial_2266_12350)"/>
<path fill-rule="evenodd" clip-rule="evenodd" d="M74.6445 150.794L131.453 128.309C129.833 149.649 128.99 171.681 129.228 192.353C129.228 192.914 128.904 193.368 128.407 193.627L76.7613 218.899C76.0701 219.245 75.3573 219.396 74.6661 219.396V150.794H74.6445Z" fill="url(#paint36_radial_2266_12350)"/>
<path fill-rule="evenodd" clip-rule="evenodd" d="M74.645 150.794L17.8369 128.309C19.4569 149.649 20.2993 171.681 20.0617 192.353C20.0617 192.914 20.3857 193.368 20.8825 193.627L72.5282 218.899C73.2194 219.245 73.9322 219.396 74.6234 219.396V150.794H74.645Z" fill="url(#paint37_radial_2266_12350)"/>
<path style="mix-blend-mode:multiply" fill-rule="evenodd" clip-rule="evenodd" d="M130.242 147.381C119.896 147.446 88.4459 157.382 74.665 166.994V150.794L131.473 128.309L130.264 147.381H130.242Z" fill="url(#paint38_radial_2266_12350)"/>
<path style="mix-blend-mode:multiply" opacity="0.8" fill-rule="evenodd" clip-rule="evenodd" d="M18.8953 143.774C31.0993 145.589 59.0066 157.771 74.645 166.994V150.794L17.8369 128.309L18.8953 143.774Z" fill="url(#paint39_radial_2266_12350)"/>
<path fill-rule="evenodd" clip-rule="evenodd" d="M16.4084 117.642L17.0348 135.916C17.0348 136.499 17.402 136.996 17.942 137.233L73.7565 160.324C74.5989 160.669 75.4413 160.669 76.2837 160.324L132.098 137.233C132.638 137.017 132.984 136.521 133.005 135.916L133.632 117.642C133.632 117.145 133.351 116.713 132.876 116.562L76.0677 97.3598C75.3549 97.1222 74.6637 97.1222 73.9509 97.3598L17.1428 116.562C16.6676 116.713 16.3652 117.145 16.3868 117.642H16.4084Z" fill="#8D48EB"/>
<path fill-rule="evenodd" clip-rule="evenodd" d="M17.0346 135.918C17.0562 136.501 17.4018 136.998 17.9418 137.214L73.7563 160.304C74.1883 160.477 74.5987 160.564 75.0307 160.564V140.044L16.6458 116.932C16.4946 117.126 16.4082 117.385 16.4082 117.644L17.0346 135.918Z" fill="url(#paint40_radial_2266_12350)"/>
<path style="mix-blend-mode:screen" opacity="0.4" fill-rule="evenodd" clip-rule="evenodd" d="M17.0361 135.916C17.0577 136.499 17.4033 136.996 17.9433 137.212L73.7578 160.302C74.1898 160.475 74.6002 160.562 75.0322 160.562C70.453 158.618 52.957 150.734 39.241 145.161C27.9442 140.56 22.1553 138.638 19.4121 137.45C17.0145 136.434 17.0361 135.916 17.0361 135.916Z" fill="url(#paint41_radial_2266_12350)"/>
<path fill-rule="evenodd" clip-rule="evenodd" d="M16.625 116.914L75.0099 140.026L133.395 116.914C133.265 116.741 133.092 116.611 132.876 116.547L76.0683 97.3442C75.3555 97.1066 74.6643 97.1066 73.9515 97.3442L17.1434 116.547C16.9274 116.611 16.7546 116.741 16.625 116.914Z" fill="url(#paint42_radial_2266_12350)"/>
<path fill-rule="evenodd" clip-rule="evenodd" d="M16.4084 117.642L17.0348 135.916C17.0348 136.499 17.402 136.996 17.942 137.233L73.7565 160.324C74.5989 160.669 75.4413 160.669 76.2837 160.324L132.098 137.233C132.638 137.017 132.984 136.521 133.005 135.916L133.632 117.642C133.632 117.145 133.351 116.713 132.876 116.562L76.0677 97.3598C75.3549 97.1222 74.6637 97.1222 73.9509 97.3598L17.1428 116.562C16.6676 116.713 16.3652 117.145 16.3868 117.642H16.4084Z" fill="url(#paint43_radial_2266_12350)"/>
<path fill-rule="evenodd" clip-rule="evenodd" d="M75.0304 140.044V160.564C75.4408 160.564 75.8728 160.477 76.2832 160.304L132.098 137.214C132.638 136.976 132.983 136.501 133.005 135.918L133.631 117.644C133.631 117.364 133.545 117.126 133.394 116.932L75.0088 140.044H75.0304Z" fill="url(#paint44_radial_2266_12350)"/>
<path style="mix-blend-mode:screen" opacity="0.2" fill-rule="evenodd" clip-rule="evenodd" d="M52.8907 131.275C55.7635 132.593 72.698 139.851 73.6484 141.276C74.534 142.572 74.8796 154.387 75.0308 156.785C75.182 154.366 75.5276 142.421 76.3916 141.125C77.2988 139.743 89.114 134.667 91.4252 133.565C88.9844 134.429 76.5428 139.181 75.0092 139.181C73.3028 139.181 55.9579 132.42 52.8691 131.297L52.8907 131.275Z" fill="url(#paint45_radial_2266_12350)"/>
<path style="mix-blend-mode:multiply" opacity="0.3" fill-rule="evenodd" clip-rule="evenodd" d="M17.0348 135.9C17.9852 132.12 17.726 120.65 18.6116 120.067C19.3676 119.592 41.2269 127.13 48.0093 129.333C42.9549 127.109 19.886 117.842 19.886 117.129C19.886 116.244 41.3997 108.446 43.6893 107.561L17.1428 116.525C16.6676 116.676 16.3652 117.108 16.3868 117.605L17.0132 135.878L17.0348 135.9Z" fill="url(#paint46_radial_2266_12350)"/>
<path fill-rule="evenodd" clip-rule="evenodd" d="M75.615 114.374C68.055 109.082 64.1886 107.095 55.419 103.984C54.771 103.768 54.1446 103.531 53.4966 103.315C52.8486 103.077 52.179 103.012 51.5526 103.315C47.7294 105.107 43.7334 106.382 39.651 107.44C39.2838 107.548 39.0462 107.915 39.0678 108.304V109.147C39.2838 109.082 39.4782 109.017 39.6726 108.952C40.191 109.147 40.731 109.341 41.2494 109.557C50.8614 113.251 61.0998 115.411 71.3598 116.923L75.6366 114.395L75.615 114.374Z" fill="url(#paint47_linear_2266_12350)"/>
<path fill-rule="evenodd" clip-rule="evenodd" d="M42.5244 108.996C52.3524 112.84 62.0508 114.698 72.4836 116.232C72.0948 116.448 71.7276 116.685 71.3388 116.901C61.1004 115.389 50.862 113.229 41.2284 109.536C40.71 109.341 40.17 109.147 39.6516 108.931C39.4572 108.996 39.2628 109.06 39.0684 109.125V108.283C39.0684 107.851 39.5436 107.829 40.2132 108.088L42.5028 108.996H42.5244Z" fill="url(#paint48_radial_2266_12350)"/>
<path fill-rule="evenodd" clip-rule="evenodd" d="M74.4269 114.374C81.9869 109.082 85.8533 107.095 94.6229 103.984C95.2709 103.768 95.8973 103.531 96.5453 103.315C97.1933 103.077 97.8629 103.012 98.4893 103.315C102.313 105.107 106.309 106.382 110.391 107.44C110.758 107.548 110.996 107.915 110.974 108.304V109.147C110.758 109.082 110.564 109.017 110.369 108.952C109.851 109.147 109.311 109.341 108.793 109.557C99.1805 113.251 88.9421 115.411 78.6821 116.923C77.2565 116.08 75.8309 115.238 74.4053 114.395L74.4269 114.374Z" fill="url(#paint49_linear_2266_12350)"/>
<path fill-rule="evenodd" clip-rule="evenodd" d="M107.541 108.996C97.7133 112.84 88.0148 114.698 77.582 116.232C77.9708 116.448 78.338 116.685 78.7268 116.901C88.9653 115.389 99.2037 113.229 108.837 109.536C109.356 109.341 109.896 109.147 110.414 108.931C110.609 108.996 110.803 109.06 110.997 109.125V108.283C110.997 107.851 110.522 107.829 109.853 108.088L107.563 108.996H107.541Z" fill="url(#paint50_radial_2266_12350)"/>
<path fill-rule="evenodd" clip-rule="evenodd" d="M51.6388 151.135L52.4596 151.481C52.4596 151.826 52.4596 152.086 51.8548 152.172L50.6668 152.345C50.494 152.388 50.3212 152.345 50.17 152.302L37.2964 146.75C36.3892 146.362 36.3892 145.757 36.3676 144.85L35.8924 126.122C35.8708 125.366 36.3028 124.718 37.0156 124.459L40.45 123.206C50.2564 119.599 59.242 117.223 69.7612 115.646L75.3988 117.396C71.5324 122.278 62.158 126.49 54.4252 129.47L52.5028 130.291C51.8332 130.572 51.4228 131.177 51.4228 131.89L51.5956 151.157L51.6388 151.135Z" fill="url(#paint51_linear_2266_12350)"/>
<path fill-rule="evenodd" clip-rule="evenodd" d="M51.6403 151.145L51.4675 131.877C51.4675 131.165 51.8995 130.56 52.5475 130.279L54.4699 129.458C62.1811 126.477 71.5771 122.287 75.4435 117.384L74.8387 117.189C69.7195 122.805 58.8331 126.78 51.3379 129.631C50.5171 129.933 50.0635 130.949 50.0635 131.813C50.0635 136.629 50.1715 143.541 50.3659 151.296C50.3659 151.728 50.1931 152.397 51.3595 152.225L51.8779 152.16C52.4827 152.073 52.4827 151.814 52.4827 151.469L51.6619 151.123L51.6403 151.145Z" fill="url(#paint52_radial_2266_12350)"/>
<path fill-rule="evenodd" clip-rule="evenodd" d="M98.4026 151.157L97.5818 151.502C97.5818 151.848 97.5818 152.107 98.1866 152.193L99.3746 152.366C99.5474 152.409 99.7202 152.366 99.8714 152.323L112.745 146.793C113.652 146.405 113.652 145.8 113.674 144.893L114.149 126.165C114.171 125.409 113.739 124.761 113.026 124.502L109.591 123.249C99.785 119.642 90.7994 117.266 80.2802 115.689L74.6426 117.439C78.509 122.321 87.8834 126.533 95.6162 129.513L97.5386 130.334C98.2082 130.615 98.6186 131.22 98.6186 131.933L98.4458 151.2L98.4026 151.157Z" fill="url(#paint53_linear_2266_12350)"/>
<path fill-rule="evenodd" clip-rule="evenodd" d="M98.4019 151.156L98.5747 131.889C98.5747 131.176 98.1427 130.572 97.4947 130.291L95.5723 129.47C87.8611 126.489 78.465 122.299 74.5986 117.396L75.2034 117.201C80.3226 122.817 91.2091 126.792 98.7043 129.643C99.5251 129.945 99.9787 130.96 99.9787 131.824C99.9787 136.641 99.8707 143.553 99.6763 151.308C99.6763 151.74 99.8491 152.409 98.6827 152.236L98.1643 152.172C97.5595 152.085 97.5595 151.826 97.5595 151.48L98.3803 151.135L98.4019 151.156Z" fill="url(#paint54_radial_2266_12350)"/>
<path style="mix-blend-mode:screen" fill-rule="evenodd" clip-rule="evenodd" d="M90.8428 126.576C92.182 126.965 96.178 128.347 98.5324 129.363C99.7852 129.903 100.26 130.659 100.239 132.387C100.174 135.519 100.066 141.826 99.8716 143.424C99.8068 141.912 99.7636 135.454 99.6772 132.387C99.634 130.961 99.3748 130.421 98.338 129.816C96.286 128.607 92.2036 127.203 90.8428 126.576Z" fill="url(#paint55_radial_2266_12350)"/>
<path style="mix-blend-mode:screen" fill-rule="evenodd" clip-rule="evenodd" d="M59.1995 126.561C57.8603 126.949 53.8642 128.332 51.5098 129.347C50.257 129.887 49.7818 130.643 49.8034 132.371C49.8682 135.503 50.1274 143.387 50.3434 151.293C50.2786 142.307 50.2786 135.417 50.3434 132.371C50.3866 130.945 50.6458 130.405 51.6826 129.801C53.7346 128.591 57.8171 127.187 59.1779 126.561H59.1995Z" fill="url(#paint56_radial_2266_12350)"/>
<g opacity="0.75">
<g style="mix-blend-mode:screen">
<path d="M37.0612 125.641C37.0612 125.641 36.9964 125.793 36.91 125.793C36.8236 125.793 36.7588 125.728 36.7588 125.641C36.7588 125.555 36.8236 125.49 36.91 125.49C36.9964 125.49 37.0612 125.555 37.0612 125.641Z" fill="#745CFF"/>
</g>
<g style="mix-blend-mode:screen">
<path d="M36.9083 126.035C37.1231 126.035 37.2971 125.861 37.2971 125.647C37.2971 125.432 37.1231 125.258 36.9083 125.258C36.6936 125.258 36.5195 125.432 36.5195 125.647C36.5195 125.861 36.6936 126.035 36.9083 126.035Z" fill="#A197FF"/>
</g>
</g>
<path fill-rule="evenodd" clip-rule="evenodd" d="M92.6125 91.3473C92.8717 100.16 87.6661 105.927 81.5101 109.858C80.1709 111.802 78.8533 113.725 77.6221 115.604C83.9293 114.416 92.1805 113.034 98.6605 109.945C102.549 108.109 106.458 104.588 108.381 100.074C110.562 94.9977 109.957 88.4529 105.313 87.3081C104.946 87.2433 104.579 87.1785 104.212 87.1137C104.017 87.1137 103.845 87.0921 103.65 87.0705C98.5957 86.7897 95.2693 88.8633 92.6341 91.3257L92.6125 91.3473Z" fill="url(#paint57_linear_2266_12350)"/>
<path fill-rule="evenodd" clip-rule="evenodd" d="M73.5831 113.891L77.5791 115.468C81.5319 109.679 85.5279 103.955 89.7399 98.3606C94.0816 92.615 98.0128 86.675 104.601 86.567C99.1576 85.7894 94.924 84.3638 90.496 82.5494C86.6944 80.9942 83.6703 82.7222 81.5319 88.1222C78.2271 96.4382 75.7647 105.229 73.5615 113.891H73.5831Z" fill="url(#paint58_linear_2266_12350)"/>
<path d="M77.191 115.316C80.8846 109.743 84.751 104.235 88.8118 98.9002C92.5702 93.9754 98.6182 83.8018 106.329 87.1066C110.347 88.813 110.585 94.2346 109.677 97.885C108.9 101.039 107.15 103.847 104.882 106.136C98.5966 112.508 87.5374 114.301 79.0918 115.856L76.543 116.331L77.2126 115.316H77.191ZM77.6878 115.381C86.7166 113.286 100.541 111.385 105.919 102.68C108.965 97.7554 110.282 91.081 105.681 88.5322C100.217 85.5082 93.3262 95.077 89.9566 99.505C86.155 104.495 81.9214 110.543 77.6878 115.403V115.381Z" fill="url(#paint59_radial_2266_12350)"/>
<path fill-rule="evenodd" clip-rule="evenodd" d="M76.7783 111.914C77.3183 112.799 78.2039 112.972 78.4199 113.599C78.6575 114.355 78.3119 116.255 77.2967 116.903C78.3983 116.731 81.2711 116.407 81.9407 115.348C82.4807 114.484 82.6103 112.087 81.3359 111.287C80.5583 110.791 80.2127 111.374 79.1975 111.568C78.3119 111.741 77.3615 111.892 76.7999 111.935L76.7783 111.914Z" fill="url(#paint60_linear_2266_12350)"/>
<path fill-rule="evenodd" clip-rule="evenodd" d="M54.7462 115.558C59.4982 128.194 69.391 120.115 77.9662 115.666L73.6462 113.873C67.9654 115.471 60.3406 116.141 54.7246 115.558H54.7462Z" fill="url(#paint61_linear_2266_12350)"/>
<path fill-rule="evenodd" clip-rule="evenodd" d="M48.376 93.7388C50.9896 93.1772 52.0912 93.4796 55.288 94.8188C58.3768 96.1148 61.0552 97.3244 64.2736 98.2316C67.6216 99.182 68.9608 99.2684 70.6024 101.148C71.6392 102.336 72.46 103.826 73.1944 105.338C74.7928 108.556 76.348 111.451 78.4216 114.41C78.3352 114.864 78.2704 115.339 78.184 115.792C75.7216 114.993 73.7992 114.172 71.7472 112.79C67.1896 109.723 63.9064 105.079 60.3424 100.996C57.9232 98.2316 55.3312 95.8772 51.2704 94.3436C50.2336 93.9548 49.2616 93.7604 48.376 93.7604V93.7388Z" fill="url(#paint62_linear_2266_12350)"/>
<path fill-rule="evenodd" clip-rule="evenodd" d="M68.2691 99.0559C64.9427 99.2503 63.3227 100.481 60.5579 103.484C58.0739 106.205 56.0435 109.856 55.6115 113.571C55.2443 116.768 56.1731 119.835 59.2403 122.146C54.0131 119.749 48.9803 117.502 43.0835 115.774C42.0251 115.299 41.0963 114.651 40.3403 113.873C32.8667 106.249 41.7443 92.7919 51.3779 93.0727C51.9395 93.0727 52.4795 93.1375 52.9547 93.3535C57.8579 95.5999 62.3507 97.5439 68.2691 99.0775V99.0559Z" fill="url(#paint63_linear_2266_12350)"/>
<path fill-rule="evenodd" clip-rule="evenodd" d="M67.1462 100.025C69.0687 99.8954 70.4726 101.515 71.207 102.703C72.3951 104.583 73.2807 106.635 74.3175 108.6C75.3543 110.566 76.8663 112.726 78.1623 114.54L77.9679 115.231C76.0239 116.376 73.8207 117.672 71.8551 118.795C69.6735 120.027 67.0166 121.193 64.5758 121.755C62.027 122.338 59.1758 121.863 57.5126 119.487C55.2014 116.16 56.7782 111.106 58.5278 107.887C59.5862 105.965 61.0334 103.783 62.6966 102.336C63.8846 101.278 65.5478 100.176 67.1894 100.068L67.1462 100.025ZM66.9302 98.945C60.3638 99.377 51.7886 113.201 56.4758 119.875C57.1454 120.826 58.031 121.582 59.0894 122.079C60.623 122.813 62.5454 123.007 64.7486 122.532C69.2414 121.56 74.2311 118.083 78.1839 115.793L78.6807 114.259C76.2615 110.955 73.9502 105.922 71.9414 102.315C70.9694 100.565 69.7167 99.3986 68.2262 99.053C67.8158 98.9666 67.3838 98.9234 66.9518 98.945H66.9302Z" fill="url(#paint64_radial_2266_12350)"/>
<path style="mix-blend-mode:screen" fill-rule="evenodd" clip-rule="evenodd" d="M65.4622 99.248C58.9822 102.531 55.0942 110.178 55.3534 117.241C54.079 111.171 58.4422 101.646 65.4622 99.248Z" fill="url(#paint65_radial_2266_12350)"/>
<path style="mix-blend-mode:screen" fill-rule="evenodd" clip-rule="evenodd" d="M81.79 108.54C85.9804 102.017 94.0805 88.5604 100.15 87.1348C93.2381 91.3468 86.866 101.952 81.79 108.54Z" fill="url(#paint66_radial_2266_12350)"/>
<mask id="mask0_2266_12350" style="mask-type:luminance" maskUnits="userSpaceOnUse" x="76" y="86" width="35" height="31">
<path d="M77.1929 115.308C80.8865 109.736 84.7529 104.228 88.8137 98.8924C92.5722 93.9676 98.6202 83.794 106.331 87.0988C110.349 88.8052 110.587 94.2268 109.679 97.8772C108.902 101.031 107.152 103.839 104.884 106.128C98.5986 112.5 87.5393 114.293 79.0937 115.848L76.5449 116.324L77.2145 115.308H77.1929ZM77.6897 115.373C86.7185 113.278 100.543 111.377 105.921 102.672C108.967 97.7476 110.284 91.0732 105.683 88.5244C100.219 85.5004 93.3281 95.0692 89.9585 99.4972C86.1569 104.487 81.9233 110.535 77.6897 115.395V115.373Z" fill="white"/>
</mask>
<g mask="url(#mask0_2266_12350)">
<g style="mix-blend-mode:screen">
<g style="mix-blend-mode:screen">
<path d="M97.9269 88.1656C97.9269 88.3168 97.7972 88.4464 97.646 88.4464C97.4948 88.4464 97.3652 88.3168 97.3652 88.1656C97.3652 88.0144 97.4948 87.8848 97.646 87.8848C97.7972 87.8848 97.9269 88.0144 97.9269 88.1656Z" fill="#6083BA"/>
</g>
<g style="mix-blend-mode:screen">
<path d="M98.3609 88.1599C98.3609 88.5487 98.0585 88.8512 97.6697 88.8512C97.2809 88.8512 96.9785 88.5487 96.9785 88.1599C96.9785 87.7711 97.2809 87.4688 97.6697 87.4688C98.0585 87.4688 98.3609 87.7711 98.3609 88.1599Z" fill="#A0AFC6"/>
</g>
</g>
<g style="mix-blend-mode:screen">
<g style="mix-blend-mode:screen">
<path d="M105.727 109.868C105.882 109.868 106.008 109.743 106.008 109.587C106.008 109.432 105.882 109.307 105.727 109.307C105.572 109.307 105.446 109.432 105.446 109.587C105.446 109.743 105.572 109.868 105.727 109.868Z" fill="#A0AFC6"/>
</g>
<g style="mix-blend-mode:screen">
<path d="M105.726 110.277C106.108 110.277 106.418 109.967 106.418 109.586C106.418 109.204 106.108 108.895 105.726 108.895C105.345 108.895 105.035 109.204 105.035 109.586C105.035 109.967 105.345 110.277 105.726 110.277Z" fill="#A0AFC6"/>
</g>
</g>
</g>
<mask id="mask1_2266_12350" style="mask-type:luminance" maskUnits="userSpaceOnUse" x="55" y="98" width="24" height="25">
<path d="M67.1482 100.025C69.0706 99.8954 70.4746 101.515 71.209 102.703C72.397 104.583 73.2826 106.635 74.3194 108.6C75.3562 110.566 76.8682 112.726 78.1642 114.54L77.9698 115.231C76.0258 116.376 73.8226 117.672 71.857 118.795C69.6754 120.027 67.0186 121.193 64.5778 121.755C62.029 122.338 59.1778 121.863 57.5146 119.487C55.2034 116.16 56.7802 111.106 58.5298 107.887C59.5882 105.965 61.0354 103.783 62.6986 102.336C63.8866 101.278 65.5498 100.176 67.1914 100.068L67.1482 100.025ZM66.9322 98.945C60.3658 99.377 51.7906 113.201 56.4778 119.875C57.1474 120.826 58.033 121.582 59.0914 122.079C60.625 122.813 62.5474 123.007 64.7506 122.532C69.2434 121.56 74.233 118.083 78.1858 115.793L78.6826 114.259C76.2634 110.955 73.9522 105.922 71.9434 102.315C70.9714 100.565 69.7186 99.3986 68.2282 99.053C67.8178 98.9666 67.3858 98.9234 66.9538 98.945H66.9322Z" fill="white"/>
</mask>
<g mask="url(#mask1_2266_12350)">
<g style="mix-blend-mode:screen">
<g style="mix-blend-mode:screen">
<path d="M56.1078 103.954C56.251 103.954 56.367 103.838 56.367 103.695C56.367 103.552 56.251 103.436 56.1078 103.436C55.9647 103.436 55.8486 103.552 55.8486 103.695C55.8486 103.838 55.9647 103.954 56.1078 103.954Z" fill="#A0AFC6"/>
</g>
<g style="mix-blend-mode:screen">
<path d="M56.7569 103.695C56.7569 104.062 56.4761 104.343 56.1089 104.343C55.7417 104.343 55.4609 104.062 55.4609 103.695C55.4609 103.328 55.7417 103.047 56.1089 103.047C56.4761 103.047 56.7569 103.328 56.7569 103.695Z" fill="#A0AFC6"/>
</g>
</g>
</g>
<path style="mix-blend-mode:screen" opacity="0.75" d="M91.0361 112.164C98.1425 109.81 105.681 105.943 108.079 97.9082C107.517 100.759 105.227 108.73 91.0361 112.164Z" fill="url(#paint67_radial_2266_12350)"/>
<path fill-rule="evenodd" clip-rule="evenodd" d="M78.7018 113.273C78.5938 112.841 78.1618 112.625 77.5138 112.561C77.665 112.798 77.8162 113.036 77.9674 113.273C78.2482 113.403 77.8594 115.887 77.6434 116.081C77.6002 116.125 77.557 116.146 77.4922 116.146C77.0818 116.384 76.6498 116.643 76.2178 116.902C76.2826 116.902 76.3042 116.902 76.3258 116.902C76.8442 116.902 77.6866 116.945 78.097 116.513C78.3778 116.233 78.5506 115.714 78.637 115.153C78.7234 114.483 78.7882 113.619 78.6802 113.23L78.7018 113.273Z" fill="url(#paint68_radial_2266_12350)"/>
<g opacity="0.75">
<g style="mix-blend-mode:screen">
<path d="M98.5304 88.1143C98.5304 88.1143 98.444 88.3087 98.336 88.3087C98.228 88.3087 98.1416 88.2223 98.1416 88.1143C98.1416 88.0063 98.228 87.9199 98.336 87.9199C98.444 87.9199 98.5304 88.0063 98.5304 88.1143Z" fill="#E8C169"/>
</g>
<g style="mix-blend-mode:screen">
<path d="M98.8325 88.1179C98.8325 88.3987 98.6165 88.6147 98.3357 88.6147C98.0549 88.6147 97.8389 88.3987 97.8389 88.1179C97.8389 87.8371 98.0549 87.6211 98.3357 87.6211C98.6165 87.6211 98.8325 87.8371 98.8325 88.1179Z" fill="#A0AFC6"/>
</g>
</g>
<g style="mix-blend-mode:screen">
<path fill-rule="evenodd" clip-rule="evenodd" d="M89.7402 83.1738C91.2306 83.3682 92.7426 83.649 94.2114 83.973C92.9802 83.541 91.749 83.0658 90.5178 82.5474C86.7162 80.9922 83.6922 82.7202 81.5538 88.1202C80.2794 91.317 79.1346 94.6002 78.0762 97.905C79.4154 94.557 81.2946 89.9994 82.9794 86.9754C84.4698 84.2754 86.6298 82.7634 89.7618 83.1522L89.7402 83.1738Z" fill="url(#paint69_radial_2266_12350)"/>
<path fill-rule="evenodd" clip-rule="evenodd" d="M60.7527 96.6578C58.0959 95.6426 55.5903 94.541 52.9767 93.3314C52.5015 93.1154 51.9615 93.0722 51.3999 93.0506C42.6087 92.813 34.4439 104.002 38.7639 111.735C36.6255 105.514 39.7791 98.5802 46.1943 95.7074C49.1535 94.3898 52.6095 94.3466 56.6055 95.3834C57.9663 95.729 59.3919 96.2042 60.7743 96.6362L60.7527 96.6578Z" fill="url(#paint70_radial_2266_12350)"/>
</g>
<path fill-rule="evenodd" clip-rule="evenodd" d="M77.9454 115.622C78.1614 115.708 78.399 115.795 78.615 115.881C89.3502 108.343 99.2431 105.772 114.061 111.453C114.32 110.092 114.601 107.824 114.536 105.815C116.588 105.059 118.899 104.087 120.821 102.964C116.933 101.301 111.771 99.9403 105.55 100.61C95.7439 101.647 83.9934 108.58 77.9238 115.622H77.9454Z" fill="url(#paint71_linear_2266_12350)"/>
<path fill-rule="evenodd" clip-rule="evenodd" d="M79.2197 116.287C88.0973 109.591 99.135 106.74 113.391 112.68C113.585 112.421 113.931 111.751 114.061 111.449C99.2214 105.768 89.3501 108.338 78.6149 115.877C78.3989 115.79 78.1613 115.704 77.9453 115.617C78.1613 115.704 79.0037 116.201 79.2413 116.287H79.2197Z" fill="url(#paint72_radial_2266_12350)"/>
<path fill-rule="evenodd" clip-rule="evenodd" d="M114.537 105.818C114.537 106.12 114.537 106.444 114.537 106.747C116.568 106.077 118.943 105.278 120.823 104.241V102.967C118.9 104.09 116.589 105.062 114.537 105.818Z" fill="url(#paint73_radial_2266_12350)"/>
<path fill-rule="evenodd" clip-rule="evenodd" d="M82.7628 115.754C77.4492 115.581 73.3452 115.214 68.9604 114.609C68.334 114.523 67.794 114.609 67.2108 114.847C63.366 116.467 61.2492 123.811 60.666 127.375C60.8388 127.915 60.9684 128.217 61.1628 128.671C65.0076 127.353 68.658 126.403 72.5892 125.863C76.3044 127.137 79.7172 129.038 83.1516 130.917C83.3244 130.636 83.4973 130.075 83.6485 129.621C84.3397 126.1 84.8797 120.592 84.3181 117.46C84.0805 116.164 83.8213 115.797 82.7845 115.775L82.7628 115.754Z" fill="url(#paint74_radial_2266_12350)"/>
<path fill-rule="evenodd" clip-rule="evenodd" d="M83.2166 114.223C77.7086 114.05 73.475 113.661 68.9173 113.035C68.2693 112.948 67.7077 113.035 67.1029 113.272C62.3725 115.259 60.9469 124.893 60.6445 127.355C64.6189 125.995 68.6365 124.936 72.6974 124.375C76.5422 125.692 80.0846 127.658 83.627 129.602C84.383 126.081 85.4846 119.687 84.7934 115.972C84.5558 114.633 84.275 114.244 83.2166 114.223Z" fill="url(#paint75_linear_2266_12350)"/>
<defs>
<radialGradient id="paint0_radial_2266_12350" cx="0" cy="0" r="1" gradientUnits="userSpaceOnUse" gradientTransform="translate(93.133 160.787) scale(95.4722 95.472)">
<stop stop-color="#FFB300"/>
<stop offset="1" stop-color="#A84D20"/>
</radialGradient>
<radialGradient id="paint1_radial_2266_12350" cx="0" cy="0" r="1" gradientUnits="userSpaceOnUse" gradientTransform="translate(135.189 129.057) scale(93.5714 93.5712)">
<stop stop-color="#FFCC14"/>
<stop offset="1" stop-color="#EB9900"/>
</radialGradient>
<radialGradient id="paint2_radial_2266_12350" cx="0" cy="0" r="1" gradientUnits="userSpaceOnUse" gradientTransform="translate(81.0567 174.21) rotate(-123.23) scale(2.89353 2.89353)">
<stop stop-color="#FFAA33"/>
<stop offset="1" stop-color="#FFAA33" stop-opacity="0"/>
</radialGradient>
<radialGradient id="paint3_radial_2266_12350" cx="0" cy="0" r="1" gradientUnits="userSpaceOnUse" gradientTransform="translate(56.7791 136) rotate(-123.23) scale(2.38308 2.38308)">
<stop stop-color="#FFAA33"/>
<stop offset="1" stop-color="#FFAA33" stop-opacity="0"/>
</radialGradient>
<radialGradient id="paint4_radial_2266_12350" cx="0" cy="0" r="1" gradientUnits="userSpaceOnUse" gradientTransform="translate(90.9414 148.257) rotate(-123.23) scale(2.89353)">
<stop stop-color="#FFAA33"/>
<stop offset="1" stop-color="#FFAA33" stop-opacity="0"/>
</radialGradient>
<radialGradient id="paint5_radial_2266_12350" cx="0" cy="0" r="1" gradientUnits="userSpaceOnUse" gradientTransform="translate(76.3784 134.796) rotate(-123.23) scale(2.80955 2.80955)">
<stop stop-color="#FFAA33"/>
<stop offset="1" stop-color="#FFAA33" stop-opacity="0"/>
</radialGradient>
<radialGradient id="paint6_radial_2266_12350" cx="0" cy="0" r="1" gradientUnits="userSpaceOnUse" gradientTransform="translate(72.7645 162.64) rotate(-123.23) scale(6.7769 6.77691)">
<stop stop-color="#FFAA33"/>
<stop offset="1" stop-color="#FFAA33" stop-opacity="0"/>
</radialGradient>
<radialGradient id="paint7_radial_2266_12350" cx="0" cy="0" r="1" gradientUnits="userSpaceOnUse" gradientTransform="translate(92.116 160.29) rotate(-123.194) scale(4.99879 4.99603)">
<stop stop-color="#FFAA33"/>
<stop offset="1" stop-color="#FFAA33" stop-opacity="0"/>
</radialGradient>
<radialGradient id="paint8_radial_2266_12350" cx="0" cy="0" r="1" gradientUnits="userSpaceOnUse" gradientTransform="translate(106.612 137.103) rotate(-123.23) scale(3.61456 3.61456)">
<stop stop-color="#FFAA33"/>
<stop offset="1" stop-color="#FFAA33" stop-opacity="0"/>
</radialGradient>
<radialGradient id="paint9_radial_2266_12350" cx="0" cy="0" r="1" gradientUnits="userSpaceOnUse" gradientTransform="translate(35.1786 160.442) rotate(-123.23) scale(5.9674 5.96741)">
<stop stop-color="#FFAA33"/>
<stop offset="1" stop-color="#FFAA33" stop-opacity="0"/>
</radialGradient>
<radialGradient id="paint10_radial_2266_12350" cx="0" cy="0" r="1" gradientUnits="userSpaceOnUse" gradientTransform="translate(106.359 156.622) rotate(-123.23) scale(3.69816 3.69816)">
<stop stop-color="#FFAA33"/>
<stop offset="1" stop-color="#FFAA33" stop-opacity="0"/>
</radialGradient>
<radialGradient id="paint11_radial_2266_12350" cx="0" cy="0" r="1" gradientUnits="userSpaceOnUse" gradientTransform="translate(72.0512 157.497) rotate(-123.23) scale(2.60542 2.60542)">
<stop stop-color="#FFAA33"/>
<stop offset="1" stop-color="#FFAA33" stop-opacity="0"/>
</radialGradient>
<radialGradient id="paint12_radial_2266_12350" cx="0" cy="0" r="1" gradientUnits="userSpaceOnUse" gradientTransform="translate(81.0526 150.164) rotate(-123.23) scale(3.81176 3.81177)">
<stop stop-color="#FFAA33"/>
<stop offset="1" stop-color="#FFAA33" stop-opacity="0"/>
</radialGradient>
<radialGradient id="paint13_radial_2266_12350" cx="0" cy="0" r="1" gradientUnits="userSpaceOnUse" gradientTransform="translate(117.971 166.2) rotate(-123.23) scale(2.60542 2.60542)">
<stop stop-color="#FFAA33"/>
<stop offset="1" stop-color="#FFAA33" stop-opacity="0"/>
</radialGradient>
<radialGradient id="paint14_radial_2266_12350" cx="0" cy="0" r="1" gradientUnits="userSpaceOnUse" gradientTransform="translate(64.9775 145.655) rotate(-123.23) scale(4.63994 4.63995)">
<stop stop-color="#FFAA33"/>
<stop offset="1" stop-color="#FFAA33" stop-opacity="0"/>
</radialGradient>
<radialGradient id="paint15_radial_2266_12350" cx="0" cy="0" r="1" gradientUnits="userSpaceOnUse" gradientTransform="translate(78.2419 174.325) rotate(-123.23) scale(1.16437)">
<stop stop-color="#FFAA33"/>
<stop offset="1" stop-color="#FFAA33" stop-opacity="0"/>
</radialGradient>
<radialGradient id="paint16_radial_2266_12350" cx="0" cy="0" r="1" gradientUnits="userSpaceOnUse" gradientTransform="translate(96.9108 169.571) rotate(-123.23) scale(1.16436 1.16437)">
<stop stop-color="#FFAA33"/>
<stop offset="1" stop-color="#FFAA33" stop-opacity="0"/>
</radialGradient>
<radialGradient id="paint17_radial_2266_12350" cx="0" cy="0" r="1" gradientUnits="userSpaceOnUse" gradientTransform="translate(110.779 158.829) rotate(-123.23) scale(1.62652 1.62653)">
<stop stop-color="#FFAA33"/>
<stop offset="1" stop-color="#FFAA33" stop-opacity="0"/>
</radialGradient>
<radialGradient id="paint18_radial_2266_12350" cx="0" cy="0" r="1" gradientUnits="userSpaceOnUse" gradientTransform="translate(79.6696 147.106) rotate(-123.23) scale(1.16436 1.16437)">
<stop stop-color="#FFAA33"/>
<stop offset="1" stop-color="#FFAA33" stop-opacity="0"/>
</radialGradient>
<radialGradient id="paint19_radial_2266_12350" cx="0" cy="0" r="1" gradientUnits="userSpaceOnUse" gradientTransform="translate(71.735 125.38) rotate(-123.23) scale(1.16436)">
<stop stop-color="#FFAA33"/>
<stop offset="1" stop-color="#FFAA33" stop-opacity="0"/>
</radialGradient>
<radialGradient id="paint20_radial_2266_12350" cx="0" cy="0" r="1" gradientUnits="userSpaceOnUse" gradientTransform="translate(48.5163 152.255) rotate(-123.23) scale(1.16437)">
<stop stop-color="#FFAA33"/>
<stop offset="1" stop-color="#FFAA33" stop-opacity="0"/>
</radialGradient>
<radialGradient id="paint21_radial_2266_12350" cx="0" cy="0" r="1" gradientUnits="userSpaceOnUse" gradientTransform="translate(79.6912 111.921) rotate(-123.23) scale(2.22119 2.22119)">
<stop stop-color="#FFAA33"/>
<stop offset="1" stop-color="#FFAA33" stop-opacity="0"/>
</radialGradient>
<radialGradient id="paint22_radial_2266_12350" cx="0" cy="0" r="1" gradientUnits="userSpaceOnUse" gradientTransform="translate(43.4942 139.697) rotate(-123.23) scale(3.76978 3.76978)">
<stop stop-color="#FFAA33"/>
<stop offset="1" stop-color="#FFAA33" stop-opacity="0"/>
</radialGradient>
<radialGradient id="paint23_radial_2266_12350" cx="0" cy="0" r="1" gradientUnits="userSpaceOnUse" gradientTransform="translate(44.5008 143.418) rotate(-123.23) scale(2.54498)">
<stop stop-color="#FFAA33"/>
<stop offset="1" stop-color="#FFAA33" stop-opacity="0"/>
</radialGradient>
<radialGradient id="paint24_radial_2266_12350" cx="0" cy="0" r="1" gradientUnits="userSpaceOnUse" gradientTransform="translate(89.9789 129.508) rotate(-123.23) scale(1.98137)">
<stop stop-color="#FFAA33"/>
<stop offset="1" stop-color="#FFAA33" stop-opacity="0"/>
</radialGradient>
<radialGradient id="paint25_radial_2266_12350" cx="0" cy="0" r="1" gradientUnits="userSpaceOnUse" gradientTransform="translate(108.585 147.847) rotate(-123.23) scale(1.33865 1.33865)">
<stop stop-color="#FFAA33"/>
<stop offset="1" stop-color="#FFAA33" stop-opacity="0"/>
</radialGradient>
<radialGradient id="paint26_radial_2266_12350" cx="0" cy="0" r="1" gradientUnits="userSpaceOnUse" gradientTransform="translate(39.8026 157.819) rotate(-123.23) scale(3.64987 3.64987)">
<stop stop-color="#FFAA33"/>
<stop offset="1" stop-color="#FFAA33" stop-opacity="0"/>
</radialGradient>
<radialGradient id="paint27_radial_2266_12350" cx="0" cy="0" r="1" gradientUnits="userSpaceOnUse" gradientTransform="translate(68.3331 145.744) rotate(-123.23) scale(1.95661 1.95661)">
<stop stop-color="#FFAA33"/>
<stop offset="1" stop-color="#FFAA33" stop-opacity="0"/>
</radialGradient>
<radialGradient id="paint28_radial_2266_12350" cx="0" cy="0" r="1" gradientUnits="userSpaceOnUse" gradientTransform="translate(88.2211 162.893) rotate(-123.23) scale(2.30516)">
<stop stop-color="#FFAA33"/>
<stop offset="1" stop-color="#FFAA33" stop-opacity="0"/>
</radialGradient>
<radialGradient id="paint29_radial_2266_12350" cx="0" cy="0" r="1" gradientUnits="userSpaceOnUse" gradientTransform="translate(84.3253 142.614) rotate(-123.23) scale(1.77606 1.77606)">
<stop stop-color="#FFAA33"/>
<stop offset="1" stop-color="#FFAA33" stop-opacity="0"/>
</radialGradient>
<radialGradient id="paint30_radial_2266_12350" cx="0" cy="0" r="1" gradientUnits="userSpaceOnUse" gradientTransform="translate(119.856 164.206) rotate(-123.23) scale(1.31509)">
<stop stop-color="#FFAA33"/>
<stop offset="1" stop-color="#FFAA33" stop-opacity="0"/>
</radialGradient>
<radialGradient id="paint31_radial_2266_12350" cx="0" cy="0" r="1" gradientUnits="userSpaceOnUse" gradientTransform="translate(51.368 154.789) rotate(-123.23) scale(5.9674 5.96741)">
<stop stop-color="#FFAA33"/>
<stop offset="1" stop-color="#FFAA33" stop-opacity="0"/>
</radialGradient>
<radialGradient id="paint32_radial_2266_12350" cx="0" cy="0" r="1" gradientUnits="userSpaceOnUse" gradientTransform="translate(53.7058 149.862) rotate(-123.23) scale(2.17895 2.17895)">
<stop stop-color="#FFAA33"/>
<stop offset="1" stop-color="#FFAA33" stop-opacity="0"/>
</radialGradient>
<radialGradient id="paint33_radial_2266_12350" cx="0" cy="0" r="1" gradientUnits="userSpaceOnUse" gradientTransform="translate(34.8969 175.883) rotate(-123.23) scale(3.51399 3.514)">
<stop stop-color="#FFAA33"/>
<stop offset="1" stop-color="#FFAA33" stop-opacity="0"/>
</radialGradient>
<radialGradient id="paint34_radial_2266_12350" cx="0" cy="0" r="1" gradientUnits="userSpaceOnUse" gradientTransform="translate(74.9865 130.673) scale(42.0122 51.6854)">
<stop stop-color="#AF73FF"/>
<stop offset="1" stop-color="#9852FF"/>
</radialGradient>
<radialGradient id="paint35_radial_2266_12350" cx="0" cy="0" r="1" gradientUnits="userSpaceOnUse" gradientTransform="translate(26.5417 207.987) scale(69.6601 69.66)">
<stop stop-color="#BF50ED"/>
<stop offset="1" stop-color="#9B20C7"/>
</radialGradient>
<radialGradient id="paint36_radial_2266_12350" cx="0" cy="0" r="1" gradientUnits="userSpaceOnUse" gradientTransform="translate(56.5147 75.7634) scale(100.152 173.687)">
<stop stop-color="#9651F2"/>
<stop offset="1" stop-color="#6925CE"/>
</radialGradient>
<radialGradient id="paint37_radial_2266_12350" cx="0" cy="0" r="1" gradientUnits="userSpaceOnUse" gradientTransform="translate(19.1209 142.829) scale(109.695 92.166)">
<stop stop-color="#B680FF"/>
<stop offset="1" stop-color="#944DFF"/>
</radialGradient>
<radialGradient id="paint38_radial_2266_12350" cx="0" cy="0" r="1" gradientUnits="userSpaceOnUse" gradientTransform="translate(148.904 296.681) scale(171.958 171.958)">
<stop offset="0.89" stop-color="white"/>
<stop offset="0.9" stop-color="#E8D1F2"/>
<stop offset="0.91" stop-color="#D4AAE7"/>
<stop offset="0.92" stop-color="#C489DE"/>
<stop offset="0.93" stop-color="#B76FD7"/>
<stop offset="0.94" stop-color="#AE5DD2"/>
<stop offset="0.95" stop-color="#A852CF"/>
<stop offset="0.97" stop-color="#A74FCF"/>
</radialGradient>
<radialGradient id="paint39_radial_2266_12350" cx="0" cy="0" r="1" gradientUnits="userSpaceOnUse" gradientTransform="translate(-8.81753 286.464) scale(163.901 163.901)">
<stop offset="0.89" stop-color="#D4AAE7"/>
<stop offset="0.9" stop-color="#C489DE"/>
<stop offset="0.91" stop-color="#AE5DD2"/>
<stop offset="0.92" stop-color="#A74FCF"/>
</radialGradient>
<radialGradient id="paint40_radial_2266_12350" cx="0" cy="0" r="1" gradientUnits="userSpaceOnUse" gradientTransform="translate(66.2114 127.885) scale(97.0125 88.4649)">
<stop stop-color="#B882FF"/>
<stop offset="1" stop-color="#7A35E0"/>
</radialGradient>
<radialGradient id="paint41_radial_2266_12350" cx="0" cy="0" r="1" gradientUnits="userSpaceOnUse" gradientTransform="translate(29.6506 150.41) scale(40.0033 40.0032)">
<stop stop-color="#C74AD9"/>
<stop offset="1"/>
</radialGradient>
<radialGradient id="paint42_radial_2266_12350" cx="0" cy="0" r="1" gradientUnits="userSpaceOnUse" gradientTransform="translate(48.0531 135.619) scale(101.585 101.585)">
<stop stop-color="#D570FF"/>
<stop offset="1" stop-color="#8300B3"/>
</radialGradient>
<radialGradient id="paint43_radial_2266_12350" cx="0" cy="0" r="1" gradientUnits="userSpaceOnUse" gradientTransform="translate(27.0282 100.776) scale(431.616 116.373)">
<stop stop-color="#9651F2"/>
<stop offset="1" stop-color="#6925CE"/>
</radialGradient>
<radialGradient id="paint44_radial_2266_12350" cx="0" cy="0" r="1" gradientUnits="userSpaceOnUse" gradientTransform="translate(157.197 113.324) scale(139.01 66.819)">
<stop stop-color="#8E35EA"/>
<stop offset="1" stop-color="#6B0DCE"/>
</radialGradient>
<radialGradient id="paint45_radial_2266_12350" cx="0" cy="0" r="1" gradientUnits="userSpaceOnUse" gradientTransform="translate(19.202 140.33) scale(92.5187 22.7076)">
<stop/>
<stop offset="1" stop-color="#F4C2FF"/>
</radialGradient>
<radialGradient id="paint46_radial_2266_12350" cx="0" cy="0" r="1" gradientUnits="userSpaceOnUse" gradientTransform="translate(24.0805 118.353) scale(59.7594 34.5074)">
<stop stop-color="#D26FE2"/>
<stop offset="1" stop-color="#670C7A"/>
</radialGradient>
<linearGradient id="paint47_linear_2266_12350" x1="39.0678" y1="110.011" x2="75.615" y2="110.011" gradientUnits="userSpaceOnUse">
<stop stop-color="#FFBD00"/>
<stop offset="1" stop-color="#D67200"/>
</linearGradient>
<radialGradient id="paint48_radial_2266_12350" cx="0" cy="0" r="1" gradientUnits="userSpaceOnUse" gradientTransform="translate(44.8572 108.823) scale(22.0752 22.0752)">
<stop stop-color="#FFC382"/>
<stop offset="1" stop-color="#9E2410"/>
</radialGradient>
<linearGradient id="paint49_linear_2266_12350" x1="74.4269" y1="110.011" x2="110.996" y2="110.011" gradientUnits="userSpaceOnUse">
<stop stop-color="#A63A00"/>
<stop offset="1" stop-color="#FFBD00"/>
</linearGradient>
<radialGradient id="paint50_radial_2266_12350" cx="0" cy="0" r="1" gradientUnits="userSpaceOnUse" gradientTransform="translate(101.32 101.414) scale(25.4233 25.4232)">
<stop stop-color="#E8814D"/>
<stop offset="1" stop-color="#9E3726"/>
</radialGradient>
<linearGradient id="paint51_linear_2266_12350" x1="43.7764" y1="149.558" x2="60.1924" y2="110.894" gradientUnits="userSpaceOnUse">
<stop stop-color="#D97130"/>
<stop offset="0.01" stop-color="#DE7927"/>
<stop offset="0.02" stop-color="#EA8E11"/>
<stop offset="0.04" stop-color="#F29B04"/>
<stop offset="0.05" stop-color="#F5A000"/>
<stop offset="0.36" stop-color="#F5AF00"/>
<stop offset="0.46" stop-color="#FFDD57"/>
<stop offset="0.58" stop-color="#FFB54D"/>
<stop offset="1" stop-color="#E08A00"/>
</linearGradient>
<radialGradient id="paint52_radial_2266_12350" cx="0" cy="0" r="1" gradientUnits="userSpaceOnUse" gradientTransform="translate(51.1867 131.381) scale(21.3408 21.3408)">
<stop stop-color="#E8814D"/>
<stop offset="1" stop-color="#9E3726"/>
</radialGradient>
<linearGradient id="paint53_linear_2266_12350" x1="90.1514" y1="111.11" x2="105.811" y2="149.904" gradientUnits="userSpaceOnUse">
<stop stop-color="#B05B00"/>
<stop offset="0.42" stop-color="#F5A000"/>
<stop offset="0.54" stop-color="#FFCC14"/>
<stop offset="0.64" stop-color="#F5A000"/>
<stop offset="0.95" stop-color="#BD6500"/>
<stop offset="0.97" stop-color="#B86200"/>
<stop offset="0.98" stop-color="#AB5900"/>
<stop offset="0.99" stop-color="#A15300"/>
</linearGradient>
<radialGradient id="paint54_radial_2266_12350" cx="0" cy="0" r="1" gradientUnits="userSpaceOnUse" gradientTransform="translate(100.324 130.788) scale(26.3304 26.3304)">
<stop stop-color="#FFDD57"/>
<stop offset="1" stop-color="#9E3726"/>
</radialGradient>
<radialGradient id="paint55_radial_2266_12350" cx="0" cy="0" r="1" gradientUnits="userSpaceOnUse" gradientTransform="translate(101.816 130.248) scale(14.7096 14.7096)">
<stop stop-color="#FFF2BB"/>
<stop offset="1"/>
</radialGradient>
<radialGradient id="paint56_radial_2266_12350" cx="0" cy="0" r="1" gradientUnits="userSpaceOnUse" gradientTransform="translate(47.341 130.902) scale(23.0473 23.0472)">
<stop stop-color="#FFF2BB"/>
<stop offset="1"/>
</radialGradient>
<linearGradient id="paint57_linear_2266_12350" x1="89.5453" y1="119.254" x2="99.8269" y2="85.6233" gradientUnits="userSpaceOnUse">
<stop stop-color="#8F3508"/>
<stop offset="0.21" stop-color="#BD500B"/>
<stop offset="0.7" stop-color="#F7A100"/>
<stop offset="1" stop-color="#964324"/>
</linearGradient>
<linearGradient id="paint58_linear_2266_12350" x1="81.4455" y1="116.98" x2="94.8807" y2="82.7438" gradientUnits="userSpaceOnUse">
<stop offset="0.3" stop-color="#C25D0A"/>
<stop offset="0.86" stop-color="#FFF14F"/>
<stop offset="0.94" stop-color="#F5B90A"/>
<stop offset="1" stop-color="#E68A00"/>
</linearGradient>
<radialGradient id="paint59_radial_2266_12350" cx="0" cy="0" r="1" gradientUnits="userSpaceOnUse" gradientTransform="translate(89.8702 89.9578) scale(43.3513 43.3512)">
<stop stop-color="#F59F41"/>
<stop offset="1" stop-color="#A64416"/>
</radialGradient>
<linearGradient id="paint60_linear_2266_12350" x1="80.4503" y1="117.033" x2="78.7439" y2="111.525" gradientUnits="userSpaceOnUse">
<stop stop-color="#8F3508"/>
<stop offset="0.21" stop-color="#BD500B"/>
<stop offset="0.7" stop-color="#F7A100"/>
<stop offset="1" stop-color="#964324"/>
</linearGradient>
<linearGradient id="paint61_linear_2266_12350" x1="62.9758" y1="123.247" x2="68.2678" y2="111.346" gradientUnits="userSpaceOnUse">
<stop offset="0.05" stop-color="#B7402C"/>
<stop offset="1" stop-color="#E68A00"/>
</linearGradient>
<linearGradient id="paint62_linear_2266_12350" x1="61.6168" y1="111.948" x2="65.1376" y2="96.6764" gradientUnits="userSpaceOnUse">
<stop stop-color="#D46C2C"/>
<stop offset="1" stop-color="#964324"/>
</linearGradient>
<linearGradient id="paint63_linear_2266_12350" x1="46.9067" y1="117.308" x2="55.9787" y2="94.2175" gradientUnits="userSpaceOnUse">
<stop stop-color="#F28B1D"/>
<stop offset="0.41" stop-color="#FFDC2B"/>
<stop offset="0.55" stop-color="#FFF79D"/>
<stop offset="0.78" stop-color="#F5B90A"/>
<stop offset="1" stop-color="#E68A00"/>
</linearGradient>
<radialGradient id="paint64_radial_2266_12350" cx="0" cy="0" r="1" gradientUnits="userSpaceOnUse" gradientTransform="translate(61.0982 100.219) scale(37.9729 37.9728)">
<stop stop-color="#F59F41"/>
<stop offset="1" stop-color="#A64416"/>
</radialGradient>
<radialGradient id="paint65_radial_2266_12350" cx="0" cy="0" r="1" gradientUnits="userSpaceOnUse" gradientTransform="translate(56.4118 103.482) scale(19.9152 19.9152)">
<stop stop-color="#FFF2BB"/>
<stop offset="1"/>
</radialGradient>
<radialGradient id="paint66_radial_2266_12350" cx="0" cy="0" r="1" gradientUnits="userSpaceOnUse" gradientTransform="translate(92.8061 90.8932) scale(22.032 22.032)">
<stop stop-color="#FFF2BB"/>
<stop offset="1"/>
</radialGradient>
<radialGradient id="paint67_radial_2266_12350" cx="0" cy="0" r="1" gradientUnits="userSpaceOnUse" gradientTransform="translate(105.616 107.023) scale(13.3272 13.3272)">
<stop stop-color="#9691FF"/>
<stop offset="0.03" stop-color="#908BF5"/>
<stop offset="0.31" stop-color="#5D5A9F"/>
<stop offset="0.55" stop-color="#35335B"/>
<stop offset="0.76" stop-color="#181729"/>
<stop offset="0.91" stop-color="#06060B"/>
<stop offset="1"/>
</radialGradient>
<radialGradient id="paint68_radial_2266_12350" cx="0" cy="0" r="1" gradientUnits="userSpaceOnUse" gradientTransform="translate(80.2138 113.295) scale(4.23361 4.2336)">
<stop stop-color="#FFC382"/>
<stop offset="1" stop-color="#9E3726"/>
</radialGradient>
<radialGradient id="paint69_radial_2266_12350" cx="0" cy="0" r="1" gradientUnits="userSpaceOnUse" gradientTransform="translate(97.5162 104.968) scale(25.3585 25.3584)">
<stop offset="0.67" stop-color="#6689BA"/>
<stop offset="0.72" stop-color="#5F90BE"/>
<stop offset="0.79" stop-color="#4EA4C9"/>
<stop offset="0.88" stop-color="#32C4DC"/>
<stop offset="0.97" stop-color="#0BF1F7"/>
<stop offset="1" stop-color="#00FFFF"/>
</radialGradient>
<radialGradient id="paint70_radial_2266_12350" cx="0" cy="0" r="1" gradientUnits="userSpaceOnUse" gradientTransform="translate(59.5863 116.595) scale(26.4816 26.4816)">
<stop offset="0.67" stop-color="#6689BA"/>
<stop offset="0.72" stop-color="#5F90BE"/>
<stop offset="0.79" stop-color="#4EA4C9"/>
<stop offset="0.88" stop-color="#32C4DC"/>
<stop offset="0.97" stop-color="#0BF1F7"/>
<stop offset="1" stop-color="#00FFFF"/>
</radialGradient>
<linearGradient id="paint71_linear_2266_12350" x1="90.6894" y1="101.452" x2="108.574" y2="117.566" gradientUnits="userSpaceOnUse">
<stop stop-color="#F28B1D"/>
<stop offset="0.41" stop-color="#FFDC2B"/>
<stop offset="0.55" stop-color="#FFF79D"/>
<stop offset="0.78" stop-color="#F5B90A"/>
<stop offset="1" stop-color="#E68A00"/>
</linearGradient>
<radialGradient id="paint72_radial_2266_12350" cx="0" cy="0" r="1" gradientUnits="userSpaceOnUse" gradientTransform="translate(111.49 113.565) scale(31.7305 31.7304)">
<stop stop-color="#F59F41"/>
<stop offset="1" stop-color="#A64416"/>
</radialGradient>
<radialGradient id="paint73_radial_2266_12350" cx="0" cy="0" r="1" gradientUnits="userSpaceOnUse" gradientTransform="translate(122.875 113.14) scale(17.064 17.064)">
<stop stop-color="#F59F41"/>
<stop offset="1" stop-color="#A64416"/>
</radialGradient>
<radialGradient id="paint74_radial_2266_12350" cx="0" cy="0" r="1" gradientUnits="userSpaceOnUse" gradientTransform="translate(83.4109 131.155) scale(24.3432 24.3432)">
<stop stop-color="#F59F41"/>
<stop offset="1" stop-color="#A64416"/>
</radialGradient>
<linearGradient id="paint75_linear_2266_12350" x1="74.231" y1="113.121" x2="72.2438" y2="128.716" gradientUnits="userSpaceOnUse">
<stop stop-color="#F28B1D"/>
<stop offset="0.26" stop-color="#FFDC2B"/>
<stop offset="0.39" stop-color="#FFF79D"/>
<stop offset="0.8" stop-color="#F5B90A"/>
<stop offset="1" stop-color="#E68A00"/>
</linearGradient>
</defs>
</svg>
