<svg width="150" height="220" viewBox="0 0 150 220" fill="none" xmlns="http://www.w3.org/2000/svg">
<path fill-rule="evenodd" clip-rule="evenodd" d="M76.0327 150.811L19.2246 128.326L76.0111 107.957L132.798 128.326L76.0111 150.811H76.0327Z" fill="#C2C2C2"/>
<path fill-rule="evenodd" clip-rule="evenodd" d="M76.0106 148.822V109.898L24.4297 128.41L76.0106 148.822Z" fill="url(#paint0_radial_2266_12202)"/>
<path fill-rule="evenodd" clip-rule="evenodd" d="M76.0117 109.898V148.822L127.593 128.41L76.0117 109.898Z" fill="url(#paint1_radial_2266_12202)"/>
<path style="mix-blend-mode:screen" opacity="0.8" fill-rule="evenodd" clip-rule="evenodd" d="M83.7029 129.629C82.3516 130.505 80.5499 130.129 79.6491 128.778C78.7733 127.427 79.1486 125.625 80.4999 124.724C81.8512 123.848 83.6528 124.224 84.5537 125.575C85.4295 126.926 85.0542 128.728 83.7029 129.629Z" fill="url(#paint2_radial_2266_12202)"/>
<path style="mix-blend-mode:screen" opacity="0.8" fill-rule="evenodd" clip-rule="evenodd" d="M59.1297 90.9875C58.0286 91.7132 56.5272 91.4129 55.8015 90.2869C55.0759 89.1859 55.3761 87.6844 56.5022 86.9588C57.6032 86.2331 59.1046 86.5334 59.8303 87.6594C60.556 88.7604 60.2557 90.2619 59.1297 90.9875Z" fill="url(#paint3_radial_2266_12202)"/>
<path style="mix-blend-mode:screen" opacity="0.8" fill-rule="evenodd" clip-rule="evenodd" d="M93.5877 103.676C92.2364 104.552 90.4347 104.176 89.5339 102.825C88.6581 101.474 89.0334 99.672 90.3847 98.7712C91.7359 97.8954 93.5376 98.2707 94.4384 99.622C95.3143 100.973 94.9389 102.775 93.5877 103.676Z" fill="url(#paint4_radial_2266_12202)"/>
<path style="mix-blend-mode:screen" fill-rule="evenodd" clip-rule="evenodd" d="M78.9732 90.1408C77.672 90.9916 75.8954 90.6413 75.0446 89.315C74.1938 88.0138 74.5441 86.2371 75.8703 85.3864C77.1716 84.5356 78.9482 84.8859 79.799 86.2121C80.6498 87.5133 80.2995 89.29 78.9732 90.1408Z" fill="url(#paint5_radial_2266_12202)"/>
<path style="mix-blend-mode:screen" opacity="0.5" fill-rule="evenodd" clip-rule="evenodd" d="M77.6228 121.293C74.4699 123.37 70.2159 122.469 68.1389 119.316C66.062 116.163 66.9628 111.909 70.1158 109.832C73.2687 107.755 77.5227 108.656 79.5997 111.809C81.6766 114.962 80.7758 119.216 77.6228 121.293Z" fill="url(#paint6_radial_2266_12202)"/>
<path style="mix-blend-mode:screen" opacity="0.5" fill-rule="evenodd" clip-rule="evenodd" d="M95.9888 117.461C93.6616 118.988 90.5337 118.337 88.9822 116.01C87.4308 113.683 88.1064 110.555 90.4336 109.003C92.7608 107.477 95.8887 108.128 97.4151 110.455C98.9415 112.782 98.2909 115.91 95.9637 117.461H95.9888Z" fill="url(#paint7_radial_2266_12202)"/>
<path style="mix-blend-mode:screen" opacity="0.5" d="M107.668 93.715C109.686 93.715 111.321 92.0793 111.321 90.0616C111.321 88.0439 109.686 86.4082 107.668 86.4082C105.65 86.4082 104.015 88.0439 104.015 90.0616C104.015 92.0793 105.65 93.715 107.668 93.715Z" fill="url(#paint8_radial_2266_12202)"/>
<path style="mix-blend-mode:screen" opacity="0.75" fill-rule="evenodd" clip-rule="evenodd" d="M39.5864 118.416C36.8088 120.242 33.0553 119.467 31.2286 116.689C29.4019 113.911 30.1776 110.158 32.9552 108.331C35.7328 106.504 39.4863 107.28 41.313 110.058C43.1397 112.835 42.364 116.589 39.5864 118.416Z" fill="url(#paint9_radial_2266_12202)"/>
<path style="mix-blend-mode:screen" opacity="0.75" fill-rule="evenodd" clip-rule="evenodd" d="M105.365 106.452C107.091 105.326 109.393 105.801 110.545 107.528C111.671 109.254 111.195 111.557 109.469 112.708C107.742 113.834 105.44 113.358 104.289 111.632C103.163 109.905 103.638 107.603 105.365 106.452Z" fill="url(#paint10_radial_2266_12202)"/>
<path style="mix-blend-mode:screen" fill-rule="evenodd" clip-rule="evenodd" d="M74.5428 112.669C73.3166 113.47 71.6901 113.12 70.8894 111.919C70.0886 110.693 70.439 109.066 71.6401 108.265C72.8662 107.465 74.4928 107.815 75.2935 109.016C76.0943 110.242 75.7439 111.869 74.5428 112.669Z" fill="url(#paint11_radial_2266_12202)"/>
<path style="mix-blend-mode:screen" fill-rule="evenodd" clip-rule="evenodd" d="M84.226 106.336C82.4493 107.512 80.0471 107.011 78.896 105.235C77.7199 103.458 78.2204 101.056 79.997 99.9048C81.7737 98.7287 84.176 99.2292 85.327 101.006C86.5031 102.782 86.0027 105.185 84.226 106.336Z" fill="url(#paint12_radial_2266_12202)"/>
<path style="mix-blend-mode:screen" fill-rule="evenodd" clip-rule="evenodd" d="M120.463 121.373C119.237 122.173 117.61 121.823 116.809 120.622C116.009 119.396 116.359 117.769 117.56 116.968C118.786 116.168 120.413 116.518 121.213 117.719C122.014 118.945 121.664 120.572 120.463 121.373Z" fill="url(#paint13_radial_2266_12202)"/>
<path style="mix-blend-mode:screen" fill-rule="evenodd" clip-rule="evenodd" d="M68.6141 102.518C66.4371 103.944 63.5343 103.344 62.133 101.167C60.7067 98.9898 61.3073 96.0871 63.4843 94.6858C65.6613 93.2594 68.5641 93.86 69.9654 96.037C71.3917 98.2141 70.7912 101.117 68.6141 102.518Z" fill="url(#paint14_radial_2266_12202)"/>
<path style="mix-blend-mode:screen" fill-rule="evenodd" clip-rule="evenodd" d="M79.898 128.3C79.3475 128.65 78.6218 128.5 78.2715 127.95C77.9211 127.399 78.0713 126.674 78.6218 126.323C79.1723 125.973 79.898 126.123 80.2483 126.674C80.5986 127.224 80.4485 127.95 79.898 128.3Z" fill="url(#paint15_radial_2266_12202)"/>
<path style="mix-blend-mode:screen" fill-rule="evenodd" clip-rule="evenodd" d="M98.567 123.546C98.0164 123.896 97.2907 123.746 96.9404 123.196C96.5901 122.645 96.7402 121.92 97.2907 121.569C97.8413 121.219 98.567 121.369 98.9173 121.92C99.2676 122.47 99.1175 123.196 98.567 123.546Z" fill="url(#paint16_radial_2266_12202)"/>
<path style="mix-blend-mode:screen" fill-rule="evenodd" clip-rule="evenodd" d="M110.903 110.434C111.654 109.933 112.68 110.158 113.18 110.909C113.681 111.66 113.456 112.686 112.705 113.186C111.954 113.687 110.928 113.462 110.428 112.711C109.927 111.96 110.153 110.934 110.903 110.434Z" fill="url(#paint17_radial_2266_12202)"/>
<path style="mix-blend-mode:screen" fill-rule="evenodd" clip-rule="evenodd" d="M81.3257 101.081C80.7752 101.432 80.0495 101.282 79.6992 100.731C79.3489 100.18 79.499 99.4548 80.0495 99.1045C80.6 98.7541 81.3257 98.9043 81.6761 99.4548C82.0264 100.005 81.8762 100.731 81.3257 101.081Z" fill="url(#paint18_radial_2266_12202)"/>
<path style="mix-blend-mode:screen" fill-rule="evenodd" clip-rule="evenodd" d="M72.115 77.3779C72.6655 77.0276 73.3911 77.1777 73.7415 77.7282C74.0918 78.2787 73.9417 79.0044 73.3911 79.3547C72.8406 79.7051 72.115 79.5549 71.7646 79.0044C71.4143 78.4539 71.5644 77.7282 72.115 77.3779Z" fill="url(#paint19_radial_2266_12202)"/>
<path style="mix-blend-mode:screen" fill-rule="evenodd" clip-rule="evenodd" d="M50.1724 106.23C49.6219 106.58 48.8962 106.43 48.5459 105.879C48.1956 105.329 48.3457 104.603 48.8962 104.253C49.4467 103.903 50.1724 104.053 50.5227 104.603C50.8731 105.154 50.7229 105.879 50.1724 106.23Z" fill="url(#paint20_radial_2266_12202)"/>
<path style="mix-blend-mode:screen" opacity="0.5" fill-rule="evenodd" clip-rule="evenodd" d="M81.9517 66.7722C80.9257 67.4478 79.5244 67.1726 78.8488 66.1216C78.1731 65.0706 78.4484 63.6943 79.4994 63.0187C80.5254 62.3431 81.9267 62.6183 82.6023 63.6693C83.2779 64.6953 83.0027 66.0966 81.9517 66.7722Z" fill="url(#paint21_radial_2266_12202)"/>
<path style="mix-blend-mode:screen" fill-rule="evenodd" clip-rule="evenodd" d="M46.642 95.8445C44.8903 96.9956 42.5131 96.4951 41.362 94.7435C40.2109 92.9919 40.7114 90.6146 42.463 89.4636C44.2147 88.3125 46.5919 88.813 47.743 90.5646C48.8941 92.3162 48.3936 94.6935 46.642 95.8445Z" fill="url(#paint22_radial_2266_12202)"/>
<path style="mix-blend-mode:screen" opacity="0.75" fill-rule="evenodd" clip-rule="evenodd" d="M46.9414 98.5408C45.7653 99.3165 44.1638 98.9912 43.3881 97.7901C42.6124 96.614 42.9377 95.0125 44.1388 94.2367C45.3149 93.461 46.9164 93.7863 47.6921 94.9874C48.4679 96.1885 48.1425 97.765 46.9414 98.5408Z" fill="url(#paint23_radial_2266_12202)"/>
<path style="mix-blend-mode:screen" fill-rule="evenodd" clip-rule="evenodd" d="M92.1105 84.1617C91.1847 84.7622 89.9335 84.512 89.3329 83.5861C88.7324 82.6603 88.9826 81.4091 89.9085 80.8085C90.8343 80.208 92.0855 80.4582 92.6861 81.3841C93.2866 82.3099 93.0364 83.5611 92.1105 84.1617Z" fill="url(#paint24_radial_2266_12202)"/>
<path style="mix-blend-mode:screen" fill-rule="evenodd" clip-rule="evenodd" d="M110.344 101.97C109.719 102.37 108.868 102.195 108.467 101.57C108.067 100.944 108.242 100.093 108.868 99.693C109.493 99.2926 110.344 99.4678 110.745 100.093C111.145 100.719 110.97 101.57 110.344 101.97Z" fill="url(#paint25_radial_2266_12202)"/>
<path style="mix-blend-mode:screen" fill-rule="evenodd" clip-rule="evenodd" d="M42.8859 113.855C41.1843 114.981 38.9072 114.505 37.7812 112.804C36.6551 111.102 37.1305 108.825 38.8321 107.699C40.5337 106.573 42.8109 107.049 43.9369 108.75C45.063 110.452 44.5875 112.729 42.8859 113.855Z" fill="url(#paint26_radial_2266_12202)"/>
<path style="mix-blend-mode:screen" fill-rule="evenodd" clip-rule="evenodd" d="M70.4394 100.373C69.5385 100.974 68.3124 100.724 67.7118 99.7978C67.1113 98.8969 67.3615 97.6708 68.2874 97.0702C69.1882 96.4697 70.4144 96.7199 71.0149 97.6458C71.6155 98.5466 71.3653 99.7728 70.4394 100.373Z" fill="url(#paint27_radial_2266_12202)"/>
<path style="mix-blend-mode:screen" fill-rule="evenodd" clip-rule="evenodd" d="M90.5329 117.819C89.4569 118.52 88.0055 118.219 87.3049 117.143C86.6042 116.067 86.9045 114.616 87.9805 113.915C89.0565 113.215 90.5079 113.515 91.2085 114.591C91.9092 115.667 91.6089 117.118 90.5329 117.819Z" fill="url(#paint28_radial_2266_12202)"/>
<path style="mix-blend-mode:screen" fill-rule="evenodd" clip-rule="evenodd" d="M86.3287 97.0954C85.5029 97.6459 84.4019 97.3957 83.8514 96.5699C83.3008 95.7441 83.5511 94.6431 84.3769 94.0926C85.2026 93.5421 86.3037 93.7923 86.8542 94.6181C87.4047 95.4438 87.1545 96.5449 86.3287 97.0954Z" fill="url(#paint29_radial_2266_12202)"/>
<path style="mix-blend-mode:screen" opacity="0.5" fill-rule="evenodd" clip-rule="evenodd" d="M121.614 118.304C120.989 118.704 120.163 118.529 119.763 117.929C119.362 117.303 119.537 116.477 120.138 116.077C120.763 115.677 121.589 115.852 121.99 116.452C122.39 117.078 122.215 117.904 121.614 118.304Z" fill="url(#paint30_radial_2266_12202)"/>
<path style="mix-blend-mode:screen" opacity="0.75" fill-rule="evenodd" clip-rule="evenodd" d="M55.7759 112.763C52.9983 114.59 49.2448 113.814 47.418 111.037C45.5913 108.259 46.3671 104.505 49.1447 102.679C51.9223 100.852 55.6758 101.628 57.5025 104.405C59.3292 107.183 58.5535 110.937 55.7759 112.763Z" fill="url(#paint31_radial_2266_12202)"/>
<path style="mix-blend-mode:screen" fill-rule="evenodd" clip-rule="evenodd" d="M55.9531 104.676C54.9272 105.352 53.5759 105.052 52.9003 104.051C52.2246 103.025 52.5249 101.674 53.5258 100.998C54.5518 100.322 55.9031 100.623 56.5787 101.624C57.2543 102.649 56.9541 104.001 55.9531 104.676Z" fill="url(#paint32_radial_2266_12202)"/>
<path style="mix-blend-mode:screen" fill-rule="evenodd" clip-rule="evenodd" d="M37.8885 131.812C36.2607 132.889 34.0597 132.431 32.9821 130.78C31.9046 129.129 32.3631 126.951 34.0139 125.874C35.6417 124.796 37.8427 125.255 38.9202 126.905C39.9978 128.533 39.5393 130.734 37.8885 131.812Z" fill="url(#paint33_radial_2266_12202)"/>
<path fill-rule="evenodd" clip-rule="evenodd" d="M76.0327 150.811L19.2246 128.326L76.0111 107.957L132.798 128.326L76.0111 150.811H76.0327ZM127.592 128.412L76.0111 109.923L24.4302 128.412L76.0111 148.824L127.592 128.412Z" fill="url(#paint34_radial_2266_12202)"/>
<path fill-rule="evenodd" clip-rule="evenodd" d="M76.0337 150.796L19.2256 128.311C20.8456 149.651 21.688 171.683 21.4504 192.355C21.4504 192.916 21.7744 193.37 22.2712 193.629L73.9169 218.901C74.6081 219.247 75.3209 219.398 76.0121 219.398C76.7033 219.398 77.4377 219.225 78.1073 218.901L129.753 193.629C130.25 193.391 130.574 192.916 130.574 192.355C130.336 171.683 131.179 149.651 132.799 128.311L75.9905 150.796H76.0337Z" fill="#7C21DC"/>
<path fill-rule="evenodd" clip-rule="evenodd" d="M76.0337 150.79L19.2256 128.305C20.8456 149.645 21.688 171.677 21.4504 192.349C21.4504 192.91 21.7744 193.364 22.2712 193.623L73.9169 218.895C74.6081 219.241 75.3209 219.392 76.0121 219.392V150.79H76.0337Z" fill="url(#paint35_radial_2266_12202)"/>
<path fill-rule="evenodd" clip-rule="evenodd" d="M76.0332 150.796L132.841 128.311C131.221 149.651 130.379 171.683 130.617 192.355C130.617 192.916 130.292 193.37 129.796 193.629L78.15 218.901C77.4588 219.247 76.746 219.398 76.0548 219.398V150.796H76.0332Z" fill="url(#paint36_radial_2266_12202)"/>
<path fill-rule="evenodd" clip-rule="evenodd" d="M76.0337 150.796L19.2256 128.311C20.8456 149.651 21.688 171.683 21.4504 192.355C21.4504 192.916 21.7744 193.37 22.2712 193.629L73.9169 218.901C74.6081 219.247 75.3209 219.398 76.0121 219.398V150.796H76.0337Z" fill="url(#paint37_radial_2266_12202)"/>
<path fill-rule="evenodd" clip-rule="evenodd" d="M17.4084 36.6422L18.0348 54.9158C18.0348 55.499 18.402 55.9958 18.942 56.2334L74.7565 79.3238C75.5989 79.6694 76.4413 79.6694 77.2837 79.3238L133.098 56.2334C133.638 56.0174 133.984 55.5206 134.005 54.9158L134.632 36.6422C134.632 36.1454 134.351 35.7134 133.876 35.5622L77.0677 16.3598C76.3549 16.1222 75.6637 16.1222 74.9509 16.3598L18.1428 35.5622C17.6676 35.7134 17.3652 36.1454 17.3868 36.6422H17.4084Z" fill="#8D48EB"/>
<path fill-rule="evenodd" clip-rule="evenodd" d="M18.0346 54.918C18.0562 55.5012 18.4018 55.998 18.9418 56.214L74.7563 79.3044C75.1883 79.4772 75.5987 79.5636 76.0307 79.5636V59.0436L17.6458 35.9316C17.4946 36.126 17.4082 36.3852 17.4082 36.6444L18.0346 54.918Z" fill="url(#paint38_radial_2266_12202)"/>
<path style="mix-blend-mode:screen" opacity="0.4" fill-rule="evenodd" clip-rule="evenodd" d="M18.0361 54.916C18.0577 55.4992 18.4033 55.996 18.9433 56.212L74.7578 79.3024C75.1898 79.4752 75.6002 79.5616 76.0322 79.5616C71.453 77.6176 53.957 69.7336 40.241 64.1608C28.9442 59.56 23.1553 57.6376 20.4121 56.4496C18.0145 55.4344 18.0361 54.916 18.0361 54.916Z" fill="url(#paint39_radial_2266_12202)"/>
<path fill-rule="evenodd" clip-rule="evenodd" d="M17.625 35.9138L76.0099 59.0258L134.395 35.9138C134.265 35.741 134.092 35.6114 133.876 35.5466L77.0683 16.3442C76.3555 16.1066 75.6643 16.1066 74.9515 16.3442L18.1434 35.5466C17.9274 35.6114 17.7546 35.741 17.625 35.9138Z" fill="url(#paint40_radial_2266_12202)"/>
<path fill-rule="evenodd" clip-rule="evenodd" d="M17.4084 36.6422L18.0348 54.9158C18.0348 55.499 18.402 55.9958 18.942 56.2334L74.7565 79.3238C75.5989 79.6694 76.4413 79.6694 77.2837 79.3238L133.098 56.2334C133.638 56.0174 133.984 55.5206 134.005 54.9158L134.632 36.6422C134.632 36.1454 134.351 35.7134 133.876 35.5622L77.0677 16.3598C76.3549 16.1222 75.6637 16.1222 74.9509 16.3598L18.1428 35.5622C17.6676 35.7134 17.3652 36.1454 17.3868 36.6422H17.4084Z" fill="url(#paint41_radial_2266_12202)"/>
<path fill-rule="evenodd" clip-rule="evenodd" d="M76.0304 59.0436V79.5636C76.4408 79.5636 76.8728 79.4772 77.2832 79.3044L133.098 56.214C133.638 55.9764 133.983 55.5012 134.005 54.918L134.631 36.6444C134.631 36.3636 134.545 36.126 134.394 35.9316L76.0088 59.0436H76.0304Z" fill="url(#paint42_radial_2266_12202)"/>
<path style="mix-blend-mode:screen" opacity="0.2" fill-rule="evenodd" clip-rule="evenodd" d="M53.8907 50.2754C56.7635 51.593 73.698 58.8506 74.6484 60.2762C75.534 61.5722 75.8796 73.3874 76.0308 75.785C76.182 73.3658 76.5276 61.421 77.3916 60.125C78.2988 58.7426 90.114 53.6666 92.4252 52.565C89.9844 53.429 77.5428 58.181 76.0092 58.181C74.3028 58.181 56.9579 51.4202 53.8691 50.297L53.8907 50.2754Z" fill="url(#paint43_radial_2266_12202)"/>
<path style="mix-blend-mode:multiply" opacity="0.3" fill-rule="evenodd" clip-rule="evenodd" d="M18.0348 54.8997C18.9852 51.1197 18.726 39.6501 19.6116 39.0669C20.3676 38.5917 42.2269 46.1301 49.0093 48.3333C43.9549 46.1085 20.886 36.8421 20.886 36.1293C20.886 35.2437 42.3997 27.4461 44.6893 26.5605L18.1428 35.5245C17.6676 35.6757 17.3652 36.1077 17.3868 36.6045L18.0132 54.8781L18.0348 54.8997Z" fill="url(#paint44_radial_2266_12202)"/>
<path fill-rule="evenodd" clip-rule="evenodd" d="M76.615 33.3738C69.055 28.0818 65.1886 26.0946 56.419 22.9842C55.771 22.7682 55.1446 22.5306 54.4966 22.3146C53.8486 22.077 53.179 22.0122 52.5526 22.3146C48.7294 24.1074 44.7334 25.3818 40.651 26.4402C40.2838 26.5482 40.0462 26.9154 40.0678 27.3042V28.1466C40.2838 28.0818 40.4782 28.017 40.6726 27.9522C41.191 28.1466 41.731 28.341 42.2494 28.557C51.8614 32.2506 62.0998 34.4106 72.3598 35.9225L76.6366 33.3953L76.615 33.3738Z" fill="url(#paint45_linear_2266_12202)"/>
<path fill-rule="evenodd" clip-rule="evenodd" d="M43.5244 27.9955C53.3524 31.8403 63.0508 33.6979 73.4836 35.2315C73.0948 35.4475 72.7276 35.6851 72.3388 35.9011C62.1004 34.3891 51.862 32.2291 42.2284 28.5355C41.71 28.3411 41.17 28.1467 40.6516 27.9307C40.4572 27.9955 40.2628 28.0603 40.0684 28.1251V27.2827C40.0684 26.8507 40.5436 26.8291 41.2132 27.0883L43.5028 27.9955H43.5244Z" fill="url(#paint46_radial_2266_12202)"/>
<path fill-rule="evenodd" clip-rule="evenodd" d="M75.4269 33.3738C82.9869 28.0818 86.8533 26.0946 95.6229 22.9842C96.2709 22.7682 96.8973 22.5306 97.5453 22.3146C98.1933 22.077 98.8629 22.0122 99.4893 22.3146C103.313 24.1074 107.309 25.3818 111.391 26.4402C111.758 26.5482 111.996 26.9154 111.974 27.3042V28.1466C111.758 28.0818 111.564 28.017 111.369 27.9522C110.851 28.1466 110.311 28.341 109.793 28.557C100.181 32.2506 89.9421 34.4106 79.6821 35.9225C78.2565 35.0801 76.8309 34.2377 75.4053 33.3953L75.4269 33.3738Z" fill="url(#paint47_linear_2266_12202)"/>
<path fill-rule="evenodd" clip-rule="evenodd" d="M108.541 27.9955C98.7133 31.8403 89.0148 33.6979 78.582 35.2315C78.9708 35.4475 79.338 35.6851 79.7268 35.9011C89.9653 34.3891 100.204 32.2291 109.837 28.5355C110.356 28.3411 110.896 28.1467 111.414 27.9307C111.609 27.9955 111.803 28.0603 111.997 28.1251V27.2827C111.997 26.8507 111.522 26.8291 110.853 27.0883L108.563 27.9955H108.541Z" fill="url(#paint48_radial_2266_12202)"/>
<path fill-rule="evenodd" clip-rule="evenodd" d="M52.6388 70.1353L53.4596 70.4809C53.4596 70.8265 53.4596 71.0857 52.8548 71.1721L51.6668 71.3449C51.494 71.3881 51.3212 71.3449 51.17 71.3017L38.2964 65.7505C37.3892 65.3617 37.3892 64.7569 37.3676 63.8497L36.8924 45.1225C36.8708 44.3665 37.3028 43.7185 38.0156 43.4593L41.45 42.2065C51.2564 38.5993 60.242 36.2233 70.7612 34.6465L76.3988 36.3961C72.5324 41.2777 63.158 45.4897 55.4252 48.4705L53.5028 49.2913C52.8332 49.5721 52.4228 50.1769 52.4228 50.8897L52.5956 70.1569L52.6388 70.1353Z" fill="url(#paint49_linear_2266_12202)"/>
<path fill-rule="evenodd" clip-rule="evenodd" d="M52.6403 70.1447L52.4675 50.8775C52.4675 50.1647 52.8995 49.5599 53.5475 49.2791L55.4699 48.4583C63.1811 45.4775 72.5771 41.2871 76.4435 36.3839L75.8387 36.1895C70.7195 41.8055 59.8331 45.7799 52.3379 48.6311C51.5171 48.9335 51.0635 49.9487 51.0635 50.8127C51.0635 55.6295 51.1715 62.5415 51.3659 70.2959C51.3659 70.7279 51.1931 71.3975 52.3595 71.2247L52.8779 71.1599C53.4827 71.0735 53.4827 70.8143 53.4827 70.4687L52.6619 70.1231L52.6403 70.1447Z" fill="url(#paint50_radial_2266_12202)"/>
<path fill-rule="evenodd" clip-rule="evenodd" d="M99.4026 70.1567L98.5818 70.5023C98.5818 70.8479 98.5818 71.107 99.1866 71.1935L100.375 71.3663C100.547 71.4095 100.72 71.3663 100.871 71.3231L113.745 65.7934C114.652 65.4046 114.652 64.7999 114.674 63.8927L115.149 45.1655C115.171 44.4095 114.739 43.7615 114.026 43.5023L110.591 42.2495C100.785 38.6423 91.7994 36.2663 81.2802 34.6895L75.6426 36.4391C79.509 41.3207 88.8834 45.5327 96.6162 48.5135L98.5386 49.3343C99.2082 49.6151 99.6186 50.2199 99.6186 50.9327L99.4458 70.1999L99.4026 70.1567Z" fill="url(#paint51_linear_2266_12202)"/>
<path fill-rule="evenodd" clip-rule="evenodd" d="M99.4019 70.1564L99.5747 50.8892C99.5747 50.1764 99.1427 49.5716 98.4947 49.2908L96.5723 48.47C88.8611 45.4892 79.465 41.2988 75.5986 36.3956L76.2034 36.2012C81.3226 41.8172 92.2091 45.7916 99.7043 48.6428C100.525 48.9452 100.979 49.9604 100.979 50.8244C100.979 55.6412 100.871 62.5532 100.676 70.3076C100.676 70.7396 100.849 71.4092 99.6827 71.2364L99.1643 71.1716C98.5595 71.0852 98.5595 70.826 98.5595 70.4804L99.3803 70.1348L99.4019 70.1564Z" fill="url(#paint52_radial_2266_12202)"/>
<path style="mix-blend-mode:screen" fill-rule="evenodd" clip-rule="evenodd" d="M91.8428 45.5762C93.182 45.965 97.178 47.3474 99.5324 48.3626C100.785 48.9026 101.26 49.6586 101.239 51.3866C101.174 54.5186 101.066 60.8258 100.872 62.4242C100.807 60.9122 100.764 54.4538 100.677 51.3866C100.634 49.961 100.375 49.421 99.338 48.8162C97.286 47.6066 93.2036 46.2026 91.8428 45.5762Z" fill="url(#paint53_radial_2266_12202)"/>
<path style="mix-blend-mode:screen" fill-rule="evenodd" clip-rule="evenodd" d="M60.1995 45.5605C58.8603 45.9493 54.8642 47.3317 52.5098 48.3469C51.257 48.8869 50.7818 49.6429 50.8034 51.3709C50.8682 54.5029 51.1274 62.3869 51.3434 70.2925C51.2786 61.3069 51.2786 54.4165 51.3434 51.3709C51.3866 49.9453 51.6458 49.4053 52.6826 48.8005C54.7346 47.5909 58.8171 46.1869 60.1779 45.5605H60.1995Z" fill="url(#paint54_radial_2266_12202)"/>
<g opacity="0.75">
<g style="mix-blend-mode:screen">
<path d="M38.0612 44.6414C38.0612 44.6414 37.9964 44.7926 37.91 44.7926C37.8236 44.7926 37.7588 44.7278 37.7588 44.6414C37.7588 44.555 37.8236 44.4902 37.91 44.4902C37.9964 44.4902 38.0612 44.555 38.0612 44.6414Z" fill="#745CFF"/>
</g>
<g style="mix-blend-mode:screen">
<path d="M37.9083 45.0354C38.1231 45.0354 38.2971 44.8613 38.2971 44.6466C38.2971 44.4319 38.1231 44.2578 37.9083 44.2578C37.6936 44.2578 37.5195 44.4319 37.5195 44.6466C37.5195 44.8613 37.6936 45.0354 37.9083 45.0354Z" fill="#A197FF"/>
</g>
</g>
<path fill-rule="evenodd" clip-rule="evenodd" d="M93.6125 10.3473C93.8717 19.1601 88.6661 24.9273 82.5101 28.8585C81.1709 30.8025 79.8533 32.7249 78.6221 34.6041C84.9293 33.4161 93.1805 32.0337 99.6605 28.9449C103.549 27.1089 107.458 23.5881 109.381 19.0737C111.562 13.9977 110.957 7.45287 106.313 6.30807C105.946 6.24327 105.579 6.17847 105.212 6.11367C105.017 6.11367 104.845 6.09207 104.65 6.07047C99.5957 5.78967 96.2693 7.86327 93.6341 10.3257L93.6125 10.3473Z" fill="url(#paint55_linear_2266_12202)"/>
<path fill-rule="evenodd" clip-rule="evenodd" d="M74.5831 32.891L78.5791 34.4678C82.5319 28.679 86.5279 22.955 90.7399 17.3606C95.0816 11.615 99.0128 5.675 105.601 5.567C100.158 4.7894 95.924 3.3638 91.496 1.5494C87.6944 -0.00580144 84.6703 1.7222 82.5319 7.1222C79.2271 15.4382 76.7647 24.2294 74.5615 32.891H74.5831Z" fill="url(#paint56_linear_2266_12202)"/>
<path d="M78.191 34.3162C81.8846 28.7434 85.751 23.2354 89.8118 17.9002C93.5702 12.9754 99.6182 2.80178 107.329 6.10658C111.347 7.81298 111.585 13.2346 110.677 16.885C109.9 20.0386 108.15 22.8466 105.882 25.1362C99.5966 31.5082 88.5374 33.301 80.0918 34.8562L77.543 35.3314L78.2126 34.3162H78.191ZM78.6878 34.381C87.7166 32.2858 101.541 30.385 106.919 21.6802C109.965 16.7554 111.282 10.081 106.681 7.53218C101.217 4.50818 94.3262 14.077 90.9566 18.505C87.155 23.4946 82.9214 29.5426 78.6878 34.4026V34.381Z" fill="url(#paint57_radial_2266_12202)"/>
<path fill-rule="evenodd" clip-rule="evenodd" d="M77.7783 30.9138C78.3183 31.7994 79.2039 31.9722 79.4199 32.5986C79.6575 33.3546 79.3119 35.2554 78.2967 35.9034C79.3983 35.7306 82.2711 35.4066 82.9407 34.3482C83.4807 33.4842 83.6103 31.0866 82.3359 30.2874C81.5583 29.7906 81.2127 30.3738 80.1975 30.5682C79.3119 30.741 78.3615 30.8922 77.7999 30.9354L77.7783 30.9138Z" fill="url(#paint58_linear_2266_12202)"/>
<path fill-rule="evenodd" clip-rule="evenodd" d="M55.7462 34.5578C60.4982 47.1938 70.391 39.1154 78.9662 34.6658L74.6462 32.873C68.9654 34.4714 61.3406 35.141 55.7246 34.5578H55.7462Z" fill="url(#paint59_linear_2266_12202)"/>
<path fill-rule="evenodd" clip-rule="evenodd" d="M49.376 12.7388C51.9896 12.1772 53.0912 12.4796 56.288 13.8188C59.3768 15.1148 62.0552 16.3244 65.2736 17.2316C68.6216 18.182 69.9608 18.2684 71.6024 20.1476C72.6392 21.3356 73.46 22.826 74.1944 24.338C75.7928 27.5564 77.348 30.4508 79.4216 33.41C79.3352 33.8636 79.2704 34.3388 79.184 34.7924C76.7216 33.9932 74.7992 33.1724 72.7472 31.79C68.1896 28.7228 64.9064 24.0788 61.3424 19.9964C58.9232 17.2316 56.3312 14.8772 52.2704 13.3436C51.2336 12.9548 50.2616 12.7604 49.376 12.7604V12.7388Z" fill="url(#paint60_linear_2266_12202)"/>
<path fill-rule="evenodd" clip-rule="evenodd" d="M69.2691 18.0559C65.9427 18.2503 64.3227 19.4815 61.5579 22.4839C59.0739 25.2055 57.0435 28.8559 56.6115 32.5711C56.2443 35.7679 57.1731 38.8351 60.2403 41.1463C55.0131 38.7487 49.9803 36.5023 44.0835 34.7743C43.0251 34.2991 42.0963 33.6511 41.3403 32.8735C33.8667 25.2487 42.7443 11.7919 52.3779 12.0727C52.9395 12.0727 53.4795 12.1375 53.9547 12.3535C58.8579 14.5999 63.3507 16.5439 69.2691 18.0775V18.0559Z" fill="url(#paint61_linear_2266_12202)"/>
<path fill-rule="evenodd" clip-rule="evenodd" d="M68.1462 19.025C70.0687 18.8954 71.4726 20.5154 72.207 21.7034C73.3951 23.5826 74.2807 25.6346 75.3175 27.6002C76.3543 29.5658 77.8663 31.7258 79.1623 33.5402L78.9679 34.2314C77.0239 35.3762 74.8207 36.6722 72.8551 37.7954C70.6735 39.0266 68.0166 40.193 65.5758 40.7546C63.027 41.3378 60.1758 40.8626 58.5126 38.4866C56.2014 35.1602 57.7782 30.1058 59.5278 26.8874C60.5862 24.965 62.0334 22.7834 63.6966 21.3362C64.8846 20.2778 66.5478 19.1762 68.1894 19.0682L68.1462 19.025ZM67.9302 17.945C61.3638 18.377 52.7886 32.201 57.4758 38.8754C58.1454 39.8258 59.031 40.5818 60.0894 41.0786C61.623 41.813 63.5454 42.0074 65.7486 41.5322C70.2414 40.5602 75.2311 37.0826 79.1839 34.793L79.6807 33.2594C77.2615 29.9546 74.9502 24.9218 72.9414 21.3146C71.9694 19.565 70.7167 18.3986 69.2262 18.053C68.8158 17.9666 68.3838 17.9234 67.9518 17.945H67.9302Z" fill="url(#paint62_radial_2266_12202)"/>
<path style="mix-blend-mode:screen" fill-rule="evenodd" clip-rule="evenodd" d="M66.4622 18.248C59.9822 21.5312 56.0942 29.1776 56.3534 36.2408C55.079 30.1712 59.4422 20.6456 66.4622 18.248Z" fill="url(#paint63_radial_2266_12202)"/>
<path style="mix-blend-mode:screen" fill-rule="evenodd" clip-rule="evenodd" d="M82.79 27.5404C86.9804 21.0172 95.0805 7.56037 101.15 6.13477C94.2381 10.3468 87.866 20.9524 82.79 27.5404Z" fill="url(#paint64_radial_2266_12202)"/>
<mask id="mask0_2266_12202" style="mask-type:luminance" maskUnits="userSpaceOnUse" x="77" y="5" width="35" height="31">
<path d="M78.1929 34.3084C81.8865 28.7356 85.7529 23.2276 89.8137 17.8924C93.5722 12.9676 99.6202 2.79396 107.331 6.09876C111.349 7.80516 111.587 13.2268 110.679 16.8772C109.902 20.0308 108.152 22.8388 105.884 25.1284C99.5986 31.5004 88.5393 33.2932 80.0937 34.8484L77.5449 35.3236L78.2145 34.3084H78.1929ZM78.6897 34.3732C87.7185 32.278 101.543 30.3772 106.921 21.6724C109.967 16.7476 111.284 10.0732 106.683 7.52436C101.219 4.50036 94.3281 14.0692 90.9585 18.4972C87.1569 23.4868 82.9233 29.5348 78.6897 34.3948V34.3732Z" fill="white"/>
</mask>
<g mask="url(#mask0_2266_12202)">
<g style="mix-blend-mode:screen">
<g style="mix-blend-mode:screen">
<path d="M98.9269 7.16557C98.9269 7.31677 98.7972 7.44637 98.646 7.44637C98.4948 7.44637 98.3652 7.31677 98.3652 7.16557C98.3652 7.01437 98.4948 6.88477 98.646 6.88477C98.7972 6.88477 98.9269 7.01437 98.9269 7.16557Z" fill="#6083BA"/>
</g>
<g style="mix-blend-mode:screen">
<path d="M99.3609 7.15995C99.3609 7.54875 99.0585 7.85115 98.6697 7.85115C98.2809 7.85115 97.9785 7.54875 97.9785 7.15995C97.9785 6.77115 98.2809 6.46875 98.6697 6.46875C99.0585 6.46875 99.3609 6.77115 99.3609 7.15995Z" fill="#A0AFC6"/>
</g>
</g>
<g style="mix-blend-mode:screen">
<g style="mix-blend-mode:screen">
<path d="M106.727 28.8682C106.882 28.8682 107.008 28.7425 107.008 28.5874C107.008 28.4324 106.882 28.3066 106.727 28.3066C106.572 28.3066 106.446 28.4324 106.446 28.5874C106.446 28.7425 106.572 28.8682 106.727 28.8682Z" fill="#A0AFC6"/>
</g>
<g style="mix-blend-mode:screen">
<path d="M106.726 29.2769C107.108 29.2769 107.418 28.9675 107.418 28.5857C107.418 28.204 107.108 27.8945 106.726 27.8945C106.345 27.8945 106.035 28.204 106.035 28.5857C106.035 28.9675 106.345 29.2769 106.726 29.2769Z" fill="#A0AFC6"/>
</g>
</g>
</g>
<mask id="mask1_2266_12202" style="mask-type:luminance" maskUnits="userSpaceOnUse" x="56" y="17" width="24" height="25">
<path d="M68.1482 19.025C70.0706 18.8954 71.4746 20.5154 72.209 21.7034C73.397 23.5826 74.2826 25.6346 75.3194 27.6002C76.3562 29.5658 77.8682 31.7258 79.1642 33.5402L78.9698 34.2314C77.0258 35.3762 74.8226 36.6722 72.857 37.7954C70.6754 39.0266 68.0186 40.193 65.5778 40.7546C63.029 41.3378 60.1778 40.8626 58.5146 38.4866C56.2034 35.1602 57.7802 30.1058 59.5298 26.8874C60.5882 24.965 62.0354 22.7834 63.6986 21.3362C64.8866 20.2778 66.5498 19.1762 68.1914 19.0682L68.1482 19.025ZM67.9322 17.945C61.3658 18.377 52.7906 32.201 57.4778 38.8754C58.1474 39.8258 59.033 40.5818 60.0914 41.0786C61.625 41.813 63.5474 42.0074 65.7506 41.5322C70.2434 40.5602 75.233 37.0826 79.1858 34.793L79.6826 33.2594C77.2634 29.9546 74.9522 24.9218 72.9434 21.3146C71.9714 19.565 70.7186 18.3986 69.2282 18.053C68.8178 17.9666 68.3858 17.9234 67.9538 17.945H67.9322Z" fill="white"/>
</mask>
<g mask="url(#mask1_2266_12202)">
<g style="mix-blend-mode:screen">
<g style="mix-blend-mode:screen">
<path d="M57.1078 22.9539C57.251 22.9539 57.367 22.8379 57.367 22.6947C57.367 22.5516 57.251 22.4355 57.1078 22.4355C56.9647 22.4355 56.8486 22.5516 56.8486 22.6947C56.8486 22.8379 56.9647 22.9539 57.1078 22.9539Z" fill="#A0AFC6"/>
</g>
<g style="mix-blend-mode:screen">
<path d="M57.7569 22.6949C57.7569 23.0621 57.4761 23.3429 57.1089 23.3429C56.7417 23.3429 56.4609 23.0621 56.4609 22.6949C56.4609 22.3277 56.7417 22.0469 57.1089 22.0469C57.4761 22.0469 57.7569 22.3277 57.7569 22.6949Z" fill="#A0AFC6"/>
</g>
</g>
</g>
<path style="mix-blend-mode:screen" opacity="0.75" d="M92.0361 31.1642C99.1425 28.8098 106.681 24.9434 109.079 16.9082C108.517 19.7594 106.227 27.7298 92.0361 31.1642Z" fill="url(#paint65_radial_2266_12202)"/>
<path fill-rule="evenodd" clip-rule="evenodd" d="M79.7018 32.2733C79.5938 31.8413 79.1618 31.6253 78.5138 31.5605C78.665 31.7981 78.8162 32.0357 78.9674 32.2733C79.2482 32.4029 78.8594 34.8869 78.6434 35.0813C78.6002 35.1245 78.557 35.1461 78.4922 35.1461C78.0818 35.3837 77.6498 35.6429 77.2178 35.9021C77.2826 35.9021 77.3042 35.9021 77.3258 35.9021C77.8442 35.9021 78.6866 35.9453 79.097 35.5133C79.3778 35.2325 79.5506 34.7141 79.637 34.1525C79.7234 33.4829 79.7882 32.6189 79.6802 32.2301L79.7018 32.2733Z" fill="url(#paint66_radial_2266_12202)"/>
<g opacity="0.75">
<g style="mix-blend-mode:screen">
<path d="M99.5304 7.11432C99.5304 7.11432 99.444 7.30872 99.336 7.30872C99.228 7.30872 99.1416 7.22232 99.1416 7.11432C99.1416 7.00632 99.228 6.91992 99.336 6.91992C99.444 6.91992 99.5304 7.00632 99.5304 7.11432Z" fill="#E8C169"/>
</g>
<g style="mix-blend-mode:screen">
<path d="M99.8325 7.11789C99.8325 7.39869 99.6165 7.61469 99.3357 7.61469C99.0549 7.61469 98.8389 7.39869 98.8389 7.11789C98.8389 6.83709 99.0549 6.62109 99.3357 6.62109C99.6165 6.62109 99.8325 6.83709 99.8325 7.11789Z" fill="#A0AFC6"/>
</g>
</g>
<g style="mix-blend-mode:screen">
<path fill-rule="evenodd" clip-rule="evenodd" d="M90.7402 2.17385C92.2306 2.36825 93.7426 2.64905 95.2114 2.97305C93.9802 2.54105 92.749 2.06585 91.5178 1.54745C87.7162 -0.00775456 84.6922 1.72025 82.5538 7.12025C81.2794 10.317 80.1346 13.6002 79.0762 16.905C80.4154 13.557 82.2946 8.99945 83.9794 5.97545C85.4698 3.27545 87.6298 1.76345 90.7618 2.15225L90.7402 2.17385Z" fill="url(#paint67_radial_2266_12202)"/>
<path fill-rule="evenodd" clip-rule="evenodd" d="M61.7527 15.6578C59.0959 14.6426 56.5903 13.541 53.9767 12.3314C53.5015 12.1154 52.9615 12.0722 52.3999 12.0506C43.6087 11.813 35.4439 23.0018 39.7639 30.7346C37.6255 24.5138 40.7791 17.5802 47.1943 14.7074C50.1535 13.3898 53.6095 13.3466 57.6055 14.3834C58.9663 14.729 60.3919 15.2042 61.7743 15.6362L61.7527 15.6578Z" fill="url(#paint68_radial_2266_12202)"/>
</g>
<path fill-rule="evenodd" clip-rule="evenodd" d="M78.9454 34.6219C79.1614 34.7083 79.399 34.7947 79.615 34.8811C90.3502 27.3427 100.243 24.7723 115.061 30.4531C115.32 29.0923 115.601 26.8243 115.536 24.8155C117.588 24.0595 119.899 23.0875 121.821 21.9643C117.933 20.3011 112.771 18.9403 106.55 19.6099C96.7439 20.6467 84.9934 27.5803 78.9238 34.6219H78.9454Z" fill="url(#paint69_linear_2266_12202)"/>
<path fill-rule="evenodd" clip-rule="evenodd" d="M80.2197 35.2869C89.0973 28.5909 100.135 25.7397 114.391 31.6797C114.585 31.4205 114.931 30.7509 115.061 30.4485C100.221 24.7677 90.3501 27.3381 79.6149 34.8765C79.3989 34.7901 79.1613 34.7037 78.9453 34.6173C79.1613 34.7037 80.0037 35.2005 80.2413 35.2869H80.2197Z" fill="url(#paint70_radial_2266_12202)"/>
<path fill-rule="evenodd" clip-rule="evenodd" d="M115.537 24.818C115.537 25.1204 115.537 25.4444 115.537 25.7468C117.568 25.0772 119.943 24.278 121.823 23.2412V21.9668C119.9 23.09 117.589 24.062 115.537 24.818Z" fill="url(#paint71_radial_2266_12202)"/>
<path fill-rule="evenodd" clip-rule="evenodd" d="M83.7628 34.7537C78.4492 34.5809 74.3452 34.2137 69.9604 33.6089C69.334 33.5225 68.794 33.6089 68.2108 33.8465C64.366 35.4665 62.2492 42.8105 61.666 46.3745C61.8388 46.9145 61.9684 47.2169 62.1628 47.6705C66.0076 46.3529 69.658 45.4025 73.5892 44.8625C77.3044 46.1369 80.7172 48.0377 84.1516 49.9169C84.3244 49.6361 84.4973 49.0745 84.6485 48.6209C85.3397 45.1001 85.8797 39.5921 85.3181 36.4601C85.0805 35.1641 84.8213 34.7969 83.7845 34.7753L83.7628 34.7537Z" fill="url(#paint72_radial_2266_12202)"/>
<path fill-rule="evenodd" clip-rule="evenodd" d="M84.2166 33.2227C78.7086 33.0499 74.475 32.6611 69.9173 32.0347C69.2693 31.9483 68.7077 32.0347 68.1029 32.2723C63.3725 34.2595 61.9469 43.8931 61.6445 46.3555C65.6189 44.9947 69.6365 43.9363 73.6974 43.3747C77.5422 44.6923 81.0846 46.6579 84.627 48.6019C85.383 45.0811 86.4846 38.6875 85.7934 34.9723C85.5558 33.6331 85.275 33.2443 84.2166 33.2227Z" fill="url(#paint73_linear_2266_12202)"/>
<defs>
<radialGradient id="paint0_radial_2266_12202" cx="0" cy="0" r="1" gradientUnits="userSpaceOnUse" gradientTransform="translate(94.133 159.514) scale(95.4722 95.472)">
<stop stop-color="#FFB300"/>
<stop offset="1" stop-color="#A84D20"/>
</radialGradient>
<radialGradient id="paint1_radial_2266_12202" cx="0" cy="0" r="1" gradientUnits="userSpaceOnUse" gradientTransform="translate(136.189 127.783) scale(93.5714 93.5712)">
<stop stop-color="#FFCC14"/>
<stop offset="1" stop-color="#EB9900"/>
</radialGradient>
<radialGradient id="paint2_radial_2266_12202" cx="0" cy="0" r="1" gradientUnits="userSpaceOnUse" gradientTransform="translate(82.0567 127.21) rotate(-123.23) scale(2.89353 2.89353)">
<stop stop-color="#FFAA33"/>
<stop offset="1" stop-color="#FFAA33" stop-opacity="0"/>
</radialGradient>
<radialGradient id="paint3_radial_2266_12202" cx="0" cy="0" r="1" gradientUnits="userSpaceOnUse" gradientTransform="translate(57.7791 89.0004) rotate(-123.23) scale(2.38308 2.38308)">
<stop stop-color="#FFAA33"/>
<stop offset="1" stop-color="#FFAA33" stop-opacity="0"/>
</radialGradient>
<radialGradient id="paint4_radial_2266_12202" cx="0" cy="0" r="1" gradientUnits="userSpaceOnUse" gradientTransform="translate(91.9414 101.257) rotate(-123.23) scale(2.89353)">
<stop stop-color="#FFAA33"/>
<stop offset="1" stop-color="#FFAA33" stop-opacity="0"/>
</radialGradient>
<radialGradient id="paint5_radial_2266_12202" cx="0" cy="0" r="1" gradientUnits="userSpaceOnUse" gradientTransform="translate(77.3784 87.7957) rotate(-123.23) scale(2.80955 2.80955)">
<stop stop-color="#FFAA33"/>
<stop offset="1" stop-color="#FFAA33" stop-opacity="0"/>
</radialGradient>
<radialGradient id="paint6_radial_2266_12202" cx="0" cy="0" r="1" gradientUnits="userSpaceOnUse" gradientTransform="translate(73.7645 115.64) rotate(-123.23) scale(6.7769 6.77691)">
<stop stop-color="#FFAA33"/>
<stop offset="1" stop-color="#FFAA33" stop-opacity="0"/>
</radialGradient>
<radialGradient id="paint7_radial_2266_12202" cx="0" cy="0" r="1" gradientUnits="userSpaceOnUse" gradientTransform="translate(93.116 113.29) rotate(-123.194) scale(4.99879 4.99603)">
<stop stop-color="#FFAA33"/>
<stop offset="1" stop-color="#FFAA33" stop-opacity="0"/>
</radialGradient>
<radialGradient id="paint8_radial_2266_12202" cx="0" cy="0" r="1" gradientUnits="userSpaceOnUse" gradientTransform="translate(107.612 90.103) rotate(-123.23) scale(3.61456 3.61456)">
<stop stop-color="#FFAA33"/>
<stop offset="1" stop-color="#FFAA33" stop-opacity="0"/>
</radialGradient>
<radialGradient id="paint9_radial_2266_12202" cx="0" cy="0" r="1" gradientUnits="userSpaceOnUse" gradientTransform="translate(36.1786 113.442) rotate(-123.23) scale(5.9674 5.96741)">
<stop stop-color="#FFAA33"/>
<stop offset="1" stop-color="#FFAA33" stop-opacity="0"/>
</radialGradient>
<radialGradient id="paint10_radial_2266_12202" cx="0" cy="0" r="1" gradientUnits="userSpaceOnUse" gradientTransform="translate(107.359 109.622) rotate(-123.23) scale(3.69816 3.69816)">
<stop stop-color="#FFAA33"/>
<stop offset="1" stop-color="#FFAA33" stop-opacity="0"/>
</radialGradient>
<radialGradient id="paint11_radial_2266_12202" cx="0" cy="0" r="1" gradientUnits="userSpaceOnUse" gradientTransform="translate(73.0512 110.497) rotate(-123.23) scale(2.60542 2.60542)">
<stop stop-color="#FFAA33"/>
<stop offset="1" stop-color="#FFAA33" stop-opacity="0"/>
</radialGradient>
<radialGradient id="paint12_radial_2266_12202" cx="0" cy="0" r="1" gradientUnits="userSpaceOnUse" gradientTransform="translate(82.0526 103.164) rotate(-123.23) scale(3.81176 3.81177)">
<stop stop-color="#FFAA33"/>
<stop offset="1" stop-color="#FFAA33" stop-opacity="0"/>
</radialGradient>
<radialGradient id="paint13_radial_2266_12202" cx="0" cy="0" r="1" gradientUnits="userSpaceOnUse" gradientTransform="translate(118.971 119.2) rotate(-123.23) scale(2.60542 2.60542)">
<stop stop-color="#FFAA33"/>
<stop offset="1" stop-color="#FFAA33" stop-opacity="0"/>
</radialGradient>
<radialGradient id="paint14_radial_2266_12202" cx="0" cy="0" r="1" gradientUnits="userSpaceOnUse" gradientTransform="translate(65.9775 98.655) rotate(-123.23) scale(4.63994 4.63995)">
<stop stop-color="#FFAA33"/>
<stop offset="1" stop-color="#FFAA33" stop-opacity="0"/>
</radialGradient>
<radialGradient id="paint15_radial_2266_12202" cx="0" cy="0" r="1" gradientUnits="userSpaceOnUse" gradientTransform="translate(79.2419 127.325) rotate(-123.23) scale(1.16437)">
<stop stop-color="#FFAA33"/>
<stop offset="1" stop-color="#FFAA33" stop-opacity="0"/>
</radialGradient>
<radialGradient id="paint16_radial_2266_12202" cx="0" cy="0" r="1" gradientUnits="userSpaceOnUse" gradientTransform="translate(97.9108 122.571) rotate(-123.23) scale(1.16436 1.16437)">
<stop stop-color="#FFAA33"/>
<stop offset="1" stop-color="#FFAA33" stop-opacity="0"/>
</radialGradient>
<radialGradient id="paint17_radial_2266_12202" cx="0" cy="0" r="1" gradientUnits="userSpaceOnUse" gradientTransform="translate(111.779 111.829) rotate(-123.23) scale(1.62652 1.62653)">
<stop stop-color="#FFAA33"/>
<stop offset="1" stop-color="#FFAA33" stop-opacity="0"/>
</radialGradient>
<radialGradient id="paint18_radial_2266_12202" cx="0" cy="0" r="1" gradientUnits="userSpaceOnUse" gradientTransform="translate(80.6696 100.106) rotate(-123.23) scale(1.16436 1.16437)">
<stop stop-color="#FFAA33"/>
<stop offset="1" stop-color="#FFAA33" stop-opacity="0"/>
</radialGradient>
<radialGradient id="paint19_radial_2266_12202" cx="0" cy="0" r="1" gradientUnits="userSpaceOnUse" gradientTransform="translate(72.735 78.3796) rotate(-123.23) scale(1.16436)">
<stop stop-color="#FFAA33"/>
<stop offset="1" stop-color="#FFAA33" stop-opacity="0"/>
</radialGradient>
<radialGradient id="paint20_radial_2266_12202" cx="0" cy="0" r="1" gradientUnits="userSpaceOnUse" gradientTransform="translate(49.5163 105.255) rotate(-123.23) scale(1.16437)">
<stop stop-color="#FFAA33"/>
<stop offset="1" stop-color="#FFAA33" stop-opacity="0"/>
</radialGradient>
<radialGradient id="paint21_radial_2266_12202" cx="0" cy="0" r="1" gradientUnits="userSpaceOnUse" gradientTransform="translate(80.6912 64.9209) rotate(-123.23) scale(2.22119 2.22119)">
<stop stop-color="#FFAA33"/>
<stop offset="1" stop-color="#FFAA33" stop-opacity="0"/>
</radialGradient>
<radialGradient id="paint22_radial_2266_12202" cx="0" cy="0" r="1" gradientUnits="userSpaceOnUse" gradientTransform="translate(44.4942 92.6972) rotate(-123.23) scale(3.76978 3.76978)">
<stop stop-color="#FFAA33"/>
<stop offset="1" stop-color="#FFAA33" stop-opacity="0"/>
</radialGradient>
<radialGradient id="paint23_radial_2266_12202" cx="0" cy="0" r="1" gradientUnits="userSpaceOnUse" gradientTransform="translate(45.5008 96.4178) rotate(-123.23) scale(2.54498)">
<stop stop-color="#FFAA33"/>
<stop offset="1" stop-color="#FFAA33" stop-opacity="0"/>
</radialGradient>
<radialGradient id="paint24_radial_2266_12202" cx="0" cy="0" r="1" gradientUnits="userSpaceOnUse" gradientTransform="translate(90.9789 82.5077) rotate(-123.23) scale(1.98137)">
<stop stop-color="#FFAA33"/>
<stop offset="1" stop-color="#FFAA33" stop-opacity="0"/>
</radialGradient>
<radialGradient id="paint25_radial_2266_12202" cx="0" cy="0" r="1" gradientUnits="userSpaceOnUse" gradientTransform="translate(109.585 100.847) rotate(-123.23) scale(1.33865 1.33865)">
<stop stop-color="#FFAA33"/>
<stop offset="1" stop-color="#FFAA33" stop-opacity="0"/>
</radialGradient>
<radialGradient id="paint26_radial_2266_12202" cx="0" cy="0" r="1" gradientUnits="userSpaceOnUse" gradientTransform="translate(40.8026 110.819) rotate(-123.23) scale(3.64987 3.64987)">
<stop stop-color="#FFAA33"/>
<stop offset="1" stop-color="#FFAA33" stop-opacity="0"/>
</radialGradient>
<radialGradient id="paint27_radial_2266_12202" cx="0" cy="0" r="1" gradientUnits="userSpaceOnUse" gradientTransform="translate(69.3331 98.7442) rotate(-123.23) scale(1.95661 1.95661)">
<stop stop-color="#FFAA33"/>
<stop offset="1" stop-color="#FFAA33" stop-opacity="0"/>
</radialGradient>
<radialGradient id="paint28_radial_2266_12202" cx="0" cy="0" r="1" gradientUnits="userSpaceOnUse" gradientTransform="translate(89.2211 115.893) rotate(-123.23) scale(2.30516)">
<stop stop-color="#FFAA33"/>
<stop offset="1" stop-color="#FFAA33" stop-opacity="0"/>
</radialGradient>
<radialGradient id="paint29_radial_2266_12202" cx="0" cy="0" r="1" gradientUnits="userSpaceOnUse" gradientTransform="translate(85.3253 95.6143) rotate(-123.23) scale(1.77606 1.77606)">
<stop stop-color="#FFAA33"/>
<stop offset="1" stop-color="#FFAA33" stop-opacity="0"/>
</radialGradient>
<radialGradient id="paint30_radial_2266_12202" cx="0" cy="0" r="1" gradientUnits="userSpaceOnUse" gradientTransform="translate(120.856 117.206) rotate(-123.23) scale(1.31509)">
<stop stop-color="#FFAA33"/>
<stop offset="1" stop-color="#FFAA33" stop-opacity="0"/>
</radialGradient>
<radialGradient id="paint31_radial_2266_12202" cx="0" cy="0" r="1" gradientUnits="userSpaceOnUse" gradientTransform="translate(52.368 107.789) rotate(-123.23) scale(5.9674 5.96741)">
<stop stop-color="#FFAA33"/>
<stop offset="1" stop-color="#FFAA33" stop-opacity="0"/>
</radialGradient>
<radialGradient id="paint32_radial_2266_12202" cx="0" cy="0" r="1" gradientUnits="userSpaceOnUse" gradientTransform="translate(54.7058 102.862) rotate(-123.23) scale(2.17895 2.17895)">
<stop stop-color="#FFAA33"/>
<stop offset="1" stop-color="#FFAA33" stop-opacity="0"/>
</radialGradient>
<radialGradient id="paint33_radial_2266_12202" cx="0" cy="0" r="1" gradientUnits="userSpaceOnUse" gradientTransform="translate(35.8969 128.883) rotate(-123.23) scale(3.51399 3.514)">
<stop stop-color="#FFAA33"/>
<stop offset="1" stop-color="#FFAA33" stop-opacity="0"/>
</radialGradient>
<radialGradient id="paint34_radial_2266_12202" cx="0" cy="0" r="1" gradientUnits="userSpaceOnUse" gradientTransform="translate(75.9865 129.399) scale(42.0122 51.6854)">
<stop stop-color="#AF73FF"/>
<stop offset="1" stop-color="#9852FF"/>
</radialGradient>
<radialGradient id="paint35_radial_2266_12202" cx="0" cy="0" r="1" gradientUnits="userSpaceOnUse" gradientTransform="translate(27.9304 -11.8793) scale(69.6601 69.66)">
<stop stop-color="#BF50ED"/>
<stop offset="1" stop-color="#9B20C7"/>
</radialGradient>
<radialGradient id="paint36_radial_2266_12202" cx="0" cy="0" r="1" gradientUnits="userSpaceOnUse" gradientTransform="translate(57.9034 75.7653) scale(100.152 173.687)">
<stop stop-color="#9651F2"/>
<stop offset="1" stop-color="#6925CE"/>
</radialGradient>
<radialGradient id="paint37_radial_2266_12202" cx="0" cy="0" r="1" gradientUnits="userSpaceOnUse" gradientTransform="translate(20.5096 142.831) scale(109.695 92.166)">
<stop stop-color="#B680FF"/>
<stop offset="1" stop-color="#944DFF"/>
</radialGradient>
<radialGradient id="paint38_radial_2266_12202" cx="0" cy="0" r="1" gradientUnits="userSpaceOnUse" gradientTransform="translate(67.2114 46.8851) scale(97.0125 88.4649)">
<stop stop-color="#B882FF"/>
<stop offset="1" stop-color="#7A35E0"/>
</radialGradient>
<radialGradient id="paint39_radial_2266_12202" cx="0" cy="0" r="1" gradientUnits="userSpaceOnUse" gradientTransform="translate(30.6506 69.4096) scale(40.0033 40.0032)">
<stop stop-color="#C74AD9"/>
<stop offset="1"/>
</radialGradient>
<radialGradient id="paint40_radial_2266_12202" cx="0" cy="0" r="1" gradientUnits="userSpaceOnUse" gradientTransform="translate(49.0531 54.6194) scale(101.585 101.585)">
<stop stop-color="#D570FF"/>
<stop offset="1" stop-color="#8300B3"/>
</radialGradient>
<radialGradient id="paint41_radial_2266_12202" cx="0" cy="0" r="1" gradientUnits="userSpaceOnUse" gradientTransform="translate(28.0282 19.7765) scale(431.616 116.373)">
<stop stop-color="#9651F2"/>
<stop offset="1" stop-color="#6925CE"/>
</radialGradient>
<radialGradient id="paint42_radial_2266_12202" cx="0" cy="0" r="1" gradientUnits="userSpaceOnUse" gradientTransform="translate(158.197 32.3245) scale(139.01 66.819)">
<stop stop-color="#8E35EA"/>
<stop offset="1" stop-color="#6B0DCE"/>
</radialGradient>
<radialGradient id="paint43_radial_2266_12202" cx="0" cy="0" r="1" gradientUnits="userSpaceOnUse" gradientTransform="translate(20.202 59.3299) scale(92.5187 22.7076)">
<stop/>
<stop offset="1" stop-color="#F4C2FF"/>
</radialGradient>
<radialGradient id="paint44_radial_2266_12202" cx="0" cy="0" r="1" gradientUnits="userSpaceOnUse" gradientTransform="translate(25.0805 37.3526) scale(59.7594 34.5074)">
<stop stop-color="#D26FE2"/>
<stop offset="1" stop-color="#670C7A"/>
</radialGradient>
<linearGradient id="paint45_linear_2266_12202" x1="40.0678" y1="29.0106" x2="76.615" y2="29.0106" gradientUnits="userSpaceOnUse">
<stop stop-color="#FFBD00"/>
<stop offset="1" stop-color="#D67200"/>
</linearGradient>
<radialGradient id="paint46_radial_2266_12202" cx="0" cy="0" r="1" gradientUnits="userSpaceOnUse" gradientTransform="translate(45.8572 27.8227) scale(22.0752 22.0752)">
<stop stop-color="#FFC382"/>
<stop offset="1" stop-color="#9E2410"/>
</radialGradient>
<linearGradient id="paint47_linear_2266_12202" x1="75.4269" y1="29.0106" x2="111.996" y2="29.0106" gradientUnits="userSpaceOnUse">
<stop stop-color="#A63A00"/>
<stop offset="1" stop-color="#FFBD00"/>
</linearGradient>
<radialGradient id="paint48_radial_2266_12202" cx="0" cy="0" r="1" gradientUnits="userSpaceOnUse" gradientTransform="translate(102.32 20.4139) scale(25.4233 25.4232)">
<stop stop-color="#E8814D"/>
<stop offset="1" stop-color="#9E3726"/>
</radialGradient>
<linearGradient id="paint49_linear_2266_12202" x1="44.7764" y1="68.5585" x2="61.1924" y2="29.8945" gradientUnits="userSpaceOnUse">
<stop stop-color="#D97130"/>
<stop offset="0.01" stop-color="#DE7927"/>
<stop offset="0.02" stop-color="#EA8E11"/>
<stop offset="0.04" stop-color="#F29B04"/>
<stop offset="0.05" stop-color="#F5A000"/>
<stop offset="0.36" stop-color="#F5AF00"/>
<stop offset="0.46" stop-color="#FFDD57"/>
<stop offset="0.58" stop-color="#FFB54D"/>
<stop offset="1" stop-color="#E08A00"/>
</linearGradient>
<radialGradient id="paint50_radial_2266_12202" cx="0" cy="0" r="1" gradientUnits="userSpaceOnUse" gradientTransform="translate(52.1867 50.3807) scale(21.3408 21.3408)">
<stop stop-color="#E8814D"/>
<stop offset="1" stop-color="#9E3726"/>
</radialGradient>
<linearGradient id="paint51_linear_2266_12202" x1="91.1514" y1="30.1103" x2="106.811" y2="68.9039" gradientUnits="userSpaceOnUse">
<stop stop-color="#B05B00"/>
<stop offset="0.42" stop-color="#F5A000"/>
<stop offset="0.54" stop-color="#FFCC14"/>
<stop offset="0.64" stop-color="#F5A000"/>
<stop offset="0.95" stop-color="#BD6500"/>
<stop offset="0.97" stop-color="#B86200"/>
<stop offset="0.98" stop-color="#AB5900"/>
<stop offset="0.99" stop-color="#A15300"/>
</linearGradient>
<radialGradient id="paint52_radial_2266_12202" cx="0" cy="0" r="1" gradientUnits="userSpaceOnUse" gradientTransform="translate(101.324 49.7876) scale(26.3304 26.3304)">
<stop stop-color="#FFDD57"/>
<stop offset="1" stop-color="#9E3726"/>
</radialGradient>
<radialGradient id="paint53_radial_2266_12202" cx="0" cy="0" r="1" gradientUnits="userSpaceOnUse" gradientTransform="translate(102.816 49.2482) scale(14.7096 14.7096)">
<stop stop-color="#FFF2BB"/>
<stop offset="1"/>
</radialGradient>
<radialGradient id="paint54_radial_2266_12202" cx="0" cy="0" r="1" gradientUnits="userSpaceOnUse" gradientTransform="translate(48.341 49.9021) scale(23.0473 23.0472)">
<stop stop-color="#FFF2BB"/>
<stop offset="1"/>
</radialGradient>
<linearGradient id="paint55_linear_2266_12202" x1="90.5453" y1="38.2545" x2="100.827" y2="4.62326" gradientUnits="userSpaceOnUse">
<stop stop-color="#8F3508"/>
<stop offset="0.21" stop-color="#BD500B"/>
<stop offset="0.7" stop-color="#F7A100"/>
<stop offset="1" stop-color="#964324"/>
</linearGradient>
<linearGradient id="paint56_linear_2266_12202" x1="82.4455" y1="35.9798" x2="95.8807" y2="1.74378" gradientUnits="userSpaceOnUse">
<stop offset="0.3" stop-color="#C25D0A"/>
<stop offset="0.86" stop-color="#FFF14F"/>
<stop offset="0.94" stop-color="#F5B90A"/>
<stop offset="1" stop-color="#E68A00"/>
</linearGradient>
<radialGradient id="paint57_radial_2266_12202" cx="0" cy="0" r="1" gradientUnits="userSpaceOnUse" gradientTransform="translate(90.8702 8.95778) scale(43.3513 43.3512)">
<stop stop-color="#F59F41"/>
<stop offset="1" stop-color="#A64416"/>
</radialGradient>
<linearGradient id="paint58_linear_2266_12202" x1="81.4503" y1="36.033" x2="79.7439" y2="30.525" gradientUnits="userSpaceOnUse">
<stop stop-color="#8F3508"/>
<stop offset="0.21" stop-color="#BD500B"/>
<stop offset="0.7" stop-color="#F7A100"/>
<stop offset="1" stop-color="#964324"/>
</linearGradient>
<linearGradient id="paint59_linear_2266_12202" x1="63.9758" y1="42.2474" x2="69.2678" y2="30.3458" gradientUnits="userSpaceOnUse">
<stop offset="0.05" stop-color="#B7402C"/>
<stop offset="1" stop-color="#E68A00"/>
</linearGradient>
<linearGradient id="paint60_linear_2266_12202" x1="62.6168" y1="30.9476" x2="66.1376" y2="15.6764" gradientUnits="userSpaceOnUse">
<stop stop-color="#D46C2C"/>
<stop offset="1" stop-color="#964324"/>
</linearGradient>
<linearGradient id="paint61_linear_2266_12202" x1="47.9067" y1="36.3079" x2="56.9787" y2="13.2175" gradientUnits="userSpaceOnUse">
<stop stop-color="#F28B1D"/>
<stop offset="0.41" stop-color="#FFDC2B"/>
<stop offset="0.55" stop-color="#FFF79D"/>
<stop offset="0.78" stop-color="#F5B90A"/>
<stop offset="1" stop-color="#E68A00"/>
</linearGradient>
<radialGradient id="paint62_radial_2266_12202" cx="0" cy="0" r="1" gradientUnits="userSpaceOnUse" gradientTransform="translate(62.0982 19.2194) scale(37.9729 37.9728)">
<stop stop-color="#F59F41"/>
<stop offset="1" stop-color="#A64416"/>
</radialGradient>
<radialGradient id="paint63_radial_2266_12202" cx="0" cy="0" r="1" gradientUnits="userSpaceOnUse" gradientTransform="translate(57.4118 22.4816) scale(19.9152 19.9152)">
<stop stop-color="#FFF2BB"/>
<stop offset="1"/>
</radialGradient>
<radialGradient id="paint64_radial_2266_12202" cx="0" cy="0" r="1" gradientUnits="userSpaceOnUse" gradientTransform="translate(93.8061 9.89317) scale(22.032 22.032)">
<stop stop-color="#FFF2BB"/>
<stop offset="1"/>
</radialGradient>
<radialGradient id="paint65_radial_2266_12202" cx="0" cy="0" r="1" gradientUnits="userSpaceOnUse" gradientTransform="translate(106.616 26.0234) scale(13.3272 13.3272)">
<stop stop-color="#9691FF"/>
<stop offset="0.03" stop-color="#908BF5"/>
<stop offset="0.31" stop-color="#5D5A9F"/>
<stop offset="0.55" stop-color="#35335B"/>
<stop offset="0.76" stop-color="#181729"/>
<stop offset="0.91" stop-color="#06060B"/>
<stop offset="1"/>
</radialGradient>
<radialGradient id="paint66_radial_2266_12202" cx="0" cy="0" r="1" gradientUnits="userSpaceOnUse" gradientTransform="translate(81.2138 32.2949) scale(4.23361 4.2336)">
<stop stop-color="#FFC382"/>
<stop offset="1" stop-color="#9E3726"/>
</radialGradient>
<radialGradient id="paint67_radial_2266_12202" cx="0" cy="0" r="1" gradientUnits="userSpaceOnUse" gradientTransform="translate(98.5162 23.9682) scale(25.3585 25.3584)">
<stop offset="0.67" stop-color="#6689BA"/>
<stop offset="0.72" stop-color="#5F90BE"/>
<stop offset="0.79" stop-color="#4EA4C9"/>
<stop offset="0.88" stop-color="#32C4DC"/>
<stop offset="0.97" stop-color="#0BF1F7"/>
<stop offset="1" stop-color="#00FFFF"/>
</radialGradient>
<radialGradient id="paint68_radial_2266_12202" cx="0" cy="0" r="1" gradientUnits="userSpaceOnUse" gradientTransform="translate(60.5863 35.5946) scale(26.4816 26.4816)">
<stop offset="0.67" stop-color="#6689BA"/>
<stop offset="0.72" stop-color="#5F90BE"/>
<stop offset="0.79" stop-color="#4EA4C9"/>
<stop offset="0.88" stop-color="#32C4DC"/>
<stop offset="0.97" stop-color="#0BF1F7"/>
<stop offset="1" stop-color="#00FFFF"/>
</radialGradient>
<linearGradient id="paint69_linear_2266_12202" x1="91.6894" y1="20.4523" x2="109.574" y2="36.5659" gradientUnits="userSpaceOnUse">
<stop stop-color="#F28B1D"/>
<stop offset="0.41" stop-color="#FFDC2B"/>
<stop offset="0.55" stop-color="#FFF79D"/>
<stop offset="0.78" stop-color="#F5B90A"/>
<stop offset="1" stop-color="#E68A00"/>
</linearGradient>
<radialGradient id="paint70_radial_2266_12202" cx="0" cy="0" r="1" gradientUnits="userSpaceOnUse" gradientTransform="translate(112.49 32.5653) scale(31.7305 31.7304)">
<stop stop-color="#F59F41"/>
<stop offset="1" stop-color="#A64416"/>
</radialGradient>
<radialGradient id="paint71_radial_2266_12202" cx="0" cy="0" r="1" gradientUnits="userSpaceOnUse" gradientTransform="translate(123.875 32.1404) scale(17.064 17.064)">
<stop stop-color="#F59F41"/>
<stop offset="1" stop-color="#A64416"/>
</radialGradient>
<radialGradient id="paint72_radial_2266_12202" cx="0" cy="0" r="1" gradientUnits="userSpaceOnUse" gradientTransform="translate(84.4109 50.1545) scale(24.3432 24.3432)">
<stop stop-color="#F59F41"/>
<stop offset="1" stop-color="#A64416"/>
</radialGradient>
<linearGradient id="paint73_linear_2266_12202" x1="75.231" y1="32.1211" x2="73.2438" y2="47.7163" gradientUnits="userSpaceOnUse">
<stop stop-color="#F28B1D"/>
<stop offset="0.26" stop-color="#FFDC2B"/>
<stop offset="0.39" stop-color="#FFF79D"/>
<stop offset="0.8" stop-color="#F5B90A"/>
<stop offset="1" stop-color="#E68A00"/>
</linearGradient>
</defs>
</svg>
