<svg width="174" height="139" viewBox="0 0 174 139" fill="none" xmlns="http://www.w3.org/2000/svg">
<path d="M42.9876 105.013C42.9876 105.013 41.0316 109.249 37.1196 113.689C33.5076 117.793 32.1876 119.569 31.4916 119.413C30.8076 119.257 23.7517 109.681 14.8717 107.389C14.6797 107.341 14.4996 107.305 14.3196 107.269C14.3196 107.269 13.3956 102.877 12.0156 102.817C10.6356 102.769 10.0236 107.257 10.0236 107.257C10.0236 107.257 6.55562 105.109 2.97962 107.557C2.97962 107.557 -1.41234 108.361 0.471657 110.173C2.35566 111.997 4.40762 111.793 4.40762 111.793C4.40762 111.793 1.34762 113.845 2.00762 115.225C2.57162 116.401 6.81965 115.189 8.04365 114.817C8.34365 117.721 9.31564 121.093 10.6596 124.309C14.4156 133.345 21.0756 140.317 31.2636 138.481C41.4516 136.645 47.3437 109.525 47.3437 109.525L42.9756 105.001L42.9876 105.013Z" fill="#5568B1"/>
<g style="mix-blend-mode:multiply" opacity="0.82">
<path d="M4.40652 111.804C4.40652 111.804 6.60256 110.784 7.67056 110.424C7.67056 110.424 9.35054 108.228 10.4305 107.712L8.34255 108.372C8.34255 108.372 7.32252 107.304 2.97852 107.556C2.97852 107.556 7.46657 107.916 7.98257 108.984C8.49857 110.052 6.14652 109.5 4.40652 111.792V111.804Z" fill="#DB7DAF"/>
</g>
<g style="mix-blend-mode:multiply" opacity="0.82">
<path d="M40.3242 109.538C42.3282 108.038 45.0042 118.094 45.5082 116.414C46.0002 114.734 47.3443 109.538 47.3443 109.538L42.9762 105.014L40.3242 109.538Z" fill="#DB7DAF"/>
</g>
<path style="mix-blend-mode:multiply" opacity="0.75" d="M8.76202 118.706C6.37402 109.274 40.6341 129.626 36.2541 135.422C31.8741 141.218 14.654 141.938 8.76202 118.706Z" fill="url(#paint0_linear_1661_32133)"/>
<path d="M130.671 105.013C130.671 105.013 132.627 109.249 136.527 113.689C140.139 117.793 141.459 119.569 142.155 119.413C142.839 119.257 149.895 109.681 158.775 107.389C158.967 107.341 159.147 107.305 159.327 107.269C159.327 107.269 160.251 102.877 161.631 102.817C163.011 102.769 163.623 107.257 163.623 107.257C163.623 107.257 167.091 105.109 170.667 107.557C170.667 107.557 175.059 108.361 173.175 110.173C171.291 111.985 169.239 111.793 169.239 111.793C169.239 111.793 172.299 113.845 171.639 115.225C171.075 116.401 166.827 115.189 165.603 114.817C165.303 117.721 164.331 121.093 162.987 124.309C159.231 133.345 152.571 140.317 142.383 138.481C132.195 136.645 126.303 109.525 126.303 109.525L130.671 105.001V105.013Z" fill="#5568B1"/>
<g style="mix-blend-mode:multiply" opacity="0.82">
<path d="M169.251 111.804C169.251 111.804 167.055 110.784 165.987 110.424C165.987 110.424 164.307 108.228 163.227 107.712L165.315 108.372C165.315 108.372 166.335 107.304 170.679 107.556C170.679 107.556 166.191 107.916 165.675 108.984C165.159 110.052 167.511 109.5 169.251 111.792V111.804Z" fill="#DB7DAF"/>
</g>
<g style="mix-blend-mode:multiply" opacity="0.82">
<path d="M133.323 109.538C131.319 108.038 128.643 118.094 128.139 116.414C127.647 114.734 126.303 109.538 126.303 109.538L130.671 105.014L133.323 109.538Z" fill="#DB7DAF"/>
</g>
<path style="mix-blend-mode:multiply" opacity="0.75" d="M164.895 118.706C167.283 109.274 133.023 129.626 137.403 135.422C141.783 141.218 159.003 141.938 164.895 118.706Z" fill="url(#paint1_linear_1661_32133)"/>
<path d="M44.3306 107.641C44.3306 107.641 71.4025 126.817 94.2505 124.057C110.595 122.077 122.991 112.789 130.887 100.213C138.783 87.6493 44.3306 107.641 44.3306 107.641Z" fill="#374293"/>
<g style="mix-blend-mode:multiply" opacity="0.82">
<path d="M106.837 120.829C97.837 124.069 121.417 106.813 121.417 106.813C121.417 106.813 129.409 102.901 124.009 109.081C118.609 115.261 110.269 119.581 106.849 120.817L106.837 120.829Z" fill="#DB7DAF"/>
</g>
<g style="mix-blend-mode:multiply" opacity="0.82">
<path d="M95.5474 119.376C91.1914 117.78 76.6474 118.044 72.9274 119.844C69.2074 121.632 49.6954 112.068 48.2794 109.224C46.8634 106.368 60.9994 108.432 60.9994 108.432L104.811 102.444C104.811 102.444 132.579 100.5 123.999 109.104C115.419 117.696 105.963 123.216 95.5474 119.388V119.376Z" fill="#DB7DAF"/>
</g>
<g style="mix-blend-mode:multiply" opacity="0.82">
<path d="M48.7109 110.461C61.7909 117.745 65.523 119.809 70.779 120.001C76.035 120.193 62.943 111.001 62.943 111.001L48.7109 110.461Z" fill="#DB7DAF"/>
</g>
<path d="M84.6265 5.71292C84.6265 5.71292 85.0464 3.92492 86.6784 2.97692C88.3104 2.02892 96.4825 1.18892 109.43 4.34492C122.378 7.50092 128.366 12.5529 129.23 16.6569C129.23 16.6569 132.074 17.4489 133.574 18.8649C135.074 20.2809 139.646 32.2809 140.282 34.7169C140.918 37.1649 140.282 41.8209 140.282 41.8209C140.282 41.8209 143.678 42.4569 144.854 44.0289C146.03 45.6009 150.458 61.9329 148.718 75.9729C148.718 75.9729 152.27 77.8689 152.978 81.1809C153.686 84.4929 145.802 99.4809 139.178 104.605C132.554 109.729 111.674 113.989 84.6384 115.093C57.6024 116.197 33.9385 105.625 30.6265 103.105C27.3145 100.585 19.7905 85.8009 20.2705 82.3329C20.7385 78.8649 24.6384 76.3329 24.6384 76.3329C24.6384 76.3329 26.8465 41.5689 29.0545 38.6529C31.2625 35.7369 34.2624 33.7569 34.2624 33.7569C34.2624 33.7569 33.3985 31.4649 33.4705 29.5809C33.5545 27.6849 40.7304 10.3329 44.7504 7.02091C48.7704 3.70891 71.5705 0.0729043 76.3825 0.000904299C81.1945 -0.0830957 84.6384 5.71292 84.6384 5.71292H84.6265Z" fill="url(#paint2_linear_1661_32133)"/>
<path style="mix-blend-mode:multiply" opacity="0.75" d="M86.2709 95.1618C113.41 95.1618 135.411 85.8189 135.411 74.2938C135.411 62.7687 113.41 53.4258 86.2709 53.4258C59.1316 53.4258 37.1309 62.7687 37.1309 74.2938C37.1309 85.8189 59.1316 95.1618 86.2709 95.1618Z" fill="url(#paint3_radial_1661_32133)"/>
<mask id="mask0_1661_32133" style="mask-type:luminance" maskUnits="userSpaceOnUse" x="96" y="47" width="40" height="47">
<path d="M96.553 72.4682C96.361 80.1842 106.921 94.9802 119.845 93.8402C132.781 92.6882 140.749 65.0162 132.265 53.2682C123.793 41.5202 97.153 47.8562 96.541 72.4682H96.553Z" fill="white"/>
</mask>
<g mask="url(#mask0_1661_32133)">
<g style="mix-blend-mode:multiply" opacity="0.68">
<path d="M114.625 92.5198C124.852 92.5198 133.141 83.1715 133.141 71.6398C133.141 60.1081 124.852 50.7598 114.625 50.7598C104.399 50.7598 96.1094 60.1081 96.1094 71.6398C96.1094 83.1715 104.399 92.5198 114.625 92.5198Z" fill="#A783B6"/>
</g>
<mask id="mask1_1661_32133" style="mask-type:luminance" maskUnits="userSpaceOnUse" x="96" y="52" width="38" height="40">
<path d="M114.625 91.2718C124.852 91.2718 133.141 82.4822 133.141 71.6398C133.141 60.7973 124.852 52.0078 114.625 52.0078C104.399 52.0078 96.1094 60.7973 96.1094 71.6398C96.1094 82.4822 104.399 91.2718 114.625 91.2718Z" fill="white"/>
</mask>
<g mask="url(#mask1_1661_32133)">
<path d="M114.625 91.2718C124.852 91.2718 133.141 82.4822 133.141 71.6398C133.141 60.7973 124.852 52.0078 114.625 52.0078C104.399 52.0078 96.1094 60.7973 96.1094 71.6398C96.1094 82.4822 104.399 91.2718 114.625 91.2718Z" fill="url(#paint4_radial_1661_32133)"/>
<g style="mix-blend-mode:multiply" opacity="0.37">
<path d="M114.313 55.8838C124.453 55.8838 132.673 64.0798 132.673 74.1958C132.673 77.2918 131.893 80.2078 130.537 82.7638C132.721 79.5958 134.017 75.7678 134.017 71.6398C134.017 60.7918 125.197 52.0078 114.325 52.0078C103.453 52.0078 94.6328 60.8038 94.6328 71.6398C94.6328 75.7678 95.9168 79.6078 98.1128 82.7638C96.7448 80.2078 95.9768 77.2918 95.9768 74.1958C95.9768 64.0798 104.197 55.8838 114.337 55.8838H114.313Z" fill="#7274EA"/>
</g>
<path style="mix-blend-mode:multiply" d="M111.818 84.612C118.982 84.612 124.79 78.8042 124.79 71.64C124.79 64.4757 118.982 58.668 111.818 58.668C104.653 58.668 98.8457 64.4757 98.8457 71.64C98.8457 78.8042 104.653 84.612 111.818 84.612Z" fill="url(#paint5_linear_1661_32133)"/>
<g style="mix-blend-mode:multiply" opacity="0.43">
<path d="M111.818 60.384C118.022 60.384 123.074 65.436 123.074 71.64C123.074 77.844 118.022 82.896 111.818 82.896C105.614 82.896 100.562 77.844 100.562 71.64C100.562 65.436 105.614 60.384 111.818 60.384ZM111.818 58.668C104.654 58.668 98.8457 64.476 98.8457 71.64C98.8457 78.804 104.654 84.612 111.818 84.612C118.982 84.612 124.79 78.804 124.79 71.64C124.79 64.476 118.982 58.668 111.818 58.668Z" fill="#AE3E0F"/>
</g>
<g style="mix-blend-mode:multiply">
<path d="M111.819 80.5443C116.736 80.5443 120.723 76.5579 120.723 71.6403C120.723 66.7228 116.736 62.7363 111.819 62.7363C106.901 62.7363 102.915 66.7228 102.915 71.6403C102.915 76.5579 106.901 80.5443 111.819 80.5443Z" fill="#54421F"/>
</g>
<path style="mix-blend-mode:screen" opacity="0.32" d="M121.766 81.8645C121.562 87.3005 116.474 91.5245 110.402 91.2965C104.33 91.0685 99.566 86.4845 99.77 81.0365C99.974 75.6005 105.062 71.3765 111.134 71.6045C117.206 71.8325 121.97 76.4165 121.766 81.8645Z" fill="url(#paint6_linear_1661_32133)"/>
<path d="M124.49 61.4399C125.006 61.9799 124.274 63.9479 123.122 65.2919C122.534 65.9759 121.046 66.8879 120.122 66.1079C119.342 65.4479 119.39 64.1759 120.362 63.1559C121.586 61.8839 123.878 60.8039 124.49 61.4399Z" fill="white"/>
</g>
<path style="mix-blend-mode:screen" opacity="0.43" d="M132.567 66.5645C132.927 68.1845 133.143 69.8884 133.143 71.6404C133.143 83.1724 124.851 92.5204 114.627 92.5204C106.599 92.5204 99.7828 86.7485 97.2148 78.6965C99.2308 87.7805 106.491 94.5124 115.155 94.5124C125.379 94.5124 133.671 85.1645 133.671 73.6325C133.671 71.1485 133.263 68.7845 132.567 66.5765V66.5645Z" fill="url(#paint7_linear_1661_32133)"/>
<path d="M98.3672 62.2197C105.975 47.4957 126.963 49.0677 132.171 65.3757C132.171 65.3757 134.163 61.1877 132.171 57.4797C129.975 53.3877 120.807 47.3877 110.343 51.1437C100.335 54.7317 98.3672 62.2197 98.3672 62.2197Z" fill="#4C2951"/>
</g>
<g style="mix-blend-mode:multiply" opacity="0.68">
<path d="M83.3675 3.98507C83.3675 3.98507 85.2635 11.8091 83.3675 19.2731C83.3675 19.2731 81.8915 12.6011 81.0515 11.6291C80.2115 10.6451 67.8995 8.54507 62.8595 9.70907C57.8075 10.8611 45.9275 18.3371 44.1395 19.2851C42.3515 20.2331 44.7755 11.9171 48.3515 9.50506C51.9275 7.08106 62.1275 3.96106 65.2835 3.99706C68.4395 4.03306 60.5195 7.82506 59.4995 8.13706C58.4795 8.44906 57.2915 7.82507 55.7075 8.22107C54.1235 8.61706 48.2075 14.3771 50.9795 12.9491C53.7515 11.5211 66.2795 5.29307 69.2795 3.40907C72.2795 1.51307 70.5395 1.35706 55.9475 5.53306C41.3555 9.70906 45.1715 9.00106 43.5395 15.0011C41.9075 21.0011 39.6155 24.1571 42.7715 22.2611C45.9275 20.3651 52.8875 12.9011 61.5515 11.2211C70.2035 9.52907 78.8315 13.5131 80.1635 15.0851C81.4955 16.6571 83.5355 23.0531 84.2195 26.5211C84.9035 29.9891 84.2195 38.5931 84.2195 38.5931C84.2195 38.5931 81.4235 25.2611 74.0075 23.0531C66.5915 20.8451 47.9795 29.3651 44.1035 32.3651C40.2395 35.3651 31.0835 56.4251 29.5115 58.7891C27.9395 61.1531 26.1515 56.9651 26.1515 56.9651L25.7915 60.9131C25.7915 60.9131 28.4075 64.3091 29.7395 60.9131C31.0835 57.5171 36.0515 45.6131 40.0715 40.0931C44.0915 34.5731 53.5355 28.7291 58.0595 26.4491C62.5835 24.1571 75.4115 25.6571 78.8915 29.2091C82.3595 32.7731 84.9635 44.0411 85.4435 47.1131C85.9115 50.1851 85.8395 58.7891 85.8395 58.7891C85.8395 58.7891 85.8395 44.1131 87.0995 39.541C88.3595 34.9691 93.7235 25.1051 101.139 24.3131C108.555 23.5211 124.012 35.5211 128.272 40.1651C132.532 44.8211 133.791 50.1011 136.791 56.6531C139.791 63.2051 140.188 64.9331 143.416 66.4331C146.656 67.9331 148.78 67.1291 148.984 65.0051L148.623 60.7571C148.623 60.7571 148.851 64.2971 145.539 64.2971C142.227 64.2971 136.935 58.3811 134.967 51.2771C132.999 44.1731 131.26 38.9651 129.76 37.6331C128.26 36.2891 115.323 29.0291 109.563 25.1651C103.803 21.3011 97.5755 19.9571 93.6275 24.2171C89.6795 28.4771 86.1275 38.0171 85.9715 40.4651C85.9715 40.4651 84.1595 21.6851 85.2635 17.0411C86.3675 12.3851 87.4715 11.1251 92.6795 10.8851C97.8875 10.6451 114.844 12.2291 118 12.6251C121.156 13.0211 124 13.3331 116.584 9.22906C109.168 5.12506 101.512 3.39707 94.6475 3.70907C87.7835 4.02107 90.3035 4.34507 97.2515 5.67707C104.199 7.02107 107.187 9.30106 109.011 9.69706C110.835 10.0931 112.012 10.0931 113.116 10.3331C114.22 10.5731 109.287 8.08905 108.111 7.57305C106.935 7.05705 107.151 7.53707 102.867 6.74507C98.5715 5.95307 96.0875 4.53707 97.1435 4.38107C98.1995 4.22507 109.336 5.08907 114.028 8.20907C118.72 11.3291 119.032 12.0371 115.048 11.7971C111.064 11.5571 101.751 10.0211 95.3675 9.07305C88.9835 8.12505 89.2955 8.20906 88.1915 9.50506C87.0875 10.8011 84.7955 14.0771 84.8795 15.4571C84.8795 15.4571 83.9195 8.01706 84.6155 5.70106L83.3555 3.97305L83.3675 3.98507Z" fill="#DB7DAF"/>
</g>
<g style="mix-blend-mode:multiply" opacity="0.68">
<path d="M34.2498 33.7683C34.2498 33.7683 44.2938 26.9523 46.0818 25.3803C47.8698 23.8083 50.7138 20.8083 45.1818 23.1243C39.6498 25.4403 38.4498 24.6003 36.7098 26.3883C34.9698 28.1763 33.9738 30.8643 35.0298 29.9163C36.0858 28.9683 39.1338 27.2883 39.1818 26.8683C39.2298 26.4483 35.8938 26.8803 41.3298 24.7083C46.7538 22.5363 47.2338 24.3363 43.7658 26.7603C40.2978 29.1843 33.7578 32.1123 33.7578 32.1123L34.2498 33.7803V33.7683Z" fill="#DB7DAF"/>
</g>
<g style="mix-blend-mode:multiply" opacity="0.68">
<path d="M140.271 41.8203C137.199 41.0283 130.959 33.0603 127.731 28.2483C124.491 23.4363 123.315 21.7803 124.815 21.7803C126.315 21.7803 128.991 19.0203 129.231 16.6562L131.739 17.6402C131.739 17.6402 129.627 20.5202 126.627 21.6242C123.627 22.7282 132.303 33.4563 134.439 35.5083C136.563 37.5603 137.199 31.5602 136.803 29.2322C136.407 26.9042 133.887 24.0602 132.627 23.5922C131.367 23.1242 133.095 26.1962 134.127 26.6642C135.147 27.1322 136.335 33.1323 135.543 31.9443C134.751 30.7563 131.127 23.1122 130.647 20.7362C130.179 18.3722 132.963 20.2802 136.323 26.5682C139.683 32.8562 137.823 36.3482 137.979 38.0042C138.135 39.6602 140.523 38.7123 140.523 38.7123L140.271 41.7843V41.8203Z" fill="#DB7DAF"/>
</g>
<g opacity="0.7">
<g style="mix-blend-mode:multiply" opacity="0.68">
<path d="M114.04 8.2088C118.732 11.3288 119.044 12.0368 115.06 11.7968C114.028 11.7368 112.648 11.5928 111.052 11.3888C110.248 11.4848 109.312 11.5808 108.208 11.6648C108.148 11.6648 108.1 11.6648 108.04 11.6768C112.588 12.0488 116.632 12.4568 118.012 12.6248C121.168 13.0208 124.012 13.3328 116.596 9.22879C114.4 8.01679 112.18 7.0328 109.96 6.2168C110.152 6.3368 110.32 6.4568 110.5 6.5768C111.844 7.0328 113.068 7.5728 114.028 8.2088H114.04Z" fill="#DB7DAF"/>
</g>
<g style="mix-blend-mode:multiply" opacity="0.68">
<path d="M145.565 64.298C142.253 64.298 136.961 58.382 134.993 51.278C133.025 44.174 131.285 38.966 129.785 37.634C128.285 36.29 115.349 29.03 109.589 25.166C103.829 21.302 97.6014 19.958 93.6534 24.218C90.2694 27.878 87.1854 35.414 86.2734 39.026C87.3414 36.638 91.0854 29.162 97.6254 24.578C105.485 19.058 109.337 26.582 118.709 31.526C128.069 36.458 130.049 39.998 134.861 52.106C139.709 64.274 146.693 70.046 148.997 65.006L148.637 60.758C148.637 60.758 148.865 64.298 145.553 64.298H145.565Z" fill="#DB7DAF"/>
</g>
<g style="mix-blend-mode:multiply" opacity="0.68">
<path d="M132.904 35.1745C135.616 38.4625 138.484 41.3545 140.272 41.8105L140.524 38.7385C137.392 39.9745 137.32 38.7985 136.888 31.6465C136.804 33.2905 136.456 35.0545 135.796 35.6785C135.052 36.6505 133.972 36.1465 132.916 35.1745H132.904Z" fill="#DB7DAF"/>
</g>
<g style="mix-blend-mode:multiply" opacity="0.68">
<path d="M125.766 21.4825C125.766 21.4825 125.814 21.4825 125.838 21.4585C128.622 20.5705 131.742 17.6305 131.742 17.6305L129.234 16.6465C129.042 18.5665 127.242 20.7265 125.766 21.4825Z" fill="#DB7DAF"/>
</g>
<g style="mix-blend-mode:multiply" opacity="0.68">
<path d="M130.65 20.75C131.118 23.114 134.754 30.77 135.546 31.958C136.338 33.146 135.15 27.146 134.13 26.678C133.11 26.21 131.37 23.126 132.63 23.606C133.494 23.93 134.946 25.382 135.906 27.002C134.214 22.286 130.95 19.214 130.626 20.102C130.59 20.258 130.602 20.486 130.662 20.762L130.65 20.75Z" fill="#DB7DAF"/>
</g>
<g style="mix-blend-mode:multiply" opacity="0.68">
<path d="M80.4531 15.4823C81.7851 17.5463 83.5851 23.2823 84.2091 26.5103C84.4731 27.8903 84.5331 30.0623 84.4971 32.1983C84.9291 26.3663 83.0211 21.9263 84.8811 15.4703C84.8811 15.4703 84.4131 11.8822 84.3651 8.90625C84.3651 8.90625 84.1971 15.1223 84.0531 15.1343C83.9211 16.4903 83.7052 17.8943 83.3572 19.2863C83.3572 19.2863 81.8811 12.6142 81.0411 11.6422C80.4291 10.9342 73.8172 9.63826 68.2852 9.42226C70.5772 9.54226 79.1931 11.9783 80.4411 15.4943L80.4531 15.4823Z" fill="#DB7DAF"/>
</g>
<g style="mix-blend-mode:multiply" opacity="0.68">
<path d="M95.7521 5.38863C95.7521 5.38863 92.0202 4.53663 96.9162 3.69663C96.1602 3.68463 95.4162 3.68463 94.6842 3.72063C88.3602 4.00863 90.0161 4.30863 95.7521 5.40063V5.38863Z" fill="#DB7DAF"/>
</g>
<g style="mix-blend-mode:multiply" opacity="0.68">
<path d="M88.2049 9.50616C87.1009 10.8022 84.8089 14.0782 84.8929 15.4582C86.3929 10.2622 93.2329 9.13416 98.8849 9.60216C97.6609 9.41016 96.4729 9.23016 95.3809 9.07416C88.9969 8.12616 89.3089 8.21016 88.2049 9.50616Z" fill="#DB7DAF"/>
</g>
<g style="mix-blend-mode:multiply" opacity="0.68">
<path d="M32.7644 52.3223C31.2164 55.5263 30.0043 58.0463 29.5243 58.7783C27.9523 61.1423 26.1644 56.9543 26.1644 56.9543L25.9004 59.7983C29.5004 63.8063 29.9084 59.1743 32.7644 52.3223Z" fill="#DB7DAF"/>
</g>
<g style="mix-blend-mode:multiply" opacity="0.68">
<path d="M51.8439 15.4573C53.4159 14.0773 55.2639 12.9853 56.6079 12.2773C51.3399 14.9173 45.3758 18.6373 44.1398 19.2853C43.8278 19.4533 43.6599 19.3213 43.5879 19.0093C44.0079 21.3853 46.0359 19.8013 46.0359 19.8013C47.6559 18.4933 49.6119 16.9333 51.8319 15.4693C51.8319 15.4693 51.8319 15.4693 51.8559 15.4573H51.8439Z" fill="#DB7DAF"/>
</g>
<g style="mix-blend-mode:multiply" opacity="0.68">
<path d="M47.8362 9.90162C48.0042 9.75762 48.1722 9.61362 48.3402 9.49362C51.9162 7.06962 62.1163 3.94963 65.2723 3.98563C66.6763 3.84163 67.3243 4.15362 67.6003 4.35762C68.2963 3.97362 68.8602 3.63763 69.2682 3.38563C72.2682 1.48963 70.5282 1.33363 55.9362 5.50963C54.8682 5.82163 53.9082 6.09763 53.0202 6.34963C50.9442 6.99763 49.1322 8.50963 47.8242 9.87763L47.8362 9.90162Z" fill="#DB7DAF"/>
</g>
<g style="mix-blend-mode:multiply" opacity="0.68">
<path d="M74.0098 23.0407C66.5938 20.8327 47.9818 29.3527 44.1058 32.3527C42.2338 33.8047 39.1378 39.4687 36.2578 45.2047C40.0858 38.4487 46.1578 30.7087 54.9898 27.2887C67.2058 22.5607 77.4298 24.6127 78.8578 26.5567C77.5258 24.9247 75.9298 23.6167 74.0098 23.0407Z" fill="#DB7DAF"/>
</g>
<g style="mix-blend-mode:multiply" opacity="0.68">
<path d="M34.2537 33.7695C34.2537 33.7695 37.2777 31.7175 40.3137 29.6055C38.4297 30.6975 36.2937 31.3455 34.6137 31.7175C34.0857 31.9575 33.7617 32.1135 33.7617 32.1135L34.2537 33.7815V33.7695Z" fill="#DB7DAF"/>
</g>
<g style="mix-blend-mode:multiply" opacity="0.68">
<path d="M42.0645 28.3582C43.8765 27.0742 45.4605 25.9222 46.0725 25.3822C47.8605 23.8102 50.7045 20.8102 45.1725 23.1262C44.9445 23.2222 44.7284 23.3062 44.5244 23.3902C47.7884 23.6782 45.8325 25.0822 42.0645 28.3702V28.3582Z" fill="#DB7DAF"/>
</g>
</g>
<g style="mix-blend-mode:multiply" opacity="0.5">
<path d="M122.847 20.3175C117.327 18.2535 130.767 34.3815 135.903 39.0855C141.027 43.7775 143.223 42.7335 144.711 45.2055C146.199 47.6775 146.583 55.9335 144.711 59.6175C142.839 63.3015 136.863 56.4975 139.251 61.9935C141.639 67.4895 147.051 67.4775 148.083 67.7895C149.115 68.1015 148.731 75.9855 148.731 75.9855C150.471 61.9455 146.043 45.6135 144.867 44.0415C143.679 42.4695 140.295 41.8335 140.295 41.8335C140.295 41.8335 140.931 37.1775 140.295 34.7295C139.659 32.2815 135.087 20.2935 133.587 18.8775C132.087 17.4615 129.243 16.6695 129.243 16.6695C128.991 15.4815 128.295 14.2095 127.143 12.9375C129.783 16.0215 128.343 22.3935 122.859 20.3415L122.847 20.3175Z" fill="#DB7DAF"/>
</g>
<g style="mix-blend-mode:multiply" opacity="0.5">
<path d="M34.2509 33.7691C34.2509 33.7691 31.2509 35.7371 29.0429 38.6651C26.8349 41.5811 24.627 76.3451 24.627 76.3451C24.627 76.3451 25.6229 66.3491 26.8469 64.6211C28.0709 62.8811 27.603 66.4811 31.455 56.8091C35.307 47.1371 33.255 53.2211 31.755 54.4331C30.255 55.6451 27.5189 45.0131 28.6949 41.3411C29.8709 37.6691 29.6789 37.4891 34.5629 33.7811C39.4469 30.0731 48.3029 24.7091 51.1589 19.9451C54.0149 15.1931 49.2149 17.5451 52.2869 15.1931C55.3469 12.8411 53.3069 13.9691 50.7029 15.4811C48.0989 16.9931 43.5509 14.4851 46.9229 10.8491C50.3069 7.21309 44.8349 9.62509 44.1749 11.2451C43.5149 12.8531 40.7669 11.3411 44.0789 7.70508C39.9749 12.1931 33.5549 27.8171 33.4709 29.6051C33.3869 31.5011 34.2629 33.7811 34.2629 33.7811L34.2509 33.7691Z" fill="#DB7DAF"/>
</g>
<g style="mix-blend-mode:multiply" opacity="0.5">
<path d="M125.882 101.689C119.066 113.737 90.0618 114.049 88.7418 113.941C87.4098 113.833 85.7898 108.325 85.7898 108.325C85.7898 108.325 85.5738 113.449 81.3978 113.953C77.2098 114.457 64.8498 113.497 55.8618 105.601C46.8738 97.7048 21.4098 71.8808 20.2578 82.8008C20.3898 86.9528 27.4458 100.681 30.6378 103.105C33.9498 105.625 57.6138 116.197 84.6498 115.093C111.686 113.989 132.566 109.729 139.19 104.605C145.814 99.4808 153.71 84.4928 152.99 81.1808C151.658 74.6168 132.71 89.6408 125.894 101.689H125.882Z" fill="#DB7DAF"/>
</g>
<g style="mix-blend-mode:multiply" opacity="0.37">
<path d="M125.884 101.689C123.364 105.805 136.792 100.993 142.156 95.161C147.52 89.329 152.812 78.853 148.252 80.257C143.692 81.661 131.764 92.089 125.884 101.689Z" fill="#DB7DAF"/>
</g>
<g style="mix-blend-mode:multiply" opacity="0.37">
<path d="M25.9001 81.0125C21.6761 79.0325 29.0201 96.8405 36.2561 100.668C43.4921 104.496 55.9601 105.756 52.1561 102.252C48.3641 98.7485 34.9601 85.2605 25.9001 81.0125Z" fill="#DB7DAF"/>
</g>
<path style="mix-blend-mode:screen" opacity="0.43" d="M42.0399 28.4047C42.4119 28.1287 42.796 27.8527 43.168 27.5767C43.372 27.4327 43.564 27.2887 43.756 27.1447C43.876 27.0607 43.996 26.9767 44.104 26.8927C44.212 26.8087 44.32 26.7367 44.428 26.6527C44.632 26.4967 44.836 26.3527 45.016 26.2087C45.064 26.1727 45.088 26.1487 45.136 26.1127C45.292 25.9927 45.436 25.8847 45.568 25.7767C45.616 25.7407 45.652 25.7047 45.7 25.6807C45.844 25.5607 45.976 25.4527 46.084 25.3687C46.372 25.1167 46.684 24.8287 46.984 24.5287C48.76 22.9807 50.26 21.4207 51.16 19.9327C54.016 15.1807 49.216 17.5327 52.288 15.1807C52.312 15.1567 52.336 15.1447 52.36 15.1207C55.084 13.3927 58.192 11.8567 61.552 11.1967C70.204 9.50473 78.832 13.4887 80.164 15.0607C80.26 15.1687 80.356 15.3127 80.464 15.4807C80.872 16.1047 81.316 17.0767 81.76 18.2167C81.772 18.2527 81.784 18.2887 81.808 18.3247C81.88 18.5047 81.952 18.6967 82.024 18.8887C82.048 18.9487 82.072 19.0207 82.096 19.0807C82.156 19.2607 82.228 19.4407 82.288 19.6207C82.312 19.7047 82.348 19.7887 82.372 19.8727C82.432 20.0407 82.492 20.2207 82.552 20.4007C82.588 20.4967 82.612 20.5927 82.648 20.6887C82.708 20.8567 82.756 21.0247 82.816 21.1927C82.852 21.3007 82.888 21.4207 82.924 21.5287C82.972 21.6847 83.02 21.8407 83.068 21.9967C83.104 22.1167 83.14 22.2487 83.176 22.3687C83.224 22.5127 83.26 22.6567 83.308 22.8127C83.344 22.9447 83.38 23.0767 83.416 23.2087C83.452 23.3407 83.488 23.4727 83.524 23.6167C83.56 23.7607 83.596 23.9047 83.632 24.0367C83.668 24.1567 83.692 24.2767 83.728 24.3967C83.764 24.5407 83.8 24.6967 83.836 24.8407C83.86 24.9487 83.884 25.0447 83.908 25.1527C83.944 25.3087 83.98 25.4647 84.016 25.6207C84.04 25.7047 84.052 25.7887 84.076 25.8607C84.124 26.0887 84.172 26.3167 84.208 26.5207C84.244 26.7127 84.28 26.9407 84.304 27.1687C84.304 27.2407 84.328 27.3247 84.328 27.4087C84.352 27.5647 84.364 27.7327 84.376 27.9007C84.376 27.9967 84.388 28.1047 84.4 28.2007C84.412 28.3567 84.424 28.5247 84.436 28.6927C84.436 28.8007 84.448 28.9207 84.46 29.0287C84.46 29.1967 84.472 29.3767 84.484 29.5567C84.484 29.8207 84.496 30.0967 84.508 30.3847C84.508 30.4807 84.508 30.5647 84.508 30.6607C84.508 30.8767 84.508 31.0927 84.508 31.3087C84.508 31.3687 84.508 31.4407 84.508 31.5007C84.508 31.7407 84.508 31.9807 84.508 32.2087C84.46 35.4607 84.22 38.5927 84.22 38.5927C84.22 38.5927 82.684 31.2487 78.856 26.5567C78.688 26.3527 78.52 26.1607 78.352 25.9687C78.172 25.7767 78.004 25.5967 77.824 25.4167C77.632 25.2247 77.452 25.0687 77.284 24.9127C77.26 24.9007 77.248 24.8767 77.224 24.8647C77.056 24.7207 76.888 24.5887 76.72 24.4567C76.684 24.4327 76.66 24.4087 76.624 24.3847C76.468 24.2647 76.3 24.1567 76.132 24.0487C76.084 24.0247 76.048 23.9887 76 23.9647C75.844 23.8687 75.688 23.7727 75.52 23.6887C75.46 23.6527 75.412 23.6287 75.352 23.5927C75.184 23.5087 75.016 23.4367 74.848 23.3647C74.788 23.3407 74.74 23.3167 74.68 23.2927C74.452 23.1967 74.224 23.1127 73.984 23.0527C66.568 20.8447 47.956 29.3647 44.08 32.3647C43.96 32.4607 43.84 32.5687 43.708 32.6887C43.66 32.7367 43.612 32.7847 43.564 32.8327C43.48 32.9167 43.396 33.0127 43.3 33.1087C43.24 33.1687 43.18 33.2527 43.12 33.3247C43.036 33.4207 42.964 33.5167 42.88 33.6247C42.808 33.7087 42.748 33.8047 42.676 33.9007C42.616 33.9847 42.556 34.0567 42.496 34.1407C41.14 32.1607 40.912 30.1807 42.016 28.4167L42.0399 28.4047ZM78.892 29.1967C75.424 25.6327 62.584 24.1447 58.06 26.4367C54.688 28.1407 48.568 31.8367 44.008 35.8927C49.984 41.7727 63.328 30.2047 75.136 32.2087C81.148 33.2287 85.444 47.2447 85.432 47.1127C84.964 44.0407 82.36 32.7607 78.88 29.2087L78.892 29.1967ZM44.056 7.69273C43.852 7.90873 43.672 8.12473 43.516 8.32873C41.092 11.4967 43.5159 12.7207 44.1399 11.2327C44.4399 9.22873 45.304 8.62873 53.02 6.37273C53.452 6.24073 53.896 6.12074 54.376 5.97674C54.916 5.82074 55.408 5.67674 55.936 5.52074C70.528 1.34474 72.268 1.50073 69.268 3.39673C69.0639 3.51673 68.824 3.67273 68.548 3.82873C64.588 6.13273 53.536 11.6167 50.9679 12.9367C48.208 14.3527 54.124 8.59274 55.696 8.20874C57.268 7.81274 58.456 8.44874 59.488 8.12474C60.508 7.81274 68.428 4.02074 65.272 3.98474C62.116 3.94874 51.9159 7.08073 48.3399 9.49273C48.1719 9.61273 48.004 9.75673 47.836 9.90073C47.596 10.1047 47.3559 10.3327 47.1399 10.5847C47.0799 10.6567 47.032 10.7167 46.96 10.7887C46.72 11.0767 46.48 11.3887 46.252 11.7127C44.296 14.8567 48.304 16.8487 50.692 15.4687C51.64 14.9167 52.504 14.4247 53.08 14.1247C53.26 14.0287 53.452 13.9207 53.632 13.8247C53.74 13.7647 53.848 13.7047 53.956 13.6447C54.28 13.4647 54.6039 13.2967 54.9399 13.1287C55.0839 13.0567 55.216 12.9847 55.36 12.9127C55.78 12.6967 56.188 12.4807 56.596 12.2767C59.008 11.0647 61.264 10.0807 62.86 9.70874C65.836 9.02474 71.308 9.48073 75.484 10.1647C75.556 10.1767 75.6279 10.1887 75.7119 10.2007C75.9879 10.2487 76.252 10.2967 76.516 10.3447C76.588 10.3567 76.648 10.3687 76.72 10.3807C77.128 10.4527 77.512 10.5367 77.872 10.6087C78.04 10.6447 78.208 10.6807 78.364 10.7167C78.496 10.7527 78.628 10.7767 78.76 10.8127C78.952 10.8607 79.1319 10.9087 79.3119 10.9567C79.3959 10.9807 79.48 11.0047 79.552 11.0167C79.792 11.0887 80.008 11.1487 80.188 11.2087C80.236 11.2207 80.284 11.2447 80.332 11.2567C80.476 11.3047 80.596 11.3527 80.692 11.4007C80.728 11.4127 80.764 11.4367 80.8 11.4487C80.92 11.5087 81.016 11.5687 81.052 11.6287C81.892 12.6127 83.368 19.2727 83.368 19.2727C83.5239 18.6487 83.656 18.0247 83.764 17.4007C83.788 17.2567 83.812 17.1007 83.836 16.9567C83.932 16.3447 84.016 15.7327 84.076 15.1327C84.628 9.18073 83.38 3.99674 83.38 3.98474C81.964 2.28074 79.456 -0.0472696 76.384 0.000730392C71.572 0.0847304 48.772 3.70874 44.752 7.02074C44.416 7.29674 44.056 7.68074 43.684 8.12474C43.816 7.96874 43.948 7.81274 44.068 7.68074L44.056 7.69273ZM84.376 8.91674C84.376 9.03674 84.376 9.16873 84.376 9.30073C84.376 9.40873 84.376 9.50474 84.376 9.61274C84.376 9.74474 84.376 9.88874 84.388 10.0207C84.388 10.1047 84.388 10.1887 84.4 10.2727C84.412 10.5367 84.424 10.8007 84.448 11.0647C84.448 11.1367 84.448 11.1967 84.46 11.2687C84.46 11.4247 84.484 11.5687 84.496 11.7247C84.496 11.7967 84.496 11.8567 84.508 11.9287C84.532 12.2047 84.556 12.4687 84.568 12.7207C84.568 12.7687 84.568 12.8167 84.58 12.8647C84.592 12.9967 84.604 13.1287 84.616 13.2607C84.616 13.3207 84.6279 13.3927 84.6399 13.4527C84.6639 13.7047 84.6879 13.9447 84.7119 14.1487C84.7239 14.3047 84.736 14.4007 84.748 14.4847C84.748 14.5447 84.76 14.6047 84.772 14.6527C84.772 14.7247 84.784 14.8087 84.796 14.8687C84.796 14.9647 84.82 15.0727 84.832 15.1447C84.832 15.1687 84.832 15.1927 84.832 15.2167C84.832 15.2767 84.844 15.3367 84.856 15.3727C84.856 15.3967 84.856 15.4207 84.856 15.4327C84.784 14.1007 87.076 10.8247 88.18 9.52873C89.284 8.23273 88.972 8.14873 95.356 9.09673C95.86 9.16873 96.376 9.25274 96.916 9.32474C97.06 9.34874 97.204 9.37273 97.348 9.39673C97.828 9.46873 98.3199 9.54074 98.8119 9.62474C102.928 10.2607 107.5 10.9687 111.028 11.4127C111.808 11.5087 112.552 11.5927 113.212 11.6647C113.524 11.7007 113.8 11.7247 114.052 11.7487C114.1 11.7487 114.148 11.7487 114.196 11.7607C114.496 11.7847 114.772 11.8087 115.024 11.8207C119.008 12.0607 118.696 11.3527 114.004 8.23273C113.74 8.05273 113.452 7.88473 113.14 7.72873C113.008 7.65673 112.864 7.58474 112.72 7.52474C112.552 7.44074 112.384 7.36874 112.216 7.28474C112.012 7.20074 111.808 7.10474 111.592 7.02074C111.484 6.97274 111.376 6.93673 111.268 6.90073C111.004 6.80473 110.74 6.69674 110.464 6.61274C105.184 4.81274 97.96 4.28474 97.108 4.41674C96.04 4.57274 98.536 5.98874 102.832 6.78074C107.128 7.57274 106.9 7.09274 108.076 7.60874C109.264 8.12474 114.184 10.6087 113.08 10.3687C111.976 10.1287 110.788 10.1287 108.976 9.73273C107.164 9.33673 104.164 7.04474 97.216 5.71274C96.328 5.54474 95.512 5.38874 94.78 5.24474C94.564 5.19674 94.348 5.16074 94.144 5.12474C94.024 5.10074 93.892 5.07674 93.772 5.05274C93.532 5.00474 93.316 4.96874 93.1 4.92074C92.98 4.89674 92.872 4.87274 92.764 4.84874C92.56 4.80074 92.356 4.76473 92.176 4.72873C92.068 4.70473 91.984 4.68074 91.888 4.65674C91.78 4.63274 91.672 4.60874 91.588 4.58474C91.492 4.56074 91.42 4.53674 91.336 4.52474C91.264 4.50074 91.18 4.48873 91.12 4.46473C91.048 4.44073 90.988 4.42873 90.928 4.40473C90.88 4.39273 90.832 4.36874 90.784 4.35674C90.736 4.33274 90.7 4.32073 90.676 4.29673C90.652 4.28473 90.628 4.27274 90.604 4.24874C90.58 4.23674 90.5799 4.21273 90.5679 4.20073C90.5799 4.14073 90.604 4.12874 90.628 4.11674C90.652 4.10474 90.6759 4.09274 90.7119 4.08074C90.7479 4.06874 90.796 4.05674 90.844 4.04474C90.892 4.04474 90.9519 4.02074 91.0119 4.00874C91.0839 3.99674 91.144 3.98473 91.228 3.97273C91.312 3.97273 91.408 3.94873 91.492 3.93673C91.588 3.93673 91.672 3.91273 91.78 3.90073C91.9 3.90073 92.044 3.87673 92.176 3.86473C92.284 3.86473 92.392 3.84073 92.524 3.84073C92.704 3.82873 92.896 3.81673 93.1 3.80473C93.22 3.80473 93.328 3.79274 93.46 3.78074C93.808 3.75674 94.18 3.74474 94.588 3.72074C95.32 3.68474 96.076 3.68473 96.82 3.69673C101.692 3.78073 106.888 4.89673 112.084 7.09273C112.492 7.26074 112.9 7.44074 113.308 7.62074C113.608 7.76474 113.92 7.90874 114.22 8.05274C114.988 8.42474 115.756 8.80873 116.512 9.22873C123.928 13.3327 121.084 13.0207 117.928 12.6247C117.772 12.6007 117.568 12.5767 117.34 12.5527C117.304 12.5527 117.28 12.5527 117.244 12.5527C117.016 12.5287 116.764 12.5047 116.488 12.4687C116.44 12.4687 116.392 12.4687 116.344 12.4567C116.044 12.4207 115.732 12.3967 115.384 12.3607C115.348 12.3607 115.324 12.3607 115.288 12.3607C114.928 12.3247 114.544 12.2887 114.124 12.2527C114.1 12.2527 114.076 12.2527 114.064 12.2527C113.656 12.2167 113.224 12.1687 112.768 12.1327C112.744 12.1327 112.72 12.1327 112.708 12.1327C112.264 12.0967 111.796 12.0487 111.316 12.0007C111.256 12.0007 111.196 12.0007 111.136 11.9887C110.656 11.9407 110.176 11.9047 109.672 11.8567C109.624 11.8567 109.576 11.8567 109.516 11.8447C109 11.7967 108.472 11.7607 107.932 11.7127C102.124 11.2327 95.512 10.7887 92.584 10.9327C87.376 11.1727 86.2719 12.4327 85.1679 17.0887C84.0639 21.7447 85.876 40.5127 85.876 40.5127C85.9 40.1647 85.9959 39.6607 86.1399 39.0727C86.3559 38.2087 86.692 37.1407 87.136 35.9407C87.172 35.8567 87.196 35.7607 87.232 35.6767C87.316 35.4607 87.4 35.2327 87.484 35.0047C87.532 34.8727 87.5919 34.7287 87.6399 34.5967C87.7239 34.3927 87.808 34.1887 87.892 33.9727C87.964 33.8047 88.036 33.6367 88.108 33.4687C88.192 33.2767 88.276 33.0847 88.36 32.8927C88.444 32.6887 88.54 32.4847 88.636 32.2807C88.708 32.1127 88.792 31.9447 88.864 31.7767C89.02 31.4407 89.176 31.1167 89.344 30.7807C89.38 30.6967 89.428 30.6127 89.464 30.5287C89.632 30.1927 89.8 29.8687 89.98 29.5327C90.04 29.4127 90.112 29.2927 90.184 29.1727C90.316 28.9207 90.46 28.6807 90.592 28.4407C90.664 28.3087 90.748 28.1767 90.832 28.0447C90.964 27.8167 91.0959 27.6007 91.2399 27.3847C91.3239 27.2527 91.408 27.1207 91.492 26.9887C91.624 26.7727 91.7679 26.5687 91.9119 26.3647C91.9959 26.2447 92.08 26.1247 92.164 26.0047C92.32 25.7887 92.464 25.5847 92.62 25.3927C92.692 25.2967 92.764 25.2007 92.836 25.1047C93.064 24.8167 93.292 24.5527 93.52 24.3007C97.468 20.0407 103.696 21.3847 109.456 25.2487C113.764 28.1407 122.08 32.9287 126.628 35.7127C127.768 33.6367 127.876 31.4647 126.868 29.3047C122.668 24.0727 119.524 19.1887 122.716 20.3887C128.188 22.4407 129.64 16.0687 127 12.9847C124.168 9.85274 118.492 6.64874 109.3 4.41674C96.364 1.26074 88.18 2.10074 86.548 3.04874C84.916 3.99674 84.496 5.78474 84.496 5.78474C84.28 6.49274 84.232 7.68074 84.244 8.97674L84.376 8.91674ZM101.14 24.3127C93.7239 25.1047 88.36 34.9687 87.1 39.5407C86.632 41.2447 86.332 44.3407 86.152 47.5567C86.404 47.5567 87.844 32.2087 96.556 32.2087C111.148 32.2087 120.484 43.1287 125.476 37.4647C119.308 32.0167 107.38 23.6407 101.152 24.3127H101.14Z" fill="url(#paint8_linear_1661_32133)"/>
<g style="mix-blend-mode:multiply" opacity="0.5">
<path d="M135.902 39.0849C130.622 33.8169 135.998 23.2688 137.09 26.0288C138.182 28.7768 140.102 33.7449 140.414 35.4609C140.726 37.1769 140.27 41.8209 140.27 41.8209C140.27 41.8209 138.422 41.6049 135.89 39.0849H135.902Z" fill="#DB7DAF"/>
</g>
<g style="mix-blend-mode:multiply" opacity="0.5">
<path d="M34.2498 33.7691C34.2498 33.7691 41.3898 29.6171 43.2858 26.3651C45.1818 23.1131 40.2978 13.2251 38.3658 17.2451C36.4338 21.2651 33.4698 28.4051 33.4458 29.8331C33.4218 31.2611 34.2378 33.7571 34.2378 33.7571L34.2498 33.7691Z" fill="#DB7DAF"/>
</g>
<path style="mix-blend-mode:multiply" opacity="0.75" d="M20.2577 82.3323C19.7897 85.8003 27.3017 100.584 30.6137 103.104C32.9897 104.916 45.8537 110.868 62.9177 113.688C54.3617 110.772 52.7537 100.8 42.4457 93.3723C32.1377 85.9563 20.3417 88.0923 21.5777 81.6603C22.8017 75.2283 30.1817 76.7283 31.5377 74.2803C38.0177 62.5083 36.6017 49.1403 33.7457 51.6243C30.9017 54.1083 27.4457 45.1323 29.0297 38.6523C26.8217 41.5683 24.6137 76.3323 24.6137 76.3323C24.6137 76.3323 20.7257 78.8523 20.2457 82.3323H20.2577Z" fill="url(#paint9_linear_1661_32133)"/>
<path style="mix-blend-mode:multiply" opacity="0.75" d="M137.775 57.1569C136.119 55.1169 142.359 73.3449 143.883 75.9729C145.419 78.6009 149.655 73.7649 151.947 80.8569C154.239 87.9489 133.119 91.2489 126.447 100.777C119.931 110.089 119.895 110.605 111.207 112.765C124.911 110.797 134.931 107.881 139.155 104.617C145.779 99.4929 153.675 84.5049 152.955 81.1929C152.235 77.8809 148.695 75.9849 148.695 75.9849C150.327 62.7489 146.499 47.4849 145.071 44.4609C148.467 52.9809 139.407 59.2209 137.763 57.1689L137.775 57.1569Z" fill="url(#paint10_linear_1661_32133)"/>
<g style="mix-blend-mode:screen" opacity="0.43">
<path d="M55.1306 29.0885C56.0666 28.9085 71.4746 31.4405 75.6626 31.6925C79.8506 31.9445 80.9786 30.8285 77.8586 28.3685C74.7386 25.9085 63.2906 25.4885 60.1346 26.0285C56.9786 26.5685 53.9186 29.3165 55.1306 29.0885Z" fill="#DB7DAF"/>
</g>
<g style="mix-blend-mode:screen" opacity="0.43">
<path d="M75.3606 21.2882C72.1326 18.3842 68.0046 12.7202 64.2486 12.8402C60.4926 12.9602 54.9126 14.2562 56.5926 13.4162C58.2726 12.5762 63.2526 9.97224 71.4486 11.5802C79.6446 13.1882 80.0286 15.6362 80.6406 17.4002C81.2526 19.1642 81.5886 26.9042 75.3606 21.2882Z" fill="#DB7DAF"/>
</g>
<g style="mix-blend-mode:screen" opacity="0.43">
<path d="M91.5983 20.5572C96.9983 17.0892 96.1223 14.4252 101.402 13.5852C106.682 12.7452 116.726 13.2732 113.882 12.8532C111.05 12.4332 95.6543 10.3692 90.2903 11.5212C84.9263 12.6732 85.9943 20.1852 86.1503 22.2852C86.3063 24.3852 89.8463 21.6851 91.5863 20.5691L91.5983 20.5572Z" fill="#DB7DAF"/>
</g>
<g style="mix-blend-mode:screen" opacity="0.43">
<path d="M94.8859 28.0204C95.9659 29.6524 106.682 27.4804 111.89 29.6044C117.098 31.7284 107.738 25.6444 103.358 24.6964C98.9779 23.7484 94.5619 27.5404 94.8859 28.0324V28.0204Z" fill="#DB7DAF"/>
</g>
<g style="mix-blend-mode:screen" opacity="0.43">
<path d="M113.811 7.29683C111.987 6.49283 119.811 7.68083 123.075 9.90083C126.351 12.1208 126.723 17.1728 125.475 15.8768C124.227 14.5688 122.655 11.2208 113.811 7.29683Z" fill="#DB7DAF"/>
</g>
<g style="mix-blend-mode:screen" opacity="0.43">
<path d="M85.0476 6.2296C84.9396 7.6096 97.6835 6.61361 94.3955 5.72561C91.1075 4.84961 88.4796 4.46561 90.0036 3.34961C91.5276 2.23361 85.3956 1.5976 85.0596 6.2296H85.0476Z" fill="#DB7DAF"/>
</g>
<g style="mix-blend-mode:screen" opacity="0.43">
<path d="M70.5141 1.42931C72.8061 1.59731 78.4221 4.71731 80.2581 8.43731C82.0941 12.1573 83.2101 4.56132 81.0981 2.54532C78.9861 0.529324 78.1461 0.433316 75.8541 0.361316C73.5621 0.289316 67.8381 1.23731 70.5141 1.42931Z" fill="#DB7DAF"/>
</g>
<g style="mix-blend-mode:screen" opacity="0.43">
<path d="M46.599 6.49372C45.735 7.00972 55.5629 4.95771 59.0069 3.54171C62.4509 2.12571 49.695 4.62172 46.599 6.49372Z" fill="#DB7DAF"/>
</g>
<path d="M90.2915 11.5081C90.2915 11.5081 96.9995 16.4161 102.076 11.5081C102.076 11.5081 95.1995 10.6681 90.2915 11.5081Z" fill="white"/>
<path d="M67.25 11.1602C67.25 11.1602 77.786 19.7162 79.634 15.2282C79.634 15.2282 76.07 11.4242 67.25 11.1602Z" fill="white"/>
<path d="M75.5078 0.707924C75.5078 0.707924 76.5038 4.42792 78.2678 4.90792C80.0318 5.38792 81.2559 3.68392 81.2559 3.68392C81.2559 3.68392 81.1118 0.0719245 75.5078 0.707924Z" fill="white"/>
<mask id="mask2_1661_32133" style="mask-type:luminance" maskUnits="userSpaceOnUse" x="37" y="48" width="46" height="50">
<path d="M42.5542 63.0134C51.5902 64.6334 66.0862 55.8494 70.6822 50.8454C75.2782 45.8414 82.0341 49.8254 82.0341 49.8254L80.0781 97.3934C80.0781 97.3934 54.6021 97.0454 53.8101 96.8774C53.0181 96.7094 38.2461 86.7014 38.0301 86.2934C37.8021 85.8854 36.7581 67.5494 37.1301 67.2134C37.5021 66.8894 42.5661 63.0254 42.5661 63.0254L42.5542 63.0134Z" fill="white"/>
</mask>
<g mask="url(#mask2_1661_32133)">
<mask id="mask3_1661_32133" style="mask-type:luminance" maskUnits="userSpaceOnUse" x="38" y="47" width="40" height="47">
<path d="M77.2488 72.4701C77.4408 80.1861 66.8808 94.9821 53.9568 93.8421C41.0208 92.6901 33.0648 65.0181 41.5368 53.2701C50.0088 41.5221 76.6488 47.8581 77.2608 72.4701H77.2488Z" fill="white"/>
</mask>
<g mask="url(#mask3_1661_32133)">
<g style="mix-blend-mode:multiply" opacity="0.68">
<path d="M59.1879 92.5217C69.414 92.5217 77.7039 83.1734 77.7039 71.6417C77.7039 60.11 69.414 50.7617 59.1879 50.7617C48.9618 50.7617 40.6719 60.11 40.6719 71.6417C40.6719 83.1734 48.9618 92.5217 59.1879 92.5217Z" fill="#A783B6"/>
</g>
<mask id="mask4_1661_32133" style="mask-type:luminance" maskUnits="userSpaceOnUse" x="40" y="52" width="38" height="40">
<path d="M59.1879 91.2738C69.414 91.2738 77.7039 82.4842 77.7039 71.6417C77.7039 60.7993 69.414 52.0098 59.1879 52.0098C48.9618 52.0098 40.6719 60.7993 40.6719 71.6417C40.6719 82.4842 48.9618 91.2738 59.1879 91.2738Z" fill="white"/>
</mask>
<g mask="url(#mask4_1661_32133)">
<path d="M59.1879 91.2738C69.414 91.2738 77.7039 82.4842 77.7039 71.6417C77.7039 60.7993 69.414 52.0098 59.1879 52.0098C48.9618 52.0098 40.6719 60.7993 40.6719 71.6417C40.6719 82.4842 48.9618 91.2738 59.1879 91.2738Z" fill="url(#paint11_radial_1661_32133)"/>
<g style="mix-blend-mode:multiply" opacity="0.37">
<path d="M59.487 55.8858C49.347 55.8858 41.127 64.0818 41.127 74.1978C41.127 77.2938 41.9069 80.2098 43.2629 82.7658C41.0789 79.5978 39.7949 75.7697 39.7949 71.6417C39.7949 60.7937 48.615 52.0098 59.487 52.0098C70.359 52.0098 79.1789 60.8057 79.1789 71.6417C79.1789 75.7697 77.8949 79.6098 75.7109 82.7658C77.0789 80.2098 77.847 77.2938 77.847 74.1978C77.847 64.0818 69.627 55.8858 59.487 55.8858Z" fill="#7274EA"/>
</g>
<path style="mix-blend-mode:multiply" d="M61.9838 84.6139C69.148 84.6139 74.9558 78.8062 74.9558 71.6419C74.9558 64.4777 69.148 58.6699 61.9838 58.6699C54.8196 58.6699 49.0117 64.4777 49.0117 71.6419C49.0117 78.8062 54.8196 84.6139 61.9838 84.6139Z" fill="url(#paint12_linear_1661_32133)"/>
<g style="mix-blend-mode:multiply" opacity="0.43">
<path d="M61.9838 60.3859C68.1878 60.3859 73.2397 65.4379 73.2397 71.6419C73.2397 77.8459 68.1878 82.8979 61.9838 82.8979C55.7798 82.8979 50.7278 77.8459 50.7278 71.6419C50.7278 65.4379 55.7798 60.3859 61.9838 60.3859ZM61.9838 58.6699C54.8198 58.6699 49.0117 64.4779 49.0117 71.6419C49.0117 78.8059 54.8198 84.6139 61.9838 84.6139C69.1478 84.6139 74.9558 78.8059 74.9558 71.6419C74.9558 64.4779 69.1478 58.6699 61.9838 58.6699Z" fill="#AE3E0F"/>
</g>
<g style="mix-blend-mode:multiply">
<path d="M61.9846 80.5463C66.9022 80.5463 70.8886 76.5598 70.8886 71.6423C70.8886 66.7247 66.9022 62.7383 61.9846 62.7383C57.0671 62.7383 53.0806 66.7247 53.0806 71.6423C53.0806 76.5598 57.0671 80.5463 61.9846 80.5463Z" fill="#54421F"/>
</g>
<path style="mix-blend-mode:screen" opacity="0.32" d="M52.0356 81.8665C52.2396 87.3025 57.3276 91.5265 63.3996 91.2985C69.4716 91.0705 74.2356 86.4865 74.0316 81.0385C73.8276 75.6025 68.7396 71.3785 62.6676 71.6065C56.5956 71.8345 51.8316 76.4185 52.0356 81.8665Z" fill="url(#paint13_linear_1661_32133)"/>
<path d="M49.3244 61.4418C48.8084 61.9818 49.5405 63.9498 50.6925 65.2938C51.2805 65.9778 52.7685 66.8899 53.6925 66.1099C54.4725 65.4499 54.4245 64.1778 53.4525 63.1578C52.2285 61.8858 49.9364 60.8058 49.3244 61.4418Z" fill="white"/>
</g>
<path style="mix-blend-mode:screen" opacity="0.43" d="M41.2485 66.5664C40.8885 68.1864 40.6725 69.8904 40.6725 71.6424C40.6725 83.1744 48.9645 92.5224 59.1885 92.5224C67.2165 92.5224 74.0325 86.7504 76.6005 78.6984C74.5845 87.7824 67.3245 94.5144 58.6605 94.5144C48.4365 94.5144 40.1445 85.1664 40.1445 73.6344C40.1445 71.1504 40.5525 68.7864 41.2485 66.5784V66.5664Z" fill="url(#paint14_linear_1661_32133)"/>
<path d="M75.4354 62.2216C67.8274 47.4976 46.8394 49.0697 41.6314 65.3777C41.6314 65.3777 39.6394 61.1897 41.6314 57.4817C43.8274 53.3897 52.9954 47.3897 63.4594 51.1457C73.4674 54.7337 75.4354 62.2216 75.4354 62.2216Z" fill="#4C2951"/>
</g>
</g>
<path d="M82.4785 99.1927C84.8305 97.6207 94.3105 94.2126 98.4025 94.1406C102.495 94.0566 102.447 94.6566 103.575 95.5686C104.703 96.4926 103.683 95.9766 100.359 95.8206C97.0345 95.6646 89.9066 97.0447 87.8546 97.6087C85.8026 98.1727 80.4985 100.525 82.4905 99.1927H82.4785Z" fill="#32236C"/>
<path d="M41.5838 62.3174C45.5078 63.0254 50.8358 62.9654 56.1278 60.1694C61.4078 57.3734 72.4477 49.4414 73.7797 49.2974C75.1117 49.1534 74.7638 55.2374 74.3558 54.6614C73.9478 54.0854 73.2397 53.1254 72.5917 52.9334C71.9437 52.7414 58.6477 59.8214 54.3637 61.5134C50.0797 63.1934 41.7037 65.0174 41.1757 64.0694C40.6477 63.1214 40.1078 62.0534 41.5838 62.3174Z" fill="#4C2951"/>
<path style="mix-blend-mode:screen" opacity="0.43" d="M83.1504 99.2881C83.1504 99.2881 90.4944 95.7481 102.77 96.0121C102.77 96.0121 94.6704 100.836 83.1504 99.2881Z" fill="url(#paint15_linear_1661_32133)"/>
<path d="M141.841 66.4128L33.6343 65.0078L33.5395 72.3072L141.746 73.7122L141.841 66.4128Z" fill="url(#paint16_linear_1661_32133)"/>
<path style="mix-blend-mode:multiply" d="M37.7197 72.3594L37.6662 76.4822L41.789 76.5357L41.7355 80.6585L45.9259 80.7129L45.8723 84.8357L49.9951 84.8893L49.9416 89.0121L73.5294 89.3183L73.583 85.1955L77.7734 85.2499L77.8269 81.1271L81.9497 81.1807L82.0032 77.0579L82.0568 72.9351L37.7197 72.3594Z" fill="url(#paint17_linear_1661_32133)"/>
<path style="mix-blend-mode:multiply" d="M93.4131 73.084L93.3596 77.2068L93.306 81.3296L97.4288 81.3831L97.3753 85.5059L101.566 85.5603L101.512 89.6831L125.168 89.9903L125.221 85.8675L129.344 85.921L129.397 81.7982L133.385 81.85L133.439 77.7272L137.764 77.7834L137.818 73.6606L93.4131 73.084Z" fill="url(#paint18_linear_1661_32133)"/>
<path d="M58.1687 80.8738L54.0459 80.8203L53.9924 84.9431L58.1152 84.9966L58.1687 80.8738Z" fill="#F2F4F6"/>
<path d="M54.092 76.6981L49.9692 76.6445L49.9157 80.7673L54.0385 80.8209L54.092 76.6981Z" fill="#F2F4F6"/>
<path d="M50.0286 72.5203L45.9058 72.4668L45.8522 76.5896L49.975 76.6431L50.0286 72.5203Z" fill="#F2F4F6"/>
<path d="M66.4094 80.9793L62.2866 80.9258L62.2331 85.0486L66.3559 85.1021L66.4094 80.9793Z" fill="#F2F4F6"/>
<path d="M62.3416 76.8035L58.2188 76.75L58.1652 80.8728L62.288 80.9263L62.3416 76.8035Z" fill="#F2F4F6"/>
<path d="M58.2756 72.6278L54.1528 72.5742L54.0993 76.697L58.2221 76.7506L58.2756 72.6278Z" fill="#F2F4F6"/>
<path d="M110.406 81.5516L106.283 81.498L106.23 85.6208L110.352 85.6744L110.406 81.5516Z" fill="#F2F4F6"/>
<path d="M106.34 77.3758L102.217 77.3223L102.164 81.4451L106.287 81.4986L106.34 77.3758Z" fill="#F2F4F6"/>
<path d="M102.274 73.1981L98.1514 73.1445L98.0978 77.2673L102.221 77.3209L102.274 73.1981Z" fill="#F2F4F6"/>
<path d="M118.657 81.659L114.535 81.6055L114.481 85.7283L118.604 85.7818L118.657 81.659Z" fill="#F2F4F6"/>
<path d="M114.594 77.4832L110.471 77.4297L110.418 81.5525L114.54 81.606L114.594 77.4832Z" fill="#F2F4F6"/>
<path d="M110.513 73.3055L106.39 73.252L106.337 77.3748L110.459 77.4283L110.513 73.3055Z" fill="#F2F4F6"/>
<g style="mix-blend-mode:soft-light">
<path d="M73.5885 85.1979L73.3857 85.1953L73.3322 89.3181L73.535 89.3208L73.5885 85.1979Z" fill="#DBDDDB"/>
</g>
<g style="mix-blend-mode:soft-light">
<path d="M125.23 85.8679L125.027 85.8652L124.973 89.988L125.176 89.9907L125.23 85.8679Z" fill="#DBDDDB"/>
</g>
<g style="mix-blend-mode:soft-light">
<path d="M129.4 81.7976L129.197 81.7949L129.144 85.9177L129.346 85.9204L129.4 81.7976Z" fill="#DBDDDB"/>
</g>
<g style="mix-blend-mode:soft-light">
<path d="M133.444 77.7272L133.241 77.7246L133.188 81.8474L133.39 81.85L133.444 77.7272Z" fill="#DBDDDB"/>
</g>
<g style="mix-blend-mode:soft-light">
<path d="M77.8287 81.1276L77.626 81.125L77.5724 85.2478L77.7752 85.2504L77.8287 81.1276Z" fill="#DBDDDB"/>
</g>
<g style="mix-blend-mode:soft-light">
<path d="M82.0695 72.9362L81.8667 72.9336L81.7596 81.1792L81.9624 81.1818L82.0695 72.9362Z" fill="#DBDDDB"/>
</g>
<path d="M140.698 65.6538L34.5868 64.276L33.631 65.0071L141.635 66.4095L140.698 65.6538Z" fill="url(#paint19_linear_1661_32133)"/>
<defs>
<linearGradient id="paint0_linear_1661_32133" x1="8.64202" y1="127.538" x2="36.6381" y2="127.538" gradientUnits="userSpaceOnUse">
<stop stop-color="#DB7DAF"/>
<stop offset="0.7" stop-color="white"/>
</linearGradient>
<linearGradient id="paint1_linear_1661_32133" x1="165.015" y1="127.538" x2="137.019" y2="127.538" gradientUnits="userSpaceOnUse">
<stop stop-color="#DB7DAF"/>
<stop offset="0.7" stop-color="white"/>
</linearGradient>
<linearGradient id="paint2_linear_1661_32133" x1="86.6304" y1="115.189" x2="86.6304" y2="30.9369" gradientUnits="userSpaceOnUse">
<stop offset="0.16" stop-color="#728CCE"/>
<stop offset="1" stop-color="#BDBDFF"/>
</linearGradient>
<radialGradient id="paint3_radial_1661_32133" cx="0" cy="0" r="1" gradientUnits="userSpaceOnUse" gradientTransform="translate(87.5044 74.3285) scale(49.2 20.88)">
<stop stop-color="#DB7DAF"/>
<stop offset="0.32" stop-color="#E5A3C6"/>
<stop offset="1" stop-color="white"/>
</radialGradient>
<radialGradient id="paint4_radial_1661_32133" cx="0" cy="0" r="1" gradientUnits="userSpaceOnUse" gradientTransform="translate(114.625 71.6398) scale(20.808 20.808)">
<stop offset="0.41" stop-color="white"/>
<stop offset="0.6" stop-color="#FCFCFE"/>
<stop offset="0.7" stop-color="#F4F5FA"/>
<stop offset="0.77" stop-color="#E7E9F5"/>
<stop offset="0.84" stop-color="#D4D7EC"/>
<stop offset="0.89" stop-color="#BCC1E2"/>
<stop offset="0.95" stop-color="#9EA5D5"/>
<stop offset="1" stop-color="#7781C5"/>
</radialGradient>
<linearGradient id="paint5_linear_1661_32133" x1="111.818" y1="84.612" x2="111.818" y2="58.668" gradientUnits="userSpaceOnUse">
<stop stop-color="#84AEFF"/>
<stop offset="0.13" stop-color="#698FD9"/>
<stop offset="0.3" stop-color="#496BAE"/>
<stop offset="0.47" stop-color="#314E8C"/>
<stop offset="0.63" stop-color="#1F3A74"/>
<stop offset="0.78" stop-color="#142E66"/>
<stop offset="0.9" stop-color="#112A61"/>
</linearGradient>
<linearGradient id="paint6_linear_1661_32133" x1="109.135" y1="91.1518" x2="112.441" y2="71.6892" gradientUnits="userSpaceOnUse">
<stop offset="0.23"/>
<stop offset="0.3" stop-color="#080305"/>
<stop offset="0.4" stop-color="#1F0D15"/>
<stop offset="0.53" stop-color="#451C2E"/>
<stop offset="0.68" stop-color="#793251"/>
<stop offset="0.85" stop-color="#BB4D7D"/>
<stop offset="1" stop-color="#FF6AAB"/>
</linearGradient>
<linearGradient id="paint7_linear_1661_32133" x1="97.2148" y1="80.5444" x2="133.671" y2="80.5444" gradientUnits="userSpaceOnUse">
<stop/>
<stop offset="0.1" stop-color="#2E1A25"/>
<stop offset="0.3" stop-color="#8A4F6E"/>
<stop offset="0.44" stop-color="#C4709D"/>
<stop offset="0.51" stop-color="#DB7DAF"/>
<stop offset="1"/>
</linearGradient>
<linearGradient id="paint8_linear_1661_32133" x1="84.88" y1="47.5447" x2="84.88" y2="0.000731132" gradientUnits="userSpaceOnUse">
<stop stop-color="#DB7DAF"/>
<stop offset="1"/>
</linearGradient>
<linearGradient id="paint9_linear_1661_32133" x1="17.4497" y1="84.3723" x2="58.4777" y2="72.5763" gradientUnits="userSpaceOnUse">
<stop stop-color="white"/>
<stop offset="0.69" stop-color="#DB7DAF"/>
</linearGradient>
<linearGradient id="paint10_linear_1661_32133" x1="112.923" y1="73.5009" x2="152.559" y2="86.785" gradientUnits="userSpaceOnUse">
<stop offset="0.31" stop-color="#DB7DAF"/>
<stop offset="1" stop-color="white"/>
</linearGradient>
<radialGradient id="paint11_radial_1661_32133" cx="0" cy="0" r="1" gradientUnits="userSpaceOnUse" gradientTransform="translate(59.1879 71.6418) rotate(180) scale(20.808 20.808)">
<stop offset="0.41" stop-color="white"/>
<stop offset="0.6" stop-color="#FCFCFE"/>
<stop offset="0.7" stop-color="#F4F5FA"/>
<stop offset="0.77" stop-color="#E7E9F5"/>
<stop offset="0.84" stop-color="#D4D7EC"/>
<stop offset="0.89" stop-color="#BCC1E2"/>
<stop offset="0.95" stop-color="#9EA5D5"/>
<stop offset="1" stop-color="#7781C5"/>
</radialGradient>
<linearGradient id="paint12_linear_1661_32133" x1="61.9838" y1="84.6139" x2="61.9838" y2="58.6699" gradientUnits="userSpaceOnUse">
<stop stop-color="#84AEFF"/>
<stop offset="0.13" stop-color="#698FD9"/>
<stop offset="0.3" stop-color="#496BAE"/>
<stop offset="0.47" stop-color="#314E8C"/>
<stop offset="0.63" stop-color="#1F3A74"/>
<stop offset="0.78" stop-color="#142E66"/>
<stop offset="0.9" stop-color="#112A61"/>
</linearGradient>
<linearGradient id="paint13_linear_1661_32133" x1="64.6905" y1="91.1996" x2="61.3844" y2="71.725" gradientUnits="userSpaceOnUse">
<stop offset="0.23"/>
<stop offset="0.3" stop-color="#080305"/>
<stop offset="0.4" stop-color="#1F0D15"/>
<stop offset="0.53" stop-color="#451C2E"/>
<stop offset="0.68" stop-color="#793251"/>
<stop offset="0.85" stop-color="#BB4D7D"/>
<stop offset="1" stop-color="#FF6AAB"/>
</linearGradient>
<linearGradient id="paint14_linear_1661_32133" x1="76.6005" y1="80.5464" x2="40.1445" y2="80.5464" gradientUnits="userSpaceOnUse">
<stop/>
<stop offset="0.1" stop-color="#2E1A25"/>
<stop offset="0.3" stop-color="#8A4F6E"/>
<stop offset="0.44" stop-color="#C4709D"/>
<stop offset="0.51" stop-color="#DB7DAF"/>
<stop offset="1"/>
</linearGradient>
<linearGradient id="paint15_linear_1661_32133" x1="83.1504" y1="97.8001" x2="102.782" y2="97.8001" gradientUnits="userSpaceOnUse">
<stop/>
<stop offset="0.1" stop-color="#2E1A25"/>
<stop offset="0.3" stop-color="#8A4F6E"/>
<stop offset="0.44" stop-color="#C4709D"/>
<stop offset="0.51" stop-color="#DB7DAF"/>
<stop offset="1"/>
</linearGradient>
<linearGradient id="paint16_linear_1661_32133" x1="87.7679" y1="65.9811" x2="87.6766" y2="73.0101" gradientUnits="userSpaceOnUse">
<stop/>
<stop offset="1" stop-color="#161719"/>
</linearGradient>
<linearGradient id="paint17_linear_1661_32133" x1="59.675" y1="89.0709" x2="59.8891" y2="72.5796" gradientUnits="userSpaceOnUse">
<stop stop-color="#787A87"/>
<stop offset="1" stop-color="#161719"/>
</linearGradient>
<linearGradient id="paint18_linear_1661_32133" x1="116.825" y1="-17.1938" x2="116.825" y2="-17.1938" gradientUnits="userSpaceOnUse">
<stop stop-color="#787A87"/>
<stop offset="1" stop-color="#161719"/>
</linearGradient>
<linearGradient id="paint19_linear_1661_32133" x1="87.6426" y1="64.9649" x2="87.6329" y2="65.7083" gradientUnits="userSpaceOnUse">
<stop stop-color="#4E4F58"/>
<stop offset="0.04" stop-color="#A4A7B8"/>
<stop offset="0.84" stop-color="#4E4F58"/>
<stop offset="1" stop-color="#1E1E1E"/>
</linearGradient>
</defs>
</svg>
