<svg width="66" height="82" viewBox="0 0 66 82" fill="none" xmlns="http://www.w3.org/2000/svg">
<path opacity="0.993" fill-rule="evenodd" clip-rule="evenodd" d="M30.639 6H29.1054C28.4183 6.20998 27.8006 6.55854 27.2523 7.0457C27.1865 7.14902 27.1013 7.22773 26.9968 7.28182C26.852 7.44866 26.7055 7.6117 26.5574 7.77094C25.4042 7.21779 24.2673 7.25714 23.1469 7.889C23.0463 7.97004 22.9398 8.04032 22.8274 8.09983C22.5336 8.35365 22.2541 8.6263 21.9887 8.91783C21.9823 8.94097 21.9743 8.96346 21.9647 8.9853C21.5052 9.56752 21.1751 10.2253 20.9743 10.9586C21.8124 10.9017 22.6324 10.9973 23.4344 11.2454C23.4624 11.2789 23.4783 11.3183 23.4823 11.3634C23.478 11.4664 23.4274 11.5113 23.3306 11.4983C22.9861 11.4149 22.6374 11.3474 22.2842 11.296C21.6938 11.2233 21.1027 11.2346 20.511 11.3297C19.9921 11.3935 19.4969 11.5424 19.0254 11.7766C18.7611 11.9214 18.5055 12.0788 18.2586 12.2489C18.1111 12.3768 17.962 12.5033 17.8113 12.6284C16.7415 13.673 16.1318 14.9605 15.9822 16.4907C15.9716 16.6425 15.9716 16.7943 15.9822 16.9461C15.9888 16.9538 15.9968 16.9594 16.0062 16.963C16.0729 16.9193 16.1421 16.88 16.2139 16.8449C16.867 16.5671 17.5432 16.4715 18.2426 16.5582C18.2796 16.5706 18.3089 16.5931 18.3305 16.6256C18.3569 16.7166 18.3329 16.7868 18.2586 16.8365C17.4538 16.7389 16.6923 16.8879 15.9742 17.2834C15.7241 17.5138 15.4898 17.7612 15.2714 18.0255C15.1826 18.184 15.084 18.3358 14.9758 18.4809C14.7708 18.8518 14.6058 19.2397 14.4806 19.6447C14.4452 19.8602 14.408 20.0738 14.3688 20.2856C14.3682 20.4009 14.3575 20.5133 14.3368 20.6229C14.3262 20.7747 14.3262 20.9265 14.3368 21.0783C14.3575 21.1935 14.3682 21.3116 14.3688 21.4325C14.4116 21.8337 14.5101 22.2188 14.6643 22.5878C14.5454 22.6936 14.4282 22.8032 14.3129 22.9167L14.1851 23.001C14.0786 23.1359 13.9614 23.2596 13.8336 23.3721C13.7056 23.5416 13.5778 23.7102 13.4502 23.8781C12.9637 24.617 12.6655 25.4321 12.5557 26.3236V27.4031C12.632 28.0005 12.7865 28.5796 13.0189 29.1403L13.2687 29.6431L13.3624 29.8318C13.4956 30.0316 13.6261 30.234 13.7538 30.439C13.7932 30.5054 13.8411 30.5167 13.8975 30.4727C14.0057 30.2496 14.1335 30.0416 14.2809 29.8486C14.3355 29.7743 14.3834 29.6955 14.4247 29.6125C14.5102 29.536 14.5795 29.4461 14.6324 29.3427C14.6483 28.8537 14.6537 28.3646 14.6483 27.8753C20.1117 27.8809 25.575 27.8753 31.0383 27.8585C31.1177 27.7915 31.1922 27.7185 31.262 27.6392C31.3288 27.5323 31.4032 27.4311 31.4856 27.3356C31.977 26.6092 32.2991 25.8052 32.4521 24.9238C32.4671 23.9034 32.4858 22.883 32.508 21.8626C32.4858 21.2022 32.4725 20.5416 32.4681 19.8808C32.4558 18.0564 32.4585 16.2321 32.4761 14.4077C32.4943 13.8086 32.5209 13.2098 32.5559 12.6115C32.6245 11.5684 32.6911 10.5283 32.7556 9.49128C32.7663 9.22142 32.7663 8.95157 32.7556 8.68171C32.7355 8.21964 32.6369 7.77551 32.4601 7.34929C32.3468 7.1413 32.2083 6.95296 32.0447 6.78427C31.6352 6.40223 31.1666 6.1408 30.639 6ZM29.2172 13.809C28.8022 13.6099 28.3656 13.5368 27.9073 13.5897C27.9055 13.6001 27.9002 13.6086 27.8913 13.615L27.7476 13.6319C27.5889 13.6916 27.4291 13.7506 27.2683 13.809C26.4584 14.282 26.0191 15.0072 25.9504 15.9847C25.9421 16.0138 25.9261 16.0363 25.9025 16.0522C25.7844 15.9787 25.6593 15.9225 25.5271 15.8835C25.2487 15.7946 24.9665 15.7243 24.6804 15.6727C24.4872 15.6655 24.2955 15.6543 24.1053 15.639C23.8698 15.6575 23.6355 15.6913 23.4025 15.7402C23.2412 15.7886 23.0814 15.842 22.9232 15.9004C22.0458 16.332 21.4175 17.0179 21.0382 17.9581C20.9779 18.1174 20.9246 18.2805 20.8785 18.4472C20.791 18.8761 20.751 19.309 20.7586 19.7459C20.7841 19.9753 20.8133 20.2058 20.8465 20.4374C20.9569 20.57 21.0527 20.5559 21.1341 20.3952C21.0981 20.2489 21.0714 20.0999 21.0542 19.9483C21.0329 19.6728 21.0329 19.3973 21.0542 19.1218C21.1535 18.1868 21.521 17.3941 22.1564 16.7437C22.2609 16.6786 22.3567 16.5999 22.444 16.5076C22.7711 16.2834 23.1225 16.1176 23.4983 16.01C24.4029 15.8417 25.2629 15.9907 26.0782 16.457C26.1258 16.4362 26.1684 16.4081 26.206 16.3726C26.2022 16.0121 26.2501 15.6579 26.3498 15.3101C26.4154 15.1564 26.4847 15.0047 26.5574 14.8547C27.061 14.0938 27.7505 13.7761 28.6262 13.9018C29.1163 14.0212 29.5289 14.277 29.8642 14.6692C29.9027 14.7717 29.9719 14.8391 30.0719 14.8716C30.1048 14.8527 30.1394 14.8415 30.1757 14.8378C30.2228 14.7555 30.2176 14.6768 30.1597 14.6017C30.0682 14.5157 29.9883 14.4201 29.9201 14.315C29.7853 14.1893 29.6469 14.0712 29.5048 13.9608L29.2172 13.809ZM29.9521 18.0424C29.9505 17.9058 29.8866 17.8495 29.7604 17.8737C29.7236 17.9027 29.6969 17.942 29.6805 17.9918C29.6231 18.3477 29.5113 18.685 29.345 19.0038C29.2596 19.1276 29.1744 19.2513 29.0894 19.3748C28.6292 19.8859 28.0647 20.1782 27.3961 20.2518C27.2669 20.3721 27.2856 20.4677 27.452 20.5386C27.5308 20.51 27.6134 20.4959 27.6996 20.4964C28.1034 20.4153 28.4761 20.2551 28.8179 20.0157C29.4452 19.5176 29.8231 18.8598 29.9521 18.0424ZM31.0703 22.5962C31.0393 22.5107 30.9808 22.4658 30.8946 22.4613C30.8811 22.4856 30.8599 22.5025 30.8307 22.5119C30.8091 22.5449 30.7984 22.5814 30.7987 22.6215C30.8265 22.7308 30.8532 22.8405 30.8786 22.9504C30.9802 23.5505 30.8364 24.0734 30.4473 24.519C30.1589 24.7986 29.8182 24.9504 29.4249 24.9743C29.3589 24.9983 29.3163 25.046 29.2971 25.1177C29.3243 25.211 29.3827 25.2644 29.4728 25.2779C29.9152 25.2214 30.3038 25.0415 30.639 24.7382C30.7129 24.6153 30.7981 24.5029 30.8946 24.4009C31.2109 23.829 31.2695 23.2274 31.0703 22.5962ZM25.6709 23.5576C24.9065 23.0987 24.0811 22.8737 23.1948 22.883C22.9195 22.9145 22.6426 22.9651 22.3641 23.0347C22.1216 23.1051 21.8873 23.195 21.6612 23.3046C21.389 23.4481 21.1334 23.6168 20.8944 23.8106C20.8031 23.9295 20.6966 24.0307 20.5749 24.1142C20.4365 24.3076 20.298 24.5009 20.1594 24.6945L20.1569 24.6979L20.0797 24.8057C19.9708 25.0131 19.8696 25.2268 19.7762 25.4466C19.6032 25.9634 19.4967 26.4947 19.4567 27.0404C19.4617 27.0924 19.4777 27.1401 19.5046 27.1838C19.5906 27.269 19.6678 27.2577 19.7363 27.1501C19.758 26.2142 20.0269 25.3651 20.543 24.6033C21.1832 23.7939 22.0033 23.3329 23.0031 23.2203C23.6759 23.1579 24.3255 23.2535 24.952 23.507C25.1597 23.6153 25.37 23.7165 25.583 23.8106C25.6228 23.7964 25.6627 23.7853 25.7028 23.7769C25.7533 23.6937 25.7427 23.6207 25.6709 23.5576ZM36.4376 6H36.2459C35.4653 6.041 34.8157 6.3727 34.297 6.9951C33.9951 7.40287 33.7874 7.85826 33.674 8.36125C33.6553 8.72656 33.6528 9.09199 33.666 9.45755C33.7041 11.0383 33.7413 12.6181 33.7779 14.1969C33.8191 16.7966 33.8617 19.394 33.9057 21.9891C33.9189 23.1079 33.9164 24.2267 33.8977 25.3454C33.8844 25.4348 33.8764 25.5249 33.8737 25.6153C33.8079 25.9448 33.7146 26.2653 33.5942 26.5766C33.3592 27.0585 33.0556 27.4859 32.6836 27.8585C35.4046 27.8809 38.1257 27.8809 40.8466 27.8585C40.8703 27.7979 40.889 27.736 40.9026 27.6729C40.9898 27.0298 41.0537 26.3832 41.0943 25.7333C41.1201 25.2405 41.0962 24.7514 41.0224 24.266C40.978 23.9858 40.8926 23.7215 40.7668 23.4733C40.6404 23.2955 40.4727 23.2056 40.2636 23.2034C40.0904 23.2091 39.9227 23.2486 39.7604 23.3215C39.6514 23.3874 39.5396 23.4493 39.4249 23.507C39.3005 23.616 39.1672 23.7116 39.0255 23.7937C38.8963 23.9303 38.7578 24.054 38.6102 24.1648C38.3976 24.3751 38.1926 24.5944 37.9952 24.8226C37.948 24.8573 37.8974 24.863 37.8434 24.8394C37.7821 24.7726 37.7661 24.6939 37.7955 24.6033C37.9605 24.4515 38.115 24.2884 38.2587 24.1142C38.3947 23.9992 38.5225 23.8754 38.6421 23.7431C38.7891 23.6553 38.9223 23.5485 39.0415 23.4227C39.2714 23.2562 39.5164 23.1157 39.7763 23.001C40.3656 22.7624 40.8077 22.9366 41.1022 23.5239C41.235 23.8818 41.3149 24.2528 41.3419 24.637C41.3843 25.5087 41.3471 26.3746 41.23 27.2344C41.2305 27.2781 41.2358 27.3203 41.246 27.3609C41.3 27.3403 41.3374 27.2982 41.3578 27.2344C41.5393 27.0371 41.7257 26.846 41.9169 26.661C42.2008 26.469 42.5043 26.3172 42.8275 26.2056C43.2828 26.1086 43.7353 26.1199 44.1853 26.2393C44.7401 26.4397 45.2141 26.7713 45.6071 27.2344C45.6253 27.2698 45.6413 27.3064 45.655 27.344C45.641 27.3744 45.6303 27.4053 45.6231 27.4368C45.583 27.4452 45.543 27.4564 45.5033 27.4705L45.4755 27.4622L45.4473 27.4537C45.3568 27.3806 45.2769 27.2963 45.2077 27.2007C45.14 27.1629 45.0814 27.1123 45.032 27.0489C44.9716 27.0396 44.9291 27.0059 44.9042 26.9477C44.4266 26.5857 43.8941 26.4086 43.3067 26.4164C42.4641 26.5308 41.8171 26.9666 41.3658 27.7235C41.3379 27.7699 41.3246 27.8205 41.3259 27.8753H50.1918V30.1016H48.9937V31.4678H48.3228V32.8508H46.7253V33.9977H45.8627V35.1615H37.5399V33.9977H36.23V32.8508H35.3673V31.4678H33.9775C33.9828 31.0139 33.9774 30.5614 33.9616 30.1101C32.8913 30.1016 31.821 30.0988 30.7507 30.1016V31.4678H30.0797V32.8171C29.5519 32.8115 29.0248 32.8173 28.4982 32.8339C28.4823 33.2104 28.4769 33.5872 28.4823 33.964H27.6196V35.1277C25.9902 35.1222 24.3608 35.1277 22.7314 35.1446C22.6917 35.2102 22.6544 35.2777 22.6196 35.347C22.5121 35.6325 22.4348 35.9248 22.3879 36.224C22.3832 36.3966 22.3698 36.5679 22.348 36.7384C22.3947 37.6855 22.6823 38.5428 23.2106 39.3105C23.2449 39.3483 23.2822 39.382 23.3224 39.4117C23.3856 39.5065 23.4548 39.5966 23.5301 39.6816C23.6595 39.776 23.782 39.8801 23.8975 39.9936C24.3982 40.3562 24.9467 40.6008 25.5429 40.7273C25.7354 40.7686 25.9271 40.8052 26.118 40.8369C26.8337 40.9018 27.5473 40.8905 28.2586 40.8032C28.5829 40.7308 28.9077 40.6549 29.2331 40.5755C29.5893 40.4465 29.9462 40.3228 30.3034 40.2044L30.8477 40.0548L31.8369 39.7828C33.1799 39.4579 34.5351 39.1823 35.9025 38.9563C36.4368 38.8868 36.972 38.8165 37.5079 38.7455C38.8524 38.6177 40.1997 38.5868 41.5495 38.6527C43.0831 38.7216 44.5953 38.9435 46.0863 39.319C46.5969 39.4127 47.1106 39.4773 47.6279 39.5129C48.348 39.4794 49.0429 39.322 49.7126 39.0407C50.1833 38.8428 50.6199 38.5843 51.0225 38.2648C51.0805 38.1893 51.1498 38.1302 51.2302 38.0877C51.2965 38.0093 51.3656 37.9334 51.4378 37.86C51.4743 37.7821 51.5276 37.7204 51.5976 37.6745C51.6807 37.522 51.7738 37.3758 51.8771 37.236C52.0581 36.854 52.1912 36.4548 52.2765 36.0385C52.3826 35.0636 52.2096 34.1444 51.7573 33.2809C51.7992 33.2362 51.8471 33.1998 51.9011 33.1713C52.0236 33.0195 52.1567 32.879 52.3005 32.7496C52.4037 32.582 52.5182 32.4246 52.6439 32.2774C53.399 31.0843 53.62 29.7856 53.3069 28.3813C53.0875 27.5324 52.6934 26.7932 52.1247 26.1634C52.2249 25.8989 52.3101 25.6291 52.3803 25.3538C52.4778 24.8646 52.5363 24.3697 52.5561 23.8696C52.5428 23.6586 52.5268 23.4478 52.5081 23.2371C52.4725 23.0292 52.4379 22.8212 52.4043 22.6131C52.2843 22.2361 52.1299 21.8763 51.941 21.5337C51.8331 21.3808 51.7238 21.229 51.6136 21.0783C51.426 20.8802 51.229 20.6947 51.0225 20.5217C50.1824 19.9824 49.2718 19.6507 48.2908 19.5266C48.2062 19.4833 48.1742 19.4159 48.195 19.3242C48.2317 19.2655 48.2822 19.2318 48.3467 19.223C48.7485 19.2862 49.1399 19.3846 49.5209 19.5182C49.8679 19.6056 50.198 19.7377 50.5113 19.9145C50.527 19.9065 50.5402 19.8952 50.5512 19.8808C50.7243 19.2993 50.8094 18.7034 50.8068 18.093C50.791 17.861 50.7698 17.6305 50.7429 17.4015C50.6893 17.1127 50.6227 16.826 50.5433 16.5413C50.0715 15.1549 49.1929 14.171 47.9074 13.5897C47.4645 13.41 47.0066 13.2891 46.5336 13.2271C45.8905 13.1597 45.2675 13.2468 44.6646 13.4885C44.4117 13.6153 44.1668 13.7559 43.9298 13.9102C43.8654 13.9607 43.8067 14.0169 43.754 14.0789C43.7023 14.1048 43.6516 14.1329 43.6023 14.1632C43.5662 14.1428 43.5317 14.1203 43.4984 14.0957C43.4553 13.9387 43.5085 13.8376 43.6582 13.7921C43.74 13.7151 43.8253 13.642 43.9138 13.5729C44.2345 13.3783 44.57 13.2152 44.9202 13.0838C45.2255 13.0054 45.5342 12.9491 45.8467 12.9151C45.8523 12.6161 45.839 12.3182 45.8068 12.0212C45.7587 11.7676 45.7028 11.5146 45.639 11.2622C45.3002 10.1868 44.6667 9.36603 43.7381 8.79977C42.6109 8.18721 41.4208 7.99605 40.1677 8.22632L40.0799 8.20946C39.8645 7.85847 39.6144 7.53802 39.3291 7.24809C39.0576 7.00375 38.7701 6.7845 38.4664 6.59031C37.825 6.25185 37.1488 6.05508 36.4376 6ZM36.5335 10.4948C36.4004 10.4864 36.2673 10.4836 36.1341 10.4864C36.1324 10.4968 36.1271 10.5052 36.1181 10.5117L35.9105 10.5285C35.8499 10.5494 35.8233 10.5944 35.8306 10.6635C35.8429 10.8077 35.9122 10.8527 36.0383 10.7984C36.2249 10.7844 36.4113 10.7872 36.5974 10.8068C37.2613 10.9512 37.6819 11.3672 37.8594 12.0549C37.9385 12.4344 37.9012 12.8026 37.7476 13.1597C37.7766 13.1988 37.8086 13.2354 37.8434 13.2693C37.8913 13.2918 37.9393 13.2918 37.9872 13.2693C38.048 13.2399 38.1067 13.2062 38.1629 13.1681C39.1096 12.756 40.0815 12.666 41.0783 12.8982L41.1502 12.8814C41.1788 12.8351 41.2054 12.7873 41.23 12.738C41.2096 12.675 41.1724 12.6272 41.1182 12.5946C41.0094 12.5804 40.9029 12.5607 40.7987 12.5356C40.5394 12.5077 40.2786 12.4824 40.016 12.4597C39.6735 12.4846 39.3327 12.524 38.9936 12.5778C38.7059 12.6522 38.4236 12.7421 38.1469 12.8476C38.1722 12.5546 38.1667 12.2622 38.131 11.9706C37.9492 11.3064 37.5551 10.8454 36.9488 10.5876C36.8118 10.5429 36.6733 10.512 36.5335 10.4948ZM42.9553 16.9798C42.9162 16.9654 42.8788 16.9485 42.8435 16.9292C42.8055 16.9584 42.7682 16.9921 42.7317 17.0304C42.7264 17.0698 42.7209 17.1091 42.7157 17.1485C42.7454 17.4235 42.7933 17.6934 42.8594 17.9581C43.066 18.6594 43.4174 19.2666 43.9138 19.7796C44.0143 19.8574 44.1101 19.9418 44.2013 20.0326C44.5964 20.3287 45.0251 20.5536 45.4873 20.7072L45.5272 20.6904C45.6374 20.6018 45.6427 20.5118 45.5432 20.4205C45.393 20.3707 45.2438 20.3144 45.0959 20.2518C43.8361 19.6186 43.1387 18.5673 43.0032 17.0979C42.9933 17.0552 42.9773 17.0158 42.9553 16.9798ZM38.1869 18.464C38.2203 18.2999 38.1591 18.2212 38.0032 18.2279C37.8409 18.2809 37.6757 18.3371 37.5079 18.3966C37.1913 18.5634 36.9038 18.7714 36.6453 19.0206C36.6014 19.0627 36.5694 19.1133 36.5495 19.1724C36.5129 19.1942 36.4809 19.2223 36.4536 19.2567C36.2552 19.5745 36.1089 19.9174 36.0143 20.2856C35.9049 20.904 35.982 21.4943 36.2459 22.0565C36.3667 22.1028 36.4466 22.0635 36.4856 21.9385C36.4153 21.7675 36.3541 21.5933 36.3019 21.4156C36.2848 21.2215 36.2661 21.0275 36.2459 20.8337L36.2939 20.3193C36.3696 19.9795 36.5054 19.6703 36.7012 19.3917C37.0752 18.9285 37.5464 18.6361 38.115 18.5146C38.142 18.5024 38.1659 18.4855 38.1869 18.464ZM47.1087 23.7769C46.9562 23.7403 46.8017 23.7234 46.6454 23.7263C46.6224 23.7721 46.6012 23.8199 46.5815 23.8696C46.5994 23.9044 46.61 23.941 46.6135 23.9792C46.9346 24.0457 47.2541 24.1187 47.572 24.1985C47.8633 24.2992 48.1456 24.4228 48.4186 24.5696C48.6031 24.6976 48.7789 24.8381 48.9458 24.9912C49.0463 25.1334 49.1421 25.2796 49.2333 25.4297C49.2744 25.5277 49.3063 25.6289 49.3292 25.7333C49.3559 25.9661 49.3452 26.1966 49.2972 26.4248C49.2313 26.598 49.1487 26.761 49.0496 26.914C48.9105 27.0609 48.7667 27.2013 48.6183 27.3356C48.5511 27.5068 48.607 27.5827 48.786 27.5633C48.8496 27.4876 48.9242 27.4285 49.0097 27.3862C49.1298 27.2326 49.2522 27.0808 49.3771 26.9308C49.7257 26.3 49.715 25.676 49.3452 25.0587C49.2735 24.9772 49.2018 24.8958 49.1303 24.8144L48.9298 24.5864C48.7851 24.4984 48.6466 24.3999 48.5145 24.2913C48.0697 24.0481 47.6012 23.8767 47.1087 23.7769ZM50.3036 34.2507C50.0734 34.1873 49.8393 34.1591 49.6008 34.1664C49.4228 34.1984 49.2418 34.2377 49.0576 34.2844C48.9361 34.3328 48.8137 34.3779 48.6902 34.4194C48.565 34.4883 48.4424 34.5614 48.3228 34.6386C48.2461 34.7199 48.1608 34.7874 48.0672 34.841C47.5467 35.3721 47.2539 36.0215 47.1886 36.789C47.2009 36.9511 47.2808 37.0044 47.4282 36.9493C47.4466 36.9287 47.4625 36.9063 47.4761 36.8818C47.4966 36.3055 47.6723 35.7882 48.0033 35.3301L48.4346 34.9085C48.5471 34.8543 48.6535 34.7897 48.7541 34.7145C49.2206 34.4932 49.7051 34.4229 50.2078 34.5037C50.2615 34.5028 50.3094 34.486 50.3516 34.4531C50.3792 34.3733 50.3632 34.3059 50.3036 34.2507ZM36.5335 34.7229C36.486 34.4988 36.353 34.3976 36.1341 34.4194C36.0605 34.4691 36.0019 34.5366 35.9584 34.6218C35.9669 34.8913 35.9669 35.1611 35.9584 35.4313C35.9185 35.6029 35.8598 35.766 35.7827 35.9204C35.656 36.0766 35.5177 36.2229 35.3673 36.359C35.1368 36.5087 34.8972 36.6408 34.6485 36.7553C33.752 37.0577 32.8362 37.2208 31.9008 37.2444C30.9072 37.2598 29.9193 37.1952 28.9375 37.0505C28.8773 37.0525 28.8214 37.0694 28.7698 37.1011C28.5797 37.2787 28.5797 37.4585 28.7698 37.6408C28.9029 37.6824 29.0387 37.7106 29.1772 37.7251C29.5538 37.7567 29.9292 37.7933 30.3034 37.8347C30.5174 37.8358 30.7305 37.8469 30.9424 37.8685C31.8122 37.8867 32.6802 37.8334 33.5462 37.7082C34.0379 37.615 34.5172 37.4745 34.9839 37.2866C35.2959 37.1362 35.5887 36.9562 35.8626 36.7469C35.9531 36.6288 36.0542 36.5221 36.1661 36.4264C36.532 35.9196 36.6546 35.3517 36.5335 34.7229ZM35.7827 29.8488H37.1086V31.2318C37.5454 31.2289 37.9819 31.2318 38.4185 31.2402C38.4345 31.7029 38.4398 32.1667 38.4345 32.6317H39.7125V34.0316H38.3866V32.6823C37.9553 32.6851 37.5239 32.6823 37.0926 32.6738L37.0687 32.6485C37.0607 32.1932 37.058 31.7378 37.0607 31.2824C36.6346 31.288 36.2086 31.2824 35.7827 31.2655C35.7615 30.7933 35.7615 30.321 35.7827 29.8488ZM14.6483 29.8824H14.5684C14.4315 30.1062 14.2931 30.331 14.1531 30.557C14.0922 30.6851 14.0336 30.8144 13.9774 30.945C13.9561 31.1867 13.9561 31.4285 13.9774 31.6702C14.0022 32.1865 14.0928 32.6867 14.249 33.1713C14.6491 34.3949 15.4371 35.1903 16.6132 35.5578C17.5011 35.7419 18.3797 35.7054 19.249 35.4482C19.5337 35.3612 19.8159 35.2711 20.0957 35.1784V35.1278H19.3129V33.964H17.987C17.9897 33.5872 17.987 33.2106 17.979 32.834C17.6954 32.8173 17.4105 32.8115 17.1244 32.8171V31.4678H15.7506V30.1017H14.6483V29.8824ZM17.6036 29.9161H18.9295V31.2992H20.2554V32.6653H21.5494V34.0989H20.2075V32.7159H18.8976V31.3329C18.4677 31.3385 18.0391 31.3327 17.6116 31.316C17.6036 30.8495 17.601 30.3828 17.6036 29.9161ZM40.8147 39.4033C40.0371 39.3905 39.2596 39.3707 38.4824 39.3442C38.4757 39.3564 38.4652 39.3648 38.4505 39.3695C37.9499 39.3746 37.4492 39.3857 36.9489 39.4033C35.8465 39.5068 34.7548 39.6812 33.6741 39.9261C33.396 40.0034 33.1271 40.1074 32.8674 40.2381C32.5528 40.4355 32.3905 40.7278 32.3801 41.1152C32.4023 41.3837 32.453 41.648 32.5319 41.9079C32.6439 42.2034 32.7637 42.4957 32.8913 42.7849C33.0619 43.1341 33.2324 43.4827 33.4025 43.8306C33.7929 44.5145 34.171 45.2061 34.5367 45.9052C34.7051 46.2082 34.8808 46.5063 35.0639 46.7991C35.4431 47.4933 35.8425 48.1735 36.262 48.8399C36.3853 49.0834 36.5131 49.3253 36.6454 49.5651C36.7188 49.7537 36.7827 49.9448 36.8371 50.1385C36.8829 50.344 36.9121 50.5521 36.9249 50.7626C36.9569 50.9203 36.9942 51.0776 37.0367 51.2348C37.1481 51.4676 37.3105 51.6475 37.524 51.7746C37.6329 51.8181 37.7395 51.8658 37.8435 51.9179C38.4583 52.0832 39.0387 51.9989 39.5847 51.6649C39.7005 51.5484 39.8043 51.4219 39.8962 51.2854C39.9625 51.0835 39.9837 50.8754 39.9601 50.6614C39.9202 50.4814 39.8748 50.3015 39.8243 50.1217C39.7497 49.9105 39.6831 49.697 39.6246 49.4808C39.5056 49.1492 39.3833 48.8174 39.2572 48.4857C38.7404 47.4717 38.216 46.4653 37.6837 45.4666C37.592 45.3012 37.4962 45.1381 37.3962 44.9775C37.2818 44.7314 37.154 44.4926 37.0128 44.2607C36.8821 44.0052 36.7597 43.7466 36.6454 43.4849C36.6142 43.3722 36.5795 43.2626 36.5415 43.156C36.4709 42.9134 36.5056 42.6886 36.6454 42.4813C36.8695 42.2708 37.1251 42.2147 37.4121 42.3127C37.8727 42.4845 38.3412 42.625 38.8179 42.7343C39.4232 42.8686 40.0302 42.8799 40.639 42.7681C40.8569 42.7176 41.0753 42.6697 41.294 42.6247C41.5991 42.506 41.9053 42.385 42.2125 42.2621C42.309 42.2881 42.3863 42.3442 42.4442 42.4307C42.5296 42.6296 42.4817 42.7814 42.3004 42.8861C41.1323 43.4498 39.913 43.6045 38.6422 43.3499C38.1399 43.2106 37.642 43.0615 37.1486 42.903C37.1246 42.917 37.1059 42.9367 37.0926 42.962C37.1367 43.0566 37.1714 43.155 37.1965 43.2572C37.6013 44.0907 38.0352 44.9058 38.4984 45.7028C38.5152 45.7677 38.5392 45.8296 38.5703 45.8883C38.7005 46.1057 38.8283 46.325 38.9537 46.5461C39.3328 46.2197 39.7694 46.0679 40.2636 46.0907C40.6921 46.1224 41.1207 46.128 41.5496 46.1075C41.8449 46.0618 42.1379 46.0028 42.4282 45.9305C43.0204 45.7136 43.5847 45.4324 44.1215 45.0871C44.267 44.9758 44.4108 44.8606 44.5528 44.7414C44.741 44.6216 44.9114 44.4754 45.064 44.3029C45.094 44.2796 45.126 44.26 45.1599 44.2438C45.403 43.9843 45.6319 43.7117 45.8468 43.4258C46.1471 42.9991 46.3893 42.538 46.5736 42.0428C46.6838 41.7504 46.7397 41.4468 46.7413 41.132C46.7651 40.7593 46.6533 40.4389 46.4059 40.1707C46.1581 39.9946 45.8865 39.8794 45.5912 39.8249C45.2009 39.7728 44.8122 39.7222 44.425 39.6731C43.2244 39.5733 42.021 39.4832 40.8147 39.4033Z" fill="white"/>
<path d="M13.443 71L10.443 58.12H14.123L15.583 64.94L17.003 60.06V58.12H20.083L22.043 64.96L23.583 58.12H27.263L24.283 71H20.883L18.943 64.34L16.843 71H13.443ZM28.8055 71V58.12H32.5655V71H28.8055ZM37.3419 71V60.92H33.7219V58.12H44.7219V60.92H41.1019V71H37.3419ZM50.0833 71.2C49.2166 71.2 48.3966 71.1333 47.6233 71C46.8499 70.8533 46.1899 70.6533 45.6433 70.4V67.3C46.2433 67.58 46.9099 67.8067 47.6433 67.98C48.3766 68.1533 49.0633 68.24 49.7033 68.24C50.3699 68.24 50.8699 68.1867 51.2033 68.08C51.5499 67.96 51.7233 67.7 51.7233 67.3C51.7233 67.02 51.6233 66.8 51.4233 66.64C51.2366 66.48 50.9366 66.3333 50.5233 66.2C50.1233 66.0667 49.5966 65.9 48.9433 65.7C48.0766 65.42 47.3899 65.1133 46.8833 64.78C46.3766 64.4467 46.0099 64.04 45.7833 63.56C45.5699 63.08 45.4633 62.4933 45.4633 61.8C45.4633 60.5333 45.9099 59.5733 46.8033 58.92C47.7099 58.2533 49.0499 57.92 50.8233 57.92C51.5299 57.92 52.2566 57.98 53.0033 58.1C53.7633 58.22 54.3766 58.3533 54.8433 58.5V61.62C54.2166 61.3667 53.6166 61.1867 53.0433 61.08C52.4699 60.9733 51.9299 60.92 51.4233 60.92C50.8366 60.92 50.3366 60.9667 49.9233 61.06C49.5099 61.1533 49.3033 61.3933 49.3033 61.78C49.3033 62.1133 49.4766 62.36 49.8233 62.52C50.1833 62.6667 50.8166 62.86 51.7233 63.1C52.7766 63.38 53.5766 63.72 54.1233 64.12C54.6833 64.52 55.0633 64.9867 55.2633 65.52C55.4633 66.04 55.5633 66.6333 55.5633 67.3C55.5633 68.4733 55.1099 69.42 54.2033 70.14C53.2966 70.8467 51.9233 71.2 50.0833 71.2Z" fill="white"/>
</svg>
