<svg width="150" height="220" viewBox="0 0 150 220" fill="none" xmlns="http://www.w3.org/2000/svg">
<path fill-rule="evenodd" clip-rule="evenodd" d="M74.645 150.794L17.8369 128.309C19.4569 149.649 20.2993 171.681 20.0617 192.353C20.0617 192.914 20.3857 193.368 20.8825 193.627L72.5282 218.899C73.2194 219.245 73.9322 219.396 74.6234 219.396C75.3146 219.396 76.049 219.223 76.7186 218.899L128.364 193.627C128.861 193.389 129.185 192.914 129.185 192.353C128.948 171.681 129.79 149.649 131.41 128.309L74.6018 150.794H74.645Z" fill="#7C21DC"/>
<g opacity="0.5">
<path fill-rule="evenodd" clip-rule="evenodd" d="M74.645 150.79L17.8369 128.305C19.4569 149.645 20.2993 171.677 20.0617 192.349C20.0617 192.91 20.3857 193.364 20.8825 193.623L72.5282 218.895C73.2194 219.241 73.9322 219.392 74.6234 219.392V150.79H74.645Z" fill="url(#paint0_radial_1743_16883)"/>
</g>
<path fill-rule="evenodd" clip-rule="evenodd" d="M74.6445 150.794L131.453 128.309C129.833 149.649 128.99 171.681 129.228 192.353C129.228 192.914 128.904 193.368 128.407 193.627L76.7613 218.899C76.0701 219.245 75.3573 219.396 74.6661 219.396V150.794H74.6445Z" fill="url(#paint1_radial_1743_16883)"/>
<path fill-rule="evenodd" clip-rule="evenodd" d="M74.645 150.794L17.8369 128.309C19.4569 149.649 20.2993 171.681 20.0617 192.353C20.0617 192.914 20.3857 193.368 20.8825 193.627L72.5282 218.899C73.2194 219.245 73.9322 219.396 74.6234 219.396V150.794H74.645Z" fill="url(#paint2_radial_1743_16883)"/>
<path style="mix-blend-mode:multiply" fill-rule="evenodd" clip-rule="evenodd" d="M130.242 147.381C119.896 147.446 88.4459 157.382 74.665 166.994V150.794L131.473 128.309L130.264 147.381H130.242Z" fill="url(#paint3_radial_1743_16883)"/>
<path style="mix-blend-mode:multiply" opacity="0.8" fill-rule="evenodd" clip-rule="evenodd" d="M18.8953 143.774C31.0993 145.589 59.0066 157.771 74.645 166.994V150.794L17.8369 128.309L18.8953 143.774Z" fill="url(#paint4_radial_1743_16883)"/>
<path fill-rule="evenodd" clip-rule="evenodd" d="M16.0227 117.507L16.6491 135.781C16.6491 136.364 17.0163 136.861 17.5563 137.099L73.3708 160.189C74.2132 160.535 75.0556 160.535 75.898 160.189L131.712 137.099C132.252 136.883 132.598 136.386 132.62 135.781L133.246 117.507C133.246 117.011 132.965 116.579 132.49 116.427L75.682 97.2251C74.9692 96.9875 74.278 96.9875 73.5652 97.2251L16.7571 116.427C16.2819 116.579 15.9795 117.011 16.0011 117.507H16.0227Z" fill="#8D48EB"/>
<path fill-rule="evenodd" clip-rule="evenodd" d="M16.6703 135.748C16.6919 136.331 17.0375 136.828 17.5775 137.044L73.3921 160.135C73.8241 160.307 74.2345 160.394 74.6665 160.394V139.874L16.2815 116.762C16.1303 116.956 16.0439 117.215 16.0439 117.475L16.6703 135.748Z" fill="url(#paint5_radial_1743_16883)"/>
<path style="mix-blend-mode:screen" opacity="0.4" fill-rule="evenodd" clip-rule="evenodd" d="M16.6719 135.754C16.6935 136.337 17.0391 136.834 17.5791 137.05L73.3936 160.14C73.8256 160.313 74.236 160.4 74.668 160.4C70.0888 158.456 52.5928 150.572 38.8767 144.999C27.5799 140.398 21.7911 138.476 19.0479 137.288C16.6503 136.272 16.6719 135.754 16.6719 135.754Z" fill="url(#paint6_radial_1743_16883)"/>
<path fill-rule="evenodd" clip-rule="evenodd" d="M16.2598 116.767L74.6447 139.879L133.03 116.767C132.9 116.595 132.727 116.465 132.511 116.4L75.7031 97.1977C74.9903 96.9601 74.2991 96.9601 73.5863 97.1977L16.7782 116.4C16.5622 116.465 16.3894 116.595 16.2598 116.767Z" fill="url(#paint7_radial_1743_16883)"/>
<path fill-rule="evenodd" clip-rule="evenodd" d="M16.0227 117.507L16.6491 135.781C16.6491 136.364 17.0163 136.861 17.5563 137.099L73.3708 160.189C74.2132 160.535 75.0556 160.535 75.898 160.189L131.712 137.099C132.252 136.883 132.598 136.386 132.62 135.781L133.246 117.507C133.246 117.011 132.965 116.579 132.49 116.427L75.682 97.2251C74.9692 96.9875 74.278 96.9875 73.5652 97.2251L16.7571 116.427C16.2819 116.579 15.9795 117.011 16.0011 117.507H16.0227Z" fill="url(#paint8_radial_1743_16883)"/>
<path fill-rule="evenodd" clip-rule="evenodd" d="M74.6446 139.874V160.394C75.055 160.394 75.487 160.307 75.8974 160.135L131.712 137.044C132.252 136.807 132.598 136.331 132.619 135.748L133.246 117.475C133.246 117.194 133.159 116.956 133.008 116.762L74.623 139.874H74.6446Z" fill="url(#paint9_radial_1743_16883)"/>
<path style="mix-blend-mode:screen" opacity="0.2" fill-rule="evenodd" clip-rule="evenodd" d="M52.505 131.105C55.3778 132.423 72.3122 139.681 73.2626 141.106C74.1482 142.402 74.4938 154.217 74.645 156.615C74.7962 154.196 75.1418 142.251 76.0058 140.955C76.913 139.573 88.7283 134.497 91.0395 133.395C88.5987 134.259 76.157 139.011 74.6234 139.011C72.917 139.011 55.5722 132.25 52.4834 131.127L52.505 131.105Z" fill="url(#paint10_radial_1743_16883)"/>
<path style="mix-blend-mode:multiply" opacity="0.3" fill-rule="evenodd" clip-rule="evenodd" d="M16.6706 135.749C17.621 131.969 17.3618 120.5 18.2474 119.917C19.0034 119.441 40.8626 126.98 47.645 129.183C42.5906 126.958 19.5218 117.692 19.5218 116.979C19.5218 116.093 41.0354 108.296 43.325 107.41L16.7786 116.374C16.3034 116.525 16.001 116.957 16.0226 117.454L16.649 135.728L16.6706 135.749Z" fill="url(#paint11_radial_1743_16883)"/>
<path fill-rule="evenodd" clip-rule="evenodd" d="M75.2293 114.243C67.6693 108.951 63.8029 106.964 55.0333 103.853C54.3853 103.637 53.7588 103.4 53.1108 103.184C52.4628 102.946 51.7933 102.881 51.1668 103.184C47.3436 104.976 43.3476 106.251 39.2652 107.309C38.898 107.417 38.6604 107.784 38.682 108.173C38.682 108.454 38.682 108.735 38.682 109.016C38.8764 108.951 39.0708 108.886 39.2652 108.821C39.7836 109.016 40.3236 109.21 40.842 109.426C50.454 113.12 60.6925 115.28 70.9525 116.792C72.3781 115.949 73.8037 115.107 75.2293 114.264V114.243Z" fill="url(#paint12_linear_1743_16883)"/>
<path fill-rule="evenodd" clip-rule="evenodd" d="M42.1386 108.853C51.9666 112.698 61.6651 114.555 72.0979 116.089C71.7091 116.305 71.3419 116.543 70.9531 116.759C60.7147 115.247 50.4762 113.087 40.8426 109.393C40.3242 109.199 39.7842 109.004 39.2658 108.788C39.0714 108.853 38.877 108.918 38.6826 108.983C38.6826 108.702 38.6826 108.421 38.6826 108.14C38.7042 107.708 39.1794 107.687 39.849 107.946L42.1386 108.853Z" fill="url(#paint13_radial_1743_16883)"/>
<path fill-rule="evenodd" clip-rule="evenodd" d="M74.0635 114.216C81.6235 108.924 85.4899 106.936 94.2595 103.826C94.9075 103.61 95.5339 103.372 96.1819 103.156C96.8299 102.919 97.4995 102.854 98.1259 103.156C101.949 104.949 105.945 106.224 110.028 107.282C110.395 107.39 110.632 107.757 110.611 108.146C110.611 108.427 110.611 108.708 110.611 108.988C110.416 108.924 110.222 108.859 110.028 108.794C109.509 108.988 108.969 109.183 108.451 109.399C98.8387 113.092 88.6003 115.252 78.3403 116.764C76.9147 115.922 75.4891 115.08 74.0635 114.237V114.216Z" fill="url(#paint14_linear_1743_16883)"/>
<path fill-rule="evenodd" clip-rule="evenodd" d="M107.156 108.837C97.3275 112.682 87.6291 114.54 77.1963 116.073L78.3411 116.743C88.5795 115.231 98.8179 113.071 108.452 109.377C108.97 109.183 109.51 108.989 110.028 108.773C110.223 108.837 110.417 108.902 110.612 108.967C110.612 108.686 110.612 108.405 110.612 108.125C110.59 107.693 110.115 107.671 109.445 107.93L107.156 108.837Z" fill="url(#paint15_radial_1743_16883)"/>
<path fill-rule="evenodd" clip-rule="evenodd" d="M51.2531 150.977L52.0739 151.323C52.0739 151.668 52.0739 151.927 51.4691 152.014L50.2811 152.187C50.1083 152.23 49.9355 152.187 49.7843 152.143L36.9106 146.592C36.0034 146.203 36.0034 145.599 35.9818 144.691L35.5066 125.964C35.485 125.208 35.917 124.56 36.6298 124.301L40.0642 123.048C49.8707 119.441 58.8563 117.065 69.3755 115.488L75.0131 117.238C71.1467 122.119 61.7723 126.331 54.0395 129.312L52.1171 130.133C51.4475 130.414 51.0371 131.019 51.0371 131.731L51.2099 150.999L51.2531 150.977Z" fill="url(#paint16_linear_1743_16883)"/>
<path fill-rule="evenodd" clip-rule="evenodd" d="M51.2545 150.986L51.0817 131.719C51.0817 131.006 51.5137 130.402 52.1617 130.121L54.0841 129.3C61.7954 126.319 71.1914 122.129 75.0578 117.226L74.453 117.031C69.3338 122.647 58.4473 126.622 50.9521 129.473C50.1313 129.775 49.6777 130.79 49.6777 131.654C49.6777 136.471 49.7857 143.383 49.9801 151.138C49.9801 151.57 49.8073 152.239 50.9737 152.066L51.4921 152.002C52.0969 151.915 52.0969 151.656 52.0969 151.31L51.2761 150.965L51.2545 150.986Z" fill="url(#paint17_radial_1743_16883)"/>
<path fill-rule="evenodd" clip-rule="evenodd" d="M98.0384 151.02L97.2176 151.366C97.2176 151.711 97.2176 151.97 97.8224 152.057L99.0104 152.23C99.1832 152.273 99.356 152.23 99.5072 152.186L112.381 146.635C113.288 146.246 113.288 145.642 113.31 144.734L113.785 126.007C113.806 125.251 113.374 124.603 112.662 124.344L109.227 123.091C99.4208 119.484 90.4352 117.108 79.9159 115.531L74.2783 117.281C78.1447 122.162 87.5191 126.374 95.252 129.355L97.1744 130.176C97.844 130.457 98.2544 131.062 98.2544 131.774L98.0816 151.042L98.0384 151.02Z" fill="url(#paint18_linear_1743_16883)"/>
<path fill-rule="evenodd" clip-rule="evenodd" d="M98.0386 151.026L98.2114 131.758C98.2114 131.046 97.7794 130.441 97.1314 130.16L95.209 129.339C87.4978 126.358 78.1018 122.168 74.2354 117.265L74.8401 117.07C79.9594 122.686 90.8458 126.661 98.341 129.512C99.1618 129.814 99.6154 130.83 99.6154 131.694C99.6154 136.51 99.5074 143.422 99.313 151.177C99.313 151.609 99.4858 152.278 98.3194 152.106L97.801 152.041C97.1962 151.954 97.1962 151.695 97.1962 151.35L98.017 151.004L98.0386 151.026Z" fill="url(#paint19_radial_1743_16883)"/>
<path style="mix-blend-mode:screen" fill-rule="evenodd" clip-rule="evenodd" d="M90.4785 126.445C91.8177 126.834 95.8137 128.217 98.1681 129.232C99.4209 129.772 99.8961 130.528 99.8745 132.256C99.8097 135.388 99.7017 141.695 99.5073 143.293C99.4425 141.781 99.3993 135.323 99.3129 132.256C99.2697 130.83 99.0105 130.29 97.9737 129.685C95.9217 128.476 91.8393 127.072 90.4785 126.445Z" fill="url(#paint20_radial_1743_16883)"/>
<path style="mix-blend-mode:screen" fill-rule="evenodd" clip-rule="evenodd" d="M58.8352 126.418C57.496 126.807 53.5 128.189 51.1456 129.204C49.8928 129.744 49.4176 130.5 49.4392 132.228C49.504 135.36 49.7632 143.244 49.9792 151.15C49.9144 142.164 49.9144 135.274 49.9792 132.228C50.0224 130.803 50.2816 130.263 51.3184 129.658C53.3704 128.448 57.4528 127.044 58.8136 126.418H58.8352Z" fill="url(#paint21_radial_1743_16883)"/>
<g opacity="0.75">
<g style="mix-blend-mode:screen">
<path d="M36.6979 125.514C36.6979 125.514 36.6331 125.666 36.5467 125.666C36.4603 125.666 36.3955 125.601 36.3955 125.514C36.3955 125.428 36.4603 125.363 36.5467 125.363C36.6331 125.363 36.6979 125.428 36.6979 125.514Z" fill="#745CFF"/>
</g>
<g style="mix-blend-mode:screen">
<path d="M36.9339 125.51C36.9339 125.726 36.7611 125.899 36.5451 125.899C36.3291 125.899 36.1562 125.726 36.1562 125.51C36.1562 125.294 36.3291 125.121 36.5451 125.121C36.7611 125.121 36.9339 125.294 36.9339 125.51Z" fill="#A197FF"/>
</g>
</g>
<path fill-rule="evenodd" clip-rule="evenodd" d="M92.2512 91.1831C92.5104 99.9959 87.3048 105.763 81.1488 109.694C79.8096 111.638 78.4919 113.561 77.2607 115.44C83.568 114.252 91.8192 112.869 98.2992 109.781C102.187 107.945 106.097 104.424 108.019 99.9311C110.201 94.8551 109.596 88.3103 104.952 87.1655C104.585 87.1007 104.218 87.0359 103.85 86.9711C103.656 86.9711 103.483 86.9495 103.289 86.9279C98.2344 86.6471 94.908 88.7207 92.2728 91.1831H92.2512Z" fill="url(#paint22_linear_1743_16883)"/>
<path fill-rule="evenodd" clip-rule="evenodd" d="M73.2218 113.764L77.2178 115.341C81.1706 109.552 85.1666 103.828 89.3786 98.2336C93.7202 92.488 97.6514 86.548 104.239 86.44C98.7962 85.6624 94.5626 84.2368 90.1346 82.4224C86.333 80.8672 83.309 82.5952 81.1706 87.9952C77.8658 96.3112 75.4034 105.102 73.2002 113.764H73.2218Z" fill="url(#paint23_linear_1743_16883)"/>
<path d="M76.8062 115.162C80.4998 109.589 84.3662 104.081 88.427 98.7459C92.1854 93.8211 98.2334 83.6475 105.945 86.9523C109.962 88.6587 110.2 94.0803 109.293 97.7307C108.515 100.884 106.765 103.692 104.497 105.982C98.2118 112.354 87.1526 114.147 78.707 115.702L76.1582 116.177L76.8278 115.162H76.8062ZM77.303 115.227C86.3318 113.131 100.156 111.231 105.534 102.526C108.58 97.6011 109.897 90.9267 105.297 88.3779C99.8319 85.3539 92.9414 94.9227 89.5718 99.3507C85.7702 104.34 81.5366 110.388 77.303 115.248V115.227Z" fill="url(#paint24_radial_1743_16883)"/>
<path fill-rule="evenodd" clip-rule="evenodd" d="M76.3955 111.748C76.9355 112.633 77.8211 112.806 78.0371 113.433C78.2747 114.189 77.9291 116.089 76.9139 116.737C78.0155 116.565 80.8883 116.241 81.5579 115.182C82.0979 114.318 82.2275 111.921 80.9531 111.121C80.1755 110.625 79.8299 111.208 78.8147 111.402C77.9291 111.575 76.9787 111.726 76.4171 111.769L76.3955 111.748Z" fill="url(#paint25_linear_1743_16883)"/>
<path fill-rule="evenodd" clip-rule="evenodd" d="M54.3868 115.415C59.1388 128.051 69.0317 119.973 77.6069 115.523L73.2869 113.73C67.6061 115.329 59.9812 115.998 54.3652 115.415H54.3868Z" fill="url(#paint26_linear_1743_16883)"/>
<path fill-rule="evenodd" clip-rule="evenodd" d="M47.9932 93.6041C50.6068 93.0425 51.7084 93.3449 54.9052 94.6841C57.994 95.9801 60.6724 97.1897 63.8908 98.0753C67.2388 99.0257 68.578 99.1121 70.2196 100.991C71.2564 102.179 72.0772 103.67 72.8116 105.182C74.41 108.4 75.9652 111.294 78.0388 114.254C77.9524 114.707 77.8876 115.182 77.8012 115.636C75.3388 114.837 73.4164 114.016 71.3644 112.634C66.8068 109.566 63.5236 104.922 59.9596 100.84C57.5404 98.0753 54.9484 95.7209 50.8876 94.1873C49.8508 93.7985 48.8788 93.6041 47.9932 93.6041Z" fill="url(#paint27_linear_1743_16883)"/>
<path fill-rule="evenodd" clip-rule="evenodd" d="M67.9058 98.9211C64.5794 99.1155 62.9594 100.347 60.1946 103.349C57.7106 106.071 55.6802 109.721 55.2482 113.436C54.881 116.633 55.8098 119.7 58.877 122.012C53.6498 119.614 48.617 117.368 42.7202 115.64C41.6618 115.164 40.733 114.516 39.977 113.739C32.5034 106.114 41.381 92.6571 51.0146 92.9379C51.5762 92.9379 52.1162 93.0027 52.5914 93.2187C57.4946 95.4651 61.9874 97.4091 67.9058 98.9427V98.9211Z" fill="url(#paint28_linear_1743_16883)"/>
<path fill-rule="evenodd" clip-rule="evenodd" d="M66.7615 99.8902C68.6839 99.7606 70.0879 101.381 70.8223 102.569C72.0103 104.448 72.8959 106.5 73.9327 108.465C74.9695 110.431 76.4815 112.591 77.7775 114.405L77.5831 115.097C75.6391 116.241 73.4359 117.537 71.4703 118.661C69.2887 119.892 66.6319 121.058 64.1911 121.62C61.6423 122.203 58.7911 121.728 57.1279 119.352C54.8167 116.025 56.3935 110.971 58.1431 107.753C59.2015 105.83 60.6487 103.649 62.3119 102.201C63.4999 101.143 65.1631 100.041 66.8047 99.9334L66.7615 99.8902ZM66.5455 98.8102C59.9791 99.2422 51.4038 113.066 56.0911 119.741C56.7607 120.691 57.6463 121.447 58.7047 121.944C60.2383 122.678 62.1607 122.873 64.3639 122.397C68.8567 121.425 73.8463 117.948 77.7991 115.658L78.2959 114.125C75.8767 110.82 73.5655 105.787 71.5567 102.18C70.5847 100.43 69.3319 99.2638 67.8415 98.9182C67.4311 98.8318 66.9991 98.7886 66.5671 98.8102H66.5455Z" fill="url(#paint29_radial_1743_16883)"/>
<path style="mix-blend-mode:screen" fill-rule="evenodd" clip-rule="evenodd" d="M65.0774 99.0938C58.5974 102.377 54.7094 110.023 54.9686 117.087C53.6942 111.017 58.0574 101.491 65.0774 99.0938Z" fill="url(#paint30_radial_1743_16883)"/>
<path style="mix-blend-mode:screen" fill-rule="evenodd" clip-rule="evenodd" d="M81.4072 108.382C85.5976 101.859 93.6976 88.4022 99.7673 86.9766C92.8552 91.1886 86.4832 101.794 81.4072 108.382Z" fill="url(#paint31_radial_1743_16883)"/>
<mask id="mask0_1743_16883" style="mask-type:luminance" maskUnits="userSpaceOnUse" x="76" y="86" width="34" height="31">
<path d="M76.8082 115.154C80.5018 109.581 84.3682 104.073 88.429 98.7381C92.1874 93.8133 98.2354 83.6397 105.947 86.9445C109.964 88.6509 110.202 94.0725 109.295 97.7229C108.517 100.876 106.767 103.684 104.499 105.974C98.2138 112.346 87.1546 114.139 78.709 115.694L76.1602 116.169L76.8298 115.154H76.8082ZM77.305 115.219C86.3338 113.124 100.158 111.223 105.536 102.518C108.582 97.5933 109.899 90.9189 105.299 88.3701C99.8338 85.3461 92.9434 94.9149 89.5738 99.3429C85.7722 104.332 81.5386 110.38 77.305 115.24V115.219Z" fill="white"/>
</mask>
<g mask="url(#mask0_1743_16883)">
<g style="mix-blend-mode:screen">
<g style="mix-blend-mode:screen">
<path d="M97.5655 88.0386C97.5655 88.1898 97.4359 88.3194 97.2847 88.3194C97.1335 88.3194 97.0039 88.1898 97.0039 88.0386C97.0039 87.8874 97.1335 87.7578 97.2847 87.7578C97.4359 87.7578 97.5655 87.8874 97.5655 88.0386Z" fill="#6083BA"/>
</g>
<g style="mix-blend-mode:screen">
<path d="M97.9742 88.031C97.9742 88.4198 97.6718 88.7223 97.283 88.7223C96.8942 88.7223 96.5918 88.4198 96.5918 88.031C96.5918 87.6422 96.8942 87.3398 97.283 87.3398C97.6718 87.3398 97.9742 87.6422 97.9742 88.031Z" fill="#A0AFC6"/>
</g>
</g>
<g style="mix-blend-mode:screen">
<g style="mix-blend-mode:screen">
<path d="M105.644 109.464C105.644 109.616 105.514 109.745 105.363 109.745C105.212 109.745 105.082 109.616 105.082 109.464C105.082 109.313 105.212 109.184 105.363 109.184C105.514 109.184 105.644 109.313 105.644 109.464Z" fill="#A0AFC6"/>
</g>
<g style="mix-blend-mode:screen">
<path d="M106.053 109.465C106.053 109.853 105.751 110.156 105.362 110.156C104.973 110.156 104.671 109.853 104.671 109.465C104.671 109.076 104.973 108.773 105.362 108.773C105.751 108.773 106.053 109.076 106.053 109.465Z" fill="#A0AFC6"/>
</g>
</g>
</g>
<mask id="mask1_1743_16883" style="mask-type:luminance" maskUnits="userSpaceOnUse" x="54" y="98" width="25" height="25">
<path d="M66.7615 99.8902C68.6839 99.7606 70.0879 101.381 70.8223 102.569C72.0103 104.448 72.8959 106.5 73.9327 108.465C74.9695 110.431 76.4815 112.591 77.7775 114.405L77.5831 115.097C75.6391 116.241 73.4359 117.537 71.4703 118.661C69.2887 119.892 66.6319 121.058 64.1911 121.62C61.6423 122.203 58.7911 121.728 57.1279 119.352C54.8167 116.025 56.3935 110.971 58.1431 107.753C59.2015 105.83 60.6487 103.649 62.3119 102.201C63.4999 101.143 65.1631 100.041 66.8047 99.9334L66.7615 99.8902ZM66.5455 98.8102C59.9791 99.2422 51.4038 113.066 56.0911 119.741C56.7607 120.691 57.6463 121.447 58.7047 121.944C60.2383 122.678 62.1607 122.873 64.3639 122.397C68.8567 121.425 73.8463 117.948 77.7991 115.658L78.2959 114.125C75.8767 110.82 73.5655 105.787 71.5567 102.18C70.5847 100.43 69.3319 99.2638 67.8415 98.9182C67.4311 98.8318 66.9991 98.7886 66.5671 98.8102H66.5455Z" fill="white"/>
</mask>
<g mask="url(#mask1_1743_16883)">
<g style="mix-blend-mode:screen">
<g style="mix-blend-mode:screen">
<path d="M55.7241 103.784C55.8672 103.784 55.9832 103.668 55.9832 103.525C55.9832 103.382 55.8672 103.266 55.7241 103.266C55.5809 103.266 55.4648 103.382 55.4648 103.525C55.4648 103.668 55.5809 103.784 55.7241 103.784Z" fill="#A0AFC6"/>
</g>
<g style="mix-blend-mode:screen">
<path d="M55.7242 104.179C56.0821 104.179 56.3722 103.889 56.3722 103.531C56.3722 103.173 56.0821 102.883 55.7242 102.883C55.3663 102.883 55.0762 103.173 55.0762 103.531C55.0762 103.889 55.3663 104.179 55.7242 104.179Z" fill="#A0AFC6"/>
</g>
</g>
</g>
<path style="mix-blend-mode:screen" opacity="0.75" d="M90.6514 112.033C97.7578 109.679 105.296 105.813 107.694 97.7773C107.132 100.629 104.843 108.599 90.6514 112.033Z" fill="url(#paint32_radial_1743_16883)"/>
<path fill-rule="evenodd" clip-rule="evenodd" d="M78.3385 113.107C78.2305 112.675 77.7985 112.459 77.1505 112.395C77.3017 112.632 77.4529 112.87 77.6041 113.107C77.8849 113.237 77.4961 115.721 77.2801 115.915C77.2369 115.959 77.1937 115.98 77.1289 115.98C76.7185 116.218 76.2865 116.477 75.8545 116.736C75.9193 116.736 75.9409 116.736 75.9625 116.736C76.4809 116.736 77.3233 116.758 77.7337 116.347C78.0145 116.067 78.1873 115.548 78.2737 114.987C78.3601 114.317 78.4249 113.453 78.3169 113.064L78.3385 113.107Z" fill="url(#paint33_radial_1743_16883)"/>
<g opacity="0.75">
<g style="mix-blend-mode:screen">
<path d="M98.1476 87.9678C98.1476 87.9678 98.0612 88.1622 97.9532 88.1622C97.8452 88.1622 97.7588 88.0758 97.7588 87.9678C97.7588 87.8598 97.8452 87.7734 97.9532 87.7734C98.0612 87.7734 98.1476 87.8598 98.1476 87.9678Z" fill="#E8C169"/>
</g>
<g style="mix-blend-mode:screen">
<path d="M97.9529 88.4584C98.2272 88.4584 98.4497 88.236 98.4497 87.9616C98.4497 87.6873 98.2272 87.4648 97.9529 87.4648C97.6785 87.4648 97.4561 87.6873 97.4561 87.9616C97.4561 88.236 97.6785 88.4584 97.9529 88.4584Z" fill="#A0AFC6"/>
</g>
</g>
<g style="mix-blend-mode:screen">
<path fill-rule="evenodd" clip-rule="evenodd" d="M89.3779 83.0215C90.8683 83.2159 92.3803 83.4967 93.8491 83.8207C92.6179 83.3887 91.3867 82.9135 90.1555 82.3951C86.3539 80.8399 83.3299 82.5679 81.1915 87.9679C79.9171 91.1647 78.7723 94.4479 77.7139 97.7527C79.0531 94.4047 80.9323 89.8471 82.6171 86.8231C84.1075 84.1231 86.2675 82.6111 89.3995 82.9999L89.3779 83.0215Z" fill="url(#paint34_radial_1743_16883)"/>
<path fill-rule="evenodd" clip-rule="evenodd" d="M60.368 96.5172C57.7112 95.502 55.2056 94.4004 52.592 93.1908C52.1168 92.9748 51.5768 92.9316 51.0152 92.91C42.2239 92.6724 34.0591 103.861 38.3791 111.594C36.2407 105.373 39.3943 98.4396 45.8096 95.5668C48.7688 94.2492 52.2248 94.206 56.2208 95.2428C57.5816 95.5884 59.0072 96.0636 60.3896 96.4956L60.368 96.5172Z" fill="url(#paint35_radial_1743_16883)"/>
</g>
<path fill-rule="evenodd" clip-rule="evenodd" d="M77.5616 115.46C77.7776 115.546 78.0152 115.633 78.2312 115.719C88.9665 108.181 98.8593 105.61 113.677 111.291C113.936 109.93 114.217 107.662 114.152 105.653C116.204 104.897 118.515 103.925 120.438 102.802C116.55 101.139 111.387 99.7782 105.166 100.448C95.3601 101.485 83.6097 108.418 77.54 115.46H77.5616Z" fill="url(#paint36_linear_1743_16883)"/>
<path fill-rule="evenodd" clip-rule="evenodd" d="M78.8564 116.125C87.734 109.429 98.7717 106.578 113.028 112.518C113.222 112.258 113.568 111.589 113.697 111.286C98.8581 105.606 88.9869 108.176 78.2516 115.714C78.0356 115.628 77.798 115.542 77.582 115.455C77.798 115.542 78.6404 116.038 78.8564 116.125Z" fill="url(#paint37_radial_1743_16883)"/>
<path fill-rule="evenodd" clip-rule="evenodd" d="M114.175 105.672C114.175 105.974 114.175 106.298 114.175 106.6C116.205 105.931 118.581 105.132 120.46 104.095V102.82C118.538 103.944 116.227 104.916 114.175 105.672Z" fill="url(#paint38_radial_1743_16883)"/>
<path fill-rule="evenodd" clip-rule="evenodd" d="M82.3791 115.612C77.0655 115.439 72.9614 115.072 68.5766 114.467C67.9502 114.38 67.4102 114.467 66.827 114.683C62.9822 116.303 60.8654 123.647 60.2822 127.211C60.455 127.751 60.5846 128.053 60.779 128.507C64.6238 127.189 68.2742 126.239 72.2054 125.699C75.9206 126.973 79.3335 128.874 82.7679 130.753C82.9407 130.472 83.1135 129.911 83.2647 129.457C83.9559 125.936 84.4959 120.428 83.9343 117.296C83.6967 116 83.4375 115.633 82.4007 115.612H82.3791Z" fill="url(#paint39_radial_1743_16883)"/>
<path fill-rule="evenodd" clip-rule="evenodd" d="M82.8328 114.072C77.3248 113.9 73.0912 113.511 68.5336 112.884C67.8856 112.798 67.324 112.884 66.7192 113.122C61.9887 115.109 60.5631 124.721 60.2607 127.205C64.2351 125.844 68.2528 124.786 72.3136 124.224C76.1584 125.542 79.7008 127.508 83.2432 129.452C83.9992 125.931 85.1008 119.537 84.4096 115.822C84.172 114.483 83.8912 114.094 82.8328 114.072Z" fill="url(#paint40_linear_1743_16883)"/>
<defs>
<radialGradient id="paint0_radial_1743_16883" cx="0" cy="0" r="1" gradientUnits="userSpaceOnUse" gradientTransform="translate(26.5417 207.987) scale(69.6601 69.66)">
<stop stop-color="#BF50ED"/>
<stop offset="1" stop-color="#9B20C7"/>
</radialGradient>
<radialGradient id="paint1_radial_1743_16883" cx="0" cy="0" r="1" gradientUnits="userSpaceOnUse" gradientTransform="translate(56.5147 75.7634) scale(100.152 173.687)">
<stop stop-color="#9651F2"/>
<stop offset="1" stop-color="#6925CE"/>
</radialGradient>
<radialGradient id="paint2_radial_1743_16883" cx="0" cy="0" r="1" gradientUnits="userSpaceOnUse" gradientTransform="translate(19.1209 142.829) scale(109.695 92.166)">
<stop stop-color="#B680FF"/>
<stop offset="1" stop-color="#944DFF"/>
</radialGradient>
<radialGradient id="paint3_radial_1743_16883" cx="0" cy="0" r="1" gradientUnits="userSpaceOnUse" gradientTransform="translate(148.904 296.681) scale(171.958 171.958)">
<stop offset="0.89" stop-color="white"/>
<stop offset="0.9" stop-color="#E8D1F2"/>
<stop offset="0.91" stop-color="#D4AAE7"/>
<stop offset="0.92" stop-color="#C489DE"/>
<stop offset="0.93" stop-color="#B76FD7"/>
<stop offset="0.94" stop-color="#AE5DD2"/>
<stop offset="0.95" stop-color="#A852CF"/>
<stop offset="0.97" stop-color="#A74FCF"/>
</radialGradient>
<radialGradient id="paint4_radial_1743_16883" cx="0" cy="0" r="1" gradientUnits="userSpaceOnUse" gradientTransform="translate(-8.81753 286.464) scale(163.901 163.901)">
<stop offset="0.89" stop-color="#D4AAE7"/>
<stop offset="0.9" stop-color="#C489DE"/>
<stop offset="0.91" stop-color="#AE5DD2"/>
<stop offset="0.92" stop-color="#A74FCF"/>
</radialGradient>
<radialGradient id="paint5_radial_1743_16883" cx="0" cy="0" r="1" gradientUnits="userSpaceOnUse" gradientTransform="translate(65.8471 127.715) scale(97.0125 88.4649)">
<stop stop-color="#B882FF"/>
<stop offset="1" stop-color="#7A35E0"/>
</radialGradient>
<radialGradient id="paint6_radial_1743_16883" cx="0" cy="0" r="1" gradientUnits="userSpaceOnUse" gradientTransform="translate(29.2647 150.248) scale(40.0033 40.0032)">
<stop stop-color="#C74AD9"/>
<stop offset="1"/>
</radialGradient>
<radialGradient id="paint7_radial_1743_16883" cx="0" cy="0" r="1" gradientUnits="userSpaceOnUse" gradientTransform="translate(47.6662 135.451) scale(101.585 101.585)">
<stop stop-color="#D570FF"/>
<stop offset="1" stop-color="#8300B3"/>
</radialGradient>
<radialGradient id="paint8_radial_1743_16883" cx="0" cy="0" r="1" gradientUnits="userSpaceOnUse" gradientTransform="translate(26.6424 100.642) scale(431.616 116.373)">
<stop stop-color="#9651F2"/>
<stop offset="1" stop-color="#6925CE"/>
</radialGradient>
<radialGradient id="paint9_radial_1743_16883" cx="0" cy="0" r="1" gradientUnits="userSpaceOnUse" gradientTransform="translate(156.811 113.155) scale(139.01 66.819)">
<stop stop-color="#8E35EA"/>
<stop offset="1" stop-color="#6B0DCE"/>
</radialGradient>
<radialGradient id="paint10_radial_1743_16883" cx="0" cy="0" r="1" gradientUnits="userSpaceOnUse" gradientTransform="translate(18.8162 140.16) scale(92.5187 22.7076)">
<stop/>
<stop offset="1" stop-color="#F4C2FF"/>
</radialGradient>
<radialGradient id="paint11_radial_1743_16883" cx="0" cy="0" r="1" gradientUnits="userSpaceOnUse" gradientTransform="translate(23.7162 118.202) scale(59.7594 34.5074)">
<stop stop-color="#D26FE2"/>
<stop offset="1" stop-color="#670C7A"/>
</radialGradient>
<linearGradient id="paint12_linear_1743_16883" x1="38.682" y1="109.88" x2="75.2293" y2="109.88" gradientUnits="userSpaceOnUse">
<stop stop-color="#FFBD00"/>
<stop offset="1" stop-color="#D67200"/>
</linearGradient>
<radialGradient id="paint13_radial_1743_16883" cx="0" cy="0" r="1" gradientUnits="userSpaceOnUse" gradientTransform="translate(44.493 108.659) scale(22.0752 22.0752)">
<stop stop-color="#FFC382"/>
<stop offset="1" stop-color="#9E2410"/>
</radialGradient>
<linearGradient id="paint14_linear_1743_16883" x1="74.0635" y1="109.852" x2="110.611" y2="109.852" gradientUnits="userSpaceOnUse">
<stop stop-color="#A63A00"/>
<stop offset="1" stop-color="#FFBD00"/>
</linearGradient>
<radialGradient id="paint15_radial_1743_16883" cx="0" cy="0" r="1" gradientUnits="userSpaceOnUse" gradientTransform="translate(100.935 101.277) scale(25.4232 25.4232)">
<stop stop-color="#E8814D"/>
<stop offset="1" stop-color="#9E3726"/>
</radialGradient>
<linearGradient id="paint16_linear_1743_16883" x1="43.4122" y1="149.422" x2="59.8066" y2="110.758" gradientUnits="userSpaceOnUse">
<stop stop-color="#D97130"/>
<stop offset="0.01" stop-color="#DE7927"/>
<stop offset="0.02" stop-color="#EA8E11"/>
<stop offset="0.04" stop-color="#F29B04"/>
<stop offset="0.05" stop-color="#F5A000"/>
<stop offset="0.36" stop-color="#F5AF00"/>
<stop offset="0.46" stop-color="#FFDD57"/>
<stop offset="0.58" stop-color="#FFB54D"/>
<stop offset="1" stop-color="#E08A00"/>
</linearGradient>
<radialGradient id="paint17_radial_1743_16883" cx="0" cy="0" r="1" gradientUnits="userSpaceOnUse" gradientTransform="translate(50.8225 131.244) scale(21.3408 21.3408)">
<stop stop-color="#E8814D"/>
<stop offset="1" stop-color="#9E3726"/>
</radialGradient>
<linearGradient id="paint18_linear_1743_16883" x1="89.7871" y1="110.974" x2="105.447" y2="149.746" gradientUnits="userSpaceOnUse">
<stop stop-color="#B05B00"/>
<stop offset="0.42" stop-color="#F5A000"/>
<stop offset="0.54" stop-color="#FFCC14"/>
<stop offset="0.64" stop-color="#F5A000"/>
<stop offset="0.95" stop-color="#BD6500"/>
<stop offset="0.97" stop-color="#B86200"/>
<stop offset="0.98" stop-color="#AB5900"/>
<stop offset="0.99" stop-color="#A15300"/>
</linearGradient>
<radialGradient id="paint19_radial_1743_16883" cx="0" cy="0" r="1" gradientUnits="userSpaceOnUse" gradientTransform="translate(99.961 130.657) scale(26.3304 26.3304)">
<stop stop-color="#FFDD57"/>
<stop offset="1" stop-color="#9E3726"/>
</radialGradient>
<radialGradient id="paint20_radial_1743_16883" cx="0" cy="0" r="1" gradientUnits="userSpaceOnUse" gradientTransform="translate(101.451 130.117) scale(14.7096 14.7096)">
<stop stop-color="#FFF2BB"/>
<stop offset="1"/>
</radialGradient>
<radialGradient id="paint21_radial_1743_16883" cx="0" cy="0" r="1" gradientUnits="userSpaceOnUse" gradientTransform="translate(46.9768 130.76) scale(23.0472 23.0472)">
<stop stop-color="#FFF2BB"/>
<stop offset="1"/>
</radialGradient>
<linearGradient id="paint22_linear_1743_16883" x1="89.184" y1="119.09" x2="99.4656" y2="85.4807" gradientUnits="userSpaceOnUse">
<stop stop-color="#8F3508"/>
<stop offset="0.21" stop-color="#BD500B"/>
<stop offset="0.7" stop-color="#F7A100"/>
<stop offset="1" stop-color="#964324"/>
</linearGradient>
<linearGradient id="paint23_linear_1743_16883" x1="81.0626" y1="116.853" x2="94.5194" y2="82.6168" gradientUnits="userSpaceOnUse">
<stop offset="0.3" stop-color="#C25D0A"/>
<stop offset="0.86" stop-color="#FFF14F"/>
<stop offset="0.94" stop-color="#F5B90A"/>
<stop offset="1" stop-color="#E68A00"/>
</linearGradient>
<radialGradient id="paint24_radial_1743_16883" cx="0" cy="0" r="1" gradientUnits="userSpaceOnUse" gradientTransform="translate(89.4854 89.8035) scale(43.3513 43.3512)">
<stop stop-color="#F59F41"/>
<stop offset="1" stop-color="#A64416"/>
</radialGradient>
<linearGradient id="paint25_linear_1743_16883" x1="80.0891" y1="116.889" x2="78.3827" y2="111.381" gradientUnits="userSpaceOnUse">
<stop stop-color="#8F3508"/>
<stop offset="0.21" stop-color="#BD500B"/>
<stop offset="0.7" stop-color="#F7A100"/>
<stop offset="1" stop-color="#964324"/>
</linearGradient>
<linearGradient id="paint26_linear_1743_16883" x1="62.5948" y1="123.083" x2="67.9084" y2="111.182" gradientUnits="userSpaceOnUse">
<stop offset="0.05" stop-color="#B7402C"/>
<stop offset="1" stop-color="#E68A00"/>
</linearGradient>
<linearGradient id="paint27_linear_1743_16883" x1="61.234" y1="111.813" x2="64.7548" y2="96.5417" gradientUnits="userSpaceOnUse">
<stop stop-color="#D46C2C"/>
<stop offset="1" stop-color="#964324"/>
</linearGradient>
<linearGradient id="paint28_linear_1743_16883" x1="46.5434" y1="117.152" x2="55.5938" y2="94.0827" gradientUnits="userSpaceOnUse">
<stop stop-color="#F28B1D"/>
<stop offset="0.41" stop-color="#FFDC2B"/>
<stop offset="0.55" stop-color="#FFF79D"/>
<stop offset="0.78" stop-color="#F5B90A"/>
<stop offset="1" stop-color="#E68A00"/>
</linearGradient>
<radialGradient id="paint29_radial_1743_16883" cx="0" cy="0" r="1" gradientUnits="userSpaceOnUse" gradientTransform="translate(60.7135 100.063) scale(37.9729 37.9728)">
<stop stop-color="#F59F41"/>
<stop offset="1" stop-color="#A64416"/>
</radialGradient>
<radialGradient id="paint30_radial_1743_16883" cx="0" cy="0" r="1" gradientUnits="userSpaceOnUse" gradientTransform="translate(56.0486 103.349) scale(19.9152 19.9152)">
<stop stop-color="#FFF2BB"/>
<stop offset="1"/>
</radialGradient>
<radialGradient id="paint31_radial_1743_16883" cx="0" cy="0" r="1" gradientUnits="userSpaceOnUse" gradientTransform="translate(92.4448 90.735) scale(22.032 22.032)">
<stop stop-color="#FFF2BB"/>
<stop offset="1"/>
</radialGradient>
<radialGradient id="paint32_radial_1743_16883" cx="0" cy="0" r="1" gradientUnits="userSpaceOnUse" gradientTransform="translate(105.253 106.893) scale(13.3272 13.3272)">
<stop stop-color="#9691FF"/>
<stop offset="0.03" stop-color="#908BF5"/>
<stop offset="0.31" stop-color="#5D5A9F"/>
<stop offset="0.55" stop-color="#35335B"/>
<stop offset="0.76" stop-color="#181729"/>
<stop offset="0.91" stop-color="#06060B"/>
<stop offset="1"/>
</radialGradient>
<radialGradient id="paint33_radial_1743_16883" cx="0" cy="0" r="1" gradientUnits="userSpaceOnUse" gradientTransform="translate(79.8505 113.129) scale(4.2336 4.2336)">
<stop stop-color="#FFC382"/>
<stop offset="1" stop-color="#9E3726"/>
</radialGradient>
<radialGradient id="paint34_radial_1743_16883" cx="0" cy="0" r="1" gradientUnits="userSpaceOnUse" gradientTransform="translate(97.1323 104.837) scale(25.3584 25.3584)">
<stop offset="0.67" stop-color="#6689BA"/>
<stop offset="0.72" stop-color="#5F90BE"/>
<stop offset="0.79" stop-color="#4EA4C9"/>
<stop offset="0.88" stop-color="#32C4DC"/>
<stop offset="0.97" stop-color="#0BF1F7"/>
<stop offset="1" stop-color="#00FFFF"/>
</radialGradient>
<radialGradient id="paint35_radial_1743_16883" cx="0" cy="0" r="1" gradientUnits="userSpaceOnUse" gradientTransform="translate(59.2232 116.454) scale(26.4816 26.4816)">
<stop offset="0.67" stop-color="#6689BA"/>
<stop offset="0.72" stop-color="#5F90BE"/>
<stop offset="0.79" stop-color="#4EA4C9"/>
<stop offset="0.88" stop-color="#32C4DC"/>
<stop offset="0.97" stop-color="#0BF1F7"/>
<stop offset="1" stop-color="#00FFFF"/>
</radialGradient>
<linearGradient id="paint36_linear_1743_16883" x1="90.3057" y1="101.312" x2="108.19" y2="117.404" gradientUnits="userSpaceOnUse">
<stop stop-color="#F28B1D"/>
<stop offset="0.41" stop-color="#FFDC2B"/>
<stop offset="0.55" stop-color="#FFF79D"/>
<stop offset="0.78" stop-color="#F5B90A"/>
<stop offset="1" stop-color="#E68A00"/>
</linearGradient>
<radialGradient id="paint37_radial_1743_16883" cx="0" cy="0" r="1" gradientUnits="userSpaceOnUse" gradientTransform="translate(111.105 113.403) scale(31.7305 31.7304)">
<stop stop-color="#F59F41"/>
<stop offset="1" stop-color="#A64416"/>
</radialGradient>
<radialGradient id="paint38_radial_1743_16883" cx="0" cy="0" r="1" gradientUnits="userSpaceOnUse" gradientTransform="translate(122.512 112.972) scale(17.064 17.064)">
<stop stop-color="#F59F41"/>
<stop offset="1" stop-color="#A64416"/>
</radialGradient>
<radialGradient id="paint39_radial_1743_16883" cx="0" cy="0" r="1" gradientUnits="userSpaceOnUse" gradientTransform="translate(83.0271 131.012) scale(24.3432 24.3432)">
<stop stop-color="#F59F41"/>
<stop offset="1" stop-color="#A64416"/>
</radialGradient>
<linearGradient id="paint40_linear_1743_16883" x1="73.8688" y1="112.949" x2="71.86" y2="128.544" gradientUnits="userSpaceOnUse">
<stop stop-color="#F28B1D"/>
<stop offset="0.26" stop-color="#FFDC2B"/>
<stop offset="0.39" stop-color="#FFF79D"/>
<stop offset="0.8" stop-color="#F5B90A"/>
<stop offset="1" stop-color="#E68A00"/>
</linearGradient>
</defs>
</svg>
