<svg width="171" height="152" viewBox="0 0 171 152" fill="none" xmlns="http://www.w3.org/2000/svg">
<path d="M71.8926 108.879C71.8926 108.879 97.0326 126.351 116.977 122.187C131.245 119.211 141.565 109.167 147.685 96.1465C153.805 83.1265 71.8926 108.879 71.8926 108.879Z" fill="#374293"/>
<g style="mix-blend-mode:multiply" opacity="0.82">
<path d="M127.859 118.202C120.143 121.994 103.535 109.226 103.535 109.226C103.535 109.226 146.555 98.9297 142.199 105.434C137.843 111.938 130.787 116.762 127.859 118.202Z" fill="#DB7DAF"/>
</g>
<g style="mix-blend-mode:multiply" opacity="0.82">
<path d="M117.806 117.446C113.858 116.114 101.066 117.278 97.8981 119.294C94.7301 121.31 76.9101 112.97 75.4701 110.21C74.0301 107.45 86.6301 108.638 86.6301 108.638L124.85 99.9618C124.85 99.9618 149.186 96.3258 142.202 105.422C135.218 114.518 127.25 120.602 117.806 117.434V117.446Z" fill="#DB7DAF"/>
</g>
<path d="M38.1244 106.154C35.4844 113.27 26.3644 118.91 26.3644 118.91C26.3644 118.91 17.9524 115.574 13.0564 114.974C13.0564 114.974 11.7364 111.014 9.8164 111.098C7.8964 111.17 8.22038 115.502 8.22038 115.502C8.22038 115.502 2.30441 114.926 3.52841 118.826C3.52841 118.826 0.204394 120.086 3.36039 122.822C3.36039 122.822 2.86841 123.962 5.10041 126.278C9.31241 130.646 17.4724 134.894 17.4724 134.894C21.3964 137.114 25.6684 138.146 29.0524 136.502C36.8644 132.722 41.8684 116.786 45.4444 108.038C49.0204 99.2898 40.7524 99.0258 38.1124 106.13L38.1244 106.154Z" fill="#5568B1"/>
<g style="mix-blend-mode:multiply" opacity="0.82">
<path d="M9.81538 116.762C9.81538 116.762 12.7314 117.554 12.1074 119.222C11.4954 120.89 5.67539 121.658 3.52739 118.826C3.52739 118.826 5.29136 122.234 9.34736 121.202C9.34736 121.202 7.94338 124.73 3.35938 122.834C3.35938 122.834 4.24737 124.766 7.77537 123.998C7.77537 123.998 8.47137 126.11 6.13137 126.254C6.13137 126.254 8.85538 126.746 8.38738 123.722C8.38738 123.722 10.2234 122.606 10.1514 121.118C10.1514 121.118 12.2634 121.034 12.7914 119.222C13.3314 117.41 9.80337 116.762 9.80337 116.762H9.81538Z" fill="#DB7DAF"/>
</g>
<g style="mix-blend-mode:multiply" opacity="0.82">
<path d="M26.3652 118.909C29.8092 120.133 31.7292 123.265 31.7292 123.265C31.7292 123.265 30.8892 120.397 30.0852 119.545C29.2812 118.705 26.8212 118.609 26.8212 118.609L26.3772 118.897L26.3652 118.909Z" fill="#DB7DAF"/>
</g>
<path style="mix-blend-mode:multiply" opacity="0.75" d="M7.12872 128.138C5.19672 126.218 26.9887 124.25 31.7287 128.138C36.4807 132.026 27.8647 138.65 23.3767 137.15C18.8887 135.65 9.97272 130.97 7.12872 128.138Z" fill="url(#paint0_linear_1614_12551)"/>
<g style="mix-blend-mode:multiply" opacity="0.82">
<path d="M36.8398 108.781C39.1318 106.909 42.3838 115.933 42.3838 115.933C42.3838 115.933 46.0798 107.749 46.1878 105.709C46.2958 103.669 38.8319 104.581 38.1239 106.165C37.4159 107.749 36.8398 108.793 36.8398 108.793V108.781Z" fill="#DB7DAF"/>
</g>
<path d="M119.509 109.43L112.561 110.378C115.921 117.062 114.709 131.318 114.709 131.318C114.709 131.318 108.517 130.082 102.793 131.15C102.781 131.102 101.449 127.154 99.541 127.226C97.621 127.298 97.945 131.63 97.945 131.63C97.945 131.63 92.029 131.054 93.253 134.954C93.253 134.954 89.929 136.214 93.085 138.95C93.085 138.95 92.389 140.186 94.021 141.614C96.805 144.062 101.533 146.534 105.013 148.178C106.357 148.898 107.809 149.558 109.381 150.134C109.849 150.302 110.293 150.458 110.737 150.602C123.289 154.586 130.033 148.958 130.165 135.89C130.297 122.81 119.509 109.418 119.509 109.418V109.43Z" fill="#5568B1"/>
<g style="mix-blend-mode:multiply" opacity="0.82">
<path d="M93.252 134.967C93.252 134.967 94.1759 136.215 95.6039 136.683C95.6039 136.683 93.3 137.499 93.252 134.967Z" fill="#DB7DAF"/>
</g>
<g style="mix-blend-mode:multiply" opacity="0.82">
<path d="M93.0977 138.963C93.0977 138.963 94.2616 139.791 95.1616 140.247C95.1616 140.247 93.6377 141.003 93.0977 138.963Z" fill="#DB7DAF"/>
</g>
<g style="mix-blend-mode:multiply" opacity="0.82">
<path d="M97.9453 131.63L100.813 131.87L97.9453 130.646V131.63Z" fill="#DB7DAF"/>
</g>
<g style="mix-blend-mode:multiply" opacity="0.82">
<path d="M114.709 131.307C121.045 132.123 124.261 134.427 124.261 134.427C124.261 134.427 122.581 132.087 120.685 131.259C118.801 130.443 114.733 130.995 114.733 130.995L114.709 131.307Z" fill="#DB7DAF"/>
</g>
<path style="mix-blend-mode:multiply" opacity="0.75" d="M100.189 145.731C94.3331 142.395 120.937 137.715 125.737 139.671C130.537 141.627 127.177 150.183 120.325 151.671C113.473 153.159 101.653 146.571 100.189 145.731Z" fill="url(#paint1_linear_1614_12551)"/>
<g style="mix-blend-mode:multiply" opacity="0.82">
<path d="M114.217 115.863C114.613 112.107 124.261 116.631 124.261 116.631C124.261 116.631 122.269 112.167 119.509 109.431C116.749 106.695 112.561 110.379 112.561 110.379C112.561 110.379 113.125 112.011 113.401 112.911C113.677 113.799 114.205 115.875 114.205 115.875L114.217 115.863Z" fill="#DB7DAF"/>
</g>
<path d="M69.5177 3.52984C69.5177 3.52984 72.3737 0.481838 75.2777 0.181838C78.1937 -0.130162 85.7537 -0.298161 92.2577 1.92184C98.7617 4.14184 100.994 5.20984 100.994 5.20984C100.994 5.20984 102.062 2.14984 103.214 2.14984C104.366 2.14984 125.654 6.58984 135.926 13.6338C146.186 20.6778 146.498 26.6538 146.498 26.6538C146.498 26.6538 148.562 25.9698 149.786 26.1978C151.01 26.4258 162.266 43.3578 163.958 46.7298C165.638 50.1018 165.182 55.3098 165.182 55.3098C165.182 55.3098 167.474 56.3058 168.398 58.4538C169.322 60.6018 170.078 64.9698 170.078 67.7178C170.078 70.4658 166.79 85.5378 156.158 95.9538C149.558 102.422 134.534 107.546 132.47 108.158C130.406 108.77 125.954 107.39 125.954 107.39C125.954 107.39 126.566 110.834 120.818 111.218C115.07 111.602 70.8737 112.37 55.4057 110.834C39.9377 109.298 31.5857 103.862 24.6857 93.5178C17.7977 83.1738 20.0177 80.4258 23.6177 75.2898C23.6177 75.2898 20.7857 57.5178 23.0777 46.1058C25.3697 34.6938 23.2338 36.0738 28.7418 32.0178C28.7418 32.0178 27.4337 29.2578 28.4297 26.6538C29.4257 24.0498 35.4018 13.3218 37.1658 12.0258C38.9298 10.7298 39.8418 10.7178 39.8418 10.7178C39.8418 10.7178 39.3017 9.72184 41.5217 7.57384C43.7417 5.42584 56.8458 -0.430162 62.4378 0.0858382C68.0298 0.601838 69.4818 3.51784 69.4818 3.51784L69.5177 3.52984Z" fill="url(#paint2_linear_1614_12551)"/>
<path style="mix-blend-mode:multiply" opacity="0.75" d="M72.2533 89.4133C99.3926 89.4133 121.393 81.2309 121.393 71.1373C121.393 61.0438 99.3926 52.8613 72.2533 52.8613C45.114 52.8613 23.1133 61.0438 23.1133 71.1373C23.1133 81.2309 45.114 89.4133 72.2533 89.4133Z" fill="url(#paint3_radial_1614_12551)"/>
<g style="mix-blend-mode:multiply" opacity="0.68">
<path d="M166.622 56.2091L165.182 55.3091C164.498 61.8251 162.422 66.9491 157.754 67.9571C153.086 68.9651 147.41 62.4371 145.73 58.7531C144.05 55.0811 142.43 47.5691 143.966 40.8251C145.502 34.0811 148.406 33.2291 152.618 36.3011C156.83 39.3731 162.11 48.7811 160.814 52.3091C159.518 55.8371 157.826 55.0691 157.754 54.2291C157.682 53.3891 156.302 50.4731 155.534 51.0851C154.766 51.6971 152.318 55.2971 154.922 56.2931C157.526 57.2891 161.738 54.2291 161.666 52.0091C161.594 49.7891 161.21 45.8771 156.914 39.6731C153.59 34.8611 150.302 29.8571 147.242 30.8051C148.838 27.4571 148.166 26.2451 148.166 26.2451L146.498 26.6531C146.678 29.9771 139.226 37.9331 132.074 37.0211C124.922 36.0971 119.822 21.6971 121.046 17.4131C122.27 13.1291 132.326 18.8411 133.682 20.0651C135.038 21.2891 132.278 22.4171 130.646 22.4171C129.014 22.4171 128.81 22.1051 131.774 23.9531C134.738 25.7891 137.594 26.8091 137.39 25.0811C137.186 23.3411 136.058 17.6291 122.786 13.0331C109.514 8.43712 115.13 17.7251 121.97 27.9491C125.03 32.5091 128.282 36.4691 131.534 38.7131C127.898 40.5251 122.546 43.6571 123.218 45.8171C123.986 48.2651 127.502 56.5451 129.35 56.7731C131.186 57.0011 134.87 57.1571 132.266 55.8851C129.662 54.6131 125.606 51.3371 125.834 49.6451C126.062 47.9651 128.366 37.4651 133.646 42.0611C138.926 46.6571 146.366 58.8371 145.286 61.7411C144.218 64.6571 137.09 69.4811 132.11 67.4891C127.13 65.4971 121.694 61.8251 120.71 57.3011C119.726 52.7771 119.474 47.4971 118.406 44.6651C117.338 41.8331 106.406 27.1931 86.0298 21.3011C65.5578 15.3731 56.3658 27.4331 56.3658 27.4331C56.3658 27.4331 57.9738 18.8531 59.4258 16.4051C60.8778 13.9571 71.2218 5.83312 76.0458 5.98912C80.8698 6.14512 90.0617 7.82512 97.2617 10.6571C104.462 13.4891 110.978 18.3971 115.49 24.9851C120.014 31.5731 118.55 39.0731 119.09 38.8451C119.63 38.6171 121.082 35.2451 120.626 34.0211C120.17 32.7971 118.25 30.4211 118.25 30.4211C118.022 26.9771 113.042 20.1611 113.042 20.1611C113.042 20.1611 113.114 17.8691 112.274 14.4131C111.434 10.9691 101.354 4.38112 101.354 4.38112L101.018 5.22112C101.018 5.22112 110.894 11.4971 107.258 9.70912C103.622 7.92112 94.3457 5.49712 94.6937 5.95312C95.0417 6.40912 99.7458 8.40112 100.058 8.40112C100.37 8.40112 101.822 7.98112 102.206 7.98112C102.59 7.98112 109.25 10.7051 109.754 11.9291C110.246 13.1531 109.418 15.9011 109.418 15.9011C108.602 15.7931 84.9617 2.19712 78.7337 2.80912C72.5057 3.42112 61.6217 13.4531 61.6217 13.4531C61.6217 13.4531 65.4978 7.38112 69.5418 3.54112C69.5418 3.54112 67.5258 1.62112 65.7138 3.99712C63.9018 6.37312 61.0458 13.1171 61.0458 13.1171C59.6658 4.84912 53.9778 10.3451 48.0978 11.3531C42.2178 12.3611 39.9018 10.7411 39.9018 10.7411C39.9018 12.7331 42.1217 13.1171 42.1217 13.1171C42.1217 13.1171 47.4018 12.2771 51.5418 10.8971C55.6818 9.51712 58.7418 10.5131 59.1258 14.1851C59.5098 17.8571 57.2898 17.7851 56.1378 19.9331C54.9858 22.0811 55.1418 29.4251 55.1418 29.4251C55.1418 29.4251 52.7658 28.2731 44.7258 26.2091C36.6858 24.1451 28.1777 29.7371 28.1777 29.7371L28.7897 32.0291C28.7897 32.0291 36.5297 25.9811 42.5777 26.4371C48.6257 26.8931 54.5298 32.3291 54.5298 32.3291C54.5298 32.3291 50.3897 45.0491 50.1617 46.7291C49.9337 48.4091 51.0858 54.2411 51.0858 54.2411C51.0858 54.2411 51.2417 48.3491 53.2337 39.4571C55.2257 30.5771 55.7658 25.6691 72.8418 24.0611C89.9178 22.4531 98.4978 27.5891 104.858 31.3331C111.218 35.0891 118.418 44.6651 118.874 52.7051C119.33 60.7571 117.422 61.5851 119.486 64.4891C121.55 67.4051 132.662 68.6291 132.662 68.6291C132.662 68.6291 126.842 69.5531 123.242 74.2931C119.642 79.0451 117.878 90.6851 119.03 90.5291C120.182 90.3731 124.082 86.3891 123.626 85.2491C123.17 84.0971 120.41 82.8731 120.638 81.6491C120.866 80.4251 122.702 75.9851 126.158 73.6091C129.602 71.2331 137.414 69.8531 137.414 69.8531C134.762 72.9131 126.074 86.6531 124.55 95.4851C123.062 93.2171 120.662 94.0571 111.986 97.5851C103.31 101.113 90.9498 106.981 97.2738 107.749C103.61 108.517 112.454 105.769 117.494 104.941C122.534 104.113 123.362 101.773 119.582 101.317C115.802 100.861 108.914 104.077 111.206 103.585C113.51 103.093 118.97 103.105 116.822 104.233C114.674 105.361 111.362 106.381 104.93 106.681C98.4978 106.993 99.4698 104.593 102.17 102.805C104.87 101.017 119.834 96.4691 120.962 97.2371C122.09 98.0051 125.246 103.825 125.99 107.401L130.01 108.253C127.454 107.893 126.494 104.917 125.918 101.881C131.246 106.009 148.514 101.365 148.514 101.365C152.318 99.4211 156.194 95.9651 156.194 95.9651C150.854 100.693 138.014 102.577 131.354 99.8171C124.694 97.0571 127.526 87.1811 130.97 80.9771C134.414 74.7731 142.49 66.9611 146.702 67.2611C150.914 67.5611 157.706 69.5531 158.246 76.6811C158.786 83.8091 153.65 90.3971 148.982 87.8651C144.314 85.3331 146.066 80.3531 145.07 78.7451C144.074 77.1371 143.306 82.1171 143.846 83.9531C144.386 85.7891 147.518 92.5331 151.046 91.9931C154.574 91.4531 159.926 79.0451 159.782 75.6011C159.626 72.1571 155.642 68.6291 155.642 68.6291C171.722 68.2451 166.658 56.2091 166.658 56.2091H166.622ZM142.67 52.5491C140.138 48.5651 138.386 43.6931 136.67 40.6811C138.914 40.7651 141.098 39.7091 143.15 37.1051C141.482 43.7291 142.67 52.5611 142.67 52.5611V52.5491Z" fill="#DB7DAF"/>
</g>
<g opacity="0.7">
<g style="mix-blend-mode:multiply" opacity="0.68">
<path d="M126.754 16.4881C127.414 16.7161 128.086 16.9681 128.734 17.2561C128.758 17.2561 128.77 17.2681 128.794 17.2801C129.994 17.7721 130.966 18.2881 131.77 18.8041C132.682 19.3321 133.378 19.8001 133.666 20.0641C133.918 20.2921 134.026 20.5201 134.026 20.7361C136.138 23.3041 134.83 25.5481 134.83 25.5481C136.402 26.1601 137.494 26.1721 137.374 25.0681C137.17 23.3281 136.042 17.6161 122.77 13.0201C112.762 9.5521 113.494 13.9921 117.394 20.7601C113.794 13.4521 119.05 13.6081 126.754 16.4881Z" fill="#DB7DAF"/>
</g>
<g style="mix-blend-mode:multiply" opacity="0.68">
<path d="M100.544 11.3171C92.9005 7.39306 82.5325 2.42506 78.7165 2.79706C76.6045 3.00106 73.9645 4.29706 71.3965 5.90506C79.0765 1.86106 100.448 11.2691 100.544 11.3171Z" fill="#DB7DAF"/>
</g>
<g style="mix-blend-mode:multiply" opacity="0.68">
<path d="M97.2458 25.8013C93.8859 24.0493 90.1419 22.4893 86.0019 21.2893C65.5299 15.3613 56.3379 27.4213 56.3379 27.4213C73.2099 17.9413 92.7458 24.2773 97.2458 25.8013Z" fill="#DB7DAF"/>
</g>
<g style="mix-blend-mode:multiply" opacity="0.68">
<path d="M132.85 39.0501C133.822 39.3501 135.214 39.8541 136.666 40.6701C138.91 40.7541 141.094 39.6981 143.146 37.0941C144.526 33.9981 149.122 30.9261 154.39 36.0741C151.93 32.7021 149.518 30.0981 147.238 30.8061C148.834 27.4581 148.162 26.2461 148.162 26.2461L146.494 26.6541C146.518 27.1221 146.374 27.6981 146.11 28.3221C143.962 36.2901 137.626 39.8901 132.85 39.0501Z" fill="#DB7DAF"/>
</g>
<g style="mix-blend-mode:multiply" opacity="0.68">
<path d="M141.874 68.1737C146.782 65.7257 149.878 65.2937 143.482 55.5137C144.886 58.2977 145.666 60.6617 145.27 61.7417C144.202 64.6577 137.074 69.4817 132.094 67.4897C132.094 67.4897 136.966 70.6337 141.874 68.1737Z" fill="#DB7DAF"/>
</g>
<g style="mix-blend-mode:multiply" opacity="0.68">
<path d="M129.334 56.7619C131.17 56.9899 134.854 57.1459 132.25 55.8739C129.826 54.6979 126.13 51.7579 125.83 50.0059C125.878 50.7019 125.986 51.4699 126.094 52.5499C127.246 54.7699 128.47 56.6539 129.334 56.7619Z" fill="#DB7DAF"/>
</g>
<g style="mix-blend-mode:multiply" opacity="0.68">
<path d="M157.139 52.5491C156.659 51.6011 155.987 50.7371 155.531 51.0971C154.763 51.7091 152.315 55.3091 154.919 56.3051C155.591 56.5571 156.359 56.5451 157.139 56.3531C154.223 56.8571 155.999 50.1011 157.139 52.5491Z" fill="#DB7DAF"/>
</g>
<g style="mix-blend-mode:multiply" opacity="0.68">
<path d="M166.618 56.2086L165.178 55.3086C165.082 56.2326 164.95 57.1206 164.794 57.9726C164.926 61.3206 164.734 66.2166 162.682 67.2966C169.93 64.0806 166.618 56.2086 166.618 56.2086Z" fill="#DB7DAF"/>
</g>
<g style="mix-blend-mode:multiply" opacity="0.68">
<path d="M143.916 79.7659C143.616 81.0619 143.52 82.9579 143.808 83.9419C144.348 85.7779 147.48 92.5219 151.008 91.9819C152.292 91.7899 153.804 90.0259 155.22 87.6979C152.304 92.1259 142.26 87.2899 143.916 79.7539V79.7659Z" fill="#DB7DAF"/>
</g>
<g style="mix-blend-mode:multiply" opacity="0.68">
<path d="M127.186 98.9654C125.098 94.7054 125.422 91.8974 131.074 79.5254C128.182 84.6734 125.326 90.7694 124.51 95.4974C123.022 93.2294 120.622 94.0694 111.946 97.5974C111.55 97.7534 111.142 97.9214 110.734 98.1014C123.442 93.3974 122.374 95.2334 125.89 101.881C131.218 106.009 148.486 101.365 148.486 101.365C152.29 99.4214 156.166 95.9654 156.166 95.9654C155.098 96.9134 153.73 97.7294 152.17 98.4374C152.146 98.4374 152.134 98.4614 152.11 98.4734C146.17 101.941 129.262 103.249 127.174 98.9774L127.186 98.9654Z" fill="#DB7DAF"/>
</g>
<g style="mix-blend-mode:multiply" opacity="0.68">
<path d="M28.7624 32.0173C28.7624 32.0173 34.1263 27.2653 39.8743 25.9693C39.8743 25.9693 35.7224 25.2013 28.1504 29.7253C28.1504 29.7253 28.3664 31.1173 28.7624 32.0173Z" fill="#DB7DAF"/>
</g>
<g style="mix-blend-mode:multiply" opacity="0.68">
<path d="M48.5753 11.2445C48.5753 11.2445 42.8633 13.1045 42.0953 13.1045C41.3273 13.1045 39.5993 12.1325 39.8753 10.7285C39.8753 10.7285 40.7513 11.6405 43.7873 11.7245C46.8113 11.8085 48.5753 11.2445 48.5753 11.2445Z" fill="#DB7DAF"/>
</g>
</g>
<g style="mix-blend-mode:multiply" opacity="0.36">
<path d="M168.409 58.4416C167.485 56.2936 165.193 55.2976 165.193 55.2976C165.193 55.2976 165.649 50.0896 163.969 46.7176C162.289 43.3456 151.021 26.4256 149.797 26.1856C148.573 25.9576 146.509 26.6416 146.509 26.6416C146.509 26.6416 146.425 25.2496 145.201 23.0176C141.301 16.8616 133.009 15.0736 123.145 11.7976C113.269 8.52162 104.005 1.14163 102.277 2.74963C101.557 3.64963 101.005 5.18562 101.005 5.18562C101.005 5.18562 100.105 4.75363 97.7773 3.86563C101.821 5.76163 102.769 7.94562 97.2613 6.34962C91.7533 4.75362 94.8733 6.70962 98.3293 8.47362C101.773 10.2376 103.921 12.2296 102.037 12.0496C100.153 11.8696 98.9893 10.6216 101.197 12.4096C103.405 14.1976 104.437 14.2936 106.909 18.1216C109.381 21.9496 115.393 40.1536 113.329 37.8256C111.265 35.4976 113.365 39.3856 115.873 43.3096C118.381 47.2336 118.897 53.4136 118.021 58.5616C117.145 63.7096 119.185 64.0216 119.701 66.3016C120.217 68.5696 115.645 81.3136 115.645 81.3136C115.645 81.3136 115.645 77.0296 106.153 80.8096C96.6613 84.5896 91.2973 92.9656 86.0893 100.67C80.8813 108.374 86.6533 108.614 95.1853 104.486C89.4613 107.426 83.3413 109.718 78.4333 110.114C67.0933 111.038 61.1173 108.578 58.9813 105.674C56.8333 102.758 58.9813 105.674 57.6013 107.618C56.3293 109.406 50.9053 110.786 40.6693 107.09C41.9533 107.126 42.5413 106.07 41.2093 102.614C37.5373 93.1456 20.9293 77.8816 20.4253 81.3016C19.8373 84.1216 20.7853 87.5536 24.7453 93.4936C28.4773 99.0976 32.6773 103.238 38.1613 106.118C38.1013 106.094 38.0413 106.07 37.9813 106.046C42.6613 108.53 48.2893 110.09 55.4533 110.81C70.9213 112.346 115.117 111.578 120.865 111.194C126.613 110.81 126.001 107.366 126.001 107.366C126.001 107.366 130.441 108.746 132.517 108.134C134.581 107.522 149.617 102.398 156.205 95.9296C166.825 85.5136 170.125 70.4536 170.125 67.6936C170.125 64.9336 169.357 60.5656 168.445 58.4296L168.409 58.4416Z" fill="#DB7DAF"/>
</g>
<g style="mix-blend-mode:multiply" opacity="0.75">
<path d="M120.842 111.219C126.59 110.835 125.978 107.391 125.978 107.391C125.978 107.391 130.418 108.771 132.494 108.159C134.558 107.547 149.594 102.423 156.182 95.9546C166.802 85.5386 170.102 70.4786 170.102 67.7186C170.102 64.9586 169.334 60.5906 168.422 58.4546C167.498 56.3066 165.206 55.3106 165.206 55.3106C163.754 65.5706 153.182 65.5706 148.886 60.6626C144.602 55.7426 142.682 52.5626 145.058 58.2266C147.434 63.8906 129.434 66.9626 126.074 64.2266C122.714 61.5026 123.158 62.0546 119.414 69.1106L119.486 69.8546C119.486 69.8546 119.21 70.6586 118.67 72.0266C117.458 76.3226 115.658 81.3506 115.658 81.3506C115.658 81.3506 116.426 86.7146 111.986 92.4746C109.778 95.3306 104.294 99.4826 97.9344 103.047C91.0224 108.123 87.0864 110.811 83.0664 111.747C99.8304 111.831 117.398 111.459 120.866 111.231L120.842 111.219Z" fill="#DB7DAF"/>
</g>
<path style="mix-blend-mode:screen" opacity="0.43" d="M39.8764 10.729C39.8764 10.729 39.3365 9.733 41.5565 7.585C43.7765 5.437 56.8805 -0.419006 62.4725 0.0969939C68.0645 0.612994 69.5165 3.52899 69.5165 3.52899C69.5165 3.52899 67.5005 1.60899 65.6885 3.98499C63.8765 6.36099 61.0204 13.105 61.0204 13.105C59.6404 4.83699 53.9525 10.333 48.0725 11.341C42.1925 12.349 39.8764 10.729 39.8764 10.729ZM61.6085 13.441C61.6085 13.441 66.3725 9.06099 71.4005 5.91699C72.2405 5.38899 73.0924 4.897 73.9204 4.46499C74.1124 4.369 74.2925 4.27299 74.4725 4.18899C74.6645 4.09299 74.8564 4.00899 75.0484 3.92499C75.3964 3.76899 75.7325 3.62499 76.0685 3.49299C76.1645 3.45699 76.2605 3.42099 76.3565 3.38499C76.6805 3.26499 77.0045 3.16899 77.3165 3.08499C77.4245 3.06099 77.5325 3.02499 77.6285 3.00099C78.0005 2.91699 78.3605 2.84499 78.7085 2.80899C78.9245 2.78499 79.1765 2.78499 79.4405 2.80899C79.5245 2.80899 79.6205 2.82099 79.7045 2.83299C79.8965 2.84499 80.0884 2.86899 80.2924 2.90499C80.4004 2.91699 80.5085 2.941 80.6285 2.965C80.8325 3.001 81.0485 3.04899 81.2764 3.09699C81.3965 3.12099 81.5045 3.14499 81.6245 3.18099C81.8885 3.24099 82.1765 3.32499 82.4645 3.39699C82.5485 3.42099 82.6205 3.445 82.7045 3.469C83.0765 3.577 83.4725 3.69699 83.8685 3.82899C83.9765 3.86499 84.0845 3.90099 84.2045 3.94899C84.5045 4.05699 84.8045 4.15299 85.1285 4.27299C85.2725 4.33299 85.4285 4.38099 85.5845 4.44099C85.8725 4.54899 86.1725 4.65699 86.4725 4.77699C86.6285 4.83699 86.7845 4.897 86.9405 4.957C87.2765 5.08899 87.6004 5.22099 87.9484 5.365C88.0684 5.41299 88.1885 5.46099 88.3085 5.52099C88.7765 5.71299 89.2565 5.91699 89.7365 6.13299C89.7605 6.13299 89.7844 6.157 89.8204 6.16899C90.2764 6.37299 90.7325 6.57699 91.2005 6.78099C91.3325 6.84099 91.4645 6.90099 91.5965 6.96099C91.9685 7.12899 92.3285 7.29699 92.7005 7.46499C92.8445 7.52499 92.9764 7.59699 93.1204 7.65699C93.5164 7.83699 93.9125 8.02899 94.2965 8.22099C94.3925 8.26899 94.4765 8.30499 94.5725 8.35299C96.1085 9.09699 97.6205 9.841 99.0725 10.585C99.1085 10.597 99.1445 10.621 99.1805 10.633C100.177 11.137 101.148 11.641 102.06 12.109C103.944 12.289 101.797 10.297 98.3525 8.53299C94.9085 6.76899 91.7885 4.813 97.2845 6.409C97.6565 6.505 98.0165 6.58899 98.3885 6.69699C102.624 7.68099 101.544 5.67699 97.8005 3.92499C96.4685 3.42099 94.6684 2.761 92.3045 1.957C85.7885 -0.263005 78.2285 -0.0950056 75.3245 0.216994C72.4085 0.528994 69.5645 3.565 69.5645 3.565C65.5325 7.39299 61.6445 13.477 61.6445 13.477L61.6085 13.441ZM113.316 37.873C115.38 40.201 109.368 21.997 106.896 18.169C104.46 14.401 103.417 14.245 101.281 12.541C99.9605 11.845 98.6165 11.209 97.2365 10.669C90.0365 7.837 80.8444 6.14499 76.0204 6.00099C71.1964 5.84499 60.8525 13.969 59.4005 16.417C57.9485 18.865 56.3405 27.445 56.3405 27.445C56.3405 27.445 65.5325 15.397 86.0045 21.313C86.9405 21.589 87.8645 21.877 88.7645 22.189C88.9205 22.237 89.0765 22.297 89.2325 22.345C90.1205 22.657 90.9964 22.981 91.8484 23.329C91.9204 23.353 91.9805 23.389 92.0525 23.413C93.8765 24.157 95.6164 24.961 97.2484 25.813C104.112 29.389 109.332 33.745 112.872 37.417C112.992 37.525 113.124 37.669 113.304 37.873H113.316ZM38.1605 25.981C40.2485 25.669 42.4925 25.645 44.7005 26.221C52.7405 28.285 55.1165 29.437 55.1165 29.437C55.1165 29.437 54.9605 22.081 56.1125 19.945C57.2645 17.797 59.4845 17.881 59.1005 14.197C58.7165 10.525 55.6565 9.529 51.5165 10.909C48.1925 12.013 44.1245 12.781 42.6605 13.033C42.3965 13.093 42.2045 13.129 42.0965 13.129C41.3285 13.129 39.6004 12.157 39.8764 10.753C39.8764 10.753 38.9525 10.753 37.2005 12.061C35.4365 13.369 29.4605 24.085 28.4645 26.689C28.0565 27.757 28.0445 28.837 28.1525 29.749C28.1645 29.749 29.1245 29.113 30.6965 28.369C34.1165 26.677 36.6365 26.137 38.1605 25.993V25.981ZM115.86 43.369C115.224 42.373 114.612 41.377 114.096 40.489C111.432 36.589 108.024 33.229 104.832 31.345C98.4725 27.589 89.8925 22.465 72.8165 24.073C55.7405 25.681 55.2005 30.589 53.2085 39.469C53.2085 39.469 56.3765 31.105 62.8325 28.345C72.8165 24.073 80.9165 30.073 95.1605 38.665C109.404 47.257 119.916 51.805 116.616 44.845C116.4 44.389 116.16 43.933 115.92 43.477C115.896 43.441 115.884 43.405 115.86 43.381V43.369ZM53.1005 36.709C53.8805 34.261 54.5044 32.341 54.5044 32.341C54.5044 32.341 48.6125 26.905 42.5525 26.449C36.5045 25.993 28.7645 32.041 28.7645 32.041C26.1245 33.985 25.2365 34.681 24.7805 36.145C22.5125 42.025 51.0725 22.177 53.1005 36.721V36.709Z" fill="url(#paint4_linear_1614_12551)"/>
<path style="mix-blend-mode:multiply" opacity="0.75" d="M168.409 58.4416C167.485 56.2936 165.193 55.2976 165.193 55.2976C165.193 55.2976 165.649 50.0896 163.969 46.7176C162.289 43.3456 151.021 26.4256 149.797 26.1856C148.573 25.9576 146.509 26.6416 146.509 26.6416C146.509 26.6416 146.425 25.2496 145.201 23.0176C141.301 16.8616 133.009 15.0736 123.145 11.7976C113.269 8.52162 104.005 1.14163 102.277 2.74963C101.557 3.64963 101.005 5.18562 101.005 5.18562C101.005 5.18562 100.105 4.75363 97.7773 3.86563C101.821 5.76163 102.769 7.94562 97.2613 6.34962C91.7533 4.75362 94.8733 6.70962 98.3293 8.47362C101.773 10.2376 103.921 12.2296 102.037 12.0496C100.153 11.8696 98.9893 10.6216 101.197 12.4096C103.405 14.1976 104.437 14.2936 106.909 18.1216C109.381 21.9496 115.393 40.1536 113.329 37.8256C111.265 35.4976 113.365 39.3856 115.873 43.3096C118.381 47.2336 118.897 53.4136 118.021 58.5616C117.145 63.7096 119.185 64.0216 119.701 66.3016C120.217 68.5696 115.645 81.3136 115.645 81.3136C115.645 81.3136 115.645 77.0296 106.153 80.8096C96.6613 84.5896 91.2973 92.9656 86.0893 100.67C80.8813 108.374 86.6533 108.614 95.1853 104.486C89.4613 107.426 83.3413 109.718 78.4333 110.114C67.0933 111.038 61.1173 108.578 58.9813 105.674C56.8333 102.758 58.9813 105.674 57.6013 107.618C56.3293 109.406 50.9053 110.786 40.6693 107.09C41.9533 107.126 42.5413 106.07 41.2093 102.614C37.5373 93.1456 20.9293 77.8816 20.4253 81.3016C19.8373 84.1216 20.7853 87.5536 24.7453 93.4936C28.4773 99.0976 32.6773 103.238 38.1613 106.118C38.1013 106.094 38.0413 106.07 37.9813 106.046C42.6613 108.53 48.2893 110.09 55.4533 110.81C70.9213 112.346 115.117 111.578 120.865 111.194C126.613 110.81 126.001 107.366 126.001 107.366C126.001 107.366 130.441 108.746 132.517 108.134C134.581 107.522 149.617 102.398 156.205 95.9296C166.825 85.5136 170.125 70.4536 170.125 67.6936C170.125 64.9336 169.357 60.5656 168.445 58.4296L168.409 58.4416Z" fill="url(#paint5_linear_1614_12551)"/>
<g style="mix-blend-mode:screen" opacity="0.18">
<path d="M122.364 59.9061C121.14 58.1661 132.396 59.0901 137.388 59.9061C142.38 60.7221 141.768 56.3901 141.264 53.7501C140.748 51.1221 145.296 57.8541 145.116 60.0021C144.936 62.1501 135.636 65.5221 129.492 64.1301C123.348 62.7381 122.364 59.9061 122.364 59.9061Z" fill="#DB7DAF"/>
</g>
<g style="mix-blend-mode:screen" opacity="0.18">
<path d="M148.007 58.8015C153.635 59.9295 160.727 57.3495 162.695 54.6975C164.651 52.0455 164.963 52.3695 164.447 56.4975C163.931 60.6255 158.639 65.6895 153.755 63.1695C148.871 60.6495 146.303 58.4655 148.007 58.8015Z" fill="#DB7DAF"/>
</g>
<g style="mix-blend-mode:screen" opacity="0.18">
<path d="M136.668 75.3254C139.704 73.3454 138.3 91.8734 144.528 95.4494C150.756 99.0254 153.012 97.6574 148.008 99.2654C143.004 100.861 133.2 102.085 128.904 97.5014C124.62 92.9054 131.364 78.8174 136.668 75.3374V75.3254Z" fill="#DB7DAF"/>
</g>
<g style="mix-blend-mode:screen" opacity="0.43">
<path d="M61.0941 15.4815C62.4021 18.0975 70.2862 16.0455 79.3702 13.1055C88.4542 10.1655 100.37 14.7255 98.3662 12.5175C96.3622 10.3095 81.8182 5.92951 75.1822 6.72151C68.5462 7.51351 60.5781 14.4615 61.0941 15.4815Z" fill="#DB7DAF"/>
</g>
<g style="mix-blend-mode:screen" opacity="0.43">
<path d="M72.6363 24.6749C71.1723 24.9509 82.7523 31.1189 89.5923 31.8269C96.4323 32.5349 106.584 33.8909 101.412 30.3869C96.2283 26.8829 85.2963 22.2389 72.6363 24.6629V24.6749Z" fill="#DB7DAF"/>
</g>
<g style="mix-blend-mode:screen" opacity="0.43">
<path d="M35.2562 28.9702C33.1442 30.7342 44.0162 29.8942 47.4122 29.7262C50.8082 29.5582 41.6882 23.5702 35.2562 28.9702Z" fill="#DB7DAF"/>
</g>
<g style="mix-blend-mode:screen" opacity="0.43">
<path d="M50.5697 17.4133C47.8217 18.6253 46.0577 14.7613 43.6097 14.8573C41.1737 14.9653 33.9856 20.9293 34.3936 18.0253C34.8136 15.1093 38.1016 10.4893 39.1216 11.9053C40.1416 13.3213 40.5857 13.9333 45.6017 12.6373C50.6297 11.3293 56.9296 8.8933 57.1936 11.9053C57.3256 13.4293 53.1137 16.2853 50.5577 17.4133H50.5697Z" fill="#DB7DAF"/>
</g>
<g style="mix-blend-mode:screen" opacity="0.43">
<path d="M69.9732 3.83051C69.4692 4.70651 72.7452 4.70651 76.7892 2.54651C80.8332 0.386507 89.5812 1.61051 86.2812 1.08251C82.9932 0.542506 72.8772 -1.20949 69.9612 3.84251L69.9732 3.83051Z" fill="#DB7DAF"/>
</g>
<g style="mix-blend-mode:screen" opacity="0.43">
<path d="M45.1565 5.97785C46.6685 6.84185 56.4125 6.81785 60.5525 3.98585C64.6925 1.15385 64.6805 1.28585 66.2165 1.53785C67.7645 1.78985 63.8645 -0.238148 60.1685 0.337852C56.4725 0.925852 44.0405 5.32985 45.1565 5.97785Z" fill="#DB7DAF"/>
</g>
<g style="mix-blend-mode:screen" opacity="0.18">
<path d="M122.771 23.9908C122.879 21.9868 138.299 31.4068 140.747 31.3108C143.195 31.2028 141.059 35.0908 134.615 36.6268C128.183 38.1628 122.567 27.7108 122.771 24.0028V23.9908Z" fill="#DB7DAF"/>
</g>
<g style="mix-blend-mode:screen" opacity="0.18">
<path d="M144.121 46.0345C144.109 48.3625 153.181 41.4145 152.905 38.8585C152.629 36.3025 144.229 29.3065 144.121 46.0345Z" fill="#DB7DAF"/>
</g>
<g style="mix-blend-mode:screen" opacity="0.18">
<path d="M109.069 5.1507C106.729 3.0627 117.697 6.0627 120.457 7.4427C123.217 8.8227 140.833 17.5707 131.197 14.4267C121.561 11.2707 111.781 7.5867 109.057 5.1627L109.069 5.1507Z" fill="#DB7DAF"/>
</g>
<g style="mix-blend-mode:multiply" opacity="0.37">
<path d="M90.3258 94.5132C87.1578 98.8452 109.406 91.3572 111.542 84.6252C113.69 77.8812 102.194 78.2652 90.3258 94.5132Z" fill="#DB7DAF"/>
</g>
<g style="mix-blend-mode:multiply" opacity="0.37">
<path d="M22.8002 81.5541C20.0402 79.5141 23.7242 91.6461 29.0282 94.5141C34.3442 97.3821 39.6002 99.5061 36.2042 94.5141C32.8082 89.5221 28.3202 85.6461 22.8002 81.5541Z" fill="#DB7DAF"/>
</g>
<path d="M68.543 9.7586C68.543 9.7586 78.719 12.4106 83.027 7.7066C83.027 7.7066 73.751 4.7546 68.543 9.7586Z" fill="white"/>
<path d="M45.625 12.6385C45.625 12.6385 53.437 14.3065 56.353 11.3185C56.353 11.3185 57.157 9.02653 45.625 12.6385Z" fill="white"/>
<path d="M57.2168 1.05859C57.2168 1.05859 60.6008 4.29859 63.5528 0.242591C63.5528 0.242591 60.2768 0.110591 57.2168 1.05859Z" fill="white"/>
<path style="mix-blend-mode:multiply" opacity="0.75" d="M168.408 58.4429C167.484 56.2949 165.192 55.2989 165.192 55.2989C163.74 65.5589 153.168 65.5589 148.872 60.6509C144.588 55.7309 142.668 52.5509 145.044 58.2149C147.42 63.8789 129.42 66.9509 126.06 64.2149C122.7 61.4909 123.144 62.0429 119.4 69.0989L119.472 69.8429C119.472 69.8429 119.196 70.6469 118.656 72.0149C117.744 75.2669 116.484 78.9269 115.932 80.5109C123.312 95.8949 148.668 97.6229 163.008 87.2429C168.288 78.5669 170.112 69.7349 170.112 67.6949C170.112 64.9349 169.344 60.5669 168.432 58.4309L168.408 58.4429Z" fill="url(#paint6_linear_1614_12551)"/>
<mask id="mask0_1614_12551" style="mask-type:luminance" maskUnits="userSpaceOnUse" x="23" y="37" width="92" height="49">
<path d="M71.8929 85.1652C71.8929 85.1652 86.7249 68.0412 107.101 69.5052C126.817 70.9092 101.485 44.8332 101.485 44.8332C101.485 44.8332 79.9449 36.9372 76.8009 37.2492C73.6569 37.5612 23.737 44.8332 23.737 44.8332C23.737 44.8332 22.7769 62.3053 24.0009 75.3133C24.0009 75.3133 32.4969 68.7252 43.6329 84.9372L71.9049 85.1532L71.8929 85.1652Z" fill="white"/>
</mask>
<g mask="url(#mask0_1614_12551)">
<g style="mix-blend-mode:multiply" opacity="0.68">
<path d="M82.9691 87.8049C93.1952 87.8049 101.485 78.4566 101.485 66.9249C101.485 55.3932 93.1952 46.0449 82.9691 46.0449C72.743 46.0449 64.4531 55.3932 64.4531 66.9249C64.4531 78.4566 72.743 87.8049 82.9691 87.8049Z" fill="#A783B6"/>
</g>
<mask id="mask1_1614_12551" style="mask-type:luminance" maskUnits="userSpaceOnUse" x="64" y="47" width="38" height="40">
<path d="M82.9691 86.557C93.1952 86.557 101.485 77.7674 101.485 66.925C101.485 56.0825 93.1952 47.293 82.9691 47.293C72.743 47.293 64.4531 56.0825 64.4531 66.925C64.4531 77.7674 72.743 86.557 82.9691 86.557Z" fill="white"/>
</mask>
<g mask="url(#mask1_1614_12551)">
<path d="M82.9691 86.557C93.1952 86.557 101.485 77.7674 101.485 66.925C101.485 56.0825 93.1952 47.293 82.9691 47.293C72.743 47.293 64.4531 56.0825 64.4531 66.925C64.4531 77.7674 72.743 86.557 82.9691 86.557Z" fill="url(#paint7_radial_1614_12551)"/>
<g style="mix-blend-mode:multiply" opacity="0.37">
<path d="M82.9684 51.169C92.9524 51.169 101.04 59.365 101.04 69.481C101.04 72.577 100.272 75.493 98.9284 78.049C101.076 74.881 102.348 71.053 102.348 66.925C102.348 56.077 93.6724 47.293 82.9564 47.293C72.2404 47.293 63.5645 56.089 63.5645 66.925C63.5645 71.053 64.8364 74.893 66.9844 78.049C65.6404 75.493 64.8724 72.577 64.8724 69.481C64.8724 59.365 72.9604 51.169 82.9444 51.169H82.9684Z" fill="#7274EA"/>
</g>
<path style="mix-blend-mode:multiply" d="M84.7943 79.8971C91.9585 79.8971 97.7663 74.0894 97.7663 66.9251C97.7663 59.7609 91.9585 53.9531 84.7943 53.9531C77.63 53.9531 71.8223 59.7609 71.8223 66.9251C71.8223 74.0894 77.63 79.8971 84.7943 79.8971Z" fill="url(#paint8_linear_1614_12551)"/>
<g style="mix-blend-mode:multiply" opacity="0.43">
<path d="M84.7943 55.6691C90.9983 55.6691 96.0503 60.7211 96.0503 66.9251C96.0503 73.1291 90.9983 78.1811 84.7943 78.1811C78.5903 78.1811 73.5383 73.1291 73.5383 66.9251C73.5383 60.7211 78.5903 55.6691 84.7943 55.6691ZM84.7943 53.9531C77.6303 53.9531 71.8223 59.7611 71.8223 66.9251C71.8223 74.0891 77.6303 79.8971 84.7943 79.8971C91.9583 79.8971 97.7663 74.0891 97.7663 66.9251C97.7663 59.7611 91.9583 53.9531 84.7943 53.9531Z" fill="#AE3E0F"/>
</g>
<g style="mix-blend-mode:multiply">
<path d="M84.7946 75.8295C89.7121 75.8295 93.6987 71.843 93.6987 66.9255C93.6987 62.0079 89.7121 58.0215 84.7946 58.0215C79.8771 58.0215 75.8906 62.0079 75.8906 66.9255C75.8906 71.843 79.8771 75.8295 84.7946 75.8295Z" fill="#54421F"/>
</g>
<path style="mix-blend-mode:screen" opacity="0.32" d="M94.7406 77.1497C94.5366 82.5857 89.4486 86.8097 83.3766 86.5817C77.3046 86.3537 72.5406 81.7697 72.7446 76.3217C72.9486 70.8857 78.0366 66.6617 84.1086 66.8897C90.1806 67.1177 94.9446 71.7017 94.7406 77.1497Z" fill="url(#paint9_linear_1614_12551)"/>
<path d="M72.4086 56.7248C72.9486 56.2088 74.9166 56.9408 76.2606 58.0928C76.9446 58.6808 77.8566 60.1688 77.0766 61.0928C76.4166 61.8728 75.1446 61.8248 74.1246 60.8528C72.8526 59.6288 71.7726 57.3368 72.4086 56.7248Z" fill="white"/>
</g>
<path style="mix-blend-mode:screen" opacity="0.43" d="M100.92 61.8496C101.28 63.4816 101.496 65.1736 101.496 66.9256C101.496 78.4576 93.2044 87.8056 82.9804 87.8056C74.9524 87.8056 68.1364 82.0336 65.5684 73.9816C67.5844 83.0656 74.8444 89.7976 83.5084 89.7976C93.7324 89.7976 102.024 80.4496 102.024 68.9176C102.024 66.4336 101.616 64.0696 100.92 61.8616V61.8496Z" fill="url(#paint10_linear_1614_12551)"/>
<path d="M66.7227 57.5049C74.3307 42.7809 95.3187 44.3529 100.527 60.6609C100.527 60.6609 102.519 56.4729 100.527 52.7649C98.3307 48.6729 89.1627 42.6729 78.6987 46.4289C68.6907 50.0169 66.7227 57.5049 66.7227 57.5049Z" fill="#4C2951"/>
<mask id="mask2_1614_12551" style="mask-type:luminance" maskUnits="userSpaceOnUse" x="22" y="41" width="25" height="47">
<path d="M44.4498 50.6048C50.4498 61.8368 42.7698 90.7328 31.6938 86.9048C20.6178 83.0768 18.6859 51.9248 29.1979 43.5128C39.7099 35.1008 44.4379 50.6048 44.4379 50.6048H44.4498Z" fill="white"/>
</mask>
<g mask="url(#mask2_1614_12551)">
<g style="mix-blend-mode:multiply" opacity="0.68">
<path d="M49.0691 66.4217C49.0691 77.7377 43.5011 86.9057 36.6371 86.9057C29.7731 86.9057 24.2051 77.7377 24.2051 66.4217C24.2051 55.1057 29.4131 46.3457 36.2771 46.3457C43.1411 46.3457 49.0691 55.1177 49.0691 66.4217Z" fill="#A783B6"/>
</g>
<mask id="mask3_1614_12551" style="mask-type:luminance" maskUnits="userSpaceOnUse" x="24" y="47" width="26" height="39">
<path d="M36.6371 85.6802C43.5031 85.6802 49.0691 77.0572 49.0691 66.4202C49.0691 55.7832 43.5031 47.1602 36.6371 47.1602C29.7711 47.1602 24.2051 55.7832 24.2051 66.4202C24.2051 77.0572 29.7711 85.6802 36.6371 85.6802Z" fill="white"/>
</mask>
<g mask="url(#mask3_1614_12551)">
<path d="M36.6371 85.6802C43.5031 85.6802 49.0691 77.0572 49.0691 66.4202C49.0691 55.7832 43.5031 47.1602 36.6371 47.1602C29.7711 47.1602 24.2051 55.7832 24.2051 66.4202C24.2051 77.0572 29.7711 85.6802 36.6371 85.6802Z" fill="url(#paint11_radial_1614_12551)"/>
<g style="mix-blend-mode:multiply" opacity="0.37">
<path d="M36.6375 50.9762C43.3455 50.9762 48.7695 59.0162 48.7695 68.9282C48.7695 71.9642 48.2535 74.8202 47.3535 77.3282C48.7935 74.2202 49.6455 70.4762 49.6455 66.4202C49.6455 55.7882 43.8135 47.1602 36.6255 47.1602C29.4375 47.1602 23.6055 55.7762 23.6055 66.4202C23.6055 70.4762 24.4575 74.2322 25.8975 77.3282C24.9975 74.8202 24.4815 71.9642 24.4815 68.9282C24.4815 59.0162 29.9175 50.9762 36.6135 50.9762H36.6375Z" fill="#7274EA"/>
</g>
<path style="mix-blend-mode:multiply" d="M39.7204 79.1412C45.5592 79.1412 50.2924 73.4462 50.2924 66.4212C50.2924 59.3961 45.5592 53.7012 39.7204 53.7012C33.8817 53.7012 29.1484 59.3961 29.1484 66.4212C29.1484 73.4462 33.8817 79.1412 39.7204 79.1412Z" fill="url(#paint12_linear_1614_12551)"/>
<g style="mix-blend-mode:multiply" opacity="0.43">
<path d="M39.7204 55.3812C44.7724 55.3812 48.8885 60.3372 48.8885 66.4212C48.8885 72.5052 44.7724 77.4612 39.7204 77.4612C34.6684 77.4612 30.5525 72.5052 30.5525 66.4212C30.5525 60.3372 34.6684 55.3812 39.7204 55.3812ZM39.7204 53.7012C33.8764 53.7012 29.1484 59.4012 29.1484 66.4212C29.1484 73.4412 33.8764 79.1412 39.7204 79.1412C45.5644 79.1412 50.2924 73.4412 50.2924 66.4212C50.2924 59.4012 45.5644 53.7012 39.7204 53.7012Z" fill="#AE3E0F"/>
</g>
<g style="mix-blend-mode:multiply">
<path d="M40.4636 75.217C45.0365 75.217 48.7436 71.2789 48.7436 66.421C48.7436 61.5631 45.0365 57.625 40.4636 57.625C35.8907 57.625 32.1836 61.5631 32.1836 66.421C32.1836 71.2789 35.8907 75.217 40.4636 75.217Z" fill="#54421F"/>
</g>
<path style="mix-blend-mode:screen" opacity="0.32" d="M47.8337 76.4528C47.6657 81.7808 43.5257 85.9207 38.5697 85.7048C33.6137 85.4767 29.7377 80.9768 29.9057 75.6488C30.0737 70.3208 34.2137 66.1808 39.1697 66.3968C44.1257 66.6248 48.0017 71.1248 47.8337 76.4528Z" fill="url(#paint13_linear_1614_12551)"/>
<path d="M30.0384 56.0393C30.6384 55.7393 32.4503 56.7593 33.5903 57.9593C34.1783 58.5713 34.8624 59.9513 33.9864 60.5153C33.2424 60.9953 32.0064 60.6833 31.1544 59.6873C30.0864 58.4393 29.3424 56.3873 30.0384 56.0393Z" fill="white"/>
</g>
<path style="mix-blend-mode:screen" opacity="0.43" d="M48.6853 61.4534C48.9253 63.0494 49.0693 64.7054 49.0693 66.4214C49.0693 77.7374 43.5013 86.9054 36.6373 86.9054C31.2493 86.9054 26.6772 81.2414 24.9492 73.3454C26.3052 82.2494 31.1773 88.8494 36.9973 88.8494C43.8613 88.8494 49.4292 79.6814 49.4292 68.3654C49.4292 65.9294 49.1533 63.6014 48.6853 61.4414V61.4534Z" fill="url(#paint14_linear_1614_12551)"/>
<path d="M46.55 57.7327C43.862 42.8647 28.334 44.2927 24.842 60.2767C24.842 60.2767 23.51 56.1727 24.842 52.5367C26.318 48.5167 32.822 42.8407 39.842 46.5247C46.55 50.0407 46.55 57.7447 46.55 57.7447V57.7327Z" fill="#4C2951"/>
</g>
</g>
<path d="M38.1962 86.3546C38.6162 86.3786 39.5762 86.7026 39.3122 86.3546C39.0482 86.0066 38.4602 85.1546 36.7802 84.9746C35.1002 84.7946 34.1642 85.6346 34.8962 85.4906C35.6282 85.3586 37.2002 86.2706 37.8842 86.9666C38.5682 87.6506 53.0162 106.095 68.4122 101.439C78.3362 98.4386 83.4602 90.7226 83.7842 90.2546C84.1082 89.7866 85.5722 90.2186 86.2562 90.4826C86.9402 90.7466 84.7562 88.4906 83.7842 88.1426C82.8122 87.8066 79.5362 88.3826 80.2562 88.4906C80.9762 88.5986 82.0922 88.8506 82.2722 89.0066C82.4522 89.1626 78.5402 91.1306 66.6962 91.9946C54.8522 92.8586 42.3243 89.9186 41.1363 89.4146C39.9483 88.9106 37.3442 86.3066 38.1842 86.3426L38.1962 86.3546Z" fill="#32236C"/>
<path d="M68.4135 101.438C70.1055 100.934 71.6415 100.274 73.0455 99.5535C73.5615 96.7935 74.8815 93.7455 75.9855 91.5855C73.6575 92.0055 70.6215 92.4135 66.6975 92.7015C57.2655 93.3975 47.4255 91.6695 43.1895 90.6855C44.2815 91.9095 46.2255 94.0575 47.6295 96.2055C53.2455 100.322 60.7095 103.766 68.4015 101.438H68.4135Z" fill="url(#paint15_linear_1614_12551)"/>
<g style="mix-blend-mode:multiply" opacity="0.68">
<path d="M73.0572 99.5535C73.5732 96.7935 74.8932 93.7455 75.9972 91.5855C73.6692 92.0055 70.6332 92.4135 66.7092 92.7015C57.2772 93.3975 47.4372 91.6695 43.2012 90.6855C43.7172 91.2735 44.4371 92.0655 45.1931 92.9655C45.0491 91.0815 67.1172 94.8495 68.9892 95.4615C70.8612 96.0735 67.1172 101.054 64.1292 102.17C65.5332 102.11 66.9732 101.882 68.4132 101.438C70.1052 100.934 71.6412 100.274 73.0452 99.5535H73.0572Z" fill="#D27DD6"/>
</g>
<g style="mix-blend-mode:screen" opacity="0.43">
<path d="M78.2528 81.3256C77.0768 82.7656 95.6167 80.5576 99.6007 77.0896C103.585 73.6216 105.733 70.6576 104.809 70.0456C103.885 69.4336 86.7968 70.9216 78.2528 81.3376V81.3256Z" fill="#DB7DAF"/>
</g>
<g style="mix-blend-mode:screen" opacity="0.43">
<path d="M24.7442 75.8422C22.8842 76.8742 33.9602 80.0062 37.2722 80.4982C40.5842 81.0022 32.6282 71.4382 24.7442 75.8422Z" fill="#DB7DAF"/>
</g>
<path d="M85.416 81.2776C86.52 79.2736 90.672 78.7456 92.988 79.8016C92.988 79.8016 89.5921 81.0256 87.8521 81.2776C86.1121 81.5176 85.416 81.2776 85.416 81.2776Z" fill="white"/>
<path d="M29.0664 78.3733C29.0664 78.3733 31.4184 77.6653 31.9824 78.3733C32.5464 79.0813 32.5104 79.4053 32.5104 79.4053C32.5104 79.4053 30.0264 79.5613 29.0664 78.3733Z" fill="white"/>
<path style="mix-blend-mode:screen" opacity="0.43" d="M43.8359 93.1096C43.8359 93.1096 51.7439 100.622 59.1479 101.75C66.5519 102.878 70.3199 101.174 74.7959 98.5936C74.7959 98.5936 65.2799 105.11 57.8279 103.934C50.3759 102.758 43.8479 93.0977 43.8479 93.0977L43.8359 93.1096Z" fill="url(#paint16_linear_1614_12551)"/>
<path d="M109.081 62.2995L0.874023 60.8945L0.779244 68.1939L108.986 69.5989L109.081 62.2995Z" fill="url(#paint17_linear_1614_12551)"/>
<path style="mix-blend-mode:multiply" d="M4.95996 68.2461L4.90643 72.3689L9.02923 72.4224L8.9757 76.5452L13.1661 76.5996L13.1126 80.7224L17.2354 80.776L17.1818 84.8988L40.7697 85.2051L40.8232 81.0823L45.0136 81.1367L45.0671 77.0139L49.1899 77.0674L49.2435 72.9446L49.297 68.8218L4.95996 68.2461Z" fill="url(#paint18_linear_1614_12551)"/>
<path style="mix-blend-mode:multiply" d="M60.6533 68.9707L60.5998 73.0935L60.5463 77.2163L64.6691 77.2698L64.6155 81.3926L68.8059 81.4471L68.7524 85.5699L92.4078 85.877L92.4613 81.7542L96.5841 81.8077L96.6377 77.6849L100.625 77.7367L100.679 73.6139L105.004 73.6701L105.058 69.5473L60.6533 68.9707Z" fill="url(#paint19_linear_1614_12551)"/>
<path d="M25.4089 76.7606L21.2861 76.707L21.2326 80.8298L25.3554 80.8834L25.4089 76.7606Z" fill="#F2F4F6"/>
<path d="M21.3328 72.5848L17.21 72.5312L17.1564 76.6541L21.2792 76.7076L21.3328 72.5848Z" fill="#F2F4F6"/>
<path d="M17.2683 68.407L13.1455 68.3535L13.092 72.4763L17.2148 72.5299L17.2683 68.407Z" fill="#F2F4F6"/>
<path d="M33.6501 76.866L29.5273 76.8125L29.4738 80.9353L33.5966 80.9888L33.6501 76.866Z" fill="#F2F4F6"/>
<path d="M29.5818 72.6903L25.459 72.6367L25.4055 76.7595L29.5283 76.8131L29.5818 72.6903Z" fill="#F2F4F6"/>
<path d="M25.5164 68.5145L21.3936 68.4609L21.34 72.5837L25.4628 72.6373L25.5164 68.5145Z" fill="#F2F4F6"/>
<path d="M77.6462 77.4383L73.5234 77.3848L73.4699 81.5076L77.5927 81.5611L77.6462 77.4383Z" fill="#F2F4F6"/>
<path d="M73.5808 73.2625L69.458 73.209L69.4045 77.3318L73.5273 77.3853L73.5808 73.2625Z" fill="#F2F4F6"/>
<path d="M69.5144 69.0848L65.3916 69.0312L65.3381 73.1541L69.4609 73.2076L69.5144 69.0848Z" fill="#F2F4F6"/>
<path d="M85.8982 77.5457L81.7754 77.4922L81.7219 81.615L85.8447 81.6685L85.8982 77.5457Z" fill="#F2F4F6"/>
<path d="M81.8337 73.3699L77.7109 73.3164L77.6574 77.4392L81.7802 77.4927L81.8337 73.3699Z" fill="#F2F4F6"/>
<path d="M77.7527 69.1922L73.6299 69.1387L73.5763 73.2615L77.6992 73.315L77.7527 69.1922Z" fill="#F2F4F6"/>
<g style="mix-blend-mode:soft-light">
<path d="M40.8287 81.0847L40.626 81.082L40.5724 85.2048L40.7752 85.2075L40.8287 81.0847Z" fill="#DBDDDB"/>
</g>
<g style="mix-blend-mode:soft-light">
<path d="M92.4694 81.7546L92.2666 81.752L92.2131 85.8748L92.4158 85.8774L92.4694 81.7546Z" fill="#DBDDDB"/>
</g>
<g style="mix-blend-mode:soft-light">
<path d="M96.6403 77.6843L96.4375 77.6816L96.384 81.8044L96.5867 81.8071L96.6403 77.6843Z" fill="#DBDDDB"/>
</g>
<g style="mix-blend-mode:soft-light">
<path d="M100.684 73.614L100.481 73.6113L100.428 77.7341L100.631 77.7368L100.684 73.614Z" fill="#DBDDDB"/>
</g>
<g style="mix-blend-mode:soft-light">
<path d="M45.069 77.0144L44.8662 77.0117L44.8127 81.1345L45.0154 81.1372L45.069 77.0144Z" fill="#DBDDDB"/>
</g>
<g style="mix-blend-mode:soft-light">
<path d="M49.3092 68.8229L49.1064 68.8203L48.9994 77.0659L49.2021 77.0686L49.3092 68.8229Z" fill="#DBDDDB"/>
</g>
<path d="M107.939 61.5405L1.82708 60.1627L0.871206 60.8938L108.875 62.2962L107.939 61.5405Z" fill="url(#paint20_linear_1614_12551)"/>
<defs>
<linearGradient id="paint0_linear_1614_12551" x1="7.00872" y1="131.63" x2="33.1087" y2="131.63" gradientUnits="userSpaceOnUse">
<stop offset="0.3" stop-color="white"/>
<stop offset="1" stop-color="#DB7DAF"/>
</linearGradient>
<linearGradient id="paint1_linear_1614_12551" x1="99.3611" y1="145.551" x2="127.993" y2="145.551" gradientUnits="userSpaceOnUse">
<stop offset="0.3" stop-color="white"/>
<stop offset="1" stop-color="#DB7DAF"/>
</linearGradient>
<linearGradient id="paint2_linear_1614_12551" x1="62.9537" y1="-8.62616" x2="108.362" y2="107.174" gradientUnits="userSpaceOnUse">
<stop stop-color="#BDBDFF"/>
<stop offset="0.84" stop-color="#728CCE"/>
</linearGradient>
<radialGradient id="paint3_radial_1614_12551" cx="0" cy="0" r="1" gradientUnits="userSpaceOnUse" gradientTransform="translate(73.2685 70.9477) scale(49.2 18.24)">
<stop stop-color="#DB7DAF"/>
<stop offset="0.32" stop-color="#E5A3C6"/>
<stop offset="1" stop-color="white"/>
</radialGradient>
<linearGradient id="paint4_linear_1614_12551" x1="24.6605" y1="24.109" x2="117.216" y2="24.109" gradientUnits="userSpaceOnUse">
<stop/>
<stop offset="1" stop-color="#DB7DAF"/>
</linearGradient>
<linearGradient id="paint5_linear_1614_12551" x1="49.9693" y1="105.47" x2="171.421" y2="17.6656" gradientUnits="userSpaceOnUse">
<stop stop-color="white"/>
<stop offset="0.14" stop-color="#FEFCFD"/>
<stop offset="0.22" stop-color="#FCF4F8"/>
<stop offset="0.28" stop-color="#F8E6EF"/>
<stop offset="0.34" stop-color="#F2D1E3"/>
<stop offset="0.4" stop-color="#EBB7D3"/>
<stop offset="0.44" stop-color="#E298BF"/>
<stop offset="0.48" stop-color="#DB7DAF"/>
<stop offset="0.84" stop-color="white"/>
</linearGradient>
<linearGradient id="paint6_linear_1614_12551" x1="143.004" y1="93.8189" x2="143.004" y2="55.2029" gradientUnits="userSpaceOnUse">
<stop offset="0.3" stop-color="white"/>
<stop offset="1" stop-color="#DB7DAF"/>
</linearGradient>
<radialGradient id="paint7_radial_1614_12551" cx="0" cy="0" r="1" gradientUnits="userSpaceOnUse" gradientTransform="translate(82.9691 66.925) scale(20.808 20.808)">
<stop offset="0.41" stop-color="white"/>
<stop offset="0.6" stop-color="#FCFCFE"/>
<stop offset="0.7" stop-color="#F4F5FA"/>
<stop offset="0.77" stop-color="#E7E9F5"/>
<stop offset="0.84" stop-color="#D4D7EC"/>
<stop offset="0.89" stop-color="#BCC1E2"/>
<stop offset="0.95" stop-color="#9EA5D5"/>
<stop offset="1" stop-color="#7781C5"/>
</radialGradient>
<linearGradient id="paint8_linear_1614_12551" x1="84.7943" y1="79.8971" x2="84.7943" y2="53.9531" gradientUnits="userSpaceOnUse">
<stop stop-color="#84AEFF"/>
<stop offset="0.13" stop-color="#698FD9"/>
<stop offset="0.3" stop-color="#496BAE"/>
<stop offset="0.47" stop-color="#314E8C"/>
<stop offset="0.63" stop-color="#1F3A74"/>
<stop offset="0.78" stop-color="#142E66"/>
<stop offset="0.9" stop-color="#112A61"/>
</linearGradient>
<linearGradient id="paint9_linear_1614_12551" x1="82.0926" y1="86.446" x2="85.3987" y2="66.9714" gradientUnits="userSpaceOnUse">
<stop offset="0.23"/>
<stop offset="0.3" stop-color="#080305"/>
<stop offset="0.4" stop-color="#1F0D15"/>
<stop offset="0.53" stop-color="#451C2E"/>
<stop offset="0.68" stop-color="#793251"/>
<stop offset="0.85" stop-color="#BB4D7D"/>
<stop offset="1" stop-color="#FF6AAB"/>
</linearGradient>
<linearGradient id="paint10_linear_1614_12551" x1="65.5564" y1="75.8296" x2="102.024" y2="75.8296" gradientUnits="userSpaceOnUse">
<stop/>
<stop offset="0.1" stop-color="#2E1A25"/>
<stop offset="0.3" stop-color="#8A4F6E"/>
<stop offset="0.44" stop-color="#C4709D"/>
<stop offset="0.51" stop-color="#DB7DAF"/>
<stop offset="1"/>
</linearGradient>
<radialGradient id="paint11_radial_1614_12551" cx="0" cy="0" r="1" gradientUnits="userSpaceOnUse" gradientTransform="translate(35.1305 66.3496) scale(13.9414 20.3918)">
<stop offset="0.41" stop-color="white"/>
<stop offset="0.6" stop-color="#FCFCFE"/>
<stop offset="0.7" stop-color="#F4F5FA"/>
<stop offset="0.77" stop-color="#E7E9F5"/>
<stop offset="0.84" stop-color="#D4D7EC"/>
<stop offset="0.89" stop-color="#BCC1E2"/>
<stop offset="0.95" stop-color="#9EA5D5"/>
<stop offset="1" stop-color="#7781C5"/>
</radialGradient>
<linearGradient id="paint12_linear_1614_12551" x1="39.7204" y1="79.1412" x2="39.7204" y2="53.7012" gradientUnits="userSpaceOnUse">
<stop stop-color="#84AEFF"/>
<stop offset="0.13" stop-color="#698FD9"/>
<stop offset="0.3" stop-color="#496BAE"/>
<stop offset="0.47" stop-color="#314E8C"/>
<stop offset="0.63" stop-color="#1F3A74"/>
<stop offset="0.78" stop-color="#142E66"/>
<stop offset="0.9" stop-color="#112A61"/>
</linearGradient>
<linearGradient id="paint13_linear_1614_12551" x1="37.2534" y1="85.5098" x2="40.4813" y2="66.5247" gradientUnits="userSpaceOnUse">
<stop offset="0.23"/>
<stop offset="0.3" stop-color="#080305"/>
<stop offset="0.4" stop-color="#1F0D15"/>
<stop offset="0.53" stop-color="#451C2E"/>
<stop offset="0.68" stop-color="#793251"/>
<stop offset="0.85" stop-color="#BB4D7D"/>
<stop offset="1" stop-color="#FF6AAB"/>
</linearGradient>
<linearGradient id="paint14_linear_1614_12551" x1="24.9492" y1="75.1454" x2="49.4292" y2="75.1454" gradientUnits="userSpaceOnUse">
<stop/>
<stop offset="0.1" stop-color="#2E1A25"/>
<stop offset="0.3" stop-color="#8A4F6E"/>
<stop offset="0.44" stop-color="#C4709D"/>
<stop offset="0.51" stop-color="#DB7DAF"/>
<stop offset="1"/>
</linearGradient>
<linearGradient id="paint15_linear_1614_12551" x1="43.2015" y1="96.4335" x2="75.9975" y2="96.4335" gradientUnits="userSpaceOnUse">
<stop stop-color="#E5E6F3"/>
<stop offset="0.67" stop-color="#D6D8EC"/>
<stop offset="1" stop-color="#CED0E9"/>
</linearGradient>
<linearGradient id="paint16_linear_1614_12551" x1="43.8359" y1="98.5937" x2="74.7959" y2="98.5937" gradientUnits="userSpaceOnUse">
<stop/>
<stop offset="0.1" stop-color="#2E1A25"/>
<stop offset="0.3" stop-color="#8A4F6E"/>
<stop offset="0.44" stop-color="#C4709D"/>
<stop offset="0.51" stop-color="#DB7DAF"/>
<stop offset="1"/>
</linearGradient>
<linearGradient id="paint17_linear_1614_12551" x1="55.0076" y1="61.8678" x2="54.9164" y2="68.8969" gradientUnits="userSpaceOnUse">
<stop/>
<stop offset="1" stop-color="#161719"/>
</linearGradient>
<linearGradient id="paint18_linear_1614_12551" x1="26.9152" y1="84.9576" x2="27.1294" y2="68.4664" gradientUnits="userSpaceOnUse">
<stop stop-color="#787A87"/>
<stop offset="1" stop-color="#161719"/>
</linearGradient>
<linearGradient id="paint19_linear_1614_12551" x1="84.0654" y1="-21.3071" x2="84.0654" y2="-21.3071" gradientUnits="userSpaceOnUse">
<stop stop-color="#787A87"/>
<stop offset="1" stop-color="#161719"/>
</linearGradient>
<linearGradient id="paint20_linear_1614_12551" x1="54.8828" y1="60.8516" x2="54.8732" y2="61.595" gradientUnits="userSpaceOnUse">
<stop stop-color="#4E4F58"/>
<stop offset="0.04" stop-color="#A4A7B8"/>
<stop offset="0.84" stop-color="#4E4F58"/>
<stop offset="1" stop-color="#1E1E1E"/>
</linearGradient>
</defs>
</svg>
