<svg width="233" height="247" viewBox="0 0 233 247" fill="none" xmlns="http://www.w3.org/2000/svg">
<path d="M66.8184 150.259C66.8184 150.259 53.5224 142.327 45.4464 125.479C37.3824 108.631 39.6264 82.495 42.3864 78.667C45.1464 74.827 49.3704 78.403 53.3304 90.559C57.2904 102.715 63.4104 134.683 67.5024 142.747C71.5944 150.811 66.8184 150.271 66.8184 150.271V150.259Z" fill="#5568B1"/>
<g style="mix-blend-mode:multiply" opacity="0.43">
<path d="M40.8248 81.4883C38.2088 81.6683 40.2128 76.2923 44.3048 76.1723C48.4088 76.0523 54.8888 80.5043 40.8248 81.4883Z" fill="#C94B8A"/>
</g>
<path style="mix-blend-mode:multiply" opacity="0.43" d="M38.1035 87.6205C36.8795 80.8525 40.7075 73.9525 45.4355 75.1525C50.1635 76.3525 50.7755 82.3645 50.7755 84.9805C50.7755 87.5965 50.4875 84.8245 47.3795 82.2805C44.7035 80.0845 40.3115 81.0925 39.1595 85.2085C38.0075 89.3245 38.1155 87.6205 38.1155 87.6205H38.1035Z" fill="url(#paint0_linear_1705_7493)"/>
<path d="M67.2802 36.0054C67.2802 36.0054 64.3748 27.4718 56.6741 25.7249C48.9734 23.9781 35.0462 28.4188 27.8347 18.3217C20.6232 8.22461 13.5135 -5.16933 0.880303 2.33322C0.880303 2.33322 11.2749 1.64788 14.3654 12.321C17.4527 23.0002 13.7075 38.2717 25.6459 50.3361C37.5783 62.3973 42.5434 65.7543 51.2002 66.8837L67.2893 36.0179L67.2802 36.0054Z" fill="#B19BC2"/>
<path opacity="0.5" d="M62.6504 31.728C60.3793 31.8218 59.0016 35.1514 58.2045 36.8302C56.1051 41.2713 53.8584 45.6364 51.584 49.9949C50.4435 52.188 49.3888 54.4409 48.1869 56.6024C47.4881 57.8501 43.5765 63.4225 42.562 59.0672C41.6937 55.3315 44.0467 50.8659 45.2809 47.4078C46.8743 42.9385 48.6842 38.4411 49.4991 33.7484C49.9969 30.8736 50.0379 27.9806 47.0682 26.4779C45.884 25.8818 44.6227 25.5101 43.3418 25.2216C48.2586 25.4219 53.126 24.9204 56.6669 25.7234C61.932 26.9195 64.9538 31.2857 66.3398 33.9288C65.3251 32.6432 64.1119 31.6668 62.6443 31.7248L62.6504 31.728Z" fill="#B5A4BC"/>
<path opacity="0.5" d="M25.6166 16.2065C23.2285 15.0974 23.1863 18.7904 23.2099 20.0537C23.2403 21.9812 23.1872 24.1453 22.7612 26.0235C22.6302 26.5931 22.4741 27.9036 21.8461 28.2165C22.0358 28.1202 21.6495 27.9051 21.4685 27.5785C20.5541 25.9483 20.0968 24.0801 19.6355 22.2798C18.0866 16.2808 17.0906 7.91732 11.5896 3.9727C8.77804 1.95326 5.50302 1.59847 2.41712 2.36717C1.47322 2.28378 0.879826 2.31925 0.879826 2.31925C13.4881 -5.16511 20.5895 8.1546 27.7887 18.2453C27.0958 17.3901 26.4118 16.5628 25.6229 16.1942L25.6166 16.2065Z" fill="#B5A4BC"/>
<g style="mix-blend-mode:multiply" opacity="0.5">
<path d="M7.37684 0.15509C6.7972 0.555142 6.47502 1.10371 6.58248 1.85863C6.72393 2.84871 7.69951 3.57794 8.47129 4.06981C10.6244 5.43827 12.6093 6.44013 13.8912 8.77306C15.9241 12.4808 16.9111 17.055 17.7621 21.1703C18.2298 23.4247 18.818 25.6713 19.2423 27.9343C19.4904 29.2748 19.6512 31.1452 20.6474 32.1805C22.972 34.6012 24.3877 31.198 24.8421 29.28C26.0709 24.1172 26.3272 18.9262 24.8714 14.071C25.8624 15.5077 26.8412 16.938 27.8208 18.3065C31.9664 24.1079 38.3241 25.1145 44.4432 25.2441C44.1033 25.4959 43.7784 25.7789 43.4749 26.0806C41.9883 27.5898 41.2396 29.3403 40.7559 31.3752C40.0665 34.2599 39.3526 37.1318 38.7032 40.0293C37.8438 43.8752 36.2794 48.0176 36.3108 51.9894C36.3471 55.8161 38.6208 58.5913 41.8758 60.4745C45.0112 62.2882 48.3856 62.601 50.6448 59.4004C51.8594 57.6807 52.6368 55.6187 53.5662 53.744C54.9174 51.0225 56.3054 48.3199 57.6964 45.6267C59.908 41.3446 63.2322 36.9998 63.6336 32.0547C63.7069 31.1755 63.5662 30.3645 63.2826 29.6197C66.0943 32.5717 67.2631 35.9964 67.2631 35.9964L51.174 66.8622C42.514 65.7389 37.5521 62.3758 25.6198 50.3146C13.6874 38.2533 17.4265 22.9787 14.3392 12.2995C11.2519 1.62022 0.854134 2.31171 0.854134 2.31171C3.19778 0.91874 5.3528 0.252114 7.3523 0.142416L7.37684 0.15509Z" fill="#B19BC2"/>
</g>
<g style="mix-blend-mode:multiply" opacity="0.5">
<path d="M15.2344 15.3816C16.8011 22.3845 16.6358 30.2881 19.8112 36.8396C20.8185 38.9218 23.3237 42.8736 26.1903 41.6419C28.4481 40.6708 28.9153 36.5913 29.532 34.5395C30.7464 30.4729 31.2852 26.8266 29.5243 22.863C28.3245 20.1606 26.5586 17.7564 25.523 15.0067C26.2958 16.1286 27.0595 17.238 27.8268 18.3104C31.0413 22.8149 35.5938 24.4279 40.3269 24.984C39.1877 25.4292 38.1507 26.0827 37.3177 27.199C36.007 28.9544 35.6269 31.3304 35.1858 33.4184C34.6035 36.1408 34.086 38.8732 33.5437 41.6084C32.6948 45.8251 31.4271 49.9497 33.1701 54.0984C34.7784 57.921 38.475 60.7549 41.9597 62.7801C44.7457 64.3977 48.0296 66.902 50.4231 63.3511C53.4307 58.8971 55.7876 53.8973 58.357 49.1782C60.5909 45.0786 62.6737 40.7299 64.1556 36.2807C64.8244 34.2636 64.8853 32.4454 64.2805 30.7576C66.38 33.3884 67.2691 36.0003 67.2691 36.0003L51.18 66.8661C42.52 65.7428 37.5581 62.3797 25.6258 50.3185C13.8001 38.3667 17.3608 23.2719 14.4276 12.6102C14.7526 13.5007 15.0122 14.4275 15.2222 15.3752L15.2344 15.3816Z" fill="#B19BC2"/>
</g>
<g style="mix-blend-mode:multiply">
<path d="M0.876274 2.32377C0.876274 2.32377 1.22859 2.30368 1.88273 2.34622C2.53687 2.38875 3.50213 2.49094 4.68387 2.80597C5.86561 3.121 7.27947 3.63363 8.70331 4.56329C10.1242 5.48365 11.533 6.84854 12.5873 8.64423C13.1191 9.5406 13.5632 10.5315 13.9136 11.5985C13.9935 11.8651 14.0795 12.1349 14.1594 12.4015C14.233 12.6804 14.3034 12.9655 14.3769 13.2444C14.5022 13.8142 14.6307 14.378 14.7341 14.9753C15.1572 17.331 15.3495 19.8627 15.5344 22.4839C15.7132 25.102 15.8752 27.8279 16.222 30.5871C16.5688 33.3463 17.0973 36.1449 17.9882 38.8588C18.4213 40.2171 18.9567 41.5427 19.5761 42.8263C19.8702 43.4756 20.2265 44.0948 20.5581 44.7168C20.93 45.3207 21.277 45.9429 21.6802 46.5164C22.4522 47.7 23.3335 48.7925 24.2433 49.8296C25.1747 50.8702 26.1229 51.8029 27.0339 52.7475C28.8931 54.6247 30.6945 56.4333 32.4921 58.0689C34.2832 59.7167 36.0424 61.2159 37.7674 62.4954C39.4985 63.778 41.2176 64.798 42.829 65.5603C44.4341 66.3194 45.9129 66.8267 47.1503 67.1393C47.7656 67.3173 48.3199 67.4326 48.8005 67.5254C49.2808 67.6336 49.6937 67.7069 50.0266 67.7545C50.6922 67.8651 51.0528 67.9193 51.0528 67.9193L51.3243 65.8136C51.3243 65.8136 50.9853 65.7628 50.3533 65.6773C50.0327 65.6361 49.6444 65.5754 49.1916 65.4892C48.7387 65.403 48.218 65.3128 47.6425 65.1632C46.4878 64.901 45.1254 64.4693 43.6271 63.8043C42.1288 63.1392 40.4947 62.2254 38.8087 61.0359C37.1195 59.8527 35.3748 58.4309 33.5764 56.8571C31.7688 55.2862 29.945 53.536 28.0541 51.7201C27.115 50.7999 26.1327 49.8729 25.2373 48.9131C24.3422 47.9379 23.4724 46.9136 22.7057 45.7949C22.3021 45.2522 21.9576 44.6702 21.5885 44.091C21.2504 43.4967 20.8998 42.9116 20.6021 42.2993C19.9819 41.0775 19.4303 39.8134 18.978 38.5073C18.0547 35.9012 17.4666 33.1728 17.0636 30.4622C16.6545 27.7485 16.4274 25.0434 16.19 22.4184C15.9433 19.7964 15.6895 17.2484 15.208 14.8704C15.0953 14.276 14.9486 13.6873 14.8017 13.114C14.722 12.832 14.6485 12.5531 14.5688 12.271C14.4798 11.9919 14.3876 11.7189 14.2955 11.446C13.9112 10.3693 13.4303 9.35938 12.8647 8.45331C11.7427 6.6382 10.2689 5.27863 8.80767 4.37627C7.34028 3.47075 5.89831 2.98246 4.71003 2.69514C3.51245 2.41079 2.54065 2.3363 1.88334 2.2999C1.22899 2.2728 0.87351 2.29903 0.87351 2.29903L0.876274 2.32377Z" fill="#B19BC2"/>
</g>
<g style="mix-blend-mode:screen">
<path d="M53.8436 26.4183C54.7835 25.8624 56.9406 26.2149 57.8633 26.5049C59.518 27.0176 61.1955 28.3891 62.7926 29.7657C62.9422 29.8974 64.3025 31.4315 64.3078 31.4964C64.3177 30.7399 59.3999 28.2544 58.6407 27.9789C56.44 27.1842 55.1459 27.192 55.5932 29.5912C56.1414 32.5321 55.9298 34.0704 53.6398 36.3225C52.1725 37.764 51.8257 39.4889 51.1067 41.3324C50.3047 43.3817 44.9163 57.9677 43.9496 59.6288C43.8737 59.7606 46.6437 51.2828 48.1734 47.1924C49.1077 44.7063 50.0699 42.2113 50.8443 39.6737C51.3895 37.8958 52.1907 36.6155 53.4956 35.3077C55.73 33.0579 54.3539 31.3136 53.378 28.7191C53.0946 27.9588 53.106 26.8533 53.8529 26.4153L53.8436 26.4183Z" fill="#B19BC2"/>
</g>
<g style="mix-blend-mode:screen">
<path d="M3.58263 1.25135C9.56203 -0.921648 13.1516 1.59282 15.6741 3.75053C17.1798 5.03331 19.2451 7.68531 20.5005 9.21188C22.1449 11.2191 23.4934 13.4232 25.0412 15.4971C25.1111 15.5876 24.9612 15.7123 24.8882 15.6279C22.3377 12.7719 20.0519 9.74953 17.2826 7.09139C14.2418 4.17647 12.1183 1.72752 7.70372 1.14164C5.00626 0.782054 3.40587 1.30771 3.5858 1.24521L3.58263 1.25135Z" fill="#B19BC2"/>
</g>
<path d="M67.5825 33.5215L69.2363 34.373L35.2282 100.018L33.5744 99.1664L67.5825 33.5215Z" fill="#B19BC2" stroke="#683762" stroke-width="1.29" stroke-miterlimit="10"/>
<g style="mix-blend-mode:multiply">
<path d="M69.2363 34.373L35.2282 100.018L33.5744 99.1664L67.5825 33.5215L69.2363 34.373ZM35.0717 98.0186C34.9721 98.2108 35.5682 98.5177 35.6678 98.3256L65.8311 40.1021C65.9307 39.91 65.3346 39.6031 65.2351 39.7952L35.0717 98.0186Z" fill="#B19BC2"/>
</g>
<g style="mix-blend-mode:multiply" opacity="0.8">
<path d="M66.6251 38.5243C66.6233 38.3196 66.1709 37.549 65.7249 38.0155C65.2078 38.5642 64.9278 39.2691 64.3342 39.8011L67.5864 33.5235L69.2402 34.375L66.1269 40.3846C66.2464 39.7046 66.6313 39.2576 66.6228 38.5287L66.6251 38.5243Z" fill="#B19BC2"/>
</g>
<path d="M54.3803 61.0776C55.5682 58.7968 56.7515 56.5137 57.9349 54.2306C60.3106 49.669 62.7087 45.119 65.118 40.5692C65.2598 40.2969 65.4329 40.0409 65.6016 39.7825C65.6179 39.7513 65.7074 39.7976 65.6911 39.8289C64.7094 42.205 63.4229 44.446 62.2487 46.7225C61.063 49.0101 59.8706 51.2886 58.6828 53.5694C56.3327 58.0818 53.9802 62.5988 51.6077 67.0997C51.4729 67.3586 36.3936 96.3125 36.2364 96.5598C36.1947 96.6289 35.9798 96.5177 36.0125 96.4439C37.0043 94.1467 53.2386 63.2916 54.3894 61.071L54.3803 61.0776Z" fill="#E8D9F0"/>
<g style="mix-blend-mode:multiply" opacity="0.6">
<path d="M28.985 99.9157C27.8887 102.038 28.6579 104.612 30.7009 105.667C32.7438 106.722 35.2874 105.86 36.3837 103.737C37.48 101.614 36.7108 99.041 34.6678 97.9859C32.6249 96.9307 30.0782 97.7991 28.985 99.9157Z" fill="#B19BC2"/>
</g>
<path d="M29.4465 99.8739C28.4674 101.77 29.1629 104.079 30.9972 105.027C32.8316 105.974 35.1177 105.204 36.0967 103.309C37.0758 101.413 36.3803 99.1031 34.546 98.1557C32.7116 97.2083 30.4256 97.9782 29.4465 99.8739Z" fill="#B19BC2"/>
<path d="M29.8386 99.9059C28.9894 101.55 29.6331 103.569 31.2773 104.418C32.9214 105.267 34.9403 104.623 35.7894 102.979C36.6386 101.335 35.9949 99.3163 34.3507 98.4672C32.7066 97.618 30.6878 98.2617 29.8386 99.9059Z" fill="#B19BC2"/>
<g style="mix-blend-mode:multiply">
<path d="M34.5499 98.1577C36.3842 99.105 37.0797 101.415 36.1006 103.311C35.1216 105.206 32.8355 105.976 31.0011 105.029C29.1668 104.081 28.4713 101.772 29.4504 99.8759C30.4295 97.9802 32.7156 97.2103 34.5499 98.1577ZM30.741 100.838C30.7505 101.06 30.7846 101.28 30.8622 101.491C30.9957 101.91 31.2287 102.271 31.5491 102.568C31.7327 102.694 31.9132 102.826 32.0969 102.952C32.4461 103.164 32.9823 103.254 33.3841 103.229C33.7364 103.209 34.3219 103.068 34.6028 102.84C34.7777 102.697 34.9831 102.57 35.1275 102.396C35.209 102.298 35.4385 101.989 35.5524 101.784C36.2166 100.588 35.6658 99.0215 34.4756 98.4068C34.4695 98.4037 34.4572 98.3973 34.4511 98.3942C34.4449 98.391 34.4327 98.3846 34.4265 98.3815C33.8376 98.0773 33.1435 98.0219 32.5201 98.2206C31.9093 98.4103 31.3288 98.8721 31.0587 99.4553C30.8395 99.9249 30.7356 100.307 30.7535 100.829L30.741 100.838Z" fill="#B19BC2"/>
</g>
<path d="M34.5418 99.738C35.1723 100.172 35.1824 101.281 34.5422 101.829C34.0956 102.212 33.503 102.186 33.0601 101.809C32.5225 101.361 32.5021 100.557 32.7509 99.9555C33.0953 99.1231 34.0229 99.268 34.5418 99.738Z" fill="#E8D9F0"/>
<path d="M32.2808 99.2802L32.3107 99.3578C32.3615 99.4851 32.3508 99.5961 32.2971 99.685C32.2557 99.7801 32.1775 99.8563 32.0382 99.8854L31.9576 99.906C30.6536 100.204 31.7658 98.0505 32.2808 99.2802Z" fill="#E8D9F0"/>
<g style="mix-blend-mode:multiply" opacity="0.6">
<path d="M65.7663 29.5602C64.67 31.6829 65.4392 34.2562 67.4821 35.3113C69.525 36.3664 72.0686 35.5041 73.1649 33.3815C74.2613 31.2588 73.492 28.6855 71.4491 27.6304C69.4062 26.5753 66.8626 27.4375 65.7663 29.5602Z" fill="#B19BC2"/>
</g>
<path d="M66.2231 29.5162C65.244 31.4119 65.9395 33.7217 67.7738 34.6691C69.6082 35.6165 71.8943 34.8466 72.8733 32.9509C73.8524 31.0552 73.1599 28.7547 71.3256 27.8073C69.4912 26.8599 67.2051 27.6298 66.2292 29.5194L66.2231 29.5162Z" fill="#B19BC2"/>
<path d="M66.6179 29.5484C65.7687 31.1926 66.4124 33.2114 68.0566 34.0606C69.7007 34.9098 71.7196 34.2661 72.5687 32.6219C73.4179 30.9778 72.7742 28.9589 71.13 28.1098C69.4859 27.2606 67.4671 27.9043 66.6179 29.5484Z" fill="#B19BC2"/>
<g style="mix-blend-mode:multiply">
<path d="M71.3256 27.8073C73.1599 28.7547 73.8524 31.0552 72.8733 32.9509C71.8943 34.8466 69.6082 35.6165 67.7738 34.6691C65.9395 33.7217 65.244 31.4119 66.2231 29.5162C67.2022 27.6205 69.4851 26.8568 71.3256 27.8073ZM67.5167 30.4874C67.5261 30.7099 67.5571 30.9357 67.6378 31.1406C67.7713 31.5592 68.0044 31.9205 68.3248 32.2181C68.5084 32.344 68.6889 32.4761 68.8725 32.602C69.2218 32.8135 69.758 32.9039 70.1566 32.8844C70.5057 32.8705 71.0944 32.7238 71.3753 32.4958C71.5501 32.353 71.7525 32.2321 71.9 32.0518C71.9815 31.9541 72.211 31.6452 72.3249 31.4398C72.9891 30.2441 72.4383 28.6773 71.2481 28.0626C71.242 28.0595 71.2297 28.0531 71.2236 28.0499C71.2174 28.0468 71.2052 28.0404 71.199 28.0373C70.6101 27.7331 69.9159 27.6777 69.2926 27.8764C68.6818 28.0661 68.1013 28.5279 67.8312 29.1111C67.6119 29.5807 67.5081 29.9623 67.526 30.4844L67.5167 30.4874Z" fill="#B19BC2"/>
</g>
<path d="M71.3172 29.3884C71.9476 29.8228 71.9578 30.9316 71.3176 31.4791C70.871 31.8624 70.2784 31.8361 69.8355 31.4597C69.2979 31.0111 69.2775 30.2079 69.5263 29.6058C69.8707 28.7735 70.7983 28.9184 71.3172 29.3884Z" fill="#E8D9F0"/>
<path d="M69.0601 28.9306L69.09 29.0082C69.1408 29.1355 69.1301 29.2465 69.0764 29.3353C69.035 29.4305 68.9568 29.5067 68.8175 29.5358L68.7369 29.5563C67.4329 29.8543 68.545 27.7009 69.0601 28.9306Z" fill="#B19BC2"/>
<path d="M39.1451 82.1886C40.7054 83.5183 43.3442 82.5989 41.8489 80.3041C41.8489 80.3041 44.183 80.878 45.2586 79.4281C46.3343 77.9783 44.6998 76.2353 44.6998 76.2353C44.6998 76.2353 46.0854 77.1281 47.1315 75.9909C48.1776 74.8537 45.7969 71.4362 44.5426 71.6238C43.2883 71.8115 42.5304 74.0992 42.5304 74.0992C42.5304 74.0992 40.6761 75.1139 39.5669 76.1788C38.4576 77.2437 39.3088 78.8743 39.3088 78.8743C39.3088 78.8743 37.6569 80.9232 39.1529 82.1976L39.1451 82.1886Z" fill="#5568B1"/>
<path d="M45.2067 81.5167C44.2587 80.2927 46.8146 77.4967 47.9666 78.9007C49.1186 80.2927 47.5827 84.6127 45.2067 81.5167Z" fill="#5568B1"/>
<g style="mix-blend-mode:multiply" opacity="0.82">
<path d="M42.5234 74.0898C43.3901 74.6075 44.7007 76.2351 44.7007 76.2351C44.7007 76.2351 44.362 74.5709 43.7087 74.1697C43.0554 73.7685 42.5234 74.0898 42.5234 74.0898Z" fill="#DB7DAF"/>
</g>
<g style="mix-blend-mode:multiply" opacity="0.82">
<path d="M39.3009 78.8643C39.8987 79.5849 41.8489 80.3031 41.8489 80.3031C41.8489 80.3031 41.2054 80.3873 40.3353 80.0481C39.4561 79.7167 39.3009 78.8643 39.3009 78.8643Z" fill="#DB7DAF"/>
</g>
<g style="mix-blend-mode:multiply" opacity="0.82">
<path d="M62.393 147.031C51.617 137.119 61.853 127.951 65.129 136.339C68.405 144.727 69.1609 150.811 69.1609 150.811C69.1609 150.811 67.577 151.807 62.393 147.031Z" fill="#DB7DAF"/>
</g>
<path d="M114.062 185.181C114.062 185.181 139.203 202.653 159.147 198.489C173.415 195.513 183.734 185.469 189.854 172.449C195.975 159.429 114.062 185.181 114.062 185.181Z" fill="#374293"/>
<g style="mix-blend-mode:multiply" opacity="0.82">
<path d="M170.017 194.504C162.301 198.296 145.693 185.528 145.693 185.528C145.693 185.528 188.713 175.232 184.357 181.736C180.001 188.24 172.945 193.064 170.017 194.504Z" fill="#DB7DAF"/>
</g>
<g style="mix-blend-mode:multiply" opacity="0.82">
<path d="M159.972 193.749C156.024 192.417 143.232 193.581 140.064 195.597C136.896 197.613 119.076 189.273 117.636 186.513C116.196 183.753 128.796 184.941 128.796 184.941L167.016 176.265C167.016 176.265 191.364 172.629 184.368 181.725C177.384 190.833 169.416 196.905 159.972 193.737V193.749Z" fill="#DB7DAF"/>
</g>
<path d="M177.098 210.046C176.018 202.69 164.834 188.446 162.086 186.454C159.326 184.462 153.974 187.402 153.974 187.402C153.974 187.402 162.746 210.682 159.686 233.014C156.65 232.726 154.13 234.25 153.59 235.558C153.05 236.866 158.306 237.094 159.434 234.718C159.434 234.718 156.878 243.598 158.114 245.134C159.338 246.67 160.79 242.758 160.79 242.758C160.79 242.758 164.198 242.674 165.026 237.166C165.026 237.166 165.626 240.922 166.85 241.006C167.75 241.066 167.654 237.046 167.546 234.898C173.978 228.238 178.13 216.982 177.122 210.058L177.098 210.046Z" fill="#5568B1"/>
<g style="mix-blend-mode:multiply" opacity="0.82">
<path d="M154.933 190.233C154.753 187.017 167.377 192.345 167.377 192.345C167.377 192.345 163.897 186.885 160.657 185.865C157.417 184.845 153.973 187.401 153.973 187.401L154.933 190.245V190.233Z" fill="#DB7DAF"/>
</g>
<g style="mix-blend-mode:multiply" opacity="0.82">
<path d="M161.545 237.621C161.545 237.621 161.989 240.549 160.777 242.757C160.777 242.757 163.405 240.837 161.545 237.621Z" fill="#DB7DAF"/>
</g>
<path style="mix-blend-mode:multiply" opacity="0.75" d="M162.217 234.249C161.545 237.621 167.533 234.885 167.533 234.885C173.965 228.225 178.117 216.969 177.109 210.045C176.965 209.097 176.665 208.041 176.233 206.901C173.557 201.465 162.901 230.877 162.229 234.249H162.217Z" fill="url(#paint1_linear_1705_7493)"/>
<path d="M111.687 79.8326C111.687 79.8326 114.543 76.7846 117.447 76.4846C120.363 76.1726 127.923 76.0046 134.427 78.2246C140.943 80.4446 143.163 81.5126 143.163 81.5126C143.163 81.5126 144.231 78.4526 145.383 78.4526C146.535 78.4526 167.823 82.8926 178.095 89.9366C188.355 96.9806 188.667 102.957 188.667 102.957C188.667 102.957 190.731 102.273 191.955 102.501C193.179 102.729 204.435 119.661 206.127 123.033C207.807 126.405 207.351 131.613 207.351 131.613C207.351 131.613 209.643 132.609 210.567 134.757C211.491 136.905 212.247 141.273 212.247 144.021C212.247 146.769 208.959 161.841 198.327 172.257C191.727 178.725 176.703 183.849 174.639 184.461C172.575 185.073 168.123 183.693 168.123 183.693C168.123 183.693 168.735 187.137 162.987 187.521C157.239 187.905 113.043 188.673 97.5745 187.137C82.1065 185.601 73.7545 180.165 66.8545 169.821C59.9545 159.477 62.1865 156.729 65.7865 151.593C65.7865 151.593 62.9545 133.821 65.2465 122.409C67.5385 110.997 65.4025 112.377 70.9105 108.321C70.9105 108.321 69.6025 105.561 70.5985 102.957C71.5945 100.353 77.5705 89.6246 79.3345 88.3286C81.0985 87.0206 82.0105 87.0206 82.0105 87.0206C82.0105 87.0206 81.4705 86.0246 83.6905 83.8766C85.9105 81.7286 99.0145 75.8726 104.607 76.3886C110.199 76.9046 111.651 79.8206 111.651 79.8206L111.687 79.8326Z" fill="url(#paint2_linear_1705_7493)"/>
<path style="mix-blend-mode:multiply" opacity="0.75" d="M114.41 165.716C141.549 165.716 163.55 157.534 163.55 147.44C163.55 137.347 141.549 129.164 114.41 129.164C87.2703 129.164 65.2695 137.347 65.2695 147.44C65.2695 157.534 87.2703 165.716 114.41 165.716Z" fill="url(#paint3_radial_1705_7493)"/>
<g style="mix-blend-mode:multiply" opacity="0.68">
<path d="M125.135 164.11C135.361 164.11 143.651 154.761 143.651 143.23C143.651 131.698 135.361 122.35 125.135 122.35C114.909 122.35 106.619 131.698 106.619 143.23C106.619 154.761 114.909 164.11 125.135 164.11Z" fill="#A783B6"/>
</g>
<mask id="mask0_1705_7493" style="mask-type:luminance" maskUnits="userSpaceOnUse" x="106" y="123" width="38" height="40">
<path d="M125.135 162.862C135.361 162.862 143.651 154.072 143.651 143.23C143.651 132.387 135.361 123.598 125.135 123.598C114.909 123.598 106.619 132.387 106.619 143.23C106.619 154.072 114.909 162.862 125.135 162.862Z" fill="white"/>
</mask>
<g mask="url(#mask0_1705_7493)">
<path d="M125.135 162.862C135.361 162.862 143.651 154.072 143.651 143.23C143.651 132.387 135.361 123.598 125.135 123.598C114.909 123.598 106.619 132.387 106.619 143.23C106.619 154.072 114.909 162.862 125.135 162.862Z" fill="url(#paint4_radial_1705_7493)"/>
<g style="mix-blend-mode:multiply" opacity="0.37">
<path d="M125.134 127.474C135.118 127.474 143.206 135.67 143.206 145.786C143.206 148.882 142.438 151.798 141.094 154.354C143.242 151.186 144.514 147.358 144.514 143.23C144.514 132.382 135.838 123.598 125.122 123.598C114.406 123.598 105.73 132.394 105.73 143.23C105.73 147.358 107.002 151.198 109.15 154.354C107.806 151.798 107.038 148.882 107.038 145.786C107.038 135.67 115.126 127.474 125.11 127.474H125.134Z" fill="#7274EA"/>
</g>
<path style="mix-blend-mode:multiply" d="M126.958 156.202C134.123 156.202 139.93 150.394 139.93 143.23C139.93 136.066 134.123 130.258 126.958 130.258C119.794 130.258 113.986 136.066 113.986 143.23C113.986 150.394 119.794 156.202 126.958 156.202Z" fill="url(#paint5_linear_1705_7493)"/>
<g style="mix-blend-mode:multiply" opacity="0.43">
<path d="M126.958 131.974C133.162 131.974 138.214 137.026 138.214 143.23C138.214 149.434 133.162 154.486 126.958 154.486C120.754 154.486 115.702 149.434 115.702 143.23C115.702 137.026 120.754 131.974 126.958 131.974ZM126.958 130.258C119.794 130.258 113.986 136.066 113.986 143.23C113.986 150.394 119.794 156.202 126.958 156.202C134.122 156.202 139.93 150.394 139.93 143.23C139.93 136.066 134.122 130.258 126.958 130.258Z" fill="#AE3E0F"/>
</g>
<g style="mix-blend-mode:multiply">
<path d="M126.959 152.134C131.876 152.134 135.863 148.148 135.863 143.23C135.863 138.313 131.876 134.326 126.959 134.326C122.041 134.326 118.055 138.313 118.055 143.23C118.055 148.148 122.041 152.134 126.959 152.134Z" fill="#54421F"/>
</g>
<path style="mix-blend-mode:screen" opacity="0.32" d="M136.895 153.454C136.691 158.89 131.603 163.114 125.531 162.886C119.459 162.658 114.695 158.074 114.899 152.626C115.103 147.19 120.191 142.966 126.263 143.194C132.335 143.422 137.099 148.006 136.895 153.454Z" fill="url(#paint6_linear_1705_7493)"/>
<path d="M114.563 133.03C115.103 132.514 117.071 133.246 118.415 134.398C119.099 134.986 120.011 136.474 119.231 137.398C118.571 138.178 117.299 138.13 116.279 137.158C115.007 135.934 113.927 133.642 114.563 133.03Z" fill="white"/>
</g>
<path style="mix-blend-mode:screen" opacity="0.43" d="M143.077 138.154C143.437 139.774 143.653 141.478 143.653 143.218C143.653 154.75 135.361 164.098 125.137 164.098C117.109 164.098 110.293 158.326 107.725 150.274C109.741 159.358 117.001 166.09 125.665 166.09C135.889 166.09 144.181 156.742 144.181 145.21C144.181 142.726 143.773 140.362 143.077 138.154Z" fill="url(#paint7_linear_1705_7493)"/>
<path d="M108.877 133.81C116.485 119.098 137.473 120.658 142.681 136.966C142.681 136.966 144.673 132.778 142.681 129.07C140.485 124.978 131.317 118.978 120.853 122.734C110.845 126.322 108.877 133.81 108.877 133.81Z" fill="#4C2951"/>
<mask id="mask1_1705_7493" style="mask-type:luminance" maskUnits="userSpaceOnUse" x="64" y="117" width="25" height="47">
<path d="M86.6041 126.909C92.6041 138.141 84.9241 167.037 73.8481 163.209C62.7721 159.381 60.8401 128.229 71.3521 119.817C81.8761 111.405 86.5921 126.909 86.5921 126.909H86.6041Z" fill="white"/>
</mask>
<g mask="url(#mask1_1705_7493)">
<g style="mix-blend-mode:multiply" opacity="0.68">
<path d="M91.2273 142.724C91.2273 154.04 85.6593 163.208 78.7953 163.208C71.9313 163.208 66.3633 154.04 66.3633 142.724C66.3633 131.408 71.5713 122.648 78.4353 122.648C85.2993 122.648 91.2273 131.42 91.2273 142.724Z" fill="#A783B6"/>
</g>
<mask id="mask2_1705_7493" style="mask-type:luminance" maskUnits="userSpaceOnUse" x="66" y="123" width="26" height="39">
<path d="M78.7972 161.985C85.6632 161.985 91.2292 153.362 91.2292 142.725C91.2292 132.088 85.6632 123.465 78.7972 123.465C71.9312 123.465 66.3652 132.088 66.3652 142.725C66.3652 153.362 71.9312 161.985 78.7972 161.985Z" fill="white"/>
</mask>
<g mask="url(#mask2_1705_7493)">
<path d="M78.7972 161.985C85.6632 161.985 91.2292 153.362 91.2292 142.725C91.2292 132.088 85.6632 123.465 78.7972 123.465C71.9312 123.465 66.3652 132.088 66.3652 142.725C66.3652 153.362 71.9312 161.985 78.7972 161.985Z" fill="url(#paint8_radial_1705_7493)"/>
<g style="mix-blend-mode:multiply" opacity="0.37">
<path d="M78.7976 127.281C85.5056 127.281 90.9296 135.321 90.9296 145.233C90.9296 148.269 90.4136 151.125 89.5136 153.633C90.9536 150.525 91.8056 146.781 91.8056 142.725C91.8056 132.093 85.9736 123.465 78.7856 123.465C71.5976 123.465 65.7656 132.081 65.7656 142.725C65.7656 146.781 66.6176 150.537 68.0576 153.633C67.1576 151.125 66.6416 148.269 66.6416 145.233C66.6416 135.321 72.0776 127.281 78.7736 127.281H78.7976Z" fill="#7274EA"/>
</g>
<path style="mix-blend-mode:multiply" d="M81.8962 155.444C87.735 155.444 92.4682 149.749 92.4682 142.724C92.4682 135.699 87.735 130.004 81.8962 130.004C76.0575 130.004 71.3242 135.699 71.3242 142.724C71.3242 149.749 76.0575 155.444 81.8962 155.444Z" fill="url(#paint9_linear_1705_7493)"/>
<g style="mix-blend-mode:multiply" opacity="0.43">
<path d="M81.8962 131.684C86.9482 131.684 91.0642 136.64 91.0642 142.724C91.0642 148.808 86.9482 153.764 81.8962 153.764C76.8442 153.764 72.7282 148.808 72.7282 142.724C72.7282 136.64 76.8442 131.684 81.8962 131.684ZM81.8962 130.004C76.0522 130.004 71.3242 135.704 71.3242 142.724C71.3242 149.744 76.0522 155.444 81.8962 155.444C87.7402 155.444 92.4682 149.744 92.4682 142.724C92.4682 135.704 87.7402 130.004 81.8962 130.004Z" fill="#AE3E0F"/>
</g>
<g style="mix-blend-mode:multiply">
<path d="M90.9194 142.724C90.9194 147.584 87.2114 151.52 82.6394 151.52C78.0674 151.52 74.3594 147.584 74.3594 142.724C74.3594 137.864 78.0674 133.928 82.6394 133.928C87.2114 133.928 90.9194 137.864 90.9194 142.724Z" fill="#54421F"/>
</g>
<path style="mix-blend-mode:screen" opacity="0.32" d="M89.9938 152.757C89.8258 158.085 85.6858 162.225 80.7298 162.009C75.7738 161.793 71.8978 157.281 72.0658 151.953C72.2338 146.625 76.3738 142.485 81.3298 142.701C86.2858 142.917 90.1618 147.429 89.9938 152.757Z" fill="url(#paint10_linear_1705_7493)"/>
<path d="M72.2103 132.344C72.8103 132.044 74.6222 133.064 75.7622 134.264C76.3502 134.876 77.0343 136.256 76.1583 136.82C75.4143 137.3 74.1782 136.988 73.3262 135.992C72.2582 134.744 71.5143 132.692 72.2103 132.344Z" fill="white"/>
</g>
<path style="mix-blend-mode:screen" opacity="0.43" d="M90.8415 137.758C91.0815 139.354 91.2255 141.01 91.2255 142.726C91.2255 154.042 85.6575 163.21 78.7935 163.21C73.4055 163.21 68.8335 157.546 67.1055 149.65C68.4615 158.554 73.3335 165.154 79.1535 165.154C86.0175 165.154 91.5855 155.986 91.5855 144.67C91.5855 142.234 91.3095 139.906 90.8415 137.746V137.758Z" fill="url(#paint11_linear_1705_7493)"/>
<path d="M88.7082 134.037C86.0202 119.169 70.4922 120.597 67.0002 136.581C67.0002 136.581 65.6682 132.477 67.0002 128.841C68.4762 124.821 74.9802 119.145 82.0002 122.829C88.7082 126.345 88.7082 134.049 88.7082 134.049V134.037Z" fill="#4C2951"/>
</g>
<path d="M78.0851 167.121C79.1891 165.837 79.2971 166.281 79.5851 166.749C79.8731 167.217 80.1131 168.705 80.8451 168.825C81.5171 168.945 87.2291 168.369 95.9291 169.233C104.629 170.097 113.725 171.825 115.177 171.705C116.629 171.585 117.109 169.557 117.013 169.041C116.917 168.525 117.541 168.897 118.081 169.785C118.609 170.661 117.613 170.313 117.109 170.481C116.605 170.637 116.869 172.521 114.589 172.209C112.309 171.897 99.0971 170.889 94.6931 170.781C90.2891 170.673 80.9411 169.221 80.2331 168.993C79.5371 168.777 79.6811 167.577 79.3091 167.385C78.9371 167.193 77.5571 167.733 78.0731 167.133L78.0851 167.121Z" fill="#32236C"/>
<path style="mix-blend-mode:screen" opacity="0.43" d="M80.6543 169.076C80.6543 169.076 90.5663 170.588 93.2303 170.696C95.8943 170.804 106.31 171.44 109.526 171.716C112.742 171.992 114.206 172.208 114.206 172.208C114.206 172.208 96.5543 172.7 92.7863 172.508C89.0183 172.316 80.6543 169.076 80.6543 169.076Z" fill="url(#paint12_linear_1705_7493)"/>
<g style="mix-blend-mode:multiply" opacity="0.68">
<path d="M208.788 132.512L207.348 131.612C206.664 138.128 204.588 143.252 199.92 144.26C195.252 145.268 189.576 138.74 187.896 135.056C186.216 131.384 184.596 123.872 186.132 117.128C187.668 110.384 190.572 109.532 194.784 112.604C198.996 115.676 204.276 125.084 202.98 128.612C201.672 132.14 199.992 131.372 199.92 130.532C199.848 129.692 198.468 126.776 197.7 127.388C196.932 128 194.484 131.6 197.088 132.596C199.692 133.592 203.904 130.532 203.832 128.312C203.76 126.092 203.376 122.18 199.08 115.976C195.756 111.164 192.468 106.16 189.408 107.108C191.004 103.76 190.332 102.548 190.332 102.548L188.664 102.956C188.844 106.28 181.392 114.236 174.24 113.324C167.088 112.4 161.988 97.9999 163.212 93.7159C164.436 89.4319 174.492 95.1439 175.848 96.3679C177.204 97.5919 174.444 98.7199 172.812 98.7199C171.18 98.7199 170.976 98.4079 173.94 100.256C176.904 102.092 179.76 103.112 179.556 101.384C179.352 99.6559 178.224 93.9319 164.952 89.3359C151.68 84.7399 157.296 94.0399 164.136 104.252C167.196 108.812 170.448 112.772 173.7 115.016C170.064 116.828 164.712 119.96 165.384 122.12C166.152 124.568 169.668 132.848 171.516 133.076C173.352 133.304 177.036 133.46 174.432 132.188C171.828 130.916 167.772 127.64 168 125.948C168.228 124.256 170.532 113.768 175.812 118.364C181.092 122.96 188.532 135.14 187.452 138.044C186.372 140.948 179.256 145.784 174.276 143.792C169.296 141.8 163.86 138.128 162.876 133.604C161.892 129.08 161.64 123.8 160.572 120.968C159.504 118.136 148.572 103.496 128.196 97.6039C107.724 91.6759 98.5317 103.736 98.5317 103.736C98.5317 103.736 100.14 95.1559 101.592 92.7079C103.044 90.2599 113.388 82.1359 118.212 82.2919C123.036 82.4479 132.228 84.1279 139.428 86.9599C146.628 89.7919 153.144 94.6999 157.656 101.288C162.18 107.876 160.716 115.376 161.256 115.148C161.796 114.92 163.248 111.548 162.792 110.324C162.336 109.1 160.416 106.724 160.416 106.724C160.188 103.28 155.208 96.4639 155.208 96.4639C155.208 96.4639 155.28 94.1719 154.44 90.7159C153.6 87.2719 143.52 80.6839 143.52 80.6839L143.184 81.5239C143.184 81.5239 153.06 87.7999 149.424 86.0119C145.788 84.2119 136.512 81.7999 136.86 82.2559C137.208 82.7119 141.912 84.7039 142.224 84.7039C142.536 84.7039 143.988 84.2839 144.372 84.2839C144.756 84.2839 151.416 87.0079 151.92 88.2319C152.412 89.4559 151.584 92.2039 151.584 92.2039C150.768 92.0959 127.128 78.4999 120.9 79.1119C114.672 79.7239 103.788 89.7559 103.788 89.7559C103.788 89.7559 107.664 83.6839 111.708 79.8439C111.708 79.8439 109.692 77.9239 107.88 80.2999C106.068 82.6759 103.212 89.4199 103.212 89.4199C101.832 81.1519 96.1437 86.6479 90.2637 87.6559C84.3837 88.6639 82.0677 87.0439 82.0677 87.0439C82.0677 89.0359 84.2877 89.4199 84.2877 89.4199C84.2877 89.4199 89.5678 88.5799 93.7078 87.1999C97.8478 85.8199 100.908 86.8159 101.292 90.4879C101.676 94.1599 99.4557 94.0879 98.3037 96.2359C97.1517 98.3839 97.3078 105.728 97.3078 105.728C97.3078 105.728 94.9317 104.576 86.8917 102.512C78.8517 100.448 70.3438 106.04 70.3438 106.04L70.9677 108.332C70.9677 108.332 78.7077 102.284 84.7557 102.74C90.8037 103.196 96.7078 108.632 96.7078 108.632C96.7078 108.632 92.5677 121.352 92.3397 123.032C92.1117 124.712 93.2637 130.544 93.2637 130.544C93.2637 130.544 93.4197 124.652 95.4117 115.76C97.4037 106.88 97.9437 101.972 115.02 100.364C132.096 98.7559 140.676 103.892 147.036 107.636C153.396 111.392 160.596 120.968 161.052 129.008C161.508 137.06 159.6 137.888 161.664 140.792C163.728 143.696 174.84 144.932 174.84 144.932C174.84 144.932 169.02 145.856 165.42 150.596C161.82 155.348 160.056 166.988 161.208 166.832C162.36 166.676 166.26 162.692 165.804 161.552C165.348 160.4 162.588 159.176 162.816 157.952C163.044 156.728 164.88 152.288 168.336 149.912C171.78 147.536 179.592 146.156 179.592 146.156C176.94 149.216 168.252 162.956 166.728 171.788C165.24 169.52 162.84 170.36 154.164 173.888C145.488 177.416 133.128 183.284 139.452 184.052C145.776 184.82 154.632 182.072 159.672 181.244C164.712 180.416 165.54 178.076 161.76 177.62C157.98 177.164 151.092 180.38 153.384 179.888C155.676 179.396 161.148 179.408 159 180.536C156.852 181.664 153.54 182.684 147.108 182.984C140.676 183.296 141.648 180.896 144.348 179.108C147.048 177.32 162.012 172.772 163.14 173.54C164.268 174.308 167.424 180.128 168.168 183.704L172.188 184.556C169.632 184.196 168.672 181.22 168.096 178.184C173.424 182.312 190.692 177.668 190.692 177.668C194.496 175.724 198.372 172.268 198.372 172.268C193.032 176.996 180.192 178.88 173.532 176.12C166.872 173.36 169.704 163.484 173.148 157.28C176.592 151.076 184.668 143.264 188.88 143.564C193.092 143.876 199.884 145.856 200.424 152.984C200.964 160.112 195.828 166.7 191.16 164.168C186.492 161.636 188.244 156.656 187.248 155.048C186.252 153.44 185.484 158.42 186.024 160.256C186.564 162.092 189.696 168.836 193.224 168.296C196.752 167.756 202.104 155.348 201.96 151.904C201.804 148.46 197.82 144.932 197.82 144.932C213.9 144.548 208.836 132.512 208.836 132.512H208.788ZM184.836 128.852C182.304 124.868 180.552 119.996 178.836 116.984C181.08 117.068 183.264 116.012 185.316 113.408C183.648 120.032 184.836 128.864 184.836 128.864V128.852Z" fill="#DB7DAF"/>
</g>
<g opacity="0.7">
<g style="mix-blend-mode:multiply" opacity="0.68">
<path d="M168.924 92.7928C169.584 93.0208 170.256 93.2728 170.904 93.5608C170.928 93.5608 170.94 93.5728 170.964 93.5848C172.164 94.0768 173.136 94.5928 173.94 95.1088C174.852 95.6368 175.548 96.1048 175.836 96.3688C176.088 96.5968 176.196 96.8248 176.196 97.0408C178.308 99.6088 177 101.853 177 101.853C178.572 102.465 179.664 102.477 179.544 101.373C179.34 99.6328 178.212 93.9208 164.94 89.3248C154.932 85.8568 155.664 90.2968 159.564 97.0648C155.964 89.7568 161.22 89.9128 168.924 92.7928Z" fill="#DB7DAF"/>
</g>
<g style="mix-blend-mode:multiply" opacity="0.68">
<path d="M142.703 87.6198C135.059 83.6958 124.691 78.7278 120.875 79.0998C118.763 79.3038 116.123 80.5998 113.555 82.2078C121.235 78.1638 142.607 87.5718 142.703 87.6198Z" fill="#DB7DAF"/>
</g>
<g style="mix-blend-mode:multiply" opacity="0.68">
<path d="M139.416 102.104C136.056 100.352 132.312 98.792 128.172 97.592C107.7 91.664 98.5078 103.724 98.5078 103.724C115.38 94.244 134.916 100.58 139.416 102.104Z" fill="#DB7DAF"/>
</g>
<g style="mix-blend-mode:multiply" opacity="0.68">
<path d="M175.02 115.353C175.992 115.653 177.384 116.157 178.836 116.973C181.08 117.057 183.264 116.001 185.316 113.397C186.696 110.301 191.292 107.229 196.56 112.377C194.1 109.005 191.688 106.401 189.408 107.109C191.004 103.761 190.332 102.549 190.332 102.549L188.664 102.957C188.688 103.425 188.544 104.001 188.28 104.625C186.132 112.593 179.796 116.193 175.02 115.353Z" fill="#DB7DAF"/>
</g>
<g style="mix-blend-mode:multiply" opacity="0.68">
<path d="M184.032 144.476C188.94 142.028 192.036 141.596 185.64 131.816C187.044 134.6 187.824 136.964 187.428 138.044C186.36 140.96 179.232 145.784 174.252 143.792C174.252 143.792 179.124 146.936 184.032 144.476Z" fill="#DB7DAF"/>
</g>
<g style="mix-blend-mode:multiply" opacity="0.68">
<path d="M171.504 133.065C173.34 133.293 177.024 133.449 174.42 132.177C171.996 131.001 168.3 128.061 168 126.309C168.048 127.005 168.156 127.773 168.264 128.853C169.416 131.073 170.64 132.957 171.504 133.065Z" fill="#DB7DAF"/>
</g>
<g style="mix-blend-mode:multiply" opacity="0.68">
<path d="M199.309 128.852C198.829 127.904 198.157 127.04 197.701 127.4C196.933 128.012 194.485 131.612 197.089 132.608C197.761 132.86 198.529 132.848 199.309 132.656C196.393 133.16 198.169 126.404 199.309 128.852Z" fill="#DB7DAF"/>
</g>
<g style="mix-blend-mode:multiply" opacity="0.68">
<path d="M208.788 132.511L207.348 131.611C207.252 132.535 207.12 133.423 206.964 134.275C207.096 137.623 206.904 142.519 204.852 143.599C212.1 140.383 208.788 132.511 208.788 132.511Z" fill="#DB7DAF"/>
</g>
<g style="mix-blend-mode:multiply" opacity="0.68">
<path d="M186.086 156.069C185.786 157.365 185.69 159.261 185.978 160.245C186.518 162.081 189.65 168.825 193.178 168.285C194.462 168.093 195.974 166.329 197.39 164.001C194.474 168.429 184.43 163.593 186.086 156.057V156.069Z" fill="#DB7DAF"/>
</g>
<g style="mix-blend-mode:multiply" opacity="0.68">
<path d="M169.356 175.268C167.268 171.008 167.592 168.2 173.244 155.828C170.352 160.976 167.496 167.072 166.68 171.8C165.192 169.532 162.792 170.372 154.116 173.9C153.72 174.056 153.312 174.224 152.904 174.404C165.612 169.7 164.544 171.536 168.06 178.184C173.388 182.312 190.656 177.668 190.656 177.668C194.46 175.724 198.336 172.268 198.336 172.268C197.268 173.216 195.9 174.032 194.34 174.74C194.316 174.74 194.304 174.764 194.28 174.776C188.34 178.244 171.432 179.552 169.344 175.292L169.356 175.268Z" fill="#DB7DAF"/>
</g>
<g style="mix-blend-mode:multiply" opacity="0.68">
<path d="M70.9323 108.32C70.9323 108.32 76.2963 103.568 82.0443 102.272C82.0443 102.272 77.8923 101.504 70.3203 106.028C70.3203 106.028 70.5363 107.42 70.9443 108.32H70.9323Z" fill="#DB7DAF"/>
</g>
<g style="mix-blend-mode:multiply" opacity="0.68">
<path d="M90.7335 87.5473C90.7335 87.5473 85.0215 89.4072 84.2535 89.4072C83.4855 89.4072 81.7575 88.4353 82.0335 87.0312C82.0335 87.0312 82.9095 87.9432 85.9455 88.0272C88.9815 88.1112 90.7335 87.5473 90.7335 87.5473Z" fill="#DB7DAF"/>
</g>
</g>
<g style="mix-blend-mode:multiply" opacity="0.36">
<path d="M210.566 134.744C209.642 132.596 207.35 131.6 207.35 131.6C207.35 131.6 207.806 126.392 206.126 123.02C204.446 119.648 193.178 102.728 191.954 102.488C190.73 102.248 188.666 102.944 188.666 102.944C188.666 102.944 188.582 101.552 187.358 99.3204C183.458 93.1644 175.166 91.3764 165.302 88.1004C155.426 84.8244 146.162 77.4444 144.434 79.0524C143.714 79.9524 143.162 81.4884 143.162 81.4884C143.162 81.4884 142.262 81.0564 139.934 80.1684C143.978 82.0644 144.926 84.2484 139.418 82.6524C133.91 81.0564 137.03 83.0124 140.486 84.7764C143.93 86.5404 146.078 88.5324 144.194 88.3524C142.31 88.1724 141.146 86.9244 143.354 88.7124C145.562 90.5004 146.594 90.5964 149.066 94.4244C151.538 98.2524 157.55 116.456 155.486 114.128C153.422 111.8 155.522 115.688 158.03 119.612C160.538 123.536 161.054 129.716 160.178 134.864C159.302 140 161.342 140.324 161.858 142.604C162.374 144.872 157.802 157.616 157.802 157.616C157.802 157.616 157.802 153.332 148.31 157.112C138.818 160.892 133.454 169.268 128.246 176.972C123.038 184.676 128.81 184.916 137.342 180.788C131.618 183.728 125.498 186.02 120.59 186.416C109.25 187.34 103.274 184.88 101.138 181.976C98.9896 179.06 101.138 181.976 99.7575 183.92C98.4855 185.708 93.0616 187.088 82.8256 183.392C84.1096 183.428 84.6975 182.372 83.3655 178.916C79.6935 169.448 63.0856 154.184 62.5816 157.604C61.9936 160.424 62.9415 163.856 66.9015 169.796C70.6335 175.4 74.8336 179.54 80.3176 182.42C80.2576 182.396 80.1976 182.372 80.1376 182.348C84.8176 184.832 90.4456 186.392 97.6096 187.112C113.078 188.648 157.274 187.88 163.022 187.496C168.77 187.112 168.158 183.668 168.158 183.668C168.158 183.668 172.598 185.048 174.674 184.436C176.738 183.824 191.774 178.7 198.362 172.232C208.982 161.816 212.282 146.756 212.282 143.996C212.282 141.236 211.514 136.868 210.602 134.732L210.566 134.744Z" fill="#DB7DAF"/>
</g>
<g style="mix-blend-mode:multiply" opacity="0.75">
<path d="M162.997 187.521C168.745 187.137 168.133 183.693 168.133 183.693C168.133 183.693 172.573 185.073 174.649 184.461C176.713 183.849 191.749 178.725 198.337 172.257C208.957 161.841 212.257 146.781 212.257 144.021C212.257 141.261 211.489 136.893 210.577 134.757C209.653 132.609 207.361 131.613 207.361 131.613C205.909 141.873 195.337 141.873 191.041 136.965C186.757 132.045 184.837 128.853 187.213 134.529C189.589 140.193 171.589 143.265 168.229 140.529C164.869 137.805 165.313 138.357 161.569 145.413L161.641 146.157C161.641 146.157 161.365 146.961 160.825 148.329C159.613 152.625 157.813 157.653 157.813 157.653C157.813 157.653 158.581 163.017 154.141 168.777C151.933 171.633 146.449 175.785 140.089 179.349C133.177 184.425 129.241 187.113 125.221 188.049C141.985 188.133 159.553 187.761 163.021 187.533L162.997 187.521Z" fill="#DB7DAF"/>
</g>
<path style="mix-blend-mode:screen" opacity="0.43" d="M82.0347 87.0317C82.0347 87.0317 81.4947 86.0357 83.7147 83.8877C85.9347 81.7397 99.0387 75.8837 104.631 76.3997C110.223 76.9157 111.675 79.8317 111.675 79.8317C111.675 79.8317 109.659 77.9117 107.847 80.2877C106.035 82.6637 103.179 89.4077 103.179 89.4077C101.799 81.1397 96.1107 86.6357 90.2307 87.6437C84.3507 88.6517 82.0347 87.0317 82.0347 87.0317ZM103.767 89.7437C103.767 89.7437 108.531 85.3637 113.559 82.2197C114.399 81.6917 115.251 81.1997 116.079 80.7677C116.271 80.6717 116.451 80.5757 116.631 80.4917C116.823 80.3957 117.015 80.3117 117.207 80.2277C117.555 80.0717 117.891 79.9277 118.227 79.7957C118.323 79.7597 118.419 79.7237 118.515 79.6877C118.839 79.5677 119.163 79.4717 119.475 79.3877C119.583 79.3637 119.691 79.3277 119.787 79.3037C120.159 79.2197 120.519 79.1477 120.867 79.1117C121.083 79.0877 121.335 79.0877 121.599 79.1117C121.683 79.1117 121.779 79.1237 121.863 79.1357C122.055 79.1477 122.247 79.1717 122.451 79.2077C122.559 79.2197 122.667 79.2437 122.787 79.2677C122.991 79.3037 123.207 79.3517 123.435 79.3997C123.555 79.4237 123.663 79.4477 123.783 79.4837C124.047 79.5437 124.335 79.6277 124.623 79.6997C124.707 79.7237 124.779 79.7477 124.863 79.7717C125.235 79.8797 125.631 79.9997 126.027 80.1317C126.135 80.1677 126.243 80.2037 126.363 80.2517C126.663 80.3597 126.963 80.4557 127.287 80.5757C127.431 80.6357 127.587 80.6837 127.743 80.7437C128.031 80.8517 128.331 80.9597 128.631 81.0797C128.787 81.1397 128.943 81.1997 129.099 81.2597C129.435 81.3917 129.771 81.5237 130.107 81.6677C130.227 81.7157 130.347 81.7637 130.467 81.8237C130.935 82.0157 131.415 82.2197 131.895 82.4357C131.919 82.4357 131.943 82.4597 131.979 82.4717C132.435 82.6757 132.891 82.8797 133.359 83.0837C133.491 83.1437 133.623 83.2037 133.755 83.2637C134.127 83.4317 134.487 83.5997 134.859 83.7677C135.003 83.8277 135.135 83.8997 135.279 83.9597C135.675 84.1397 136.071 84.3317 136.455 84.5237C136.551 84.5717 136.635 84.6077 136.731 84.6557C138.267 85.3997 139.779 86.1437 141.231 86.8877C141.267 86.8997 141.303 86.9237 141.339 86.9357C142.335 87.4397 143.307 87.9437 144.219 88.4117C146.103 88.5917 143.955 86.5997 140.511 84.8357C137.067 83.0717 133.947 81.1157 139.443 82.7117C139.815 82.8077 140.175 82.8917 140.547 82.9997C144.783 83.9837 143.703 81.9797 139.959 80.2277C138.627 79.7237 136.827 79.0637 134.463 78.2597C127.947 76.0397 120.387 76.2077 117.483 76.5197C114.567 76.8317 111.723 79.8677 111.723 79.8677C107.691 83.6957 103.803 89.7797 103.803 89.7797L103.767 89.7437ZM155.475 114.176C157.539 116.504 151.527 98.2997 149.055 94.4717C146.619 90.7037 145.575 90.5477 143.439 88.8437C142.119 88.1477 140.775 87.5117 139.395 86.9717C132.195 84.1397 123.003 82.4477 118.179 82.3037C113.355 82.1597 103.011 90.2717 101.559 92.7197C100.107 95.1677 98.4987 103.748 98.4987 103.748C98.4987 103.748 107.691 91.6997 128.163 97.6157C129.099 97.8917 130.023 98.1797 130.923 98.4917C131.079 98.5397 131.235 98.5997 131.391 98.6477C132.279 98.9597 133.155 99.2837 134.007 99.6317C134.079 99.6557 134.139 99.6917 134.211 99.7157C136.035 100.46 137.775 101.264 139.407 102.116C146.271 105.692 151.491 110.048 155.031 113.72C155.151 113.828 155.283 113.972 155.463 114.176H155.475ZM80.3187 102.284C82.4067 101.972 84.6507 101.948 86.8587 102.524C94.8987 104.588 97.2747 105.74 97.2747 105.74C97.2747 105.74 97.1187 98.3837 98.2707 96.2477C99.4227 94.0997 101.643 94.1837 101.259 90.4997C100.875 86.8277 97.8147 85.8317 93.6747 87.2117C90.3507 88.3157 86.2827 89.0837 84.8187 89.3357C84.5547 89.3957 84.3627 89.4317 84.2547 89.4317C83.4867 89.4317 81.7587 88.4597 82.0347 87.0557C82.0347 87.0557 81.1107 87.0557 79.3587 88.3637C77.5947 89.6717 71.6187 100.388 70.6227 102.992C70.2147 104.06 70.2027 105.14 70.3107 106.052C70.3227 106.052 71.2827 105.416 72.8547 104.672C76.2747 102.968 78.7947 102.44 80.3187 102.296V102.284ZM158.019 119.672C157.383 118.676 156.771 117.68 156.255 116.792C153.591 112.892 150.183 109.532 146.991 107.648C140.631 103.892 132.051 98.7677 114.975 100.376C97.8987 101.984 97.3587 106.892 95.3667 115.772C95.3667 115.772 98.5347 107.408 104.991 104.648C114.975 100.376 123.075 106.376 137.319 114.968C151.563 123.56 162.075 128.108 158.775 121.148C158.559 120.692 158.319 120.236 158.079 119.78C158.055 119.744 158.043 119.708 158.019 119.684V119.672ZM95.2587 113.012C96.0387 110.564 96.6627 108.644 96.6627 108.644C96.6627 108.644 90.7707 103.208 84.7107 102.752C78.6507 102.296 70.9227 108.344 70.9227 108.344C68.2827 110.288 67.3947 110.984 66.9387 112.448C64.6707 118.328 93.2307 98.4797 95.2587 113.024V113.012Z" fill="url(#paint13_linear_1705_7493)"/>
<path style="mix-blend-mode:multiply" opacity="0.75" d="M210.566 134.744C209.642 132.596 207.35 131.6 207.35 131.6C207.35 131.6 207.806 126.392 206.126 123.02C204.446 119.648 193.178 102.728 191.954 102.488C190.73 102.248 188.666 102.944 188.666 102.944C188.666 102.944 188.582 101.552 187.358 99.3204C183.458 93.1644 175.166 91.3764 165.302 88.1004C155.426 84.8244 146.162 77.4444 144.434 79.0524C143.714 79.9524 143.162 81.4884 143.162 81.4884C143.162 81.4884 142.262 81.0564 139.934 80.1684C143.978 82.0644 144.926 84.2484 139.418 82.6524C133.91 81.0564 137.03 83.0124 140.486 84.7764C143.93 86.5404 146.078 88.5324 144.194 88.3524C142.31 88.1724 141.146 86.9244 143.354 88.7124C145.562 90.5004 146.594 90.5964 149.066 94.4244C151.538 98.2524 157.55 116.456 155.486 114.128C153.422 111.8 155.522 115.688 158.03 119.612C160.538 123.536 161.054 129.716 160.178 134.864C159.302 140 161.342 140.324 161.858 142.604C162.374 144.872 157.802 157.616 157.802 157.616C157.802 157.616 157.802 153.332 148.31 157.112C138.818 160.892 133.454 169.268 128.246 176.972C123.038 184.676 128.81 184.916 137.342 180.788C131.618 183.728 125.498 186.02 120.59 186.416C109.25 187.34 103.274 184.88 101.138 181.976C98.9896 179.06 101.138 181.976 99.7575 183.92C98.4855 185.708 93.0616 187.088 82.8256 183.392C84.1096 183.428 84.6975 182.372 83.3655 178.916C79.6935 169.448 63.0856 154.184 62.5816 157.604C61.9936 160.424 62.9415 163.856 66.9015 169.796C70.6335 175.4 74.8336 179.54 80.3176 182.42C80.2576 182.396 80.1976 182.372 80.1376 182.348C84.8176 184.832 90.4456 186.392 97.6096 187.112C113.078 188.648 157.274 187.88 163.022 187.496C168.77 187.112 168.158 183.668 168.158 183.668C168.158 183.668 172.598 185.048 174.674 184.436C176.738 183.824 191.774 178.7 198.362 172.232C208.982 161.816 212.282 146.756 212.282 143.996C212.282 141.236 211.514 136.868 210.602 134.732L210.566 134.744Z" fill="url(#paint14_linear_1705_7493)"/>
<g style="mix-blend-mode:screen" opacity="0.18">
<path d="M164.534 136.209C163.31 134.469 174.566 135.393 179.558 136.209C184.55 137.025 183.938 132.693 183.434 130.053C182.918 127.425 187.466 134.157 187.286 136.305C187.106 138.453 177.806 141.825 171.662 140.433C165.518 139.041 164.534 136.209 164.534 136.209Z" fill="#DB7DAF"/>
</g>
<g style="mix-blend-mode:screen" opacity="0.18">
<path d="M190.177 135.104C195.805 136.232 202.897 133.652 204.865 131C206.833 128.348 207.133 128.672 206.617 132.8C206.101 136.928 200.809 141.992 195.925 139.472C191.041 136.952 188.473 134.768 190.177 135.104Z" fill="#DB7DAF"/>
</g>
<g style="mix-blend-mode:screen" opacity="0.18">
<path d="M178.838 151.628C181.874 149.648 180.47 168.176 186.698 171.752C192.926 175.328 195.182 173.96 190.178 175.568C185.174 177.176 175.37 178.388 171.074 173.804C166.79 169.208 173.534 155.12 178.838 151.64V151.628Z" fill="#DB7DAF"/>
</g>
<g style="mix-blend-mode:screen" opacity="0.43">
<path d="M103.26 91.7725C104.568 94.3885 112.452 92.3365 121.536 89.3965C130.62 86.4565 142.536 91.0165 140.532 88.8085C138.528 86.6005 123.984 82.2205 117.348 83.0125C110.712 83.8045 102.744 90.7525 103.26 91.7725Z" fill="#DB7DAF"/>
</g>
<g style="mix-blend-mode:screen" opacity="0.43">
<path d="M114.793 100.964C113.329 101.24 124.909 107.408 131.749 108.116C138.589 108.824 148.741 110.18 143.569 106.676C138.385 103.172 127.453 98.528 114.793 100.952V100.964Z" fill="#DB7DAF"/>
</g>
<g style="mix-blend-mode:screen" opacity="0.43">
<path d="M77.4125 105.273C75.3005 107.037 86.1725 106.197 89.5685 106.029C92.9645 105.861 83.8445 99.873 77.4125 105.273Z" fill="#DB7DAF"/>
</g>
<g style="mix-blend-mode:screen" opacity="0.43">
<path d="M92.7376 93.716C89.9896 94.928 88.2256 91.064 85.7776 91.16C83.3416 91.268 76.1536 97.232 76.5616 94.328C76.9696 91.424 80.2696 86.792 81.2896 88.208C82.3096 89.624 82.7536 90.236 87.7696 88.94C92.7976 87.632 99.0976 85.196 99.3616 88.208C99.4936 89.732 95.2816 92.588 92.7256 93.716H92.7376Z" fill="#DB7DAF"/>
</g>
<g style="mix-blend-mode:screen" opacity="0.43">
<path d="M112.143 80.1313C111.639 81.0073 114.915 81.0073 118.959 78.8473C123.015 76.6873 131.751 77.9113 128.451 77.3833C125.163 76.8433 115.047 75.0913 112.131 80.1433L112.143 80.1313Z" fill="#DB7DAF"/>
</g>
<g style="mix-blend-mode:screen" opacity="0.43">
<path d="M87.3245 82.2806C88.8365 83.1446 98.5805 83.1206 102.72 80.2886C106.86 77.4566 106.848 77.5886 108.384 77.8406C109.932 78.0926 106.033 76.0646 102.337 76.6406C98.6405 77.2286 86.2085 81.6326 87.3245 82.2806Z" fill="#DB7DAF"/>
</g>
<g style="mix-blend-mode:screen" opacity="0.18">
<path d="M164.941 100.292C165.049 98.2875 180.469 107.708 182.917 107.612C185.365 107.504 183.229 111.392 176.785 112.928C170.341 114.464 164.737 104.012 164.941 100.304V100.292Z" fill="#DB7DAF"/>
</g>
<g style="mix-blend-mode:screen" opacity="0.18">
<path d="M186.289 122.337C186.277 124.665 195.349 117.717 195.073 115.161C194.797 112.605 186.397 105.609 186.289 122.337Z" fill="#DB7DAF"/>
</g>
<g style="mix-blend-mode:screen" opacity="0.18">
<path d="M151.225 81.4515C148.885 79.3635 159.853 82.3635 162.613 83.7435C165.373 85.1235 182.989 93.8715 173.353 90.7275C163.717 87.5715 153.937 83.8875 151.213 81.4635L151.225 81.4515Z" fill="#DB7DAF"/>
</g>
<g style="mix-blend-mode:multiply" opacity="0.37">
<path d="M132.48 170.816C129.312 175.148 151.56 167.66 153.696 160.928C155.844 154.184 144.348 154.568 132.48 170.816Z" fill="#DB7DAF"/>
</g>
<g style="mix-blend-mode:multiply" opacity="0.37">
<path d="M64.9564 157.857C62.1964 155.817 65.8804 167.949 71.1844 170.817C76.4884 173.685 81.7564 175.809 78.3604 170.817C74.9644 165.825 70.4764 161.949 64.9564 157.857Z" fill="#DB7DAF"/>
</g>
<path d="M110.713 86.0613C110.713 86.0613 120.889 88.7133 125.197 84.0093C125.197 84.0093 115.921 81.0573 110.713 86.0613Z" fill="white"/>
<path d="M87.7812 88.9413C87.7812 88.9413 95.5933 90.6093 98.5093 87.6213C98.5093 87.6213 99.3132 85.3293 87.7812 88.9413Z" fill="white"/>
<path d="M99.373 77.3496C99.373 77.3496 102.757 80.5896 105.709 76.5336C105.709 76.5336 102.433 76.4016 99.373 77.3496Z" fill="white"/>
<path style="mix-blend-mode:multiply" opacity="0.75" d="M210.566 134.745C209.642 132.597 207.35 131.601 207.35 131.601C205.898 141.861 195.326 141.861 191.03 136.953C186.746 132.033 184.826 128.841 187.202 134.517C189.578 140.181 171.578 143.253 168.218 140.517C164.858 137.793 165.302 138.345 161.558 145.401L161.63 146.145C161.63 146.145 161.354 146.949 160.814 148.317C159.902 151.569 158.642 155.229 158.09 156.813C165.47 172.197 190.826 173.925 205.166 163.545C210.446 154.869 212.27 146.037 212.27 143.997C212.27 141.237 211.502 136.869 210.59 134.733L210.566 134.745Z" fill="url(#paint15_linear_1705_7493)"/>
<path d="M150.519 137.665L42.3125 136.26L42.2177 143.559L150.424 144.964L150.519 137.665Z" fill="url(#paint16_linear_1705_7493)"/>
<path style="mix-blend-mode:multiply" d="M46.3965 143.611L46.343 147.734L50.4658 147.788L50.4122 151.91L54.6026 151.965L54.5491 156.088L58.6719 156.141L58.6183 160.264L82.2062 160.57L82.2597 156.447L86.4501 156.502L86.5036 152.379L90.6265 152.433L90.68 148.31L90.7335 144.187L46.3965 143.611Z" fill="url(#paint17_linear_1705_7493)"/>
<path style="mix-blend-mode:multiply" d="M102.092 144.336L102.038 148.459L101.985 152.582L106.108 152.635L106.054 156.758L110.244 156.812L110.191 160.935L133.846 161.242L133.9 157.119L138.023 157.173L138.076 153.05L142.064 153.102L142.117 148.979L146.443 149.035L146.496 144.913L102.092 144.336Z" fill="url(#paint18_linear_1705_7493)"/>
<path d="M66.8474 152.124L62.7246 152.07L62.6711 156.193L66.7939 156.247L66.8474 152.124Z" fill="#F2F4F6"/>
<path d="M62.7693 147.95L58.6465 147.896L58.593 152.019L62.7158 152.073L62.7693 147.95Z" fill="#F2F4F6"/>
<path d="M58.7068 143.772L54.584 143.719L54.5305 147.842L58.6533 147.895L58.7068 143.772Z" fill="#F2F4F6"/>
<path d="M75.0876 152.231L70.9648 152.178L70.9113 156.301L75.0341 156.354L75.0876 152.231Z" fill="#F2F4F6"/>
<path d="M71.0193 148.055L66.8965 148.002L66.843 152.125L70.9658 152.178L71.0193 148.055Z" fill="#F2F4F6"/>
<path d="M66.9529 143.88L62.8301 143.826L62.7765 147.949L66.8993 148.003L66.9529 143.88Z" fill="#F2F4F6"/>
<path d="M119.084 152.804L114.961 152.75L114.907 156.873L119.03 156.926L119.084 152.804Z" fill="#F2F4F6"/>
<path d="M115.017 148.628L110.895 148.574L110.841 152.697L114.964 152.751L115.017 148.628Z" fill="#F2F4F6"/>
<path d="M110.953 144.45L106.83 144.396L106.777 148.519L110.899 148.573L110.953 144.45Z" fill="#F2F4F6"/>
<path d="M127.336 152.911L123.213 152.857L123.159 156.98L127.282 157.034L127.336 152.911Z" fill="#F2F4F6"/>
<path d="M123.271 148.735L119.148 148.682L119.095 152.804L123.218 152.858L123.271 148.735Z" fill="#F2F4F6"/>
<path d="M119.191 144.557L115.068 144.504L115.015 148.627L119.138 148.68L119.191 144.557Z" fill="#F2F4F6"/>
<g style="mix-blend-mode:soft-light">
<path d="M82.2653 156.45L82.0625 156.447L82.009 160.57L82.2117 160.573L82.2653 156.45Z" fill="#DBDDDB"/>
</g>
<g style="mix-blend-mode:soft-light">
<path d="M133.908 157.12L133.705 157.117L133.652 161.24L133.854 161.243L133.908 157.12Z" fill="#DBDDDB"/>
</g>
<g style="mix-blend-mode:soft-light">
<path d="M138.078 153.05L137.875 153.047L137.821 157.17L138.024 157.172L138.078 153.05Z" fill="#DBDDDB"/>
</g>
<g style="mix-blend-mode:soft-light">
<path d="M142.123 148.979L141.92 148.977L141.866 153.099L142.069 153.102L142.123 148.979Z" fill="#DBDDDB"/>
</g>
<g style="mix-blend-mode:soft-light">
<path d="M86.5074 152.38L86.3047 152.377L86.2512 156.5L86.4539 156.502L86.5074 152.38Z" fill="#DBDDDB"/>
</g>
<g style="mix-blend-mode:soft-light">
<path d="M90.7477 144.188L90.5449 144.186L90.4379 152.431L90.6406 152.434L90.7477 144.188Z" fill="#DBDDDB"/>
</g>
<path d="M149.376 136.906L43.2646 135.528L42.3087 136.259L150.313 137.661L149.376 136.906Z" fill="url(#paint19_linear_1705_7493)"/>
<defs>
<linearGradient id="paint0_linear_1705_7493" x1="39.1475" y1="78.3445" x2="48.7475" y2="87.9445" gradientUnits="userSpaceOnUse">
<stop stop-color="#AB0057"/>
<stop offset="0.14" stop-color="#AF0B5E"/>
<stop offset="0.4" stop-color="#BA2A73"/>
<stop offset="0.74" stop-color="#CC5C95"/>
<stop offset="1" stop-color="#DB86B2"/>
</linearGradient>
<linearGradient id="paint1_linear_1705_7493" x1="169.705" y1="235.929" x2="169.705" y2="206.229" gradientUnits="userSpaceOnUse">
<stop offset="0.3" stop-color="white"/>
<stop offset="1" stop-color="#DB7DAF"/>
</linearGradient>
<linearGradient id="paint2_linear_1705_7493" x1="105.111" y1="67.6766" x2="150.531" y2="183.477" gradientUnits="userSpaceOnUse">
<stop stop-color="#BDBDFF"/>
<stop offset="0.84" stop-color="#728CCE"/>
</linearGradient>
<radialGradient id="paint3_radial_1705_7493" cx="0" cy="0" r="1" gradientUnits="userSpaceOnUse" gradientTransform="translate(115.125 147.249) scale(49.2 18.24)">
<stop stop-color="#DB7DAF"/>
<stop offset="0.32" stop-color="#E5A3C6"/>
<stop offset="1" stop-color="white"/>
</radialGradient>
<radialGradient id="paint4_radial_1705_7493" cx="0" cy="0" r="1" gradientUnits="userSpaceOnUse" gradientTransform="translate(125.135 143.23) scale(20.808 20.808)">
<stop offset="0.41" stop-color="white"/>
<stop offset="0.6" stop-color="#FCFCFE"/>
<stop offset="0.7" stop-color="#F4F5FA"/>
<stop offset="0.77" stop-color="#E7E9F5"/>
<stop offset="0.84" stop-color="#D4D7EC"/>
<stop offset="0.89" stop-color="#BCC1E2"/>
<stop offset="0.95" stop-color="#9EA5D5"/>
<stop offset="1" stop-color="#7781C5"/>
</radialGradient>
<linearGradient id="paint5_linear_1705_7493" x1="126.958" y1="156.19" x2="126.958" y2="130.258" gradientUnits="userSpaceOnUse">
<stop stop-color="#84AEFF"/>
<stop offset="0.13" stop-color="#698FD9"/>
<stop offset="0.3" stop-color="#496BAE"/>
<stop offset="0.47" stop-color="#314E8C"/>
<stop offset="0.63" stop-color="#1F3A74"/>
<stop offset="0.78" stop-color="#142E66"/>
<stop offset="0.9" stop-color="#112A61"/>
</linearGradient>
<linearGradient id="paint6_linear_1705_7493" x1="124.251" y1="162.751" x2="127.557" y2="143.288" gradientUnits="userSpaceOnUse">
<stop offset="0.23"/>
<stop offset="0.3" stop-color="#080305"/>
<stop offset="0.4" stop-color="#1F0D15"/>
<stop offset="0.53" stop-color="#451C2E"/>
<stop offset="0.68" stop-color="#793251"/>
<stop offset="0.85" stop-color="#BB4D7D"/>
<stop offset="1" stop-color="#FF6AAB"/>
</linearGradient>
<linearGradient id="paint7_linear_1705_7493" x1="107.725" y1="152.134" x2="144.181" y2="152.134" gradientUnits="userSpaceOnUse">
<stop/>
<stop offset="0.1" stop-color="#2E1A25"/>
<stop offset="0.3" stop-color="#8A4F6E"/>
<stop offset="0.44" stop-color="#C4709D"/>
<stop offset="0.51" stop-color="#DB7DAF"/>
<stop offset="1"/>
</linearGradient>
<radialGradient id="paint8_radial_1705_7493" cx="0" cy="0" r="1" gradientUnits="userSpaceOnUse" gradientTransform="translate(78.0134 142.661) scale(13.9414 20.3918)">
<stop offset="0.41" stop-color="white"/>
<stop offset="0.6" stop-color="#FCFCFE"/>
<stop offset="0.7" stop-color="#F4F5FA"/>
<stop offset="0.77" stop-color="#E7E9F5"/>
<stop offset="0.84" stop-color="#D4D7EC"/>
<stop offset="0.89" stop-color="#BCC1E2"/>
<stop offset="0.95" stop-color="#9EA5D5"/>
<stop offset="1" stop-color="#7781C5"/>
</radialGradient>
<linearGradient id="paint9_linear_1705_7493" x1="81.8962" y1="155.444" x2="81.8962" y2="130.004" gradientUnits="userSpaceOnUse">
<stop stop-color="#84AEFF"/>
<stop offset="0.13" stop-color="#698FD9"/>
<stop offset="0.3" stop-color="#496BAE"/>
<stop offset="0.47" stop-color="#314E8C"/>
<stop offset="0.63" stop-color="#1F3A74"/>
<stop offset="0.78" stop-color="#142E66"/>
<stop offset="0.9" stop-color="#112A61"/>
</linearGradient>
<linearGradient id="paint10_linear_1705_7493" x1="79.4174" y1="161.827" x2="82.6452" y2="142.842" gradientUnits="userSpaceOnUse">
<stop offset="0.23"/>
<stop offset="0.3" stop-color="#080305"/>
<stop offset="0.4" stop-color="#1F0D15"/>
<stop offset="0.53" stop-color="#451C2E"/>
<stop offset="0.68" stop-color="#793251"/>
<stop offset="0.85" stop-color="#BB4D7D"/>
<stop offset="1" stop-color="#FF6AAB"/>
</linearGradient>
<linearGradient id="paint11_linear_1705_7493" x1="67.1055" y1="151.45" x2="91.5855" y2="151.45" gradientUnits="userSpaceOnUse">
<stop/>
<stop offset="0.1" stop-color="#2E1A25"/>
<stop offset="0.3" stop-color="#8A4F6E"/>
<stop offset="0.44" stop-color="#C4709D"/>
<stop offset="0.51" stop-color="#DB7DAF"/>
<stop offset="1"/>
</linearGradient>
<linearGradient id="paint12_linear_1705_7493" x1="80.731" y1="170.659" x2="114.467" y2="171.389" gradientUnits="userSpaceOnUse">
<stop/>
<stop offset="0.1" stop-color="#2E1A25"/>
<stop offset="0.3" stop-color="#8A4F6E"/>
<stop offset="0.44" stop-color="#C4709D"/>
<stop offset="0.51" stop-color="#DB7DAF"/>
<stop offset="1"/>
</linearGradient>
<linearGradient id="paint13_linear_1705_7493" x1="66.8187" y1="100.412" x2="159.387" y2="100.412" gradientUnits="userSpaceOnUse">
<stop/>
<stop offset="1" stop-color="#DB7DAF"/>
</linearGradient>
<linearGradient id="paint14_linear_1705_7493" x1="92.1376" y1="181.772" x2="213.578" y2="93.9684" gradientUnits="userSpaceOnUse">
<stop stop-color="white"/>
<stop offset="0.14" stop-color="#FEFCFD"/>
<stop offset="0.22" stop-color="#FCF4F8"/>
<stop offset="0.28" stop-color="#F8E6EF"/>
<stop offset="0.34" stop-color="#F2D1E3"/>
<stop offset="0.4" stop-color="#EBB7D3"/>
<stop offset="0.44" stop-color="#E298BF"/>
<stop offset="0.48" stop-color="#DB7DAF"/>
<stop offset="0.84" stop-color="white"/>
</linearGradient>
<linearGradient id="paint15_linear_1705_7493" x1="185.162" y1="170.121" x2="185.162" y2="131.505" gradientUnits="userSpaceOnUse">
<stop offset="0.3" stop-color="white"/>
<stop offset="1" stop-color="#DB7DAF"/>
</linearGradient>
<linearGradient id="paint16_linear_1705_7493" x1="96.4461" y1="137.233" x2="96.3549" y2="144.262" gradientUnits="userSpaceOnUse">
<stop/>
<stop offset="1" stop-color="#161719"/>
</linearGradient>
<linearGradient id="paint17_linear_1705_7493" x1="68.3517" y1="160.323" x2="68.5659" y2="143.832" gradientUnits="userSpaceOnUse">
<stop stop-color="#787A87"/>
<stop offset="1" stop-color="#161719"/>
</linearGradient>
<linearGradient id="paint18_linear_1705_7493" x1="125.504" y1="54.0581" x2="125.504" y2="54.0581" gradientUnits="userSpaceOnUse">
<stop stop-color="#787A87"/>
<stop offset="1" stop-color="#161719"/>
</linearGradient>
<linearGradient id="paint19_linear_1705_7493" x1="96.3203" y1="136.217" x2="96.3107" y2="136.96" gradientUnits="userSpaceOnUse">
<stop stop-color="#4E4F58"/>
<stop offset="0.04" stop-color="#A4A7B8"/>
<stop offset="0.84" stop-color="#4E4F58"/>
<stop offset="1" stop-color="#1E1E1E"/>
</linearGradient>
</defs>
</svg>
