<svg width="108" height="106" viewBox="0 0 108 106" fill="none" xmlns="http://www.w3.org/2000/svg">
<path d="M47.3789 68.8908C47.3789 68.8908 62.8954 79.6311 75.2049 77.0714C84.0112 75.242 90.3808 69.0678 94.1581 61.0643C97.9354 53.0607 47.3789 68.8908 47.3789 68.8908Z" fill="#374293"/>
<g style="mix-blend-mode:multiply" opacity="0.82">
<path d="M81.9143 74.6222C77.1519 76.9532 66.9014 69.1046 66.9014 69.1046C66.9014 69.1046 93.4535 62.7755 90.7649 66.7736C88.0764 70.7717 83.7214 73.7371 81.9143 74.6222Z" fill="#DB7DAF"/>
</g>
<g style="mix-blend-mode:multiply" opacity="0.82">
<path d="M75.7164 74.1576C73.2797 73.3388 65.3844 74.0543 63.4291 75.2936C61.4738 76.5329 50.4752 71.4061 49.5864 69.7095C48.6976 68.0129 56.4744 68.7432 56.4744 68.7432L80.064 63.4099C80.064 63.4099 95.0916 61.1748 90.7737 66.7663C86.4631 72.3651 81.5453 76.0976 75.7164 74.1502V74.1576Z" fill="#DB7DAF"/>
</g>
<path d="M86.374 84.2092C85.7074 79.6873 78.8046 70.9313 77.1085 69.7068C75.405 68.4823 72.1017 70.2896 72.1017 70.2896C72.1017 70.2896 77.5159 84.6001 75.6272 98.3279C73.7534 98.1509 72.1981 99.0877 71.8648 99.8918C71.5315 100.696 74.7755 100.836 75.4717 99.3754C75.4717 99.3754 73.8941 104.834 74.6569 105.778C75.4124 106.722 76.3086 104.318 76.3086 104.318C76.3086 104.318 78.412 104.266 78.923 100.88C78.923 100.88 79.2934 103.189 80.0488 103.241C80.6043 103.278 80.5451 100.806 80.4785 99.4861C84.4483 95.3921 87.011 88.4728 86.3888 84.2166L86.374 84.2092Z" fill="#5568B1"/>
<g style="mix-blend-mode:multiply" opacity="0.82">
<path d="M72.6863 72.0321C72.5752 70.0551 80.3668 73.3303 80.3668 73.3303C80.3668 73.3303 78.2189 69.974 76.2192 69.347C74.2195 68.72 72.0938 70.2912 72.0938 70.2912L72.6863 72.0394V72.0321Z" fill="#DB7DAF"/>
</g>
<g style="mix-blend-mode:multiply" opacity="0.82">
<path d="M76.7748 101.156C76.7748 101.156 77.0488 102.956 76.3008 104.313C76.3008 104.313 77.9228 103.133 76.7748 101.156Z" fill="#DB7DAF"/>
</g>
<path style="mix-blend-mode:multiply" opacity="0.75" d="M77.1819 99.0892C76.7671 101.162 80.463 99.4802 80.463 99.4802C84.4328 95.3862 86.9955 88.4669 86.3733 84.2107C86.2844 83.6279 86.0993 82.9788 85.8327 82.278C84.181 78.9364 77.6041 97.0164 77.1893 99.0892H77.1819Z" fill="url(#paint0_linear_3112_24732)"/>
<path d="M34.8405 87.3322C34.759 80.4794 31.9297 72.3799 33.3888 67.9908C34.8478 63.6018 29.9226 66.6852 29.9226 66.6852C25.7824 75.2125 24.1307 82.6481 24.4418 89.5452C24.5529 92.0385 24.901 93.8162 25.3602 95.0924C25.3602 95.0924 23.3678 97.534 23.6197 98.2127C23.8715 98.8913 24.8195 98.6774 24.8195 98.6774C24.8195 98.6774 24.19 102.329 25.7009 102.867C27.2118 103.406 26.4563 99.2675 26.4563 99.2675C26.4563 99.2675 27.6562 101.65 28.9153 102.344C30.1744 103.037 29.9226 101.296 29.9226 101.296C29.9226 101.296 30.5817 99.2085 29.7374 97.6004C31.8186 96.1989 34.8997 92.5032 34.8405 87.347V87.3322Z" fill="#5568B1"/>
<g style="mix-blend-mode:multiply" opacity="0.82">
<path d="M24.8203 98.6683C25.9831 98.506 26.746 96.9938 26.746 96.9938L28.8272 96.4922C28.8272 96.4922 27.3163 97.5323 26.8275 97.5765C26.3387 97.6282 26.1164 98.8453 26.1164 98.8453C26.1164 98.8453 28.1236 98.4765 29.3975 97.6651L28.4199 98.4986C28.4199 98.4986 29.6197 99.3174 29.9308 101.28C29.9308 101.28 28.805 99.074 27.7903 98.8822C26.7756 98.6904 26.4646 99.251 26.4646 99.251C26.4646 99.251 25.998 98.8822 25.6795 98.683C25.361 98.4839 24.8277 98.6609 24.8277 98.6609L24.8203 98.6683Z" fill="#DB7DAF"/>
</g>
<g style="mix-blend-mode:multiply" opacity="0.82">
<path d="M28.7594 69.2096C29.6111 68.2506 33.1218 74.0338 33.1218 74.0338C33.1218 74.0338 32.5367 69.2391 33.6254 67.0482C34.7142 64.8574 29.9222 66.6794 29.9222 66.6794L28.752 69.2022L28.7594 69.2096Z" fill="#DB7DAF"/>
</g>
<path style="mix-blend-mode:multiply" opacity="0.75" d="M33.7886 78.6052C32.9517 74.7104 27.2339 86.9997 27.0265 92.2888C26.8191 97.5851 30.7223 96.8253 32.1814 95.2173C33.6404 93.6092 35.1588 89.8692 34.8403 86.5129C34.5218 83.1566 33.7886 78.6052 33.7886 78.6052Z" fill="url(#paint1_linear_3112_24732)"/>
<path d="M45.9123 4.13142C45.9123 4.13142 47.675 2.25777 49.4674 2.07335C51.2597 1.88894 55.9332 1.77829 59.9475 3.14296C63.9692 4.50762 65.3394 5.16414 65.3394 5.16414C65.3394 5.16414 65.9986 3.28311 66.7096 3.28311C67.4206 3.28311 80.5597 6.01244 86.8996 10.3425C93.2321 14.6725 93.4247 18.3461 93.4247 18.3461C93.4247 18.3461 94.6986 17.9256 95.4541 18.0658C96.2095 18.2059 103.157 28.6143 104.201 30.6871C105.245 32.7599 104.957 35.9613 104.957 35.9613C104.957 35.9613 106.371 36.5736 106.942 37.894C107.512 39.2144 107.978 41.8995 107.978 43.5887C107.978 45.278 105.949 54.5429 99.3869 60.9458C95.3133 64.9218 86.0405 68.0716 84.7665 68.4478C83.4926 68.824 80.7449 67.9757 80.7449 67.9757C80.7449 67.9757 81.1226 70.0928 77.5749 70.3288C74.0272 70.5649 46.7492 71.037 37.2023 70.0928C27.6554 69.1486 22.5005 65.807 18.2418 59.4484C13.9905 53.0897 15.3607 51.4005 17.5826 48.2433C17.5826 48.2433 15.8347 37.3186 17.2493 30.3035C18.664 23.2884 17.3456 24.1367 20.7452 21.6434C20.7452 21.6434 19.9379 19.9468 20.5526 18.3461C21.1674 16.7454 24.8558 10.1507 25.9445 9.35403C27.0333 8.55736 27.5961 8.54999 27.5961 8.54999C27.5961 8.54999 27.2629 7.93773 28.6331 6.61732C30.0032 5.29692 38.0911 1.69715 41.5425 2.01434C44.9939 2.33153 45.8901 4.12404 45.8901 4.12404L45.9123 4.13142Z" fill="url(#paint2_linear_3112_24732)"/>
<path style="mix-blend-mode:multiply" opacity="0.75" d="M47.5931 56.9261C64.3436 56.9261 77.9225 51.8962 77.9225 45.6916C77.9225 39.4869 64.3436 34.457 47.5931 34.457C30.8426 34.457 17.2637 39.4869 17.2637 45.6916C17.2637 51.8962 30.8426 56.9261 47.5931 56.9261Z" fill="url(#paint3_radial_3112_24732)"/>
<g style="mix-blend-mode:multiply" opacity="0.68">
<path d="M105.846 36.5139L104.957 35.9606C104.535 39.9661 103.253 43.1159 100.372 43.7355C97.4911 44.3552 93.9878 40.3423 92.9509 38.0777C91.914 35.8205 90.9142 31.2027 91.8622 27.0571C92.8102 22.9115 94.6026 22.3877 97.2022 24.2761C99.8019 26.1645 103.061 31.9478 102.261 34.1165C101.461 36.2852 100.417 35.8131 100.372 35.2967C100.328 34.7804 99.476 32.9879 99.0019 33.3641C98.5279 33.7403 97.0171 35.9532 98.6243 36.5655C100.231 37.1778 102.831 35.2967 102.787 33.9321C102.742 32.5674 102.505 30.1626 99.8537 26.3489C97.8021 23.3909 95.7728 20.3149 93.8841 20.8977C94.8692 18.8396 94.4545 18.0946 94.4545 18.0946L93.4249 18.3454C93.536 20.3887 88.9366 25.2793 84.5224 24.7187C80.1081 24.1507 76.9603 15.2988 77.7158 12.6654C78.4713 10.032 84.6779 13.5432 85.5148 14.2956C86.3517 15.048 84.6482 15.7414 83.641 15.7414C82.6337 15.7414 82.5078 15.5496 84.3372 16.6856C86.1666 17.8216 87.9293 18.4413 87.8034 17.379C87.6775 16.3094 86.9813 12.7982 78.7898 9.97295C70.5983 7.14772 74.0644 12.8572 78.2861 19.142C80.1748 21.9451 82.1819 24.3794 84.189 25.7588C81.9449 26.8727 78.6417 28.798 79.0564 30.1258C79.5304 31.6306 81.7005 36.7204 82.8411 36.8606C83.9817 37.0007 86.2481 37.0966 84.6409 36.3147C83.0337 35.5328 80.5302 33.519 80.671 32.4789C80.8117 31.4462 82.2337 24.9917 85.4926 27.8169C88.7514 30.6421 93.3435 38.1293 92.6769 39.9145C92.0177 41.707 87.6183 44.6724 84.5446 43.4478C81.4709 42.2233 78.1158 39.9661 77.5085 37.1851C76.9012 34.4042 76.7456 31.1585 76.0864 29.4176C75.4272 27.6767 68.68 18.6773 56.1038 15.0554C43.4684 11.4114 37.795 18.8248 37.795 18.8248C37.795 18.8248 38.7875 13.5506 39.6837 12.0458C40.5799 10.5409 46.9642 5.54701 49.9416 5.6429C52.919 5.7388 58.5924 6.77152 63.0362 8.51239C67.4801 10.2533 71.5018 13.2703 74.2866 17.32C77.0788 21.3698 76.1753 25.9801 76.5085 25.84C76.8418 25.6998 77.738 23.627 77.4566 22.8746C77.1751 22.1222 75.9901 20.6616 75.9901 20.6616C75.8494 18.5445 72.7758 14.3546 72.7758 14.3546C72.7758 14.3546 72.8202 12.9457 72.3017 10.8213C71.7833 8.70418 65.5619 4.65444 65.5619 4.65444L65.3545 5.1708C65.3545 5.1708 71.4499 9.02875 69.2058 7.92964C66.9616 6.82315 61.2365 5.34046 61.4513 5.62077C61.666 5.90108 64.5694 7.12559 64.7619 7.12559C64.9545 7.12559 65.8507 6.86741 66.0877 6.86741C66.3247 6.86741 70.4353 8.5419 70.7464 9.29431C71.0501 10.0467 70.539 11.736 70.539 11.736C70.0354 11.6696 55.4446 3.31191 51.6006 3.68811C47.7567 4.06432 41.0391 10.2238 41.0391 10.2238C41.0391 10.2238 43.4313 6.49121 45.9273 4.13071C45.9273 4.13071 44.683 2.95045 43.5647 4.41101C42.4463 5.87158 40.6836 10.0172 40.6836 10.0172C39.8318 4.93475 36.3211 8.31322 32.692 8.93285C29.0628 9.55249 27.6334 8.55665 27.6334 8.55665C27.6334 9.78116 29.0036 10.0172 29.0036 10.0172C29.0036 10.0172 32.2624 9.50085 34.8176 8.65255C37.3729 7.80424 39.2615 8.41649 39.4985 10.6737C39.7355 12.931 38.3653 12.8867 37.6543 14.2071C36.9433 15.5275 37.0396 20.042 37.0396 20.042C37.0396 20.042 35.5731 19.3338 30.6108 18.0651C25.6484 16.7963 20.3973 20.2338 20.3973 20.2338L20.7824 21.6427C20.7824 21.6427 25.5596 17.9249 29.2924 18.2052C33.0253 18.4855 36.6692 21.8271 36.6692 21.8271C36.6692 21.8271 34.1141 29.6463 33.9733 30.679C33.8845 31.3281 34.1289 32.9805 34.3288 34.1239C34.6029 35.968 34.714 39.6563 34.714 40.9767C34.714 42.2971 33.9585 34.2935 29.4183 32.7002C24.8782 31.1068 21.1305 34.8099 19.4492 35.4221C17.768 36.0344 16.7607 33.6296 16.7607 33.6296V35.223C16.7756 39.7374 20.1529 34.0058 24.2487 33.6296C28.3518 33.2534 30.6922 35.0902 32.7364 38.4318C34.7806 41.7734 35.1806 48.368 35.1806 48.368C35.1806 48.368 35.3731 46.6272 36.3138 45.2625C37.2618 43.8978 42.6833 40.1726 49.0306 38.2326C55.378 36.2926 59.2441 37.731 64.3027 40.2612C69.3613 42.7987 68.5541 44.8346 70.5538 44.7461C72.5462 44.6502 72.2499 44.1339 73.6201 43.0053C74.9903 41.8766 71.0204 44.5101 68.517 42.629C66.0137 40.748 57.1259 33.8731 50.9341 36.086C44.7423 38.299 35.8694 44.547 35.8694 44.547C35.8694 44.547 34.4399 36.5212 34.8769 31.7339C35.0695 30.2585 35.3806 28.3849 35.8694 26.2162C37.0989 20.7575 37.4322 17.7405 47.9715 16.752C58.5109 15.7636 63.8065 18.9207 67.7319 21.2222C71.6573 23.5311 76.1012 29.4176 76.3827 34.3599C76.6641 39.3096 75.4865 39.8186 76.7604 41.6037C78.0343 43.3962 84.8927 44.1486 84.8927 44.1486C84.8927 44.1486 81.3006 44.7166 79.0787 47.6304C76.8567 50.5515 75.768 57.7068 76.479 57.6109C77.19 57.515 79.5971 55.066 79.3156 54.3652C79.0342 53.6644 77.3307 52.9046 77.4714 52.1522C77.6121 51.3998 78.7453 48.6705 80.8784 47.2099C83.0114 45.7493 87.8256 44.901 87.8256 44.901C86.1888 46.7821 80.8266 55.2282 79.8859 60.6574C78.9675 59.2632 77.4863 59.7796 72.1314 61.9483C66.7765 64.117 59.1479 67.7242 63.0511 68.1963C66.9543 68.6684 72.4202 66.9791 75.5309 66.4701C78.6416 65.9612 79.1527 64.5227 76.8196 64.2424C74.4866 63.9621 70.2353 65.939 71.65 65.6366C73.0646 65.3341 76.4419 65.3415 75.1161 66.0349C73.7904 66.7283 71.7463 67.3553 67.7764 67.5397C63.8065 67.7315 64.4064 66.2562 66.0729 65.1571C67.7393 64.058 76.9752 61.2623 77.6714 61.7344C78.3676 62.2065 80.3155 65.7841 80.7747 67.9823L83.2559 68.5061C81.6783 68.2848 81.0858 66.4554 80.7303 64.5891C84.0187 67.1267 94.6766 64.2719 94.6766 64.2719C97.0244 63.0769 99.4167 60.9525 99.4167 60.9525C96.1209 63.8588 88.196 65.017 84.0854 63.3203C79.9748 61.6237 81.7227 55.5528 83.8484 51.7391C85.974 47.9254 90.9585 43.1233 93.5582 43.3077C96.1579 43.4995 100.35 44.7166 100.683 49.0983C101.017 53.48 97.8466 57.5297 94.9655 55.9733C92.0844 54.4168 93.1657 51.3555 92.5509 50.3671C91.9362 49.3786 91.4622 52.4399 91.7955 53.5685C92.1288 54.6971 94.0619 58.8428 96.2393 58.5108C98.4168 58.1789 101.72 50.5515 101.631 48.4344C101.535 46.3173 99.0761 44.1486 99.0761 44.1486C109.001 43.9126 105.875 36.5139 105.875 36.5139H105.846ZM91.0622 34.264C89.4995 31.815 88.4181 28.8201 87.359 26.9686C88.744 27.0202 90.092 26.3711 91.3585 24.7704C90.329 28.8422 91.0622 34.2714 91.0622 34.2714V34.264Z" fill="#DB7DAF"/>
</g>
<g opacity="0.7">
<g style="mix-blend-mode:multiply" opacity="0.68">
<path d="M81.2421 12.0968C81.6495 12.237 82.0643 12.3919 82.4642 12.5689C82.479 12.5689 82.4865 12.5763 82.5013 12.5837C83.2419 12.8861 83.8418 13.2033 84.3381 13.5205C84.9009 13.8451 85.3305 14.1328 85.5082 14.295C85.6638 14.4352 85.7305 14.5753 85.7305 14.7081C87.034 16.2867 86.2266 17.6661 86.2266 17.6661C87.1969 18.0423 87.8709 18.0497 87.7968 17.3711C87.6709 16.3015 86.9748 12.7902 78.7832 9.96499C72.6062 7.83316 73.058 10.5625 75.4651 14.7229C73.2432 10.2305 76.4872 10.3264 81.2421 12.0968Z" fill="#DB7DAF"/>
</g>
<g style="mix-blend-mode:multiply" opacity="0.68">
<path d="M65.0586 8.91746C60.3407 6.50532 53.9416 3.45141 51.5863 3.68009C50.2828 3.80549 48.6533 4.60216 47.0684 5.59062C51.8085 3.10471 64.9994 8.88795 65.0586 8.91746Z" fill="#DB7DAF"/>
</g>
<g style="mix-blend-mode:multiply" opacity="0.68">
<path d="M63.0299 17.8201C60.9561 16.7431 58.6453 15.7842 56.09 15.0465C43.4546 11.4025 37.7812 18.8159 37.7812 18.8159C48.1947 12.9884 60.2524 16.8833 63.0299 17.8201Z" fill="#DB7DAF"/>
</g>
<g style="mix-blend-mode:multiply" opacity="0.68">
<path d="M85.0049 25.9646C85.6048 26.149 86.4639 26.4588 87.3601 26.9604C88.7451 27.012 90.0931 26.3629 91.3596 24.7622C92.2113 22.859 95.048 20.9706 98.2994 24.1352C96.7811 22.0623 95.2924 20.4616 93.8852 20.8968C94.8703 18.8388 94.4555 18.0938 94.4555 18.0938L93.426 18.3446C93.4408 18.6322 93.3519 18.9863 93.189 19.3699C91.8632 24.2679 87.9526 26.4809 85.0049 25.9646Z" fill="#DB7DAF"/>
</g>
<g style="mix-blend-mode:multiply" opacity="0.68">
<path d="M90.5743 43.8682C93.6035 42.3634 95.5144 42.0978 91.5668 36.0859C92.4334 37.7973 92.9148 39.2505 92.6704 39.9144C92.0112 41.7069 87.6118 44.6723 84.5381 43.4478C84.5381 43.4478 87.545 45.3804 90.5743 43.8682Z" fill="#DB7DAF"/>
</g>
<g style="mix-blend-mode:multiply" opacity="0.68">
<path d="M82.8346 36.8522C83.9678 36.9924 86.2416 37.0883 84.6344 36.3064C83.1383 35.5835 80.857 33.7762 80.6719 32.6992C80.7015 33.1271 80.7682 33.5992 80.8349 34.2631C81.5459 35.6277 82.3013 36.7858 82.8346 36.8522Z" fill="#DB7DAF"/>
</g>
<g style="mix-blend-mode:multiply" opacity="0.68">
<path d="M99.9963 34.2642C99.7 33.6814 99.2852 33.1503 99.0037 33.3716C98.5297 33.7478 97.0189 35.9608 98.6261 36.5731C99.0408 36.728 99.5148 36.7206 99.9963 36.6026C98.1965 36.9124 99.2926 32.7594 99.9963 34.2642Z" fill="#DB7DAF"/>
</g>
<g style="mix-blend-mode:multiply" opacity="0.68">
<path d="M105.846 36.5142L104.958 35.9609C104.898 36.5289 104.817 37.0748 104.721 37.5985C104.802 39.6566 104.683 42.6662 103.417 43.3301C107.89 41.3532 105.846 36.5142 105.846 36.5142Z" fill="#DB7DAF"/>
</g>
<g style="mix-blend-mode:multiply" opacity="0.68">
<path d="M91.8346 50.9918C91.6494 51.7884 91.5902 52.9539 91.7679 53.5588C92.1012 54.6874 94.0343 58.8331 96.2118 58.5011C97.0043 58.3831 97.9375 57.2987 98.8115 55.8677C97.0117 58.5896 90.8125 55.6169 91.8346 50.9844V50.9918Z" fill="#DB7DAF"/>
</g>
<g style="mix-blend-mode:multiply" opacity="0.68">
<path d="M81.5097 62.7977C80.221 60.179 80.4209 58.4529 83.9094 50.8477C82.1244 54.0122 80.3617 57.7595 79.8581 60.6659C78.9397 59.2717 77.4584 59.7881 72.1035 61.9568C71.8591 62.0527 71.6073 62.1559 71.3555 62.2666C79.1989 59.375 78.5397 60.5036 80.7098 64.5902C83.9983 67.1278 94.6561 64.273 94.6561 64.273C97.004 63.078 99.3963 60.9536 99.3963 60.9536C98.7371 61.5363 97.8928 62.0379 96.93 62.4731C96.9152 62.4731 96.9077 62.4879 96.8929 62.4953C93.2267 64.6271 82.791 65.4311 81.5023 62.8125L81.5097 62.7977Z" fill="#DB7DAF"/>
</g>
<g style="mix-blend-mode:multiply" opacity="0.68">
<path d="M20.7615 21.6427C20.7615 21.6427 24.0722 18.7215 27.6199 17.9249C27.6199 17.9249 25.0573 17.4528 20.3838 20.2337C20.3838 20.2337 20.5171 21.0894 20.7689 21.6427H20.7615Z" fill="#DB7DAF"/>
</g>
<g style="mix-blend-mode:multiply" opacity="0.68">
<path d="M32.9826 8.87188C32.9826 8.87188 29.4572 10.0152 28.9832 10.0152C28.5092 10.0152 27.4426 9.41775 27.613 8.55469C27.613 8.55469 28.1536 9.11531 30.0275 9.16694C31.8939 9.21858 32.9826 8.87188 32.9826 8.87188Z" fill="#DB7DAF"/>
</g>
</g>
<g style="mix-blend-mode:multiply" opacity="0.36">
<path d="M106.941 37.8854C106.371 36.565 104.956 35.9528 104.956 35.9528C104.956 35.9528 105.237 32.7513 104.2 30.6785C103.163 28.6057 96.2089 18.2047 95.4534 18.0572C94.698 17.9171 93.4241 18.3375 93.4241 18.3375C93.4241 18.3375 93.3722 17.4818 92.6167 16.1098C90.2096 12.3256 85.0917 11.2265 79.0036 9.2127C72.9081 7.19889 67.1904 2.6623 66.1239 3.65076C65.6795 4.204 65.3388 5.1482 65.3388 5.1482C65.3388 5.1482 64.7833 4.88265 63.3465 4.33678C65.8424 5.50228 66.4275 6.84482 63.028 5.86373C59.6284 4.88265 61.5541 6.08503 63.6871 7.16938C65.8128 8.25374 67.1385 9.47825 65.9757 9.3676C64.8129 9.25695 64.0945 8.48979 65.4573 9.5889C66.8201 10.688 67.457 10.747 68.9828 13.1002C70.5085 15.4533 74.2191 26.6435 72.9452 25.2125C71.6713 23.7814 72.9674 26.1714 74.5154 28.5836C76.0633 30.9957 76.3818 34.7947 75.8412 37.9592C75.3005 41.1164 76.5595 41.3155 76.878 42.7171C77.1965 44.1186 74.3746 51.9452 74.3746 51.9452C74.3746 51.9452 74.3747 49.3118 68.5162 51.6354C62.6577 53.959 59.3469 59.1078 56.1325 63.8436C52.9181 68.5794 56.4807 68.7269 61.7467 66.1894C58.2138 67.9966 54.4365 69.4055 51.4073 69.649C44.4082 70.217 40.7197 68.7048 39.4014 66.9196C38.0756 65.1271 39.4014 66.9196 38.5496 68.1146C37.7646 69.2138 34.4168 70.0621 28.0991 67.7901C28.8916 67.8122 29.2545 67.1631 28.4324 65.0386C26.166 59.2185 15.9155 49.8355 15.6044 51.9378C15.2415 53.6713 15.8266 55.781 18.2708 59.4324C20.5742 62.8773 23.1664 65.4222 26.5512 67.1926C26.5141 67.1778 26.4771 67.1631 26.4401 67.1483C29.3286 68.6753 32.8022 69.6342 37.2239 70.0768C46.7708 71.021 74.0488 70.5489 77.5965 70.3129C81.1442 70.0768 80.7664 67.9597 80.7664 67.9597C80.7664 67.9597 83.5068 68.808 84.7881 68.4318C86.062 68.0556 95.3423 64.9058 99.4084 60.9299C105.963 54.527 108 45.2694 108 43.5728C108 41.8762 107.526 39.1911 106.963 37.8781L106.941 37.8854Z" fill="#DB7DAF"/>
</g>
<g style="mix-blend-mode:multiply" opacity="0.75">
<path d="M77.5831 70.3304C81.1308 70.0944 80.7531 67.9773 80.7531 67.9773C80.7531 67.9773 83.4934 68.8256 84.7747 68.4494C86.0486 68.0732 95.3289 64.9234 99.3951 60.9474C105.95 54.5445 107.987 45.2869 107.987 43.5903C107.987 41.8937 107.513 39.2086 106.95 37.8956C106.379 36.5752 104.965 35.9629 104.965 35.9629C104.069 42.2699 97.5435 42.2699 94.892 39.2529C92.2479 36.2285 91.0628 34.2663 92.5293 37.7555C93.9957 41.2446 82.8861 43.1256 80.8123 41.4437C78.7385 39.7693 79.0125 40.1086 76.7017 44.446L76.7461 44.9034C76.7461 44.9034 76.5758 45.3976 76.2425 46.2385C75.4944 48.8793 74.3834 51.9701 74.3834 51.9701C74.3834 51.9701 74.8575 55.2674 72.1171 58.8082C70.7543 60.5638 67.3696 63.1161 63.4442 65.307C59.1781 68.4272 56.7487 70.0796 54.2676 70.655C64.6144 70.7066 75.4574 70.4779 77.5979 70.3378L77.5831 70.3304Z" fill="#DB7DAF"/>
</g>
<path style="mix-blend-mode:screen" opacity="0.43" d="M27.6181 8.55803C27.6181 8.55803 27.2848 7.94578 28.655 6.62537C30.0252 5.30496 38.1131 1.70519 41.5645 2.02239C45.0159 2.33958 45.9121 4.13209 45.9121 4.13209C45.9121 4.13209 44.6678 2.95184 43.5494 4.4124C42.431 5.87296 40.6683 10.0186 40.6683 10.0186C39.8165 4.93614 36.3059 8.31461 32.6767 8.93424C29.0476 9.55387 27.6181 8.55803 27.6181 8.55803ZM41.0312 10.2251C41.0312 10.2251 43.9716 7.53269 47.0749 5.60003C47.5933 5.27546 48.1192 4.97302 48.6303 4.70746C48.7488 4.64845 48.8598 4.58944 48.9709 4.5378C49.0894 4.47879 49.2079 4.42715 49.3264 4.37552C49.5412 4.27962 49.7486 4.1911 49.956 4.10996C50.0152 4.08783 50.0744 4.0657 50.1337 4.04357C50.3337 3.9698 50.5337 3.91079 50.7263 3.85915C50.7929 3.8444 50.8596 3.82227 50.9188 3.80752C51.1484 3.75588 51.3706 3.71162 51.5854 3.68949C51.7187 3.67474 51.8743 3.67474 52.0372 3.68949C52.0891 3.68949 52.1483 3.69687 52.2001 3.70425C52.3186 3.71162 52.4371 3.72638 52.563 3.74851C52.6297 3.75588 52.6964 3.77064 52.7704 3.78539C52.8964 3.80752 53.0296 3.83703 53.1703 3.86653C53.2444 3.88128 53.3111 3.89604 53.3851 3.91817C53.5481 3.95505 53.7259 4.00669 53.9037 4.05095C53.9555 4.0657 53.9999 4.08045 54.0517 4.09521C54.2813 4.1616 54.5257 4.23536 54.7701 4.3165C54.8368 4.33863 54.9035 4.36076 54.9776 4.39027C55.1627 4.45666 55.3479 4.51567 55.5479 4.58944C55.6367 4.62632 55.733 4.65583 55.8293 4.69271C56.0071 4.7591 56.1922 4.82549 56.3774 4.89925C56.4737 4.93613 56.57 4.97302 56.6662 5.0099C56.8736 5.09104 57.081 5.17219 57.2884 5.2607C57.3624 5.29021 57.4365 5.31972 57.5106 5.3566C57.7994 5.47463 58.0957 5.60003 58.3919 5.73281C58.4067 5.73281 58.4216 5.74756 58.4438 5.75494C58.7253 5.88034 59.0066 6.00574 59.2955 6.13114C59.3769 6.16802 59.4585 6.20491 59.54 6.24179C59.7696 6.34506 59.9917 6.44833 60.2213 6.55161C60.3102 6.58849 60.3917 6.63275 60.4806 6.66963C60.725 6.78028 60.9694 6.8983 61.2064 7.01633C61.2657 7.04584 61.3175 7.06797 61.3767 7.09747C62.3248 7.55482 63.258 8.01217 64.1542 8.46952C64.1764 8.47689 64.1986 8.49164 64.2208 8.49902C64.8355 8.80884 65.4355 9.11866 65.9984 9.40634C67.1612 9.51699 65.8354 8.29248 63.7098 7.20812C61.5841 6.12376 59.6584 4.92138 63.0506 5.90247C63.2802 5.96148 63.5023 6.01311 63.7319 6.0795C66.3464 6.68438 65.6798 5.4525 63.369 4.37552C62.5469 4.0657 61.436 3.65999 59.9769 3.16576C55.9552 1.80109 51.2891 1.90436 49.4968 2.09615C47.697 2.28794 45.9417 4.15422 45.9417 4.15422C43.4531 6.50735 41.0534 10.2473 41.0534 10.2473L41.0312 10.2251ZM72.9456 25.2438C74.2195 26.6749 70.5089 15.4846 68.9832 13.1315C67.4797 10.8153 66.8353 10.7194 65.5169 9.6719C64.7022 9.24405 63.8727 8.8531 63.0209 8.52115C58.5771 6.78028 52.9038 5.74018 49.9264 5.65166C46.949 5.56314 40.5646 10.5497 39.6684 12.0545C38.7722 13.5594 37.7797 18.8336 37.7797 18.8336C37.7797 18.8336 43.4531 11.4275 56.0885 15.0642C56.6662 15.2338 57.2366 15.4109 57.792 15.6027C57.8883 15.6322 57.9845 15.6691 58.0808 15.6986C58.6289 15.8903 59.1696 16.0895 59.6955 16.3034C59.7399 16.3182 59.777 16.3403 59.8214 16.3551C60.9472 16.8124 62.0211 17.3067 63.0284 17.8304C67.2649 20.0286 70.4867 22.7063 72.6716 24.9635C72.7456 25.0299 72.8271 25.1184 72.9382 25.2438H72.9456ZM26.559 17.9337C27.8477 17.7419 29.2327 17.7271 30.5955 18.0812C35.5578 19.35 37.0243 20.0581 37.0243 20.0581C37.0243 20.0581 36.928 15.5363 37.639 14.2232C38.35 12.9028 39.7203 12.9545 39.4833 10.6899C39.2463 8.43263 37.3576 7.82038 34.8024 8.66868C32.7508 9.34733 30.24 9.81943 29.3364 9.97434C29.1735 10.0112 29.0549 10.0333 28.9883 10.0333C28.5143 10.0333 27.4478 9.43585 27.6181 8.57279C27.6181 8.57279 27.0478 8.57279 25.9665 9.37683C24.8777 10.1809 21.1893 16.7682 20.5746 18.3689C20.3227 19.0254 20.3153 19.6893 20.382 20.2499C20.3894 20.2499 20.9819 19.8589 21.9522 19.4016C24.063 18.3615 25.6184 18.0296 26.559 17.941V17.9337ZM74.5158 28.6223C74.1232 28.0101 73.7455 27.3978 73.4271 26.8519C71.7828 24.4546 69.6793 22.3891 67.7092 21.231C63.7838 18.9221 58.4882 15.7723 47.9488 16.7608C37.4095 17.7492 37.0761 20.7663 35.8467 26.2249C35.8467 26.2249 37.802 21.0835 41.7867 19.3868C47.9488 16.7608 52.9482 20.4491 61.7396 25.7307C70.5311 31.0123 77.0192 33.8081 74.9824 29.5296C74.8491 29.2493 74.701 28.969 74.5528 28.6887C74.538 28.6666 74.5306 28.6444 74.5158 28.6297V28.6223ZM35.78 24.5283C36.2615 23.0235 36.6466 21.8432 36.6466 21.8432C36.6466 21.8432 33.01 18.5017 29.2697 18.2213C25.5369 17.941 20.7597 21.6588 20.7597 21.6588C19.1303 22.8538 18.5822 23.2817 18.3008 24.1816C16.901 27.7961 34.5283 15.5953 35.78 24.5357V24.5283Z" fill="url(#paint4_linear_3112_24732)"/>
<path style="mix-blend-mode:multiply" opacity="0.75" d="M106.941 37.8854C106.371 36.565 104.956 35.9528 104.956 35.9528C104.956 35.9528 105.237 32.7513 104.2 30.6785C103.163 28.6057 96.2089 18.2047 95.4534 18.0572C94.698 17.9171 93.4241 18.3375 93.4241 18.3375C93.4241 18.3375 93.3722 17.4818 92.6167 16.1098C90.2096 12.3256 85.0917 11.2265 79.0036 9.2127C72.9081 7.19889 67.1904 2.6623 66.1239 3.65076C65.6795 4.204 65.3388 5.1482 65.3388 5.1482C65.3388 5.1482 64.7833 4.88265 63.3465 4.33678C65.8424 5.50228 66.4275 6.84482 63.028 5.86373C59.6284 4.88265 61.5541 6.08503 63.6871 7.16938C65.8128 8.25374 67.1385 9.47825 65.9757 9.3676C64.8129 9.25695 64.0945 8.48979 65.4573 9.5889C66.8201 10.688 67.457 10.747 68.9828 13.1002C70.5085 15.4533 74.2191 26.6435 72.9452 25.2125C71.6713 23.7814 72.9674 26.1714 74.5154 28.5836C76.0633 30.9957 76.3818 34.7947 75.8412 37.9592C75.3005 41.1164 76.5595 41.3155 76.878 42.7171C77.1965 44.1186 74.3746 51.9452 74.3746 51.9452C74.3746 51.9452 74.3747 49.3118 68.5162 51.6354C62.6577 53.959 59.3469 59.1078 56.1325 63.8436C52.9181 68.5794 56.4807 68.7269 61.7467 66.1894C58.2138 67.9966 54.4365 69.4055 51.4073 69.649C44.4082 70.217 40.7197 68.7048 39.4014 66.9196C38.0756 65.1271 39.4014 66.9196 38.5496 68.1146C37.7646 69.2138 34.4168 70.0621 28.0991 67.7901C28.8916 67.8122 29.2545 67.1631 28.4324 65.0386C26.166 59.2185 15.9155 49.8355 15.6044 51.9378C15.2415 53.6713 15.8266 55.781 18.2708 59.4324C20.5742 62.8773 23.1664 65.4222 26.5512 67.1926C26.5141 67.1778 26.4771 67.1631 26.4401 67.1483C29.3286 68.6753 32.8022 69.6342 37.2239 70.0768C46.7708 71.021 74.0488 70.5489 77.5965 70.3129C81.1442 70.0768 80.7664 67.9597 80.7664 67.9597C80.7664 67.9597 83.5068 68.808 84.7881 68.4318C86.062 68.0556 95.3423 64.9058 99.4084 60.9299C105.963 54.527 108 45.2694 108 43.5728C108 41.8762 107.526 39.1911 106.963 37.8781L106.941 37.8854Z" fill="url(#paint5_linear_3112_24732)"/>
<g style="mix-blend-mode:screen" opacity="0.18">
<path d="M78.5297 38.7803C77.7742 37.7107 84.7214 38.2787 87.8025 38.7803C90.8836 39.2819 90.5059 36.619 90.1948 34.9961C89.8838 33.3733 92.6834 37.5189 92.5723 38.8393C92.4612 40.1597 86.7212 42.2326 82.9291 41.3769C79.137 40.5212 78.5297 38.7803 78.5297 38.7803Z" fill="#DB7DAF"/>
</g>
<g style="mix-blend-mode:screen" opacity="0.18">
<path d="M94.3581 38.1062C97.8318 38.7996 102.209 37.2136 103.424 35.5834C104.631 33.9532 104.823 34.1524 104.505 36.6899C104.186 39.2274 100.92 42.3404 97.9058 40.7913C94.8913 39.2422 93.3064 37.8997 94.3581 38.1062Z" fill="#DB7DAF"/>
</g>
<g style="mix-blend-mode:screen" opacity="0.18">
<path d="M87.3583 48.2665C89.2321 47.0494 88.3656 58.4388 92.2096 60.6371C96.0535 62.8353 97.4459 61.9943 94.3575 62.9828C91.269 63.9639 85.2105 64.7163 82.5664 61.8984C79.9222 59.0732 84.0847 50.4131 87.3583 48.2739V48.2665Z" fill="#DB7DAF"/>
</g>
<g style="mix-blend-mode:screen" opacity="0.43">
<path d="M40.7129 11.4704C41.5202 13.0785 46.3863 11.8171 51.993 10.0098C57.5996 8.20255 64.9543 11.0056 63.7174 9.64836C62.4806 8.29107 53.5039 5.59862 49.4081 6.08547C45.3123 6.57232 40.3945 10.8434 40.7129 11.4704Z" fill="#DB7DAF"/>
</g>
<g style="mix-blend-mode:screen" opacity="0.43">
<path d="M47.8301 17.1201C46.9265 17.2898 54.0737 21.0813 58.2954 21.5165C62.5171 21.9518 68.7829 22.7853 65.5907 20.6313C62.3912 18.4774 55.6439 15.6227 47.8301 17.1127V17.1201Z" fill="#DB7DAF"/>
</g>
<g style="mix-blend-mode:screen" opacity="0.43">
<path d="M24.7681 19.7707C23.4646 20.8551 30.1748 20.3387 32.2708 20.2355C34.3669 20.1322 28.738 16.4513 24.7681 19.7707Z" fill="#DB7DAF"/>
</g>
<g style="mix-blend-mode:screen" opacity="0.43">
<path d="M34.2168 12.6653C32.5208 13.4103 31.432 11.0351 29.9211 11.0941C28.4176 11.1605 23.9811 14.8266 24.233 13.0415C24.4922 11.249 26.5215 8.409 27.1511 9.27944C27.7806 10.1499 28.0547 10.5261 31.1506 9.72941C34.2465 8.93274 38.1423 7.42792 38.3052 9.27944C38.3867 10.2163 35.787 11.9719 34.2095 12.6653H34.2168Z" fill="#DB7DAF"/>
</g>
<g style="mix-blend-mode:screen" opacity="0.43">
<path d="M46.1948 4.31374C45.8837 4.85223 47.9056 4.85223 50.4016 3.52444C52.8976 2.19666 58.2969 2.94907 56.2601 2.6245C54.2233 2.29993 47.9871 1.21557 46.1874 4.32111L46.1948 4.31374Z" fill="#DB7DAF"/>
</g>
<g style="mix-blend-mode:screen" opacity="0.43">
<path d="M30.8776 5.63607C31.8108 6.16718 37.8248 6.15243 40.38 4.41156C42.9352 2.67068 42.9278 2.75183 43.8759 2.90674C44.8239 3.06164 42.4242 1.815 40.143 2.16908C37.8618 2.53053 30.1888 5.23773 30.8776 5.63607Z" fill="#DB7DAF"/>
</g>
<g style="mix-blend-mode:screen" opacity="0.18">
<path d="M78.7826 16.7072C78.8493 15.4753 88.3666 21.2659 89.8775 21.2069C91.3884 21.1405 90.0701 23.5305 86.0928 24.4747C82.1155 25.4189 78.6567 18.9939 78.7826 16.7145V16.7072Z" fill="#DB7DAF"/>
</g>
<g style="mix-blend-mode:screen" opacity="0.18">
<path d="M91.958 30.2604C91.9506 31.6914 97.5498 27.4204 97.3795 25.8492C97.2092 24.278 92.0247 19.9774 91.958 30.2604Z" fill="#DB7DAF"/>
</g>
<g style="mix-blend-mode:screen" opacity="0.18">
<path d="M70.3158 5.12832C68.8716 3.84479 75.6411 5.68894 77.3446 6.53724C79.048 7.38555 89.9208 12.7631 83.9734 10.8304C78.026 8.89037 71.9897 6.62576 70.3084 5.13569L70.3158 5.12832Z" fill="#DB7DAF"/>
</g>
<g style="mix-blend-mode:multiply" opacity="0.37">
<path d="M58.7547 60.0522C56.7994 62.7152 70.531 58.1122 71.8493 53.9666C73.1751 49.8209 66.0797 50.057 58.7547 60.0522Z" fill="#DB7DAF"/>
</g>
<g style="mix-blend-mode:multiply" opacity="0.37">
<path d="M17.0719 52.0944C15.3684 50.8404 17.6422 58.2981 20.9158 60.0611C24.1969 61.8241 27.4409 63.1298 25.3449 60.0611C23.2488 56.9925 20.4788 54.6098 17.0719 52.0944Z" fill="#DB7DAF"/>
</g>
<path d="M45.3125 7.96097C45.3125 7.96097 51.5932 9.5912 54.2521 6.69958C54.2521 6.69958 48.5269 4.88494 45.3125 7.96097Z" fill="white"/>
<path d="M31.1582 9.72872C31.1582 9.72872 35.9798 10.7541 37.7796 8.91729C37.7796 8.91729 38.2758 7.50837 31.1582 9.72872Z" fill="white"/>
<path d="M38.3203 2.60311C38.3203 2.60311 40.4089 4.59479 42.2309 2.10151C42.2309 2.10151 40.209 2.02036 38.3203 2.60311Z" fill="white"/>
<path style="mix-blend-mode:multiply" opacity="0.75" d="M106.941 37.8878C106.371 36.5674 104.956 35.9551 104.956 35.9551C104.06 42.2621 97.5349 42.2621 94.8834 39.2451C92.2393 36.2207 91.0542 34.2585 92.5207 37.7476C93.9872 41.2368 82.8775 43.1178 80.8037 41.4359C78.7299 39.7614 79.0039 40.1008 76.6931 44.4382L76.7376 44.8955C76.7376 44.8955 76.5672 45.3898 76.2339 46.2307C75.6636 48.2298 74.8934 50.4796 74.5527 51.4533C79.1077 60.9101 94.7575 61.9723 103.608 55.5916C106.867 50.2583 107.993 44.8291 107.993 43.5751C107.993 41.8785 107.519 39.1934 106.956 37.8804L106.941 37.8878Z" fill="url(#paint6_linear_3112_24732)"/>
<g style="mix-blend-mode:multiply" opacity="0.68">
<path d="M19.5093 35.3845C19.5093 35.3845 19.45 35.414 19.4278 35.4214C17.7465 36.0337 16.7393 33.6289 16.7393 33.6289C16.7763 34.5215 16.7393 35.2075 16.7541 35.6796C16.7689 35.8861 16.7911 36.0632 16.8207 36.2107C16.9911 36.7492 17.591 36.4836 19.5019 35.3845H19.5093Z" fill="#DB7DAF"/>
</g>
<g style="mix-blend-mode:multiply" opacity="0.68">
<path d="M29.3948 32.7C26.4174 31.6525 23.7807 32.8918 21.8477 34.0352C27.7358 30.6715 32.3648 36.6465 34.5719 40.7552C34.2238 39.302 33.0166 33.9688 29.3948 32.7Z" fill="#DB7DAF"/>
</g>
<g style="mix-blend-mode:multiply" opacity="0.68">
<path d="M50.904 36.0775C48.4673 36.9479 45.6232 38.4454 43.0605 39.9354C53.3333 35.6054 58.2068 36.557 61.7396 38.1503C58.2808 36.2988 54.2073 34.8899 50.904 36.0701V36.0775Z" fill="#DB7DAF"/>
</g>
<g style="mix-blend-mode:screen" opacity="0.21">
<path d="M42.3644 41.2056C39.624 42.8063 61.6509 40.4016 64.3616 41.2056C67.0724 42.0097 56.2293 33.1135 42.3644 41.2056Z" fill="#DB7DAF"/>
</g>
<g style="mix-blend-mode:screen" opacity="0.21">
<path d="M20.0488 35.8935C19.0341 36.8672 29.144 37.4057 31.7733 40.2605C34.4025 43.1152 32.9657 37.0516 29.3143 35.0526C25.6629 33.0535 22.7596 33.2896 20.0488 35.8861V35.8935Z" fill="#DB7DAF"/>
</g>
<g style="mix-blend-mode:multiply">
<path d="M33.4099 61.3145C32.2249 60.2301 35.1134 59.5736 38.3723 59.8097C41.6311 60.0457 45.7935 60.6506 46.3638 61.9046C46.9341 63.1586 42.1125 63.7709 39.224 63.2988C36.3429 62.8267 33.7728 61.6538 33.4099 61.3219V61.3145Z" fill="#A783B6"/>
</g>
<g style="mix-blend-mode:multiply" opacity="0.68">
<path d="M19.6709 47.1875C19.6709 47.1875 24.0999 51.9011 26.4182 52.4618C28.7364 53.0298 31.1953 51.4954 31.8619 50.4775C32.5359 49.4595 19.6709 47.1875 19.6709 47.1875Z" fill="#A783B6"/>
</g>
<g style="mix-blend-mode:multiply" opacity="0.68">
<path d="M44.6318 50.3398C44.6318 50.3398 46.1872 53.5929 49.5201 54.965C52.8456 56.3296 61.3038 53.9101 64.1182 51.4463C64.1182 51.4463 56.3489 52.4717 52.2309 51.9553C48.1129 51.4389 44.6318 50.3472 44.6318 50.3472V50.3398Z" fill="#A783B6"/>
</g>
<path d="M44.5718 49.4146C45.0162 49.3851 52.9263 50.6391 59.0736 50.7866C62.9546 50.8825 63.1324 50.8383 64.4285 50.8383C65.4654 50.8383 61.6585 53.302 57.8738 53.9364C54.9482 54.4233 50.06 55.1831 47.601 53.2725C45.1421 51.362 43.7497 49.4736 44.5718 49.4146Z" fill="#4C2951"/>
<path d="M23.293 47.5647C28.5887 48.6933 31.7068 48.413 32.5289 48.5384C33.351 48.6638 31.455 51.9316 29.0923 52.116C26.7297 52.3005 22.3672 49.3793 20.3749 47.786C18.5159 46.2959 19.3232 46.7164 23.293 47.5647Z" fill="#4C2951"/>
<g style="mix-blend-mode:multiply">
<path d="M37.5057 62.93C38.9277 61.8014 42.0458 60.4367 45.7565 61.3071C44.3641 60.4514 41.0682 60.0088 38.3723 59.8097C35.1134 59.5736 32.2249 60.2301 33.4099 61.3145C33.6988 61.5801 35.38 62.3767 37.5057 62.9226V62.93Z" fill="#A783B6"/>
</g>
<g style="mix-blend-mode:screen" opacity="0.25">
<path d="M38.8983 62.3974C38.3058 62.8105 44.3346 61.94 45.3271 61.6081C46.3196 61.2761 41.735 60.4204 38.8983 62.3974Z" fill="#DB7DAF"/>
</g>
<g style="mix-blend-mode:multiply" opacity="0.82">
<path d="M57.8664 53.9384C61.2882 53.3704 64.7321 51.2976 64.5766 50.914C64.3396 50.8845 64.0804 50.8624 63.7916 50.8477C63.3842 50.8477 63.0065 50.855 62.3917 50.8477C56.0888 51.0763 48.8231 53.8868 46.416 52.2787C46.7715 52.6033 47.1715 52.9352 47.6011 53.2672C50.06 55.1777 54.9483 54.4179 57.8738 53.9311L57.8664 53.9384Z" fill="#DB7DAF"/>
</g>
<g style="mix-blend-mode:multiply" opacity="0.82">
<path d="M20.3834 47.785C22.3757 49.3857 26.7381 52.3068 29.1008 52.115C30.034 52.0412 30.8857 51.488 31.5301 50.8389C29.2563 52.5502 24.8791 48.2349 21.6277 47.1948C19.1465 46.6342 18.8206 46.5309 20.3834 47.785Z" fill="#DB7DAF"/>
</g>
<path style="mix-blend-mode:screen" opacity="0.43" d="M33.4111 61.3125C33.4111 61.3125 36.6922 64.5582 39.4474 64.6098C42.2026 64.6541 45.3948 62.928 45.3948 62.928C45.3948 62.928 39.6548 64.8975 33.4111 61.3199V61.3125Z" fill="url(#paint7_linear_3112_24732)"/>
<path opacity="0.51" d="M7.12442 25.1916C6.83557 25.1916 6.55413 25.0809 6.33934 24.8744C6.02086 24.5572 5.92456 24.0777 6.09491 23.6646L8.05023 19.0026L5.30242 20.5591C4.76915 20.8615 4.08777 20.6771 3.79152 20.146C3.48785 19.6149 3.67301 18.9362 4.20628 18.6338L9.78331 15.4766C10.1981 15.2406 10.7091 15.2996 11.072 15.6094C11.4275 15.9266 11.5461 16.4282 11.3609 16.8634L9.20563 21.9901L12.8274 20.4411C13.3902 20.1976 14.042 20.4632 14.2864 21.0238C14.5309 21.5844 14.2642 22.2336 13.7014 22.477L7.55396 25.1031C7.41324 25.1621 7.26514 25.1916 7.11701 25.1916H7.12442Z" fill="#738DCF"/>
<path opacity="0.51" d="M10.7987 11.9634C10.5543 11.9634 10.3247 11.8454 10.1766 11.6462C10.0063 11.4028 9.98405 11.0856 10.1248 10.8274L11.2506 8.79887L9.95443 9.08656C9.53967 9.17508 9.13228 8.9169 9.036 8.50381C8.94712 8.09072 9.20637 7.68501 9.62113 7.58912L12.5911 6.92522C12.8874 6.85884 13.1911 6.96948 13.3762 7.21291C13.554 7.45634 13.5762 7.78091 13.4354 8.03909L12.2652 10.1414L13.7984 9.8611C14.2131 9.77996 14.6131 10.0603 14.6945 10.4734C14.7686 10.8864 14.4945 11.2848 14.0798 11.3659L10.9469 11.9413C10.9024 11.9487 10.8506 11.956 10.8061 11.956L10.7987 11.9634Z" fill="#738DCF"/>
<path opacity="0.51" d="M2.03591 6.7719C1.7915 6.7719 1.54706 6.67601 1.3619 6.49897C1.08045 6.22604 0.991578 5.82032 1.1323 5.45887L1.96923 3.32704L1.48043 3.62948C1.02863 3.90979 0.428675 3.77701 0.14723 3.32704C-0.134215 2.87707 -0.000873559 2.27957 0.45092 1.99926L3.4135 0.147739C3.76901 -0.0735585 4.22078 -0.0440519 4.54666 0.221505C4.86514 0.487062 4.98365 0.929656 4.82811 1.31324L3.76158 4.04257L5.44286 3.3418C5.93909 3.13525 6.502 3.36392 6.70938 3.85816C6.91676 4.34501 6.68715 4.91301 6.19092 5.11955L2.40623 6.70551C2.28773 6.75715 2.16181 6.77928 2.0285 6.77928L2.03591 6.7719Z" fill="#738DCF"/>
<path d="M74.6635 16.7868L7.91309 14.4844L7.75609 18.9752L74.5065 21.2777L74.6635 16.7868Z" fill="url(#paint8_linear_3112_24732)"/>
<path style="mix-blend-mode:multiply" d="M10.3369 19.0586L10.2482 21.5925L12.7914 21.6801L12.7027 24.214L15.2876 24.3031L15.1989 26.837L17.7421 26.9247L17.6534 29.4586L32.2037 29.9599L32.2923 27.426L34.8772 27.5151L34.9658 24.9812L37.509 25.0688L37.5977 22.5349L37.6863 20.001L10.3369 19.0586Z" fill="url(#paint9_linear_3112_24732)"/>
<path style="mix-blend-mode:multiply" d="M44.6934 20.2461L44.6047 22.78L44.516 25.3139L47.0592 25.4015L46.9705 27.9354L49.5554 28.0245L49.4667 30.5584L64.0586 31.0613L64.1473 28.5273L66.6905 28.615L66.7791 26.0811L69.2389 26.1658L69.3276 23.6319L71.9958 23.7239L72.0845 21.19L44.6934 20.2461Z" fill="url(#paint10_linear_3112_24732)"/>
<path d="M22.8388 24.5603L20.2959 24.4727L20.2072 27.006L22.7502 27.0936L22.8388 24.5603Z" fill="#F2F4F6"/>
<path d="M20.3799 21.9431L17.8369 21.8555L17.7483 24.3888L20.2912 24.4765L20.3799 21.9431Z" fill="#F2F4F6"/>
<path d="M17.9287 19.322L15.3857 19.2344L15.2971 21.7678L17.84 21.8554L17.9287 19.322Z" fill="#F2F4F6"/>
<path d="M27.9228 24.7361L25.3799 24.6484L25.2912 27.1818L27.8342 27.2694L27.9228 24.7361Z" fill="#F2F4F6"/>
<path d="M25.4687 22.1189L22.9258 22.0312L22.8371 24.5646L25.3801 24.6522L25.4687 22.1189Z" fill="#F2F4F6"/>
<path d="M23.0156 19.4978L20.4727 19.4102L20.384 21.9435L22.9269 22.0312L23.0156 19.4978Z" fill="#F2F4F6"/>
<path d="M55.0635 25.6775L52.5205 25.5898L52.4318 28.1232L54.9748 28.2108L55.0635 25.6775Z" fill="#F2F4F6"/>
<path d="M52.6103 23.0564L50.0674 22.9688L49.9787 25.5021L52.5217 25.5897L52.6103 23.0564Z" fill="#F2F4F6"/>
<path d="M50.1582 20.4353L47.6152 20.3477L47.5266 22.881L50.0695 22.9687L50.1582 20.4353Z" fill="#F2F4F6"/>
<path d="M60.1543 25.8532L57.6113 25.7656L57.5227 28.299L60.0656 28.3866L60.1543 25.8532Z" fill="#F2F4F6"/>
<path d="M57.7021 23.2321L55.1592 23.1445L55.0705 25.6779L57.6135 25.7655L57.7021 23.2321Z" fill="#F2F4F6"/>
<path d="M55.2402 20.6111L52.6973 20.5234L52.6086 23.0568L55.1516 23.1444L55.2402 20.6111Z" fill="#F2F4F6"/>
<g style="mix-blend-mode:soft-light">
<path d="M32.2958 27.4262L32.1709 27.4219L32.0824 29.9549L32.2072 29.9592L32.2958 27.4262Z" fill="#DBDDDB"/>
</g>
<g style="mix-blend-mode:soft-light">
<path d="M64.1532 28.5277L64.0283 28.5234L63.9398 31.0565L64.0647 31.0608L64.1532 28.5277Z" fill="#DBDDDB"/>
</g>
<g style="mix-blend-mode:soft-light">
<path d="M66.7811 26.0824L66.6562 26.0781L66.5677 28.6112L66.6926 28.6155L66.7811 26.0824Z" fill="#DBDDDB"/>
</g>
<g style="mix-blend-mode:soft-light">
<path d="M69.3309 23.6332L69.2061 23.6289L69.1175 26.162L69.2424 26.1663L69.3309 23.6332Z" fill="#DBDDDB"/>
</g>
<g style="mix-blend-mode:soft-light">
<path d="M34.9676 24.9809L34.8428 24.9766L34.7542 27.5096L34.8791 27.5139L34.9676 24.9809Z" fill="#DBDDDB"/>
</g>
<g style="mix-blend-mode:soft-light">
<path d="M37.6941 20.0043L37.5693 20L37.3924 25.0661L37.5172 25.0704L37.6941 20.0043Z" fill="#DBDDDB"/>
</g>
<path d="M73.9689 16.3114L8.51046 14.0475L7.91078 14.4857L74.5366 16.7899L73.9689 16.3114Z" fill="url(#paint11_linear_3112_24732)"/>
<defs>
<linearGradient id="paint0_linear_3112_24732" x1="81.8109" y1="100.122" x2="81.8109" y2="81.8649" gradientUnits="userSpaceOnUse">
<stop offset="0.3" stop-color="white"/>
<stop offset="1" stop-color="#DB7DAF"/>
</linearGradient>
<linearGradient id="paint1_linear_3112_24732" x1="30.9519" y1="96.4123" x2="30.9519" y2="77.8602" gradientUnits="userSpaceOnUse">
<stop offset="0.3" stop-color="white"/>
<stop offset="1" stop-color="#DB7DAF"/>
</linearGradient>
<linearGradient id="paint2_linear_3112_24732" x1="41.861" y1="-3.34105" x2="69.6912" y2="67.9194" gradientUnits="userSpaceOnUse">
<stop stop-color="#BDBDFF"/>
<stop offset="0.84" stop-color="#728CCE"/>
</linearGradient>
<radialGradient id="paint3_radial_3112_24732" cx="0" cy="0" r="1" gradientUnits="userSpaceOnUse" gradientTransform="translate(48.4296 45.5735) scale(30.3664 11.2124)">
<stop stop-color="#DB7DAF"/>
<stop offset="0.32" stop-color="#E5A3C6"/>
<stop offset="1" stop-color="white"/>
</radialGradient>
<linearGradient id="paint4_linear_3112_24732" x1="18.2193" y1="16.7829" x2="75.3527" y2="16.7829" gradientUnits="userSpaceOnUse">
<stop/>
<stop offset="1" stop-color="#DB7DAF"/>
</linearGradient>
<linearGradient id="paint5_linear_3112_24732" x1="33.8465" y1="66.7869" x2="108.592" y2="12.5329" gradientUnits="userSpaceOnUse">
<stop stop-color="white"/>
<stop offset="0.14" stop-color="#FEFCFD"/>
<stop offset="0.22" stop-color="#FCF4F8"/>
<stop offset="0.28" stop-color="#F8E6EF"/>
<stop offset="0.34" stop-color="#F2D1E3"/>
<stop offset="0.4" stop-color="#EBB7D3"/>
<stop offset="0.44" stop-color="#E298BF"/>
<stop offset="0.48" stop-color="#DB7DAF"/>
<stop offset="0.84" stop-color="white"/>
</linearGradient>
<linearGradient id="paint6_linear_3112_24732" x1="91.2691" y1="59.6339" x2="91.2691" y2="35.8961" gradientUnits="userSpaceOnUse">
<stop offset="0.3" stop-color="white"/>
<stop offset="1" stop-color="#DB7DAF"/>
</linearGradient>
<linearGradient id="paint7_linear_3112_24732" x1="33.4111" y1="62.9649" x2="45.3948" y2="62.9649" gradientUnits="userSpaceOnUse">
<stop/>
<stop offset="0.1" stop-color="#2E1A25"/>
<stop offset="0.3" stop-color="#8A4F6E"/>
<stop offset="0.44" stop-color="#C4709D"/>
<stop offset="0.51" stop-color="#DB7DAF"/>
<stop offset="1"/>
</linearGradient>
<linearGradient id="paint8_linear_3112_24732" x1="41.3033" y1="15.8026" x2="41.1542" y2="20.1272" gradientUnits="userSpaceOnUse">
<stop/>
<stop offset="1" stop-color="#161719"/>
</linearGradient>
<linearGradient id="paint9_linear_3112_24732" x1="23.6584" y1="29.6239" x2="24.0077" y2="19.4881" gradientUnits="userSpaceOnUse">
<stop stop-color="#787A87"/>
<stop offset="1" stop-color="#161719"/>
</linearGradient>
<linearGradient id="paint10_linear_3112_24732" x1="60.3575" y1="-34.9441" x2="60.3575" y2="-34.9441" gradientUnits="userSpaceOnUse">
<stop stop-color="#787A87"/>
<stop offset="1" stop-color="#161719"/>
</linearGradient>
<linearGradient id="paint11_linear_3112_24732" x1="41.2397" y1="15.1795" x2="41.2238" y2="15.6378" gradientUnits="userSpaceOnUse">
<stop stop-color="#4E4F58"/>
<stop offset="0.04" stop-color="#A4A7B8"/>
<stop offset="0.84" stop-color="#4E4F58"/>
<stop offset="1" stop-color="#1E1E1E"/>
</linearGradient>
</defs>
</svg>
