<svg width="22" height="24" viewBox="0 0 22 24" fill="none" xmlns="http://www.w3.org/2000/svg">
<path d="M11.0002 9.9998C9.89559 9.9998 9.00016 10.8952 9.00016 11.9998C9.00016 13.1044 9.89559 13.9998 11.0002 13.9998C12.1047 13.9998 13.0002 13.1044 13.0002 11.9998C13.0002 10.8952 12.1047 9.9998 11.0002 9.9998Z" fill="#6E81EE"/>
<path fill-rule="evenodd" clip-rule="evenodd" d="M8.40016 0.849849C8.64869 0.518478 9.11879 0.451321 9.45016 0.699849L11.0002 1.86235L12.5502 0.699849C12.8815 0.451321 13.3516 0.518478 13.6002 0.849849C13.8487 1.18122 13.7815 1.65132 13.4502 1.89985L12.3556 2.7208C12.4274 2.78732 12.4955 2.86013 12.5591 2.93921L14.21 4.99318C14.5228 5.38233 14.9698 5.64041 15.4632 5.71672L18.0674 6.11947C18.2726 6.15119 18.4644 6.2124 18.6398 6.29779L18.9288 4.85271C19.01 4.44654 19.4051 4.18313 19.8113 4.26436C20.2175 4.3456 20.4809 4.74072 20.3997 5.14689L20.012 7.08516L21.4996 7.82898C21.8701 8.01422 22.0203 8.46473 21.835 8.83521C21.6498 9.20569 21.1993 9.35586 20.8288 9.17062L19.6964 8.60441C19.6773 8.67637 19.654 8.74816 19.6263 8.81951L18.673 11.2762C18.4924 11.7417 18.4924 12.2578 18.673 12.7233L19.6263 15.18C19.654 15.2514 19.6773 15.3232 19.6964 15.3952L20.8288 14.829C21.1993 14.6437 21.6498 14.7939 21.835 15.1644C22.0203 15.5349 21.8701 15.9854 21.4996 16.1706L20.012 16.9144L20.3997 18.8527C20.4809 19.2589 20.2175 19.654 19.8113 19.7352C19.4051 19.8165 19.01 19.5531 18.9288 19.1469L18.6398 17.7017C18.4643 17.7871 18.2726 17.8483 18.0674 17.8801L15.4632 18.2828C14.9698 18.3591 14.5228 18.6172 14.21 19.0063L12.5591 21.0603C12.4867 21.1504 12.4084 21.2324 12.3253 21.3062L13.4502 22.1498C13.7815 22.3983 13.8487 22.8684 13.6002 23.1998C13.3516 23.5312 12.8815 23.5983 12.5502 23.3498L11.0002 22.1873L9.45016 23.3498C9.11879 23.5983 8.64869 23.5312 8.40016 23.1998C8.15164 22.8684 8.21879 22.3983 8.55016 22.1498L9.67507 21.3061C9.59201 21.2323 9.51375 21.1504 9.44135 21.0603L7.79043 19.0063C7.47765 18.6172 7.03063 18.3591 6.53723 18.2828L3.93298 17.8801C3.72888 17.8485 3.53796 17.7877 3.36325 17.703L3.07447 19.1469C2.99323 19.5531 2.59811 19.8165 2.19194 19.7352C1.78577 19.654 1.52236 19.2589 1.6036 18.8527L1.99125 16.9144L0.503621 16.1706C0.133137 15.9854 -0.0170308 15.5349 0.168211 15.1644C0.353453 14.7939 0.803958 14.6437 1.17444 14.829L2.30435 15.3939C2.32337 15.3224 2.34658 15.251 2.37411 15.18L3.32745 12.7233C3.50806 12.2579 3.50806 11.7417 3.32745 11.2762L2.37411 8.81951C2.34659 8.74857 2.32339 8.6772 2.30436 8.60566L1.17444 9.17062C0.803958 9.35586 0.353453 9.20569 0.168211 8.83521C-0.0170308 8.46473 0.133137 8.01422 0.503621 7.82898L1.99125 7.08516L1.6036 5.14689C1.52236 4.74072 1.78577 4.3456 2.19194 4.26436C2.59811 4.18313 2.99323 4.44654 3.07447 4.85271L3.36323 6.29654C3.53795 6.2118 3.72888 6.15103 3.93298 6.11947L6.53723 5.71672C7.03063 5.64041 7.47765 5.38233 7.79043 4.99318L9.44135 2.93922C9.5049 2.86015 9.57296 2.78736 9.64482 2.72084L8.55016 1.89985C8.21879 1.65132 8.15164 1.18122 8.40016 0.849849ZM7.00016 11.9998C7.00016 9.79066 8.79103 7.9998 11.0002 7.9998C13.2093 7.9998 15.0002 9.79066 15.0002 11.9998C15.0002 14.2089 13.2093 15.9998 11.0002 15.9998C8.79103 15.9998 7.00016 14.2089 7.00016 11.9998Z" fill="#6E81EE"/>
</svg>
